<?xml version="1.0" encoding="UTF-8"?>
<svg id="Layer_1" xmlns="http://www.w3.org/2000/svg" version="1.1" viewBox="0 0 280 55.2">
  <!-- Generator: Adobe Illustrator 30.0.0, SVG Export Plug-In . SVG Version: 2.1.1 Build 123)  -->
  <defs>
    <style>
      .st0 {
        fill: none;
        stroke: #32373e;
        stroke-miterlimit: 10;
        stroke-width: 2px;
      }

      .st1 {
        fill: #32373e;
      }

      .st2 {
        fill: #fff;
      }
    </style>
  </defs>
  <g>
    <path class="st2" d="M53.03,43.44v-5.81h2.27c1.22,0,2.11.7,2.11,1.91s-.9,1.92-2.11,1.92h-1.66v1.99h-.62,0ZM53.64,38.19v2.7h1.76c.95,0,1.39-.4,1.39-1.35s-.44-1.34-1.39-1.34h-1.76Z"/>
    <path class="st2" d="M57.73,41.3c0-1.3.83-2.23,2.08-2.23s2.05.93,2.05,2.23-.8,2.23-2.05,2.23-2.08-.93-2.08-2.23ZM61.26,41.3c0-1.06-.41-1.67-1.44-1.67s-1.47.6-1.47,1.67.41,1.68,1.47,1.68,1.44-.6,1.44-1.68Z"/>
    <path class="st2" d="M63.17,43.44l-1.1-4.29h.66l.68,2.8.17.93h.06l.29-.93.98-2.8h.83l1,2.8.27.93h.06l.17-.93.68-2.8h.64l-1.1,4.29h-.82l-.96-2.71-.32-1.02h-.06l-.32,1.02-.97,2.71h-.84Z"/>
    <path class="st2" d="M68.74,41.3c0-1.3.77-2.23,1.99-2.23,1.03,0,1.88.63,1.88,1.89,0,.2-.02.39-.04.51h-3.25c.02.95.4,1.5,1.42,1.5.87,0,1.22-.39,1.22-.91v-.06h.62v.06c0,.83-.75,1.46-1.84,1.46-1.32,0-2-.93-2-2.23h0ZM69.33,41.02h2.7c.03-1.02-.47-1.41-1.31-1.41-.95,0-1.33.55-1.39,1.41Z"/>
    <path class="st2" d="M73.42,43.44v-4.34h.56v.72h.04c.14-.4.56-.75,1.19-.75.88,0,1.22.64,1.22,1.37v.25h-.63v-.15c0-.67-.21-.93-.83-.93-.67,0-.95.3-.95,1v2.84h-.63.03Z"/>
    <path class="st2" d="M76.9,41.3c0-1.3.77-2.23,1.99-2.23,1.03,0,1.88.63,1.88,1.89,0,.2-.02.39-.04.51h-3.25c.02.95.4,1.5,1.42,1.5.87,0,1.22-.39,1.22-.91v-.06h.62v.06c0,.83-.75,1.46-1.84,1.46-1.32,0-2-.93-2-2.23h0ZM77.49,41.02h2.7c.03-1.02-.47-1.41-1.31-1.41-.95,0-1.33.55-1.39,1.41Z"/>
    <path class="st2" d="M81.44,41.3c0-1.36.64-2.23,1.81-2.23.83,0,1.35.44,1.53.91v-2.34h.63v5.81h-.56v-.83h-.03c-.19.54-.69.91-1.5.91-1.21,0-1.88-.87-1.88-2.23ZM83.44,42.99c.85,0,1.37-.44,1.37-1.32v-.74c0-.88-.51-1.33-1.37-1.33s-1.37.38-1.37,1.69.51,1.69,1.37,1.69h0Z"/>
    <path class="st2" d="M87.99,43.44v-5.81h.63v2.34c.19-.47.72-.91,1.55-.91,1.18,0,1.8.87,1.8,2.23s-.67,2.23-1.87,2.23c-.81,0-1.32-.37-1.51-.91h-.02v.83h-.58ZM90,42.99c.84,0,1.35-.38,1.35-1.69s-.52-1.69-1.35-1.69-1.37.44-1.37,1.33v.74c0,.87.52,1.32,1.37,1.32h0Z"/>
    <path class="st2" d="M92.54,44.85v-.5h.48c.39,0,.52-.08.68-.41l.25-.56-1.84-4.22h.68l1.01,2.39.45,1.05h.06l.43-1.05.95-2.39h.68l-2.09,4.97c-.28.65-.68.79-1.15.79-.21,0-.44-.03-.56-.06h-.03Z"/>
    <path class="st2" d="M98.88,42.23v-2.53h-.72v-.54h.73l.15-1.1h.47v1.1h1.35v.54h-1.35v2.57c0,.5.24.62.79.62h.56v.5c-.15.02-.41.07-.73.07-.79,0-1.25-.31-1.25-1.22h0Z"/>
    <path class="st2" d="M101.51,43.44v-5.81h.63v2.33h.03c.17-.41.6-.88,1.48-.88,1.12,0,1.6.75,1.6,1.72v2.64h-.62v-2.49c0-.93-.31-1.33-1.18-1.33s-1.31.4-1.31,1.37v2.46h-.63Z"/>
    <path class="st2" d="M106.05,41.3c0-1.3.77-2.23,1.99-2.23,1.03,0,1.88.63,1.88,1.89,0,.2-.02.39-.04.51h-3.25c.02.95.4,1.5,1.42,1.5.87,0,1.22-.39,1.22-.91v-.06h.62v.06c0,.83-.75,1.46-1.84,1.46-1.32,0-2-.93-2-2.23h0ZM106.65,41.02h2.7c.03-1.02-.47-1.41-1.31-1.41-.95,0-1.33.55-1.39,1.41Z"/>
    <path class="st2" d="M112.59,43.44v-5.81h.94v5.81h-.94Z"/>
    <path class="st2" d="M114.3,40.53c0-1.81,1.02-2.99,2.72-2.99,1.56,0,2.51.87,2.51,2.26v.06h-1v-.06c0-.95-.44-1.37-1.53-1.37-1.21,0-1.69.58-1.69,2.09s.48,2.09,1.69,2.09c1.1,0,1.53-.41,1.53-1.37v-.06h1v.06c0,1.4-.95,2.26-2.51,2.26-1.69,0-2.72-1.18-2.72-2.99v.02Z"/>
    <path class="st2" d="M120.15,40.53c0-1.81,1.06-2.99,2.72-2.99s2.71,1.18,2.71,2.99-1.06,2.99-2.71,2.99-2.72-1.18-2.72-2.99ZM124.57,40.53c0-1.51-.5-2.09-1.71-2.09s-1.72.58-1.72,2.09.51,2.09,1.72,2.09,1.71-.58,1.71-2.09Z"/>
    <path class="st2" d="M126.32,43.44v-5.81h1.01l2.21,3.34.62.93h.07v-4.26h.94v5.81h-1.01l-2.19-3.28-.64-.95h-.06v4.22h-.95Z"/>
    <path class="st2" d="M133.74,43.44v-5.81h1.33l1.33,3.19.51,1.39h.07l.5-1.39,1.3-3.19h1.33v5.81h-.93v-3.44l.03-.97h-.06l-.37.97-1.3,3.09h-1.13l-1.31-3.09-.35-.97h-.08l.06.97v3.44h-.94.02-.01Z"/>
    <path class="st2" d="M140.8,41.28c0-1.33.8-2.24,2.08-2.24,1.16,0,1.98.69,1.98,1.87,0,.22-.02.46-.06.59h-3.13c.03.79.32,1.19,1.22,1.19.72,0,1-.25,1-.64v-.07h.93v.08c0,.88-.77,1.46-1.94,1.46-1.42,0-2.09-.91-2.09-2.25h.01ZM141.69,40.88h2.28c.03-.74-.37-1.05-1.1-1.05-.82,0-1.13.38-1.18,1.05h0Z"/>
    <path class="st2" d="M145.9,42.11v-2.21h-.72v-.78h.74l.2-1.06h.72v1.06h1.3v.78h-1.3v2.16c0,.45.19.53.77.53h.53v.76c-.18.05-.48.08-.77.08-.96,0-1.47-.36-1.47-1.33h0Z"/>
    <path class="st2" d="M148.81,43.44v-5.81h.94v2.22h.03c.2-.39.66-.81,1.44-.81,1.13,0,1.6.74,1.6,1.68v2.72h-.94v-2.5c0-.77-.25-1.1-1.03-1.1s-1.11.29-1.11,1.11v2.48h-.94,0Z"/>
    <path class="st2" d="M153.56,41.28c0-1.33.83-2.24,2.15-2.24s2.12.91,2.12,2.24-.79,2.25-2.12,2.25-2.15-.91-2.15-2.25ZM156.92,41.28c0-.96-.31-1.41-1.22-1.41s-1.23.44-1.23,1.41.32,1.41,1.23,1.41,1.22-.44,1.22-1.41Z"/>
    <path class="st2" d="M158.4,41.28c0-1.37.66-2.24,1.85-2.24.76,0,1.22.37,1.41.75h.02v-2.17h.93v5.81h-.86v-.71h-.03c-.21.49-.68.79-1.42.79-1.23,0-1.9-.87-1.9-2.25h0v.02ZM160.51,42.73c.76,0,1.18-.34,1.18-1.06v-.77c0-.72-.41-1.06-1.18-1.06-.83,0-1.18.38-1.18,1.44s.34,1.45,1.18,1.45Z"/>
  </g>
  <path class="st1" d="M52.29,33.91l5.03-14.48h5.9l5.01,14.48h-4.45l-.89-2.79h-5.49l-.93,2.79h-4.19,0ZM58.58,27.58h3.18l-.26-.84-1.14-3.78h-.3l-1.19,3.78-.28.84h-.01Z"/>
  <path class="st1" d="M68.65,33.91v-14.48h7.7c3.3,0,4.92,1.1,4.92,3.57,0,1.81-.97,2.91-2.96,3.09v.28c2.44.09,3.63,1.58,3.63,3.53,0,2.53-1.62,4.02-5.16,4.02h-8.13ZM72.71,24.95h3.41c.84,0,1.08-.19,1.08-.93,0-.78-.33-.93-1.17-.93h-3.33v1.86h0ZM72.71,30.26h3.91c.78,0,1.19-.1,1.19-1.06s-.37-1.1-1.19-1.1h-3.91v2.16Z"/>
  <path class="st1" d="M82.9,29.15v-.28h3.99v.17c0,1.19.43,1.43,2.37,1.43,1.53,0,1.86-.24,1.86-.87,0-.67-.21-.88-1.21-1.04l-3.15-.49c-2.94-.45-4.15-2.01-4.15-4.26,0-2.57,1.97-4.6,6.23-4.6s5.96,2.03,5.96,4.73v.37h-3.99v-.26c0-.84-.41-1.19-2.22-1.19-1.53,0-1.92.26-1.92.8,0,.45.28.65,1.12.8l3.15.56c3.07.54,4.26,2.14,4.26,4.38,0,2.53-1.73,4.71-6.07,4.71s-6.23-1.95-6.23-4.97h0Z"/>
  <path class="st1" d="M99.95,33.91v-10.82h-4.45v-3.65h12.96v3.65h-4.46v10.82h-4.06,0Z"/>
  <path class="st1" d="M109.4,33.91v-14.48h7.28c3.65,0,5.38,1.56,5.38,4.45,0,2.29-.88,3.72-3.33,3.99v.19c1.47.39,2.05,1.32,2.61,2.55l1.51,3.29h-4.73l-1.43-3c-.6-1.25-.89-1.62-2.25-1.62h-.99v4.62h-4.06.01ZM113.45,25.91h3.07c1.14,0,1.47-.33,1.47-1.47,0-1.06-.33-1.36-1.47-1.36h-3.07v2.83Z"/>
  <path class="st1" d="M122.73,33.91l5.03-14.48h5.9l5.01,14.48h-4.45l-.89-2.79h-5.49l-.93,2.79h-4.19.01ZM129.01,27.58h3.18l-.26-.84-1.14-3.78h-.3l-1.19,3.78-.28.84h0Z"/>
  <path class="st1" d="M138.37,26.68c0-4.52,2.53-7.46,7.19-7.46s6.81,2.37,6.81,5.75v.5h-4.34v-.06c0-1.67-.54-2.22-2.55-2.22s-2.75.5-2.75,3.5.67,3.5,2.75,3.5,2.55-.56,2.55-2.22v-.06h4.34v.49c0,3.38-2.22,5.75-6.81,5.75s-7.19-2.94-7.19-7.46h0Z"/>
  <path class="st1" d="M157.25,33.91v-10.82h-4.45v-3.65h12.96v3.65h-4.46v10.82h-4.06,0Z"/>
  <path class="st2" d="M170.08,26.68c0-4.52,2.53-7.46,7.19-7.46s6.81,2.37,6.81,5.75v.5h-4.34v-.06c0-1.67-.54-2.22-2.55-2.22s-2.75.5-2.75,3.5.67,3.5,2.75,3.5,2.55-.56,2.55-2.22v-.06h4.34v.49c0,3.38-2.22,5.75-6.81,5.75s-7.19-2.94-7.19-7.46h0Z"/>
  <path class="st2" d="M185.32,33.91v-14.48h7.28c3.65,0,5.38,1.56,5.38,4.45,0,2.29-.88,3.72-3.33,3.99v.19c1.47.39,2.05,1.32,2.61,2.55l1.51,3.29h-4.73l-1.43-3c-.6-1.25-.89-1.62-2.25-1.62h-.99v4.62h-4.06,0ZM189.38,25.91h3.07c1.14,0,1.47-.33,1.47-1.47,0-1.06-.33-1.36-1.47-1.36h-3.07v2.83Z"/>
  <path class="st2" d="M199.45,33.91v-14.48h11.69v3.65h-7.62v1.75h7.31v3.63h-7.31v1.79h7.62v3.65h-11.69Z"/>
  <path class="st2" d="M211.54,33.91l5.03-14.48h5.9l5.01,14.48h-4.45l-.89-2.79h-5.49l-.93,2.79h-4.19.01ZM217.83,27.58h3.18l-.26-.84-1.14-3.78h-.3l-1.19,3.78-.28.84h0Z"/>
  <path class="st2" d="M230,33.91v-10.82h-4.45v-3.65h12.96v3.65h-4.46v10.82h-4.06,0Z"/>
  <path class="st2" d="M239.44,33.91v-14.48h4.06v14.48h-4.06Z"/>
  <path class="st2" d="M248.95,33.91l-4.95-14.48h4.58l3.07,9.94h.28l3-9.94h4.58l-4.97,14.48h-5.6,0Z"/>
  <path class="st2" d="M260.01,33.91v-14.48h11.69v3.65h-7.62v1.75h7.31v3.63h-7.31v1.79h7.62v3.65h-11.69Z"/>
  <polygon class="st0" points="42.48 36.32 38.19 27.14 27.34 33.47 34.21 18.47 28.39 6.01 20.37 23.26 8.3 49.19 23.25 40.51 30.76 36.15 29.98 49.19 36.01 49.19 48.49 49.19 42.48 36.32"/>
</svg>