<?xml version="1.0" encoding="UTF-8"?>
<svg id="Layer_1" xmlns="http://www.w3.org/2000/svg" version="1.1" viewBox="0 0 180 55.21">
  <!-- Generator: Adobe Illustrator 30.0.0, SVG Export Plug-In . SVG Version: 2.1.1 Build 123)  -->
  <defs>
    <style>
      .st0, .st1, .st2 {
        fill: none;
      }

      .st3 {
        fill: #231f20;
      }

      .st1 {
        stroke-width: .5px;
      }

      .st1, .st2 {
        stroke: #221f1f;
        stroke-miterlimit: 10;
      }

      .st2 {
        stroke-width: 2px;
      }
    </style>
  </defs>
  <polygon class="st0" points="33.3 106.96 33.3 107.06 33.5 107.36 33.3 106.96"/>
  <polygon class="st0" points="33.17 107.36 33.11 107.49 33.37 107.79 33.17 107.36"/>
  <path class="st3" d="M55.05,29.76l4.82-13.85h5.65l4.79,13.85h-4.26l-.85-2.66h-5.25l-.89,2.66s-4.01,0-4.01,0ZM61.07,23.7h3.04l-.25-.81-1.1-3.62h-.29l-1.14,3.62-.27.81h0Z"/>
  <path class="st3" d="M70.7,29.76v-13.85h7.36c3.16,0,4.71,1.05,4.71,3.41,0,1.74-.93,2.79-2.83,2.96v.27c2.33.08,3.47,1.51,3.47,3.37,0,2.42-1.55,3.85-4.94,3.85h-7.78.01ZM74.58,21.18h3.27c.81,0,1.03-.19,1.03-.89,0-.75-.31-.89-1.11-.89h-3.18v1.78h0ZM74.58,26.27h3.74c.75,0,1.14-.11,1.14-1.01s-.35-1.05-1.14-1.05h-3.74v2.07h0Z"/>
  <path class="st3" d="M84.34,25.21v-.27h3.82v.17c0,1.14.41,1.36,2.27,1.36,1.47,0,1.78-.23,1.78-.83,0-.64-.2-.85-1.16-.99l-3.02-.47c-2.81-.44-3.97-1.92-3.97-4.07,0-2.46,1.88-4.4,5.95-4.4s5.71,1.94,5.71,4.52v.35h-3.82v-.25c0-.81-.39-1.14-2.13-1.14-1.47,0-1.84.25-1.84.77,0,.44.27.62,1.08.77l3.02.53c2.94.52,4.07,2.05,4.07,4.19,0,2.42-1.66,4.51-5.81,4.51s-5.95-1.86-5.95-4.76h0Z"/>
  <path class="st3" d="M100.65,29.76v-10.36h-4.26v-3.49h12.41v3.49h-4.26v10.36s-3.89,0-3.89,0Z"/>
  <path class="st3" d="M109.69,29.76v-13.85h6.96c3.49,0,5.15,1.49,5.15,4.26,0,2.19-.85,3.55-3.18,3.82v.19c1.41.37,1.96,1.26,2.5,2.44l1.45,3.14h-4.52l-1.36-2.88c-.58-1.2-.85-1.55-2.15-1.55h-.95v4.43s-3.9,0-3.9,0ZM113.57,22.11h2.94c1.1,0,1.41-.31,1.41-1.41,0-1.02-.31-1.3-1.41-1.3h-2.94v2.71Z"/>
  <path class="st3" d="M122.44,29.76l4.82-13.85h5.65l4.79,13.85h-4.26l-.85-2.66h-5.25l-.89,2.66h-4.01,0ZM128.45,23.7h3.04l-.25-.81-1.1-3.62h-.29l-1.14,3.62-.27.81h.01Z"/>
  <path class="st3" d="M137.4,22.83c0-4.32,2.42-7.13,6.88-7.13s6.51,2.27,6.51,5.5v.47h-4.16v-.06c0-1.59-.52-2.13-2.44-2.13s-2.63.47-2.63,3.35.64,3.35,2.63,3.35,2.44-.53,2.44-2.13v-.06h4.16v.47c0,3.22-2.13,5.5-6.51,5.5s-6.88-2.82-6.88-7.13Z"/>
  <path class="st3" d="M155.47,29.76v-10.36h-4.26v-3.49h12.41v3.49h-4.26v10.36h-3.89Z"/>
  <path class="st1" d="M55.68,39.81c0-4.23,2.36-6.98,6.73-6.98s6.37,2.22,6.37,5.38v.46h-4.07v-.06c0-1.55-.51-2.08-2.39-2.08s-2.57.46-2.57,3.28.63,3.28,2.57,3.28,2.39-.52,2.39-2.08v-.06h4.07v.46c0,3.15-2.08,5.38-6.37,5.38s-6.73-2.75-6.73-6.98Z"/>
  <path class="st1" d="M69.94,46.59v-13.55h6.81c3.42,0,5.04,1.46,5.04,4.17,0,2.14-.83,3.48-3.12,3.74v.18c1.38.36,1.92,1.24,2.45,2.39l1.41,3.07h-4.43l-1.33-2.81c-.57-1.17-.83-1.52-2.11-1.52h-.93v4.33h-3.8s.01,0,.01,0ZM73.74,39.1h2.87c1.08,0,1.38-.3,1.38-1.38,0-.99-.3-1.27-1.38-1.27h-2.87v2.65Z"/>
  <path class="st1" d="M83.16,46.59v-13.55h10.94v3.42h-7.14v1.64h6.84v3.4h-6.84v1.68h7.14v3.42h-10.94Z"/>
  <path class="st1" d="M94.49,46.59l4.71-13.55h5.52l4.69,13.55h-4.17l-.83-2.61h-5.13l-.87,2.61h-3.93.01ZM100.37,40.66h2.98l-.24-.79-1.07-3.54h-.28l-1.11,3.54-.27.79h-.01Z"/>
  <path class="st1" d="M111.76,46.59v-10.14h-4.17v-3.42h12.14v3.42h-4.17v10.14s-3.8,0-3.8,0Z"/>
  <path class="st1" d="M120.6,46.59v-13.55h3.8v13.55h-3.8Z"/>
  <path class="st1" d="M129.5,46.59l-4.63-13.55h4.29l2.87,9.3h.27l2.81-9.3h4.29l-4.66,13.55h-5.24,0Z"/>
  <path class="st1" d="M139.85,46.59v-13.55h10.94v3.42h-7.14v1.64h6.84v3.4h-6.84v1.68h7.14v3.42h-10.94Z"/>
  <polygon class="st2" points="44.45 34.42 40.45 25.85 30.33 31.75 36.74 17.76 31.31 6.13 23.82 22.22 12.56 46.42 26.51 38.32 33.51 34.26 32.79 46.42 38.42 46.42 50.06 46.42 44.45 34.42"/>
</svg>