<svg width="241" height="62" viewBox="0 0 241 62" fill="none" xmlns="http://www.w3.org/2000/svg">
<g clip-path="url(#clip0_2780_734)">
<path d="M69.7799 38.3799H70.9699L74.0799 46.8099H72.9199L72.0199 44.2399H68.6599L67.7499 46.8099H66.6699L69.7699 38.3799H69.7799ZM68.9799 43.3799H71.7399L70.7699 40.5499C70.5999 40.0799 70.3899 39.3599 70.3899 39.3599H70.3699C70.3699 39.3599 70.1499 40.0699 69.9799 40.5499L68.9799 43.3799Z" fill="#231F20"/>
<path d="M75.8001 41.5201H75.8201C76.2601 40.9401 76.8701 40.5801 77.7501 40.5801C79.0201 40.5801 79.8001 41.2801 79.8001 42.5401V46.8201H78.8401V42.6201C78.8401 41.8301 78.3201 41.3801 77.4601 41.3801C76.4901 41.3801 75.7901 42.0601 75.7901 43.0701V46.8201H74.8301V40.7201H75.7901V41.5201H75.8001Z" fill="#231F20"/>
<path d="M85.2698 38.3799H87.0398L90.0098 46.8099H88.2299L87.6599 45.0199H84.6199L84.0698 46.8099H82.3398L85.2798 38.3799H85.2698ZM85.0198 43.7099H87.2498L86.4998 41.2799C86.3598 40.8299 86.1599 39.9799 86.1599 39.9799H86.1398C86.1398 39.9799 85.9298 40.8299 85.7898 41.2799L85.0398 43.7099H85.0198Z" fill="#231F20"/>
<path d="M92.1498 46.0599H92.1298V46.8099H90.5898V38.3799H92.1898V41.4899H92.2299C92.5599 40.9799 93.0798 40.5899 93.9198 40.5899C95.4398 40.5899 96.5298 41.8999 96.5298 43.7899C96.5298 45.6799 95.4898 46.9899 93.9698 46.9899C93.1198 46.9899 92.5198 46.6199 92.1698 46.0599H92.1498ZM94.8898 43.7999C94.8898 42.6799 94.4399 41.8999 93.5499 41.8999C92.5399 41.8999 92.1599 42.7099 92.1599 43.8299C92.1599 44.9499 92.7098 45.6499 93.6098 45.6499C94.4398 45.6499 94.8998 44.9699 94.8998 43.7999H94.8898Z" fill="#231F20"/>
<path d="M96.8801 44.8601H98.3701C98.4801 45.5601 98.9701 45.8601 99.6901 45.8601C100.41 45.8601 100.8 45.5901 100.8 45.1601C100.8 44.5801 100.03 44.5201 99.2101 44.3601C98.1201 44.1501 97.0601 43.8501 97.0601 42.5301C97.0601 41.2101 98.1501 40.6001 99.5301 40.6001C101.12 40.6001 102.01 41.3901 102.12 42.6001H100.67C100.6 41.9501 100.19 41.7201 99.5001 41.7201C98.8701 41.7201 98.4601 41.9601 98.4601 42.3901C98.4601 42.9101 99.2601 42.9601 100.12 43.1301C101.13 43.3401 102.25 43.6301 102.25 45.0401C102.25 46.2501 101.21 46.9901 99.7001 46.9901C97.9401 46.9901 96.9601 46.1401 96.8701 44.8601H96.8801Z" fill="#231F20"/>
<path d="M102.5 40.7601H103.34V38.8701H104.91V40.7601H105.95V41.8201H104.91V45.0301C104.91 45.4801 105.16 45.6301 105.51 45.6301C105.71 45.6301 105.98 45.6201 105.98 45.6201V46.8001C105.98 46.8001 105.61 46.8201 104.98 46.8201C104.2 46.8201 103.34 46.5101 103.34 45.3701V41.8201H102.5V40.7601Z" fill="#231F20"/>
<path d="M108.31 41.7299H108.35C108.72 41.0499 109.13 40.6899 109.84 40.6899C110.02 40.6899 110.12 40.6999 110.22 40.7399V42.1399H110.18C109.13 42.0299 108.38 42.5899 108.38 43.8599V46.8099H106.78V40.7599H108.32V41.7299H108.31Z" fill="#231F20"/>
<path d="M114.35 46.1401H114.33C114.02 46.6001 113.59 46.9501 112.55 46.9501C111.31 46.9501 110.44 46.3001 110.44 45.1001C110.44 43.7701 111.52 43.3401 112.87 43.1501C113.87 43.0101 114.33 42.9301 114.33 42.4701C114.33 42.0101 113.99 41.7501 113.32 41.7501C112.57 41.7501 112.2 42.0201 112.15 42.6001H110.72C110.77 41.5401 111.56 40.6101 113.33 40.6101C115.1 40.6101 115.88 41.4201 115.88 42.8401V45.9201C115.88 46.3801 115.95 46.6501 116.09 46.7601V46.8201H114.54C114.45 46.7001 114.39 46.4201 114.35 46.1501V46.1401ZM114.36 44.6801V43.7701C114.08 43.9401 113.64 44.0301 113.24 44.1201C112.4 44.3101 111.99 44.5001 111.99 45.0601C111.99 45.6201 112.37 45.8301 112.93 45.8301C113.85 45.8301 114.36 45.2601 114.36 44.6701V44.6801Z" fill="#231F20"/>
<path d="M116.59 43.8001C116.59 42.0001 117.77 40.6001 119.61 40.6001C121.18 40.6001 122.15 41.5101 122.36 42.8201H120.79C120.68 42.2901 120.27 41.8901 119.68 41.8901C118.71 41.8901 118.22 42.6301 118.22 43.8001C118.22 44.9701 118.68 45.7101 119.66 45.7101C120.31 45.7101 120.77 45.3701 120.87 44.6801H122.41C122.3 45.9701 121.3 46.9901 119.69 46.9901C117.78 46.9901 116.59 45.6001 116.59 43.7901V43.8001Z" fill="#231F20"/>
<path d="M122.75 40.7601H123.59V38.8701H125.16V40.7601H126.2V41.8201H125.16V45.0301C125.16 45.4801 125.41 45.6301 125.76 45.6301C125.96 45.6301 126.23 45.6201 126.23 45.6201V46.8001C126.23 46.8001 125.86 46.8201 125.23 46.8201C124.45 46.8201 123.59 46.5101 123.59 45.3701V41.8201H122.75V40.7601Z" fill="#231F20"/>
<path d="M128.77 42.63C128.77 40.13 130.33 38.22 132.81 38.22C134.89 38.22 136.11 39.46 136.29 41.06H134.59C134.44 40.21 133.8 39.66 132.81 39.66C131.25 39.66 130.51 40.96 130.51 42.63C130.51 44.3 131.41 45.59 132.82 45.59C133.82 45.59 134.53 44.99 134.64 44.1H136.31C136.26 44.84 135.94 45.56 135.38 46.09C134.8 46.63 133.99 46.99 132.82 46.99C130.45 46.99 128.76 45.16 128.76 42.63H128.77Z" fill="#231F20"/>
<path d="M138.61 41.7299H138.65C139.02 41.0499 139.43 40.6899 140.14 40.6899C140.32 40.6899 140.42 40.6999 140.52 40.7399V42.1399H140.48C139.43 42.0299 138.68 42.5899 138.68 43.8599V46.8099H137.08V40.7599H138.62V41.7299H138.61Z" fill="#231F20"/>
<path d="M140.73 43.7801C140.73 41.9901 141.94 40.6001 143.71 40.6001C145.66 40.6001 146.69 42.0901 146.69 44.2401H142.3C142.42 45.1701 142.94 45.7501 143.84 45.7501C144.47 45.7501 144.83 45.4701 145.01 45.0101H146.59C146.37 46.0801 145.41 46.9901 143.85 46.9901C141.84 46.9901 140.71 45.5901 140.71 43.7801H140.73ZM142.34 43.1401H145.03C144.98 42.3701 144.48 41.8401 143.74 41.8401C142.89 41.8401 142.48 42.3501 142.34 43.1401Z" fill="#231F20"/>
<path d="M151.06 46.1401H151.04C150.73 46.6001 150.3 46.9501 149.26 46.9501C148.02 46.9501 147.15 46.3001 147.15 45.1001C147.15 43.7701 148.23 43.3401 149.58 43.1501C150.58 43.0101 151.04 42.9301 151.04 42.4701C151.04 42.0101 150.7 41.7501 150.03 41.7501C149.28 41.7501 148.91 42.0201 148.86 42.6001H147.43C147.48 41.5401 148.27 40.6101 150.04 40.6101C151.81 40.6101 152.59 41.4201 152.59 42.8401V45.9201C152.59 46.3801 152.66 46.6501 152.8 46.7601V46.8201H151.25C151.16 46.7001 151.1 46.4201 151.06 46.1501V46.1401ZM151.07 44.6801V43.7701C150.79 43.9401 150.35 44.0301 149.95 44.1201C149.11 44.3101 148.7 44.5001 148.7 45.0601C148.7 45.6201 149.08 45.8301 149.64 45.8301C150.56 45.8301 151.07 45.2601 151.07 44.6701V44.6801Z" fill="#231F20"/>
<path d="M153.12 40.7601H153.96V38.8701H155.53V40.7601H156.57V41.8201H155.53V45.0301C155.53 45.4801 155.78 45.6301 156.13 45.6301C156.33 45.6301 156.6 45.6201 156.6 45.6201V46.8001C156.6 46.8001 156.23 46.8201 155.6 46.8201C154.82 46.8201 153.96 46.5101 153.96 45.3701V41.8201H153.12V40.7601Z" fill="#231F20"/>
<path d="M157.39 38.3799H158.99V39.8199H157.39V38.3799ZM157.39 40.7599H158.99V46.8099H157.39V40.7599Z" fill="#231F20"/>
<path d="M159.53 40.76H161.16L162.13 43.9C162.31 44.48 162.4 44.87 162.4 44.87H162.42C162.42 44.87 162.5 44.48 162.68 43.9L163.67 40.76H165.27L163.16 46.81H161.63L159.53 40.76Z" fill="#231F20"/>
<path d="M165.35 43.7801C165.35 41.9901 166.56 40.6001 168.33 40.6001C170.28 40.6001 171.31 42.0901 171.31 44.2401H166.92C167.04 45.1701 167.56 45.7501 168.46 45.7501C169.09 45.7501 169.45 45.4701 169.63 45.0101H171.21C170.99 46.0801 170.03 46.9901 168.47 46.9901C166.46 46.9901 165.33 45.5901 165.33 43.7801H165.35ZM166.95 43.1401H169.64C169.59 42.3701 169.09 41.8401 168.35 41.8401C167.5 41.8401 167.09 42.3501 166.95 43.1401Z" fill="#231F20"/>
<path d="M173.67 43.96H174.71C174.85 45.39 175.72 46.13 177.32 46.13C178.49 46.13 179.32 45.6 179.32 44.55C179.32 43.39 178.31 43.12 176.8 42.79C175.31 42.46 174.04 42.04 174.04 40.44C174.04 39.05 175.2 38.21 176.91 38.21C179.02 38.21 179.89 39.28 180.11 40.84H179.11C178.96 39.64 178.18 39.04 176.94 39.04C175.8 39.04 175.04 39.52 175.04 40.4C175.04 41.36 175.98 41.64 177.25 41.89C178.89 42.22 180.39 42.62 180.39 44.52C180.39 46.1 179.1 46.98 177.29 46.98C174.92 46.98 173.79 45.66 173.69 43.96H173.67Z" fill="#231F20"/>
<path d="M181.09 43.7701C181.09 42.0001 182.25 40.5601 183.98 40.5601C185.81 40.5601 186.79 41.9801 186.79 43.9901H182.07C182.14 45.2301 182.81 46.1701 184.04 46.1701C184.92 46.1701 185.51 45.7501 185.73 44.9201H186.66C186.38 46.2301 185.42 46.9701 184.04 46.9701C182.18 46.9701 181.09 45.5301 181.09 43.7601V43.7701ZM182.1 43.2801H185.77C185.71 42.0701 185.09 41.3201 183.99 41.3201C182.89 41.3201 182.24 42.1701 182.1 43.2801Z" fill="#231F20"/>
<path d="M188.67 41.7299H188.69C189.06 41.1399 189.69 40.6499 190.51 40.6499C190.69 40.6499 190.78 40.6699 190.9 40.7199V41.6399H190.86C190.72 41.5899 190.62 41.5799 190.44 41.5799C189.5 41.5799 188.67 42.2899 188.67 43.4299V46.8099H187.71V40.7099H188.67V41.7199V41.7299Z" fill="#231F20"/>
<path d="M191.14 40.72H192.17L193.43 44.59C193.61 45.13 193.83 45.88 193.83 45.88H193.85C193.85 45.88 194.07 45.13 194.25 44.59L195.54 40.72H196.53L194.34 46.82H193.28L191.14 40.72Z" fill="#231F20"/>
<path d="M197.2 38.3799H198.16V39.5599H197.2V38.3799ZM197.2 40.7199H198.16V46.8199H197.2V40.7199Z" fill="#231F20"/>
<path d="M199.11 43.7701C199.11 42.0001 200.24 40.5601 202.06 40.5601C203.5 40.5601 204.45 41.3901 204.67 42.6801H203.7C203.56 41.8501 202.98 41.3501 202.06 41.3501C200.76 41.3501 200.09 42.4201 200.09 43.7701C200.09 45.1201 200.76 46.1801 202.06 46.1801C203.05 46.1801 203.64 45.6101 203.72 44.6701H204.66C204.53 46.1301 203.58 46.9801 202.05 46.9801C200.23 46.9801 199.1 45.5401 199.1 43.7701H199.11Z" fill="#231F20"/>
<path d="M205.22 43.7701C205.22 42.0001 206.38 40.5601 208.11 40.5601C209.94 40.5601 210.92 41.9801 210.92 43.9901H206.2C206.27 45.2301 206.94 46.1701 208.17 46.1701C209.05 46.1701 209.64 45.7501 209.86 44.9201H210.79C210.51 46.2301 209.55 46.9701 208.17 46.9701C206.31 46.9701 205.22 45.5301 205.22 43.7601V43.7701ZM206.23 43.2801H209.9C209.84 42.0701 209.22 41.3201 208.12 41.3201C207.02 41.3201 206.37 42.1701 206.23 43.2801Z" fill="#231F20"/>
<path d="M66.9902 13.8501H72.4202V32.4401H66.9902V13.8501Z" fill="#00B5B0"/>
<path d="M73.9297 23.21C73.9297 17.65 77.7497 13.51 83.3397 13.51C85.3697 13.51 87.1897 14.03 88.5397 14.97C90.4597 16.3 91.5797 18.38 91.8197 20.74H86.3897C86.2597 19.28 85.0397 17.98 83.2697 17.98C80.6997 17.98 79.4497 20.16 79.4497 23.21C79.4497 26.26 80.9097 28.44 83.3197 28.44C85.2197 28.44 86.3597 27.19 86.5397 25.53H92.0297C91.8697 27.58 90.9397 29.4 89.6097 30.68C88.0197 32.21 86.0497 32.89 83.3397 32.89C77.6697 32.89 73.9297 28.78 73.9297 23.22V23.21Z" fill="#00B5B0"/>
<path d="M92.6299 23.21C92.6299 17.65 96.2699 13.51 102.04 13.51C107.81 13.51 111.5 17.64 111.5 23.21C111.5 28.78 107.81 32.88 102.04 32.88C96.2699 32.88 92.6299 28.77 92.6299 23.21ZM105.99 23.21C105.99 20.17 104.66 17.85 102.06 17.85C99.4599 17.85 98.1299 20.16 98.1299 23.21C98.1299 26.26 99.4599 28.54 102.06 28.54C104.66 28.54 105.99 26.25 105.99 23.21Z" fill="#00B5B0"/>
<path d="M113.01 13.8501H118.44L124.52 24.3001H124.57V13.8501H129.82V32.4401H124.2L118.3 21.9101H118.25V32.4401H113V13.8501H113.01Z" fill="#00B5B0"/>
<path d="M134.98 26.51H140.54C140.72 27.99 141.87 28.69 143.66 28.69C144.73 28.69 146.03 28.27 146.03 27.16C146.03 26.05 144.78 25.76 142.49 25.18C139.37 24.4 135.6 23.33 135.6 19.38C135.6 15.12 139.08 13.5 143.27 13.5C147.12 13.5 150.65 15.11 150.73 19.17H145.35C145.19 18.16 144.47 17.51 142.98 17.51C141.78 17.51 140.95 18.06 140.95 18.81C140.95 19.9 142.54 20.06 145.32 20.73C148.44 21.48 151.56 22.71 151.56 26.66C151.56 30.61 147.95 32.87 143.55 32.87C138.71 32.87 135.05 30.79 134.97 26.5L134.98 26.51Z" fill="#231F20"/>
<path d="M151.8 13.8501H167.82V18.4801H162.49V32.4401H157.06V18.4801H151.81V13.8501H151.8Z" fill="#231F20"/>
<path d="M169.2 25.3401V13.8501H174.63V25.6501C174.63 27.3701 175.57 28.4301 177.57 28.4301C179.42 28.4301 180.35 27.2301 180.35 25.5401V13.8401H185.78V25.3301C185.78 29.9101 183.05 32.7701 177.49 32.7701C171.93 32.7701 169.2 29.9901 169.2 25.3301V25.3401Z" fill="#231F20"/>
<path d="M187.89 13.8501H196.47C201.83 13.8501 205.54 17.2801 205.54 23.1801C205.54 29.0801 202 32.4401 196.23 32.4401H187.88V13.8501H187.89ZM195.8 27.9401C198.3 27.9401 200.04 26.3301 200.04 23.1801C200.04 20.0301 198.4 18.3401 195.8 18.3401H193.33V27.9301H195.8V27.9401Z" fill="#231F20"/>
<path d="M207.05 13.8501H212.48V32.4401H207.05V13.8501Z" fill="#231F20"/>
<path d="M214 23.21C214 17.65 217.64 13.51 223.41 13.51C229.18 13.51 232.87 17.64 232.87 23.21C232.87 28.78 229.18 32.88 223.41 32.88C217.64 32.88 214 28.77 214 23.21ZM227.36 23.21C227.36 20.17 226.03 17.85 223.43 17.85C220.83 17.85 219.5 20.16 219.5 23.21C219.5 26.26 220.83 28.54 223.43 28.54C226.03 28.54 227.36 26.25 227.36 23.21Z" fill="#231F20"/>
<path d="M232.64 14.1001H235.72V14.7101H234.54V17.8301H233.81V14.7101H232.63V14.1001H232.64ZM236.34 14.1001H237.38L238.19 16.9501H238.2L239.02 14.1001H240.08V17.8401H239.4V14.9801H239.37C239.37 14.9801 239.21 15.5701 239.07 16.0401L238.53 17.8401H237.84L237.3 16.0401C237.17 15.6101 237.01 14.9801 237.01 14.9801H236.98V17.8401H236.31V14.1001H236.34Z" fill="#231F20"/>
<path d="M8.47 37.6299L0 61.0799H15.54L8.47 37.6299Z" fill="#00B5B0"/>
<path d="M8.46973 37.6301L15.5397 61.0801L35.8897 30.8301H10.8697L8.46973 37.6301Z" fill="#00827F"/>
<path d="M55.8104 0H22.3604L40.5103 23.89L55.8104 0Z" fill="#004854"/>
<path d="M10.8701 30.8299H35.8901L19.9101 6.1499L10.8701 30.8299Z" fill="#00666A"/>
</g>
<defs>
<clipPath id="clip0_2780_734">
<rect width="240.09" height="61.08" fill="white"/>
</clipPath>
</defs>
</svg>
