<?xml version="1.0" encoding="UTF-8"?>
<svg id="Layer_1" xmlns="http://www.w3.org/2000/svg" version="1.1" viewBox="0 0 243.6 85">
  <!-- Generator: Adobe Illustrator 29.6.1, SVG Export Plug-In . SVG Version: 2.1.1 Build 9)  -->
  <defs>
    <style>
      .st0 {
        fill: #231f20;
      }

      .st1 {
        fill: #ec7a39;
      }

      .st2 {
        fill: #d03733;
      }

      .st3 {
        fill: #f0ad1e;
      }

      .st4 {
        fill: #ee4137;
      }
    </style>
  </defs>
  <g>
    <polygon class="st3" points="32.1 51.1 21.2 70.2 38.6 70.2 32.1 51.1"/>
    <polygon class="st1" points="32.1 51.1 38.6 70.2 62 39.8 38.6 39.8 32.1 51.1"/>
    <polygon class="st2" points="38.6 9.3 6.7 9.3 30.8 32.3 38.6 9.3"/>
    <polygon class="st4" points="38.6 39.8 62 39.8 38.6 9.3 30.8 32.3 38.6 39.8"/>
  </g>
  <g>
    <path class="st3" d="M72.4,14.4h5.4v18.6h-5.4V14.4Z"/>
    <path class="st3" d="M79.3,23.7c0-5.6,3.8-9.7,9.4-9.7s3.8.5,5.2,1.5c1.9,1.3,3,3.4,3.3,5.8h-5.4c-.1-1.5-1.4-2.8-3.1-2.8-2.6,0-3.8,2.2-3.8,5.2s1.5,5.2,3.9,5.2,3-1.2,3.2-2.9h5.5c-.2,2.1-1.1,3.9-2.4,5.1-1.6,1.5-3.6,2.2-6.3,2.2-5.7,0-9.4-4.1-9.4-9.7Z"/>
    <path class="st3" d="M98,23.7c0-5.6,3.6-9.7,9.4-9.7s9.5,4.1,9.5,9.7-3.7,9.7-9.5,9.7-9.4-4.1-9.4-9.7ZM111.4,23.7c0-3-1.3-5.4-3.9-5.4s-3.9,2.3-3.9,5.4,1.3,5.3,3.9,5.3,3.9-2.3,3.9-5.3Z"/>
    <path class="st3" d="M118.4,14.4h5.4l6.1,10.5h0v-10.5h5.3v18.6h-5.6l-5.9-10.5h0v10.5h-5.3V14.4Z"/>
    <path class="st0" d="M72.4,37.4h7.1l2.9,10.4h0l2.9-10.4h7.1v18.6h-4.9v-11.6h0l-3.1,11.6h-4l-3.1-11.6h0v11.6h-4.8v-18.6Z"/>
    <path class="st0" d="M94.6,37.4h14.5v4.4h-9v2.5h7.6v4.1h-7.6v2.9h9.3v4.7h-14.7v-18.6Z"/>
    <path class="st0" d="M110.4,37.4h16v4.6h-5.3v14h-5.4v-14h-5.3v-4.6Z"/>
    <path class="st0" d="M127.9,37.4h5.4v6.8h5.7v-6.8h5.4v18.6h-5.4v-7.3h-5.7v7.3h-5.4v-18.6Z"/>
    <path class="st0" d="M146,46.7c0-5.6,3.6-9.7,9.4-9.7s9.5,4.1,9.5,9.7-3.7,9.7-9.5,9.7-9.4-4.1-9.4-9.7ZM159.4,46.7c0-3-1.3-5.4-3.9-5.4s-3.9,2.3-3.9,5.4,1.3,5.3,3.9,5.3,3.9-2.3,3.9-5.3Z"/>
    <path class="st0" d="M166.4,37.4h8.6c5.4,0,9.1,3.4,9.1,9.3s-3.5,9.3-9.3,9.3h-8.3v-18.6ZM174.3,51.5c2.5,0,4.2-1.6,4.2-4.8s-1.6-4.8-4.2-4.8h-2.5v9.6h2.5Z"/>
    <path class="st0" d="M183.8,37.6h3.1v.6h-1.2v3.1h-.7v-3.1h-1.2v-.6ZM187.5,37.6h1l.8,2.8h0l.8-2.8h1.1v3.7h-.7v-2.9h0s-.2.6-.3,1.1l-.5,1.8h-.7l-.5-1.8c-.1-.4-.3-1.1-.3-1.1h0v2.9h-.7v-3.7Z"/>
  </g>
  <g>
    <path class="st0" d="M75.6,61.7h1.2l3.1,8.4h-1.2l-.9-2.6h-3.4l-.9,2.6h-1.1l3.1-8.4ZM74.8,66.7h2.8l-1-2.8c-.2-.5-.4-1.2-.4-1.2h0s-.2.7-.4,1.2l-1,2.8Z"/>
    <path class="st0" d="M81.6,64.8h0c.4-.6,1-.9,1.9-.9,1.3,0,2.1.7,2.1,2v4.3h-1v-4.2c0-.8-.5-1.2-1.4-1.2s-1.7.7-1.7,1.7v3.8h-1v-6.1h1v.8Z"/>
    <path class="st0" d="M91.1,61.7h1.8l3,8.4h-1.8l-.6-1.8h-3l-.6,1.8h-1.7l2.9-8.4ZM90.8,67h2.2l-.8-2.4c-.1-.4-.3-1.3-.3-1.3h0s-.2.8-.4,1.3l-.8,2.4Z"/>
    <path class="st0" d="M98,69.4h0v.8h-1.5v-8.4h1.6v3.1h0c.3-.5.8-.9,1.7-.9,1.5,0,2.6,1.3,2.6,3.2s-1,3.2-2.6,3.2-1.5-.4-1.8-.9ZM100.7,67.1c0-1.1-.4-1.9-1.3-1.9s-1.4.8-1.4,1.9.6,1.8,1.5,1.8,1.3-.7,1.3-1.9Z"/>
    <path class="st0" d="M102.7,68.2h1.5c.1.7.6,1,1.3,1s1.1-.3,1.1-.7-.8-.6-1.6-.8c-1.1-.2-2.1-.5-2.1-1.8s1.1-1.9,2.5-1.9,2.5.8,2.6,2h-1.5c0-.6-.5-.9-1.2-.9s-1,.2-1,.7.8.6,1.7.7c1,.2,2.1.5,2.1,1.9s-1,1.9-2.5,1.9-2.7-.8-2.8-2.1Z"/>
    <path class="st0" d="M108.3,64.1h.8v-1.9h1.6v1.9h1v1.1h-1v3.2c0,.4.2.6.6.6s.5,0,.5,0v1.2s-.4,0-1,0-1.6-.3-1.6-1.5v-3.5h-.8v-1.1Z"/>
    <path class="st0" d="M114.1,65h0c.4-.7.8-1,1.5-1s.3,0,.4,0v1.4h0c-1-.1-1.8.4-1.8,1.7v2.9h-1.6v-6.1h1.5v1Z"/>
    <path class="st0" d="M120.2,69.4h0c-.3.5-.7.8-1.8.8s-2.1-.6-2.1-1.9,1.1-1.8,2.4-1.9c1-.1,1.5-.2,1.5-.7s-.3-.7-1-.7-1.1.3-1.2.8h-1.4c0-1.1.8-2,2.6-2s2.5.8,2.5,2.2v3.1c0,.5,0,.7.2.8h0c0,0-1.5,0-1.5,0,0-.1-.2-.4-.2-.7ZM120.2,68v-.9c-.3.2-.7.3-1.1.4-.8.2-1.2.4-1.2.9s.4.8.9.8c.9,0,1.4-.6,1.4-1.2Z"/>
    <path class="st0" d="M122.4,67.1c0-1.8,1.2-3.2,3-3.2s2.5.9,2.7,2.2h-1.6c-.1-.5-.5-.9-1.1-.9-1,0-1.5.7-1.5,1.9s.5,1.9,1.4,1.9,1.1-.3,1.2-1h1.5c-.1,1.3-1.1,2.3-2.7,2.3s-3.1-1.4-3.1-3.2Z"/>
    <path class="st0" d="M128.6,64.1h.8v-1.9h1.6v1.9h1v1.1h-1v3.2c0,.4.2.6.6.6s.5,0,.5,0v1.2s-.4,0-1,0-1.6-.3-1.6-1.5v-3.5h-.8v-1.1Z"/>
    <path class="st0" d="M134.6,65.9c0-2.5,1.6-4.4,4-4.4s3.3,1.2,3.5,2.8h-1.7c-.2-.8-.8-1.4-1.8-1.4-1.6,0-2.3,1.3-2.3,3s.9,3,2.3,3,1.7-.6,1.8-1.5h1.7c0,.7-.4,1.5-.9,2-.6.5-1.4.9-2.6.9-2.4,0-4.1-1.8-4.1-4.4Z"/>
    <path class="st0" d="M144.4,65h0c.4-.7.8-1,1.5-1s.3,0,.4,0v1.4h0c-1-.1-1.8.4-1.8,1.7v2.9h-1.6v-6.1h1.5v1Z"/>
    <path class="st0" d="M146.6,67.1c0-1.8,1.2-3.2,3-3.2s3,1.5,3,3.6h-4.4c.1.9.6,1.5,1.5,1.5s1-.3,1.2-.7h1.6c-.2,1.1-1.2,2-2.7,2s-3.1-1.4-3.1-3.2ZM148.2,66.4h2.7c0-.8-.6-1.3-1.3-1.3s-1.3.5-1.4,1.3Z"/>
    <path class="st0" d="M156.9,69.4h0c-.3.5-.7.8-1.8.8s-2.1-.6-2.1-1.9,1.1-1.8,2.4-1.9c1-.1,1.5-.2,1.5-.7s-.3-.7-1-.7-1.1.3-1.2.8h-1.4c0-1.1.8-2,2.6-2s2.5.8,2.5,2.2v3.1c0,.5,0,.7.2.8h0c0,0-1.5,0-1.5,0,0-.1-.2-.4-.2-.7ZM156.9,68v-.9c-.3.2-.7.3-1.1.4-.8.2-1.2.4-1.2.9s.4.8.9.8c.9,0,1.4-.6,1.4-1.2Z"/>
    <path class="st0" d="M158.9,64.1h.8v-1.9h1.6v1.9h1v1.1h-1v3.2c0,.4.2.6.6.6s.5,0,.5,0v1.2s-.4,0-1,0-1.6-.3-1.6-1.5v-3.5h-.8v-1.1Z"/>
    <path class="st0" d="M163.2,61.7h1.6v1.4h-1.6v-1.4ZM163.2,64.1h1.6v6.1h-1.6v-6.1Z"/>
    <path class="st0" d="M165.4,64.1h1.6l1,3.1c.2.6.3,1,.3,1h0s0-.4.3-1l1-3.1h1.6l-2.1,6.1h-1.5l-2.1-6.1Z"/>
    <path class="st0" d="M171.2,67.1c0-1.8,1.2-3.2,3-3.2s3,1.5,3,3.6h-4.4c.1.9.6,1.5,1.5,1.5s1-.3,1.2-.7h1.6c-.2,1.1-1.2,2-2.7,2s-3.1-1.4-3.1-3.2ZM172.8,66.4h2.7c0-.8-.6-1.3-1.3-1.3s-1.3.5-1.4,1.3Z"/>
    <path class="st0" d="M180,61.7h5.7v.9h-4.7v2.6h3.9v.9h-3.9v4h-1.1v-8.4Z"/>
    <path class="st0" d="M187.2,65h0c.4-.6,1-1.1,1.8-1.1s.3,0,.4,0v.9h0c-.1,0-.2,0-.4,0-.9,0-1.8.7-1.8,1.9v3.4h-1v-6.1h1v1Z"/>
    <path class="st0" d="M193.8,69.3h0c-.4.5-1,1-2,1s-2.1-.5-2.1-1.7,1.1-1.7,2.7-2c.9-.1,1.5-.2,1.5-.9s-.5-1.1-1.4-1.1-1.5.4-1.5,1.3h-.9c0-1.2.8-2.1,2.4-2.1s2.3.5,2.3,1.9v2.9c0,.5.1.8.6.6h0v.7c-.1,0-.3,0-.5,0-.6,0-1-.3-1-.9ZM193.9,67.9v-1c-.3.2-.9.4-1.4.4-1,.2-1.7.3-1.7,1.2s.6,1,1.3,1c1.3,0,1.9-.9,1.9-1.6Z"/>
    <path class="st0" d="M196.1,64h1v.9h0c.4-.6,1-1,1.8-1s1.3.4,1.6,1.1h0c.4-.7,1.1-1.1,1.9-1.1,1.1,0,1.9.7,1.9,2v4.3h-1v-4.2c0-.8-.5-1.2-1.1-1.2s-1.5.7-1.5,1.6v3.8h-1v-4.2c0-.8-.4-1.2-1-1.2s-1.6.7-1.6,1.6v3.8h-1v-6.1Z"/>
    <path class="st0" d="M205.1,67.1c0-1.8,1.2-3.2,2.9-3.2s2.8,1.4,2.8,3.4h-4.7c0,1.2.7,2.2,2,2.2s1.5-.4,1.7-1.2h.9c-.3,1.3-1.2,2.1-2.6,2.1s-2.9-1.4-2.9-3.2ZM206.1,66.6h3.7c0-1.2-.7-2-1.8-2s-1.7.8-1.9,2Z"/>
    <path class="st0" d="M211,64h1l1.1,3.8c.1.5.3,1.3.3,1.3h0s.2-.8.3-1.3l1-3.8h1l1,3.8c.1.5.3,1.3.3,1.3h0s.2-.8.3-1.3l1.1-3.8h1l-2,6.1h-1l-1-3.7c-.1-.5-.3-1.3-.3-1.3h0s-.2.8-.3,1.3l-1,3.7h-1l-1.9-6.1Z"/>
    <path class="st0" d="M219.8,67.1c0-1.8,1.1-3.2,2.9-3.2s2.9,1.4,2.9,3.2-1.1,3.2-2.9,3.2-2.9-1.4-2.9-3.2ZM224.7,67.1c0-1.3-.7-2.4-2-2.4s-2,1.1-2,2.4.7,2.4,2,2.4,2-1.1,2-2.4Z"/>
    <path class="st0" d="M227.6,65h0c.4-.6,1-1.1,1.8-1.1s.3,0,.4,0v.9h0c-.1,0-.2,0-.4,0-.9,0-1.8.7-1.8,1.9v3.4h-1v-6.1h1v1Z"/>
    <path class="st0" d="M232.6,66.8l-.9.8v2.4h-1v-8.4h1v4.9l2.7-2.6h1.2l-2.3,2.2,2.6,3.9h-1.1l-2.2-3.3Z"/>
  </g>
</svg>