<?xml version="1.0" encoding="UTF-8"?>
<svg id="Layer_1" xmlns="http://www.w3.org/2000/svg" version="1.1" viewBox="0 0 275 70">
  <!-- Generator: Adobe Illustrator 29.6.1, SVG Export Plug-In . SVG Version: 2.1.1 Build 9)  -->
  <defs>
    <style>
      .st0 {
        fill: #004853;
      }

      .st1 {
        fill: #00b4af;
      }

      .st2 {
        fill: #fff;
      }

      .st3 {
        fill: #00666a;
      }

      .st4 {
        fill: #00817f;
      }
    </style>
  </defs>
  <path class="st2" d="M73.9,42.8h1.2l3.1,8.4h-1.2l-.9-2.6h-3.4l-.9,2.6h-1.1l3.1-8.4h0ZM73.2,47.8h2.8l-1-2.8c-.2-.5-.4-1.2-.4-1.2h0s-.2.7-.4,1.2c0,0-1,2.8-1,2.8Z"/>
  <path class="st2" d="M80,46h0c.4-.6,1.1-.9,1.9-.9,1.3,0,2.1.7,2.1,2v4.3h-1v-4.2c0-.8-.5-1.2-1.4-1.2s-1.7.7-1.7,1.7v3.8h-1v-6.1h1v.8h0Z"/>
  <path class="st2" d="M89.4,42.8h1.8l3,8.4h-1.8l-.6-1.8h-3l-.6,1.8h-1.7l2.9-8.4h0ZM89.2,48.2h2.2l-.8-2.4c-.1-.5-.3-1.3-.3-1.3h0s-.2.8-.3,1.3l-.8,2.4h0Z"/>
  <path class="st2" d="M96.3,50.5h0v.8h-1.5v-8.4h1.6v3.1h0c.3-.5.8-.9,1.7-.9,1.5,0,2.6,1.3,2.6,3.2s-1,3.2-2.6,3.2-1.4-.4-1.8-.9h0ZM99.1,48.2c0-1.1-.4-1.9-1.3-1.9s-1.4.8-1.4,1.9.6,1.8,1.4,1.8,1.3-.7,1.3-1.8h0Z"/>
  <path class="st2" d="M101.1,49.3h1.5c.1.7.6,1,1.3,1s1.1-.3,1.1-.7-.8-.6-1.6-.8c-1.1-.2-2.2-.5-2.2-1.8s1.1-1.9,2.5-1.9,2.5.8,2.6,2h-1.4c0-.7-.5-.9-1.2-.9s-1,.2-1,.7.8.6,1.7.7c1,.2,2.1.5,2.1,1.9s-1,2-2.6,2-2.7-.8-2.8-2.1h0Z"/>
  <path class="st2" d="M106.7,45.2h.8v-1.9h1.6v1.9h1v1.1h-1v3.2c0,.5.2.6.6.6s.5,0,.5,0v1.2s-.4,0-1,0-1.6-.3-1.6-1.5v-3.5h-.8v-1.1Z"/>
  <path class="st2" d="M112.5,46.2h0c.4-.7.8-1,1.5-1s.3,0,.4,0v1.4h0c-1.1-.1-1.8.5-1.8,1.7v3h-1.6v-6h1.5v1h0Z"/>
  <path class="st2" d="M118.5,50.6h0c-.3.5-.7.8-1.8.8s-2.1-.7-2.1-1.8,1.1-1.8,2.4-2c1-.1,1.5-.2,1.5-.7s-.3-.7-1-.7-1.1.3-1.2.8h-1.4c0-1.1.8-2,2.6-2s2.6.8,2.6,2.2v3.1c0,.5,0,.7.2.8h0c0,0-1.6,0-1.6,0,0-.1-.2-.4-.2-.7h0ZM118.5,49.1v-.9c-.3.2-.7.3-1.1.3-.8.2-1.2.4-1.2.9s.4.8.9.8c.9,0,1.4-.6,1.4-1.2h0Z"/>
  <path class="st2" d="M120.8,48.2c0-1.8,1.2-3.2,3-3.2s2.5.9,2.8,2.2h-1.6c-.1-.5-.5-.9-1.1-.9-1,0-1.5.7-1.5,1.9s.5,1.9,1.4,1.9,1.1-.3,1.2-1h1.5c-.1,1.3-1.1,2.3-2.7,2.3s-3.1-1.4-3.1-3.2h0Z"/>
  <path class="st2" d="M126.9,45.2h.8v-1.9h1.6v1.9h1v1.1h-1v3.2c0,.5.2.6.6.6s.5,0,.5,0v1.2s-.4,0-1,0-1.6-.3-1.6-1.5v-3.5h-.8s0-1.1,0-1.1Z"/>
  <path class="st2" d="M132.9,47.1c0-2.5,1.6-4.4,4.1-4.4s3.3,1.2,3.5,2.8h-1.7c-.1-.8-.8-1.4-1.8-1.4-1.6,0-2.3,1.3-2.3,3s.9,3,2.3,3,1.7-.6,1.8-1.5h1.7c0,.7-.4,1.5-.9,2-.6.5-1.4.9-2.6.9-2.4,0-4.1-1.8-4.1-4.4h0Z"/>
  <path class="st2" d="M142.8,46.2h0c.4-.7.8-1,1.5-1s.3,0,.4,0v1.4h0c-1.1-.1-1.8.5-1.8,1.7v3h-1.6v-6h1.5v1h0Z"/>
  <path class="st2" d="M144.9,48.2c0-1.8,1.2-3.2,3-3.2s3,1.5,3,3.6h-4.4c.1.9.6,1.5,1.5,1.5s1-.3,1.2-.7h1.6c-.2,1.1-1.2,2-2.7,2s-3.1-1.4-3.1-3.2h0ZM146.5,47.6h2.7c0-.8-.6-1.3-1.3-1.3s-1.3.5-1.4,1.3h0Z"/>
  <path class="st2" d="M155.2,50.6h0c-.3.5-.7.8-1.8.8s-2.1-.7-2.1-1.8,1.1-1.8,2.4-2c1-.1,1.5-.2,1.5-.7s-.3-.7-1-.7-1.1.3-1.2.8h-1.4c0-1.1.8-2,2.6-2s2.6.8,2.6,2.2v3.1c0,.5,0,.7.2.8h0c0,0-1.6,0-1.6,0,0-.1-.1-.4-.2-.7h0ZM155.2,49.1v-.9c-.3.2-.7.3-1.1.3-.8.2-1.2.4-1.2.9s.4.8.9.8c.9,0,1.4-.6,1.4-1.2h0Z"/>
  <path class="st2" d="M157.3,45.2h.8v-1.9h1.6v1.9h1v1.1h-1v3.2c0,.5.2.6.6.6s.5,0,.5,0v1.2s-.4,0-1,0-1.6-.3-1.6-1.5v-3.5h-.8v-1.1h0Z"/>
  <path class="st2" d="M161.6,42.8h1.6v1.4h-1.6v-1.4ZM161.6,45.2h1.6v6h-1.6v-6Z"/>
  <path class="st2" d="M163.7,45.2h1.6l1,3.1c.2.6.3,1,.3,1h0s0-.4.3-1l1-3.1h1.6l-2.1,6h-1.5l-2.1-6h0Z"/>
  <path class="st2" d="M169.5,48.2c0-1.8,1.2-3.2,3-3.2s3,1.5,3,3.6h-4.4c.1.9.6,1.5,1.5,1.5s1-.3,1.2-.7h1.6c-.2,1.1-1.2,2-2.7,2s-3.1-1.4-3.1-3.2h0ZM171.1,47.6h2.7c0-.8-.6-1.3-1.3-1.3s-1.3.5-1.4,1.3h0Z"/>
  <path class="st2" d="M177.8,48.4h1c.1,1.4,1,2.2,2.6,2.2s2-.5,2-1.6-1-1.4-2.5-1.8c-1.5-.3-2.8-.8-2.8-2.3s1.2-2.2,2.9-2.2,3,1.1,3.2,2.6h-1c-.1-1.2-.9-1.8-2.2-1.8s-1.9.5-1.9,1.4.9,1.2,2.2,1.5c1.6.3,3.1.7,3.1,2.6s-1.3,2.5-3.1,2.5-3.5-1.3-3.6-3h0Z"/>
  <path class="st2" d="M185.3,48.2c0-1.8,1.2-3.2,2.9-3.2s2.8,1.4,2.8,3.4h-4.7c0,1.2.7,2.2,2,2.2s1.5-.4,1.7-1.2h.9c-.3,1.3-1.2,2-2.6,2s-2.9-1.4-2.9-3.2h0ZM186.3,47.7h3.7c0-1.2-.7-2-1.8-2s-1.8.8-1.9,2Z"/>
  <path class="st2" d="M192.9,46.2h0c.4-.6,1-1.1,1.8-1.1s.3,0,.4,0v.9h0c-.1,0-.2,0-.4,0-.9,0-1.8.7-1.8,1.8v3.4h-1v-6.1h1v1h0Z"/>
  <path class="st2" d="M195.3,45.2h1l1.3,3.9c.2.5.4,1.3.4,1.3h0s.2-.8.4-1.3l1.3-3.9h1l-2.2,6.1h-1.1l-2.1-6.1h0Z"/>
  <path class="st2" d="M201.4,42.8h1v1.2h-1v-1.2ZM201.4,45.2h1v6.1h-1v-6.1Z"/>
  <path class="st2" d="M203.3,48.2c0-1.8,1.1-3.2,2.9-3.2s2.4.8,2.6,2.1h-1c-.1-.8-.7-1.3-1.6-1.3s-2,1.1-2,2.4.7,2.4,2,2.4,1.6-.6,1.7-1.5h.9c-.1,1.5-1.1,2.3-2.6,2.3s-2.9-1.4-2.9-3.2h0Z"/>
  <path class="st2" d="M209.4,48.2c0-1.8,1.2-3.2,2.9-3.2s2.8,1.4,2.8,3.4h-4.7c0,1.2.7,2.2,2,2.2s1.5-.4,1.7-1.2h.9c-.3,1.3-1.2,2-2.6,2s-2.9-1.4-2.9-3.2h0ZM210.4,47.7h3.7c0-1.2-.7-2-1.8-2s-1.8.8-1.9,2Z"/>
  <path class="st1" d="M71.2,18.3h5.4v18.6h-5.4v-18.6Z"/>
  <path class="st1" d="M78.1,27.7c0-5.6,3.8-9.7,9.4-9.7s3.8.5,5.2,1.5c1.9,1.3,3,3.4,3.3,5.8h-5.4c-.1-1.5-1.3-2.8-3.1-2.8-2.6,0-3.8,2.2-3.8,5.2s1.5,5.2,3.9,5.2,3-1.2,3.2-2.9h5.5c-.2,2-1.1,3.9-2.4,5.2-1.6,1.5-3.6,2.2-6.3,2.2-5.7,0-9.4-4.1-9.4-9.7h0Z"/>
  <path class="st1" d="M96.8,27.7c0-5.6,3.6-9.7,9.4-9.7s9.5,4.1,9.5,9.7-3.7,9.7-9.5,9.7-9.4-4.1-9.4-9.7ZM110.2,27.7c0-3-1.3-5.4-3.9-5.4s-3.9,2.3-3.9,5.4,1.3,5.3,3.9,5.3,3.9-2.3,3.9-5.3Z"/>
  <path class="st1" d="M117.2,18.3h5.4l6.1,10.4h0v-10.5h5.2v18.6h-5.6l-5.9-10.5h0v10.5h-5.2v-18.6h0Z"/>
  <path class="st2" d="M139.2,31h5.6c.2,1.5,1.3,2.2,3.1,2.2s2.4-.4,2.4-1.5-1.2-1.4-3.5-2c-3.1-.8-6.9-1.9-6.9-5.8s3.5-5.9,7.7-5.9,7.4,1.6,7.5,5.7h-5.4c-.2-1-.9-1.7-2.4-1.7s-2,.5-2,1.3c0,1.1,1.6,1.2,4.4,1.9,3.1.8,6.2,2,6.2,5.9s-3.6,6.2-8,6.2-8.5-2.1-8.6-6.4h0Z"/>
  <path class="st2" d="M156,18.3h16v4.6h-5.3v14h-5.4v-14h-5.2v-4.6h0Z"/>
  <path class="st2" d="M173.4,29.8v-11.5h5.4v11.8c0,1.7.9,2.8,2.9,2.8s2.8-1.2,2.8-2.9v-11.7h5.4v11.5c0,4.6-2.7,7.4-8.3,7.4s-8.3-2.8-8.3-7.4h0Z"/>
  <path class="st2" d="M192.1,18.3h8.6c5.4,0,9.1,3.4,9.1,9.3s-3.5,9.3-9.3,9.3h-8.4v-18.6h0ZM200,32.4c2.5,0,4.2-1.6,4.2-4.8s-1.6-4.8-4.2-4.8h-2.5v9.6h2.5Z"/>
  <path class="st2" d="M211.2,18.3h5.4v18.6h-5.4v-18.6Z"/>
  <path class="st2" d="M218.2,27.7c0-5.6,3.6-9.7,9.4-9.7s9.5,4.1,9.5,9.7-3.7,9.7-9.5,9.7-9.4-4.1-9.4-9.7ZM231.5,27.7c0-3-1.3-5.4-3.9-5.4s-3.9,2.3-3.9,5.4,1.3,5.3,3.9,5.3,3.9-2.3,3.9-5.3Z"/>
  <path class="st2" d="M236.8,18.6h3.1v.6h-1.2v3.1h-.7v-3.1h-1.2v-.6h0ZM240.5,18.6h1l.8,2.9h0l.8-2.9h1.1v3.7h-.7v-2.9h0s-.2.6-.3,1.1l-.5,1.8h-.7l-.5-1.8c-.1-.4-.3-1.1-.3-1.1h0v2.9h-.7v-3.7h0Z"/>
  <polygon class="st1" points="12.6 42.1 4.2 65.5 19.7 65.5 12.6 42.1"/>
  <polygon class="st4" points="12.6 42.1 19.7 65.5 40.1 35.3 15.1 35.3 12.6 42.1"/>
  <polygon class="st0" points="60 4.5 26.5 4.5 44.7 28.4 60 4.5"/>
  <polygon class="st3" points="15.1 35.3 40.1 35.3 24.1 10.6 15.1 35.3"/>
</svg>