<?xml version="1.0" encoding="UTF-8"?><svg id="Layer_1" xmlns="http://www.w3.org/2000/svg" viewBox="0 0 275 70"><defs><style>.cls-1{fill:#004853;}.cls-2{fill:#00b4af;}.cls-3{fill:#231f20;}.cls-4{fill:#00666a;}.cls-5{fill:#00817f;}</style></defs><path class="cls-3" d="M73.95,42.84h1.19l3.11,8.43h-1.16l-.9-2.57h-3.36l-.91,2.57h-1.08l3.1-8.43ZM73.15,47.84h2.76l-.97-2.83c-.17-.47-.38-1.19-.38-1.19h-.02s-.22.71-.39,1.19l-1,2.83Z"/><path class="cls-3" d="M79.98,45.98h.02c.44-.58,1.05-.94,1.93-.94,1.27,0,2.05.7,2.05,1.96v4.28h-.96v-4.2c0-.79-.52-1.24-1.38-1.24-.97,0-1.67.69-1.67,1.69v3.75h-.96v-6.1h.96v.8Z"/><path class="cls-3" d="M89.44,42.84h1.77l2.97,8.43h-1.78l-.57-1.79h-3.04l-.55,1.79h-1.73l2.94-8.43ZM89.2,48.17h2.23l-.75-2.43c-.14-.45-.34-1.3-.34-1.3h-.02s-.21.85-.35,1.3l-.75,2.43Z"/><path class="cls-3" d="M96.33,50.52h-.02v.75h-1.54v-8.43h1.6v3.12h.04c.33-.51.85-.9,1.69-.9,1.52,0,2.61,1.31,2.61,3.2s-1.04,3.2-2.56,3.2c-.85,0-1.45-.37-1.8-.93ZM99.06,48.25c0-1.12-.45-1.9-1.34-1.9-1.01,0-1.39.81-1.39,1.93s.55,1.82,1.45,1.82c.83,0,1.29-.68,1.29-1.85Z"/><path class="cls-3" d="M101.05,49.32h1.49c.11.7.6,1,1.32,1s1.11-.27,1.11-.7c0-.58-.77-.64-1.59-.8-1.09-.21-2.15-.51-2.15-1.83s1.09-1.93,2.47-1.93c1.59,0,2.48.79,2.59,2h-1.45c-.07-.65-.48-.88-1.17-.88-.63,0-1.04.24-1.04.67,0,.52.8.56,1.66.74,1.01.21,2.13.5,2.13,1.91,0,1.21-1.04,1.95-2.55,1.95-1.76,0-2.74-.85-2.83-2.13Z"/><path class="cls-3" d="M106.68,45.22h.84v-1.89h1.57v1.89h1.04v1.06h-1.04v3.21c0,.45.25.6.6.6.2,0,.47-.01.47-.01v1.18s-.37.02-1,.02c-.78,0-1.64-.31-1.64-1.45v-3.55h-.84v-1.06Z"/><path class="cls-3" d="M112.49,46.19h.04c.37-.68.78-1.04,1.49-1.04.18,0,.28.01.38.05v1.4h-.04c-1.05-.11-1.8.45-1.8,1.72v2.95h-1.6v-6.05h1.54v.97Z"/><path class="cls-3" d="M118.53,50.6h-.02c-.31.46-.74.81-1.78.81-1.24,0-2.11-.65-2.11-1.85,0-1.33,1.08-1.76,2.43-1.95,1-.14,1.46-.22,1.46-.68s-.34-.72-1.01-.72c-.75,0-1.12.27-1.17.85h-1.43c.05-1.06.84-1.99,2.61-1.99s2.55.81,2.55,2.23v3.08c0,.46.07.73.21.84v.06h-1.55c-.09-.12-.15-.4-.19-.67ZM118.54,49.14v-.91c-.28.17-.72.26-1.12.35-.84.19-1.25.38-1.25.94s.38.77.94.77c.92,0,1.43-.57,1.43-1.16Z"/><path class="cls-3" d="M120.76,48.25c0-1.8,1.18-3.2,3.02-3.2,1.57,0,2.54.91,2.75,2.22h-1.57c-.11-.53-.52-.93-1.11-.93-.97,0-1.46.74-1.46,1.91s.46,1.91,1.44,1.91c.65,0,1.11-.34,1.21-1.03h1.54c-.11,1.29-1.11,2.31-2.72,2.31-1.91,0-3.1-1.39-3.1-3.2Z"/><path class="cls-3" d="M126.93,45.22h.84v-1.89h1.57v1.89h1.04v1.06h-1.04v3.21c0,.45.25.6.6.6.2,0,.47-.01.47-.01v1.18s-.37.02-1,.02c-.78,0-1.64-.31-1.64-1.45v-3.55h-.84v-1.06Z"/><path class="cls-3" d="M132.94,47.09c0-2.5,1.56-4.41,4.05-4.41,2.08,0,3.3,1.24,3.48,2.84h-1.7c-.15-.85-.79-1.4-1.78-1.4-1.56,0-2.3,1.3-2.3,2.97s.9,2.96,2.31,2.96c1,0,1.71-.6,1.82-1.49h1.67c-.05.74-.37,1.46-.93,1.99-.58.54-1.39.9-2.56.9-2.37,0-4.06-1.83-4.06-4.37Z"/><path class="cls-3" d="M142.78,46.19h.04c.37-.68.78-1.04,1.49-1.04.18,0,.28.01.38.05v1.4h-.04c-1.05-.11-1.8.45-1.8,1.72v2.95h-1.6v-6.05h1.54v.97Z"/><path class="cls-3" d="M144.9,48.24c0-1.79,1.21-3.18,2.98-3.18,1.95,0,2.98,1.49,2.98,3.64h-4.39c.12.93.64,1.51,1.54,1.51.63,0,.99-.28,1.17-.74h1.58c-.22,1.07-1.18,1.98-2.74,1.98-2.01,0-3.14-1.4-3.14-3.21ZM146.51,47.59h2.69c-.05-.77-.55-1.3-1.29-1.3-.85,0-1.26.51-1.4,1.3Z"/><path class="cls-3" d="M155.23,50.6h-.02c-.31.46-.74.81-1.78.81-1.24,0-2.11-.65-2.11-1.85,0-1.33,1.08-1.76,2.43-1.95,1-.14,1.46-.22,1.46-.68s-.34-.72-1.01-.72c-.75,0-1.12.27-1.17.85h-1.43c.05-1.06.84-1.99,2.61-1.99s2.55.81,2.55,2.23v3.08c0,.46.07.73.21.84v.06h-1.55c-.09-.12-.15-.4-.19-.67ZM155.25,49.14v-.91c-.28.17-.72.26-1.12.35-.84.19-1.25.38-1.25.94s.38.77.94.77c.92,0,1.43-.57,1.43-1.16Z"/><path class="cls-3" d="M157.29,45.22h.84v-1.89h1.57v1.89h1.04v1.06h-1.04v3.21c0,.45.25.6.6.6.2,0,.47-.01.47-.01v1.18s-.37.02-1,.02c-.78,0-1.64-.31-1.64-1.45v-3.55h-.84v-1.06Z"/><path class="cls-3" d="M161.56,42.84h1.6v1.44h-1.6v-1.44ZM161.56,45.22h1.6v6.05h-1.6v-6.05Z"/><path class="cls-3" d="M163.71,45.22h1.63l.97,3.14c.18.58.27.97.27.97h.02s.08-.39.26-.97l.99-3.14h1.6l-2.11,6.05h-1.53l-2.1-6.05Z"/><path class="cls-3" d="M169.52,48.24c0-1.79,1.21-3.18,2.98-3.18,1.95,0,2.98,1.49,2.98,3.64h-4.39c.12.93.64,1.51,1.54,1.51.63,0,.99-.28,1.17-.74h1.58c-.22,1.07-1.18,1.98-2.74,1.98-2.01,0-3.14-1.4-3.14-3.21ZM171.12,47.59h2.69c-.05-.77-.55-1.3-1.29-1.3-.85,0-1.26.51-1.4,1.3Z"/><path class="cls-3" d="M177.84,48.42h1.04c.14,1.43,1.01,2.17,2.61,2.17,1.17,0,2-.53,2-1.58,0-1.16-1.01-1.43-2.52-1.76-1.49-.33-2.76-.76-2.76-2.35,0-1.39,1.16-2.23,2.87-2.23,2.11,0,2.98,1.07,3.2,2.63h-1c-.15-1.2-.93-1.8-2.17-1.8-1.14,0-1.9.48-1.9,1.36,0,.96.94,1.24,2.21,1.49,1.64.33,3.14.73,3.14,2.63,0,1.58-1.29,2.46-3.1,2.46-2.37,0-3.5-1.32-3.6-3.02Z"/><path class="cls-3" d="M185.27,48.23c0-1.77,1.16-3.21,2.89-3.21,1.83,0,2.81,1.41,2.81,3.43h-4.72c.07,1.24.74,2.18,1.97,2.18.88,0,1.47-.42,1.69-1.25h.93c-.28,1.31-1.24,2.05-2.62,2.05-1.86,0-2.95-1.44-2.95-3.21ZM186.27,47.74h3.67c-.06-1.21-.68-1.96-1.78-1.96s-1.75.85-1.89,1.96Z"/><path class="cls-3" d="M192.85,46.19h.02c.37-.59,1-1.08,1.82-1.08.18,0,.27.02.39.07v.92h-.04c-.14-.05-.24-.06-.42-.06-.94,0-1.77.71-1.77,1.85v3.38h-.96v-6.1h.96v1.01Z"/><path class="cls-3" d="M195.31,45.18h1.03l1.26,3.87c.18.54.4,1.29.4,1.29h.02s.22-.75.4-1.29l1.29-3.87h.99l-2.19,6.1h-1.06l-2.14-6.1Z"/><path class="cls-3" d="M201.37,42.84h.96v1.18h-.96v-1.18ZM201.37,45.18h.96v6.1h-.96v-6.1Z"/><path class="cls-3" d="M203.28,48.23c0-1.77,1.13-3.21,2.95-3.21,1.44,0,2.39.82,2.61,2.12h-.97c-.14-.83-.72-1.33-1.64-1.33-1.3,0-1.97,1.07-1.97,2.42s.67,2.41,1.97,2.41c.99,0,1.58-.57,1.66-1.51h.94c-.13,1.46-1.08,2.31-2.61,2.31-1.82,0-2.95-1.44-2.95-3.21Z"/><path class="cls-3" d="M209.4,48.23c0-1.77,1.16-3.21,2.89-3.21,1.83,0,2.81,1.41,2.81,3.43h-4.72c.07,1.24.74,2.18,1.97,2.18.88,0,1.47-.42,1.69-1.25h.93c-.28,1.31-1.24,2.05-2.62,2.05-1.86,0-2.95-1.44-2.95-3.21ZM210.4,47.74h3.67c-.06-1.21-.68-1.96-1.78-1.96s-1.75.85-1.89,1.96Z"/><path class="cls-2" d="M71.17,18.31h5.43v18.59h-5.43v-18.59Z"/><path class="cls-2" d="M78.11,27.67c0-5.56,3.82-9.7,9.41-9.7,2.03,0,3.85.52,5.2,1.46,1.92,1.33,3.04,3.41,3.28,5.77h-5.43c-.13-1.46-1.35-2.76-3.12-2.76-2.57,0-3.82,2.18-3.82,5.23s1.46,5.23,3.87,5.23c1.9,0,3.04-1.25,3.22-2.91h5.49c-.16,2.05-1.09,3.87-2.42,5.15-1.59,1.53-3.56,2.21-6.27,2.21-5.67,0-9.41-4.11-9.41-9.67Z"/><path class="cls-2" d="M96.8,27.67c0-5.56,3.64-9.7,9.41-9.7s9.46,4.13,9.46,9.7-3.69,9.67-9.46,9.67-9.41-4.11-9.41-9.67ZM110.17,27.67c0-3.04-1.33-5.36-3.93-5.36s-3.93,2.31-3.93,5.36,1.33,5.33,3.93,5.33,3.93-2.29,3.93-5.33Z"/><path class="cls-2" d="M117.19,18.31h5.43l6.08,10.45h.05v-10.45h5.25v18.59h-5.62l-5.9-10.53h-.05v10.53h-5.25v-18.59Z"/><path class="cls-3" d="M139.16,30.97h5.56c.18,1.48,1.33,2.18,3.12,2.18,1.07,0,2.37-.42,2.37-1.53s-1.25-1.4-3.54-1.98c-3.12-.78-6.89-1.85-6.89-5.8,0-4.26,3.48-5.88,7.67-5.88,3.85,0,7.38,1.61,7.46,5.67h-5.38c-.16-1.01-.88-1.66-2.37-1.66-1.2,0-2.03.55-2.03,1.3,0,1.09,1.59,1.25,4.37,1.92,3.12.75,6.24,1.98,6.24,5.93s-3.61,6.21-8.01,6.21c-4.84,0-8.5-2.08-8.58-6.37Z"/><path class="cls-3" d="M155.98,18.31h16.02v4.63h-5.33v13.96h-5.43v-13.96h-5.25v-4.63Z"/><path class="cls-3" d="M173.37,29.8v-11.49h5.43v11.8c0,1.72.94,2.78,2.94,2.78,1.85,0,2.78-1.2,2.78-2.89v-11.7h5.43v11.49c0,4.58-2.73,7.44-8.29,7.44s-8.29-2.78-8.29-7.44Z"/><path class="cls-3" d="M192.07,18.31h8.58c5.36,0,9.07,3.43,9.07,9.33s-3.54,9.26-9.31,9.26h-8.35v-18.59ZM199.97,32.4c2.5,0,4.24-1.61,4.24-4.76s-1.64-4.84-4.24-4.84h-2.47v9.59h2.47Z"/><path class="cls-3" d="M211.23,18.31h5.43v18.59h-5.43v-18.59Z"/><path class="cls-3" d="M218.17,27.67c0-5.56,3.64-9.7,9.41-9.7s9.46,4.13,9.46,9.7-3.69,9.67-9.46,9.67-9.41-4.11-9.41-9.67ZM231.53,27.67c0-3.04-1.33-5.36-3.93-5.36s-3.93,2.31-3.93,5.36,1.33,5.33,3.93,5.33,3.93-2.29,3.93-5.33Z"/><path class="cls-3" d="M236.81,18.56h3.08v.61h-1.18v3.12h-.73v-3.12h-1.18v-.61ZM240.51,18.56h1.04l.81,2.85h.01l.82-2.85h1.06v3.74h-.68v-2.86h-.03s-.16.59-.3,1.06l-.54,1.8h-.69l-.54-1.8c-.13-.43-.29-1.06-.29-1.06h-.03v2.86h-.67v-3.74Z"/><polygon class="cls-2" points="12.64 42.09 4.17 65.54 19.71 65.54 12.64 42.09"/><polygon class="cls-5" points="12.64 42.09 19.71 65.54 40.06 35.29 15.05 35.29 12.64 42.09"/><polygon class="cls-1" points="59.98 4.46 26.53 4.46 44.68 28.35 59.98 4.46"/><polygon class="cls-4" points="15.05 35.29 40.06 35.29 24.08 10.61 15.05 35.29"/></svg>