<?xml version="1.0" encoding="UTF-8"?>
<svg id="Layer_1" xmlns="http://www.w3.org/2000/svg" version="1.1" viewBox="0 0 243.6 85">
  <!-- Generator: Adobe Illustrator 29.6.1, SVG Export Plug-In . SVG Version: 2.1.1 Build 9)  -->
  <defs>
    <style>
      .st0 {
        fill: #004853;
      }

      .st1 {
        fill: #00b4af;
      }

      .st2 {
        fill: #231f20;
      }

      .st3 {
        fill: #00666a;
      }

      .st4 {
        fill: #00817f;
      }
    </style>
  </defs>
  <g>
    <path class="st2" d="M75.7,61.4h1.2l3.1,8.4h-1.2l-.9-2.6h-3.4l-.9,2.6h-1.1l3.1-8.4ZM74.9,66.4h2.8l-1-2.8c-.2-.5-.4-1.2-.4-1.2h0s-.2.7-.4,1.2l-1,2.8Z"/>
    <path class="st2" d="M81.7,64.5h0c.4-.6,1-.9,1.9-.9,1.3,0,2.1.7,2.1,2v4.3h-1v-4.2c0-.8-.5-1.2-1.4-1.2s-1.7.7-1.7,1.7v3.8h-1v-6.1h1v.8Z"/>
    <path class="st2" d="M91.2,61.4h1.8l3,8.4h-1.8l-.6-1.8h-3l-.6,1.8h-1.7l2.9-8.4ZM90.9,66.7h2.2l-.8-2.4c-.1-.4-.3-1.3-.3-1.3h0s-.2.8-.4,1.3l-.8,2.4Z"/>
    <path class="st2" d="M98.1,69h0v.8h-1.5v-8.4h1.6v3.1h0c.3-.5.8-.9,1.7-.9,1.5,0,2.6,1.3,2.6,3.2s-1,3.2-2.6,3.2-1.5-.4-1.8-.9ZM100.8,66.8c0-1.1-.4-1.9-1.3-1.9s-1.4.8-1.4,1.9.6,1.8,1.5,1.8,1.3-.7,1.3-1.9Z"/>
    <path class="st2" d="M102.8,67.8h1.5c.1.7.6,1,1.3,1s1.1-.3,1.1-.7-.8-.6-1.6-.8c-1.1-.2-2.1-.5-2.1-1.8s1.1-1.9,2.5-1.9,2.5.8,2.6,2h-1.5c0-.6-.5-.9-1.2-.9s-1,.2-1,.7.8.6,1.7.7c1,.2,2.1.5,2.1,1.9s-1,1.9-2.5,1.9-2.7-.8-2.8-2.1Z"/>
    <path class="st2" d="M108.4,63.7h.8v-1.9h1.6v1.9h1v1.1h-1v3.2c0,.4.2.6.6.6s.5,0,.5,0v1.2s-.4,0-1,0-1.6-.3-1.6-1.5v-3.5h-.8v-1.1Z"/>
    <path class="st2" d="M114.2,64.7h0c.4-.7.8-1,1.5-1s.3,0,.4,0v1.4h0c-1-.1-1.8.4-1.8,1.7v2.9h-1.6v-6.1h1.5v1Z"/>
    <path class="st2" d="M120.3,69.1h0c-.3.5-.7.8-1.8.8s-2.1-.6-2.1-1.9,1.1-1.8,2.4-1.9c1-.1,1.5-.2,1.5-.7s-.3-.7-1-.7-1.1.3-1.2.8h-1.4c0-1.1.8-2,2.6-2s2.5.8,2.5,2.2v3.1c0,.5,0,.7.2.8h0c0,0-1.5,0-1.5,0,0-.1-.2-.4-.2-.7ZM120.3,67.7v-.9c-.3.2-.7.3-1.1.4-.8.2-1.2.4-1.2.9s.4.8.9.8c.9,0,1.4-.6,1.4-1.2Z"/>
    <path class="st2" d="M122.5,66.8c0-1.8,1.2-3.2,3-3.2s2.5.9,2.7,2.2h-1.6c-.1-.5-.5-.9-1.1-.9-1,0-1.5.7-1.5,1.9s.5,1.9,1.4,1.9,1.1-.3,1.2-1h1.5c-.1,1.3-1.1,2.3-2.7,2.3s-3.1-1.4-3.1-3.2Z"/>
    <path class="st2" d="M128.7,63.7h.8v-1.9h1.6v1.9h1v1.1h-1v3.2c0,.4.2.6.6.6s.5,0,.5,0v1.2s-.4,0-1,0-1.6-.3-1.6-1.5v-3.5h-.8v-1.1Z"/>
    <path class="st2" d="M134.7,65.6c0-2.5,1.6-4.4,4-4.4s3.3,1.2,3.5,2.8h-1.7c-.2-.8-.8-1.4-1.8-1.4-1.6,0-2.3,1.3-2.3,3s.9,3,2.3,3,1.7-.6,1.8-1.5h1.7c0,.7-.4,1.5-.9,2-.6.5-1.4.9-2.6.9-2.4,0-4.1-1.8-4.1-4.4Z"/>
    <path class="st2" d="M144.5,64.7h0c.4-.7.8-1,1.5-1s.3,0,.4,0v1.4h0c-1.1-.1-1.8.4-1.8,1.7v2.9h-1.6v-6.1h1.5v1Z"/>
    <path class="st2" d="M146.6,66.8c0-1.8,1.2-3.2,3-3.2s3,1.5,3,3.6h-4.4c.1.9.6,1.5,1.5,1.5s1-.3,1.2-.7h1.6c-.2,1.1-1.2,2-2.7,2s-3.1-1.4-3.1-3.2ZM148.2,66.1h2.7c0-.8-.6-1.3-1.3-1.3s-1.3.5-1.4,1.3Z"/>
    <path class="st2" d="M157,69.1h0c-.3.5-.7.8-1.8.8s-2.1-.6-2.1-1.9,1.1-1.8,2.4-1.9c1-.1,1.5-.2,1.5-.7s-.3-.7-1-.7-1.1.3-1.2.8h-1.4c0-1.1.8-2,2.6-2s2.5.8,2.5,2.2v3.1c0,.5,0,.7.2.8h0c0,0-1.5,0-1.5,0,0-.1-.2-.4-.2-.7ZM157,67.7v-.9c-.3.2-.7.3-1.1.4-.8.2-1.2.4-1.2.9s.4.8.9.8c.9,0,1.4-.6,1.4-1.2Z"/>
    <path class="st2" d="M159,63.7h.8v-1.9h1.6v1.9h1v1.1h-1v3.2c0,.4.2.6.6.6s.5,0,.5,0v1.2s-.4,0-1,0-1.6-.3-1.6-1.5v-3.5h-.8v-1.1Z"/>
    <path class="st2" d="M163.3,61.4h1.6v1.4h-1.6v-1.4ZM163.3,63.7h1.6v6.1h-1.6v-6.1Z"/>
    <path class="st2" d="M165.4,63.7h1.6l1,3.1c.2.6.3,1,.3,1h0s0-.4.3-1l1-3.1h1.6l-2.1,6.1h-1.5l-2.1-6.1Z"/>
    <path class="st2" d="M171.3,66.8c0-1.8,1.2-3.2,3-3.2s3,1.5,3,3.6h-4.4c.1.9.6,1.5,1.5,1.5s1-.3,1.2-.7h1.6c-.2,1.1-1.2,2-2.7,2s-3.1-1.4-3.1-3.2ZM172.9,66.1h2.7c0-.8-.6-1.3-1.3-1.3s-1.3.5-1.4,1.3Z"/>
    <path class="st2" d="M179.6,66.9h1c.1,1.4,1,2.2,2.6,2.2s2-.5,2-1.6-1-1.4-2.5-1.8c-1.5-.3-2.8-.8-2.8-2.3s1.2-2.2,2.9-2.2,3,1.1,3.2,2.6h-1c-.2-1.2-.9-1.8-2.2-1.8s-1.9.5-1.9,1.4.9,1.2,2.2,1.5c1.6.3,3.1.7,3.1,2.6s-1.3,2.5-3.1,2.5-3.5-1.3-3.6-3Z"/>
    <path class="st2" d="M187,66.8c0-1.8,1.2-3.2,2.9-3.2s2.8,1.4,2.8,3.4h-4.7c0,1.2.7,2.2,2,2.2s1.5-.4,1.7-1.2h.9c-.3,1.3-1.2,2.1-2.6,2.1s-2.9-1.4-2.9-3.2ZM188,66.3h3.7c0-1.2-.7-2-1.8-2s-1.7.8-1.9,2Z"/>
    <path class="st2" d="M194.6,64.7h0c.4-.6,1-1.1,1.8-1.1s.3,0,.4,0v.9h0c-.1,0-.2,0-.4,0-.9,0-1.8.7-1.8,1.9v3.4h-1v-6.1h1v1Z"/>
    <path class="st2" d="M197,63.7h1l1.3,3.9c.2.5.4,1.3.4,1.3h0s.2-.8.4-1.3l1.3-3.9h1l-2.2,6.1h-1.1l-2.1-6.1Z"/>
    <path class="st2" d="M203.1,61.4h1v1.2h-1v-1.2ZM203.1,63.7h1v6.1h-1v-6.1Z"/>
    <path class="st2" d="M205,66.8c0-1.8,1.1-3.2,2.9-3.2s2.4.8,2.6,2.1h-1c-.1-.8-.7-1.3-1.6-1.3s-2,1.1-2,2.4.7,2.4,2,2.4,1.6-.6,1.7-1.5h.9c-.1,1.5-1.1,2.3-2.6,2.3s-2.9-1.4-2.9-3.2Z"/>
    <path class="st2" d="M211.1,66.8c0-1.8,1.2-3.2,2.9-3.2s2.8,1.4,2.8,3.4h-4.7c0,1.2.7,2.2,2,2.2s1.5-.4,1.7-1.2h.9c-.3,1.3-1.2,2.1-2.6,2.1s-2.9-1.4-2.9-3.2ZM212.1,66.3h3.7c0-1.2-.7-2-1.8-2s-1.7.8-1.9,2Z"/>
  </g>
  <g>
    <path class="st1" d="M72.5,14.3h5.4v18.6h-5.4V14.3Z"/>
    <path class="st1" d="M79.4,23.7c0-5.6,3.8-9.7,9.4-9.7s3.8.5,5.2,1.5c1.9,1.3,3,3.4,3.3,5.8h-5.4c-.1-1.5-1.4-2.8-3.1-2.8-2.6,0-3.8,2.2-3.8,5.2s1.5,5.2,3.9,5.2,3-1.2,3.2-2.9h5.5c-.2,2.1-1.1,3.9-2.4,5.1-1.6,1.5-3.6,2.2-6.3,2.2-5.7,0-9.4-4.1-9.4-9.7Z"/>
    <path class="st1" d="M98.1,23.7c0-5.6,3.6-9.7,9.4-9.7s9.5,4.1,9.5,9.7-3.7,9.7-9.5,9.7-9.4-4.1-9.4-9.7ZM111.5,23.7c0-3-1.3-5.4-3.9-5.4s-3.9,2.3-3.9,5.4,1.3,5.3,3.9,5.3,3.9-2.3,3.9-5.3Z"/>
    <path class="st1" d="M118.5,14.3h5.4l6.1,10.5h0v-10.5h5.3v18.6h-5.6l-5.9-10.5h0v10.5h-5.3V14.3Z"/>
    <path class="st2" d="M71.5,50h5.6c.2,1.5,1.3,2.2,3.1,2.2s2.4-.4,2.4-1.5-1.2-1.4-3.5-2c-3.1-.8-6.9-1.8-6.9-5.8s3.5-5.9,7.7-5.9,7.4,1.6,7.5,5.7h-5.4c-.2-1-.9-1.7-2.4-1.7s-2,.5-2,1.3c0,1.1,1.6,1.2,4.4,1.9,3.1.8,6.2,2,6.2,5.9s-3.6,6.2-8,6.2-8.5-2.1-8.6-6.4Z"/>
    <path class="st2" d="M88.3,37.3h16v4.6h-5.3v14h-5.4v-14h-5.3v-4.6Z"/>
    <path class="st2" d="M105.7,48.8v-11.5h5.4v11.8c0,1.7.9,2.8,2.9,2.8s2.8-1.2,2.8-2.9v-11.7h5.4v11.5c0,4.6-2.7,7.4-8.3,7.4s-8.3-2.8-8.3-7.4Z"/>
    <path class="st2" d="M124.4,37.3h8.6c5.4,0,9.1,3.4,9.1,9.3s-3.5,9.3-9.3,9.3h-8.3v-18.6ZM132.3,51.4c2.5,0,4.2-1.6,4.2-4.8s-1.6-4.8-4.2-4.8h-2.5v9.6h2.5Z"/>
    <path class="st2" d="M143.6,37.3h5.4v18.6h-5.4v-18.6Z"/>
    <path class="st2" d="M150.5,46.7c0-5.6,3.6-9.7,9.4-9.7s9.5,4.1,9.5,9.7-3.7,9.7-9.5,9.7-9.4-4.1-9.4-9.7ZM163.9,46.7c0-3-1.3-5.4-3.9-5.4s-3.9,2.3-3.9,5.4,1.3,5.3,3.9,5.3,3.9-2.3,3.9-5.3Z"/>
    <path class="st2" d="M169.2,37.6h3.1v.6h-1.2v3.1h-.7v-3.1h-1.2v-.6ZM172.9,37.6h1l.8,2.8h0l.8-2.8h1.1v3.7h-.7v-2.9h0s-.2.6-.3,1.1l-.5,1.8h-.7l-.5-1.8c-.1-.4-.3-1.1-.3-1.1h0v2.9h-.7v-3.7Z"/>
  </g>
  <g>
    <polygon class="st1" points="14.2 46.6 5.7 70 21.3 70 14.2 46.6"/>
    <polygon class="st4" points="14.2 46.6 21.3 70 41.6 39.8 16.6 39.8 14.2 46.6"/>
    <polygon class="st0" points="61.5 8.9 28.1 8.9 46.2 32.8 61.5 8.9"/>
    <polygon class="st3" points="16.6 39.8 41.6 39.8 25.6 15.1 16.6 39.8"/>
  </g>
</svg>