<svg width="212" height="62" viewBox="0 0 212 62" fill="none" xmlns="http://www.w3.org/2000/svg">
<g clip-path="url(#clip0_2867_426)">
<path d="M69.9498 52.4299H71.1398L74.2498 60.8599H73.0898L72.1898 58.2899H68.8298L67.9198 60.8599H66.8398L69.9398 52.4299H69.9498ZM69.1498 57.4299H71.9099L70.9398 54.5999C70.7698 54.1299 70.5598 53.4099 70.5598 53.4099H70.5398C70.5398 53.4099 70.3198 54.1199 70.1498 54.5999L69.1498 57.4299Z" fill="white"/>
<path d="M75.9798 55.5699H75.9998C76.4398 54.9899 77.0498 54.6299 77.9298 54.6299C79.1998 54.6299 79.9798 55.3299 79.9798 56.5899V60.8699H79.0198V56.6699C79.0198 55.8799 78.4998 55.4299 77.6398 55.4299C76.6698 55.4299 75.9698 56.1099 75.9698 57.1199V60.8699H75.0098V54.7699H75.9698V55.5699H75.9798Z" fill="white"/>
<path d="M85.4398 52.4299H87.2098L90.1798 60.8599H88.3998L87.8298 59.0699H84.7898L84.2398 60.8599H82.5098L85.4498 52.4299H85.4398ZM85.1998 57.7599H87.4298L86.6798 55.3299C86.5398 54.8799 86.3398 54.0299 86.3398 54.0299H86.3198C86.3198 54.0299 86.1098 54.8799 85.9698 55.3299L85.2198 57.7599H85.1998Z" fill="white"/>
<path d="M92.3295 60.1099H92.3095V60.8599H90.7695V52.4299H92.3695V55.5399H92.4095C92.7395 55.0299 93.2595 54.6399 94.0995 54.6399C95.6195 54.6399 96.7095 55.9499 96.7095 57.8399C96.7095 59.7299 95.6695 61.0399 94.1495 61.0399C93.2995 61.0399 92.6995 60.6699 92.3495 60.1099H92.3295ZM95.0595 57.8399C95.0595 56.7199 94.6095 55.9399 93.7195 55.9399C92.7095 55.9399 92.3295 56.7499 92.3295 57.8699C92.3295 58.9899 92.8795 59.6899 93.7795 59.6899C94.6095 59.6899 95.0695 59.0099 95.0695 57.8399H95.0595Z" fill="white"/>
<path d="M97.05 58.9099H98.54C98.65 59.6099 99.14 59.9099 99.86 59.9099C100.58 59.9099 100.97 59.6399 100.97 59.2099C100.97 58.6299 100.2 58.5699 99.38 58.4099C98.29 58.1999 97.23 57.8999 97.23 56.5799C97.23 55.2599 98.32 54.6499 99.7 54.6499C101.29 54.6499 102.18 55.4399 102.29 56.6499H100.84C100.77 55.9999 100.36 55.7699 99.67 55.7699C99.04 55.7699 98.63 56.0099 98.63 56.4399C98.63 56.9599 99.43 57.0099 100.29 57.1799C101.3 57.3899 102.42 57.6799 102.42 59.0899C102.42 60.2999 101.38 61.0399 99.87 61.0399C98.11 61.0399 97.13 60.1899 97.04 58.9099H97.05Z" fill="white"/>
<path d="M102.68 54.8099H103.52V52.9199H105.09V54.8099H106.13V55.8699H105.09V59.0799C105.09 59.5299 105.34 59.6799 105.69 59.6799C105.89 59.6799 106.16 59.6699 106.16 59.6699V60.8499C106.16 60.8499 105.79 60.8699 105.16 60.8699C104.38 60.8699 103.52 60.5599 103.52 59.4199V55.8699H102.68V54.8099Z" fill="white"/>
<path d="M108.49 55.78H108.53C108.9 55.1 109.31 54.74 110.02 54.74C110.2 54.74 110.3 54.75 110.4 54.79V56.19H110.36C109.31 56.08 108.56 56.64 108.56 57.91V60.86H106.96V54.81H108.5V55.78H108.49Z" fill="white"/>
<path d="M114.53 60.1899H114.51C114.2 60.6499 113.77 60.9999 112.73 60.9999C111.49 60.9999 110.62 60.3499 110.62 59.1499C110.62 57.8199 111.7 57.3899 113.05 57.1999C114.05 57.0599 114.51 56.9799 114.51 56.5199C114.51 56.0599 114.17 55.7999 113.5 55.7999C112.75 55.7999 112.38 56.0699 112.33 56.6499H110.9C110.95 55.5899 111.74 54.6599 113.51 54.6599C115.28 54.6599 116.06 55.4699 116.06 56.8899V59.9699C116.06 60.4299 116.13 60.6999 116.27 60.8099V60.8699H114.72C114.63 60.7499 114.57 60.4699 114.53 60.1999V60.1899ZM114.54 58.7299V57.8199C114.26 57.9899 113.82 58.0799 113.42 58.1699C112.58 58.3599 112.17 58.5499 112.17 59.1099C112.17 59.6699 112.55 59.8799 113.11 59.8799C114.03 59.8799 114.54 59.3099 114.54 58.7199V58.7299Z" fill="white"/>
<path d="M116.76 57.8399C116.76 56.0399 117.94 54.6399 119.78 54.6399C121.35 54.6399 122.32 55.5499 122.53 56.8599H120.96C120.85 56.3299 120.44 55.9299 119.85 55.9299C118.88 55.9299 118.39 56.6699 118.39 57.8399C118.39 59.0099 118.85 59.7499 119.83 59.7499C120.48 59.7499 120.94 59.4099 121.04 58.7199H122.58C122.47 60.0099 121.47 61.0299 119.86 61.0299C117.95 61.0299 116.76 59.6399 116.76 57.8299V57.8399Z" fill="white"/>
<path d="M122.93 54.8099H123.77V52.9199H125.34V54.8099H126.38V55.8699H125.34V59.0799C125.34 59.5299 125.59 59.6799 125.94 59.6799C126.14 59.6799 126.41 59.6699 126.41 59.6699V60.8499C126.41 60.8499 126.04 60.8699 125.41 60.8699C124.63 60.8699 123.77 60.5599 123.77 59.4199V55.8699H122.93V54.8099Z" fill="white"/>
<path d="M128.94 56.68C128.94 54.18 130.5 52.27 132.98 52.27C135.06 52.27 136.28 53.51 136.46 55.11H134.76C134.61 54.26 133.97 53.71 132.98 53.71C131.42 53.71 130.68 55.01 130.68 56.68C130.68 58.35 131.58 59.64 132.99 59.64C133.99 59.64 134.7 59.04 134.81 58.15H136.48C136.43 58.89 136.11 59.61 135.55 60.14C134.97 60.68 134.16 61.04 132.99 61.04C130.62 61.04 128.93 59.21 128.93 56.68H128.94Z" fill="white"/>
<path d="M138.78 55.78H138.82C139.19 55.1 139.6 54.74 140.31 54.74C140.49 54.74 140.59 54.75 140.69 54.79V56.19H140.65C139.6 56.08 138.85 56.64 138.85 57.91V60.86H137.25V54.81H138.79V55.78H138.78Z" fill="white"/>
<path d="M140.91 57.8299C140.91 56.0399 142.12 54.6499 143.89 54.6499C145.84 54.6499 146.87 56.1399 146.87 58.2899H142.48C142.6 59.2199 143.12 59.7999 144.02 59.7999C144.65 59.7999 145.01 59.5199 145.19 59.0599H146.77C146.55 60.1299 145.59 61.0399 144.03 61.0399C142.02 61.0399 140.89 59.6399 140.89 57.8299H140.91ZM142.51 57.1799H145.2C145.15 56.4099 144.65 55.8799 143.91 55.8799C143.06 55.8799 142.65 56.3899 142.51 57.1799Z" fill="white"/>
<path d="M151.23 60.1899H151.21C150.9 60.6499 150.47 60.9999 149.43 60.9999C148.19 60.9999 147.32 60.3499 147.32 59.1499C147.32 57.8199 148.4 57.3899 149.75 57.1999C150.75 57.0599 151.21 56.9799 151.21 56.5199C151.21 56.0599 150.87 55.7999 150.2 55.7999C149.45 55.7999 149.08 56.0699 149.03 56.6499H147.6C147.65 55.5899 148.44 54.6599 150.21 54.6599C151.98 54.6599 152.76 55.4699 152.76 56.8899V59.9699C152.76 60.4299 152.83 60.6999 152.97 60.8099V60.8699H151.42C151.33 60.7499 151.27 60.4699 151.23 60.1999V60.1899ZM151.25 58.7299V57.8199C150.97 57.9899 150.53 58.0799 150.13 58.1699C149.29 58.3599 148.88 58.5499 148.88 59.1099C148.88 59.6699 149.26 59.8799 149.82 59.8799C150.74 59.8799 151.25 59.3099 151.25 58.7199V58.7299Z" fill="white"/>
<path d="M153.29 54.8099H154.13V52.9199H155.7V54.8099H156.74V55.8699H155.7V59.0799C155.7 59.5299 155.95 59.6799 156.3 59.6799C156.5 59.6799 156.77 59.6699 156.77 59.6699V60.8499C156.77 60.8499 156.4 60.8699 155.77 60.8699C154.99 60.8699 154.13 60.5599 154.13 59.4199V55.8699H153.29V54.8099Z" fill="white"/>
<path d="M157.56 52.4299H159.16V53.8699H157.56V52.4299ZM157.56 54.8099H159.16V60.8599H157.56V54.8099Z" fill="white"/>
<path d="M159.71 54.8101H161.34L162.31 57.9501C162.49 58.5301 162.58 58.9201 162.58 58.9201H162.6C162.6 58.9201 162.68 58.5301 162.86 57.9501L163.85 54.8101H165.45L163.34 60.8601H161.81L159.71 54.8101Z" fill="white"/>
<path d="M165.52 57.8299C165.52 56.0399 166.73 54.6499 168.5 54.6499C170.45 54.6499 171.48 56.1399 171.48 58.2899H167.09C167.21 59.2199 167.73 59.7999 168.63 59.7999C169.26 59.7999 169.62 59.5199 169.8 59.0599H171.38C171.16 60.1299 170.2 61.0399 168.64 61.0399C166.63 61.0399 165.5 59.6399 165.5 57.8299H165.52ZM167.12 57.1799H169.81C169.76 56.4099 169.26 55.8799 168.52 55.8799C167.67 55.8799 167.26 56.3899 167.12 57.1799Z" fill="white"/>
<path d="M173.84 58.01H174.88C175.02 59.44 175.89 60.18 177.49 60.18C178.66 60.18 179.49 59.65 179.49 58.6C179.49 57.44 178.48 57.17 176.97 56.84C175.48 56.51 174.21 56.09 174.21 54.49C174.21 53.1 175.37 52.26 177.08 52.26C179.19 52.26 180.06 53.33 180.28 54.89H179.28C179.13 53.69 178.35 53.09 177.11 53.09C175.97 53.09 175.21 53.57 175.21 54.45C175.21 55.41 176.15 55.69 177.42 55.94C179.06 56.27 180.56 56.67 180.56 58.57C180.56 60.15 179.27 61.03 177.46 61.03C175.09 61.03 173.96 59.71 173.86 58.01H173.84Z" fill="white"/>
<path d="M181.27 57.8201C181.27 56.0501 182.43 54.6101 184.16 54.6101C185.99 54.6101 186.97 56.0301 186.97 58.0401H182.25C182.32 59.2801 182.99 60.2201 184.22 60.2201C185.1 60.2201 185.69 59.8001 185.91 58.9701H186.84C186.56 60.2801 185.6 61.0201 184.22 61.0201C182.36 61.0201 181.27 59.5801 181.27 57.8101V57.8201ZM182.27 57.3301H185.94C185.88 56.1201 185.26 55.3701 184.16 55.3701C183.06 55.3701 182.41 56.2201 182.27 57.3301Z" fill="white"/>
<path d="M188.85 55.7799H188.87C189.24 55.1899 189.87 54.7 190.69 54.7C190.87 54.7 190.96 54.72 191.08 54.77V55.6899H191.04C190.9 55.6399 190.8 55.63 190.62 55.63C189.68 55.63 188.85 56.3399 188.85 57.4799V60.86H187.89V54.7599H188.85V55.77V55.7799Z" fill="white"/>
<path d="M191.31 54.77H192.34L193.6 58.64C193.78 59.18 194 59.93 194 59.93H194.02C194.02 59.93 194.24 59.18 194.42 58.64L195.71 54.77H196.7L194.51 60.87H193.45L191.31 54.77Z" fill="white"/>
<path d="M197.37 52.4299H198.33V53.6099H197.37V52.4299ZM197.37 54.7699H198.33V60.8699H197.37V54.7699Z" fill="white"/>
<path d="M199.28 57.8201C199.28 56.0501 200.41 54.6101 202.23 54.6101C203.67 54.6101 204.62 55.4401 204.84 56.7301H203.87C203.73 55.9001 203.15 55.4001 202.23 55.4001C200.93 55.4001 200.26 56.4701 200.26 57.8201C200.26 59.1701 200.93 60.2301 202.23 60.2301C203.22 60.2301 203.81 59.6601 203.89 58.7201H204.83C204.7 60.1801 203.75 61.0301 202.22 61.0301C200.4 61.0301 199.27 59.5901 199.27 57.8201H199.28Z" fill="white"/>
<path d="M205.4 57.8201C205.4 56.0501 206.56 54.6101 208.29 54.6101C210.12 54.6101 211.1 56.0301 211.1 58.0401H206.38C206.45 59.2801 207.12 60.2201 208.35 60.2201C209.23 60.2201 209.82 59.8001 210.04 58.9701H210.97C210.69 60.2801 209.73 61.0201 208.35 61.0201C206.49 61.0201 205.4 59.5801 205.4 57.8101V57.8201ZM206.4 57.3301H210.07C210.01 56.1201 209.39 55.3701 208.29 55.3701C207.19 55.3701 206.54 56.2201 206.4 57.3301Z" fill="white"/>
<path d="M66.7305 5.40991H72.1605V23.9999H66.7305V5.40991Z" fill="#00B5B0"/>
<path d="M73.6699 14.7701C73.6699 9.21007 77.4899 5.07007 83.0799 5.07007C85.1099 5.07007 86.9299 5.59007 88.2799 6.53007C90.1999 7.86007 91.3199 9.94007 91.5599 12.3001H86.1299C85.9999 10.8401 84.7799 9.54007 83.0099 9.54007C80.4399 9.54007 79.1899 11.7201 79.1899 14.7701C79.1899 17.8201 80.6499 20.0001 83.0599 20.0001C84.9599 20.0001 86.0999 18.7501 86.2799 17.0901H91.7699C91.6099 19.1401 90.6799 20.9601 89.3499 22.2401C87.7599 23.7701 85.7899 24.4501 83.0799 24.4501C77.4099 24.4501 73.6699 20.3401 73.6699 14.7801V14.7701Z" fill="#00B5B0"/>
<path d="M92.3701 14.7701C92.3701 9.21007 96.0101 5.07007 101.78 5.07007C107.55 5.07007 111.24 9.20007 111.24 14.7701C111.24 20.3401 107.55 24.4401 101.78 24.4401C96.0101 24.4401 92.3701 20.3301 92.3701 14.7701ZM105.73 14.7701C105.73 11.7301 104.4 9.41007 101.8 9.41007C99.2001 9.41007 97.8701 11.7201 97.8701 14.7701C97.8701 17.8201 99.2001 20.1001 101.8 20.1001C104.4 20.1001 105.73 17.8101 105.73 14.7701Z" fill="#00B5B0"/>
<path d="M112.75 5.40991H118.18L124.26 15.8599H124.31V5.40991H129.56V23.9999H123.94L118.04 13.4699H117.99V23.9999H112.74V5.40991H112.75Z" fill="#00B5B0"/>
<path d="M65.7698 41.0701H71.3298C71.5098 42.5501 72.6598 43.2501 74.4498 43.2501C75.5198 43.2501 76.8198 42.8301 76.8198 41.7201C76.8198 40.6101 75.5698 40.3201 73.2798 39.7401C70.1598 38.9601 66.3898 37.8901 66.3898 33.9401C66.3898 29.6801 69.8698 28.0601 74.0598 28.0601C77.9098 28.0601 81.4398 29.6701 81.5198 33.7301H76.1398C75.9798 32.7201 75.2598 32.0701 73.7698 32.0701C72.5698 32.0701 71.7398 32.6201 71.7398 33.3701C71.7398 34.4601 73.3298 34.6201 76.1098 35.2901C79.2298 36.0401 82.3498 37.2701 82.3498 41.2201C82.3498 45.1701 78.7398 47.4301 74.3398 47.4301C69.4998 47.4301 65.8398 45.3501 65.7598 41.0601L65.7698 41.0701Z" fill="white"/>
<path d="M82.5898 28.4099H98.6098V33.0399H93.2798V46.9999H87.8498V33.0399H82.5998V28.4099H82.5898Z" fill="white"/>
<path d="M99.9805 39.8999V28.4099H105.41V40.2099C105.41 41.9299 106.35 42.9899 108.35 42.9899C110.2 42.9899 111.13 41.7899 111.13 40.0999V28.3999H116.56V39.8899C116.56 44.4699 113.83 47.3299 108.27 47.3299C102.71 47.3299 99.9805 44.5499 99.9805 39.8899V39.8999Z" fill="white"/>
<path d="M118.68 28.4099H127.26C132.62 28.4099 136.33 31.8399 136.33 37.7399C136.33 43.6399 132.79 46.9999 127.02 46.9999H118.67V28.4099H118.68ZM126.58 42.4999C129.08 42.4999 130.82 40.8899 130.82 37.7399C130.82 34.5899 129.18 32.8999 126.58 32.8999H124.11V42.4899H126.58V42.4999Z" fill="white"/>
<path d="M137.84 28.4099H143.27V46.9999H137.84V28.4099Z" fill="white"/>
<path d="M144.78 37.7701C144.78 32.2101 148.42 28.0701 154.19 28.0701C159.96 28.0701 163.65 32.2001 163.65 37.7701C163.65 43.3401 159.96 47.4401 154.19 47.4401C148.42 47.4401 144.78 43.3301 144.78 37.7701ZM158.15 37.7701C158.15 34.7301 156.82 32.4101 154.22 32.4101C151.62 32.4101 150.29 34.7201 150.29 37.7701C150.29 40.8201 151.62 43.1001 154.22 43.1001C156.82 43.1001 158.15 40.8101 158.15 37.7701Z" fill="white"/>
<path d="M163.43 28.6599H166.51V29.2699H165.33V32.3899H164.6V29.2699H163.42V28.6599H163.43ZM167.12 28.6599H168.16L168.97 31.5099H168.98L169.8 28.6599H170.86V32.3999H170.18V29.5399H170.15C170.15 29.5399 169.99 30.1299 169.85 30.5999L169.31 32.3999H168.62L168.08 30.5999C167.95 30.1699 167.79 29.5399 167.79 29.5399H167.76V32.3999H167.09V28.6599H167.12Z" fill="white"/>
<path d="M8.47 37.6299L0 61.0799H15.54L8.47 37.6299Z" fill="#00B5B0"/>
<path d="M8.4707 37.6301L15.5407 61.0801L35.8907 30.8301H10.8707L8.4707 37.6301Z" fill="#00827F"/>
<path d="M55.8094 0H22.3594L40.5094 23.89L55.8094 0Z" fill="#004854"/>
<path d="M10.8691 30.8299H35.8891L19.9091 6.1499L10.8691 30.8299Z" fill="#00666A"/>
</g>
<defs>
<clipPath id="clip0_2867_426">
<rect width="211.09" height="61.08" fill="white"/>
</clipPath>
</defs>
</svg>
