<?xml version="1.0" encoding="UTF-8"?>
<svg id="Layer_1" xmlns="http://www.w3.org/2000/svg" version="1.1" viewBox="0 0 225 85">
  <!-- Generator: Adobe Illustrator 29.6.1, SVG Export Plug-In . SVG Version: 2.1.1 Build 9)  -->
  <defs>
    <style>
      .st0 {
        fill: none;
      }

      .st1 {
        fill: #00b4af;
      }

      .st2 {
        fill: #231f20;
      }

      .st3 {
        fill: #d03733;
      }

      .st4 {
        fill: #f0ad1e;
      }

      .st5 {
        fill: #ee4137;
      }
    </style>
  </defs>
  <g>
    <path class="st2" d="M71.2,66.9h3.5c.9,0,1.6.3,2,.8.4.4.6,1,.6,1.6,0,1.5-.9,2.5-2.7,2.5h-2.3v3.5h-1.1s0-8.4,0-8.4ZM72.2,71h2.2c1.2,0,1.8-.6,1.8-1.6s-.6-1.5-1.7-1.5h-2.3v3.1Z"/>
    <path class="st2" d="M77.6,72.3c0-1.8,1.1-3.2,2.9-3.2s2.9,1.4,2.9,3.2-1.1,3.2-2.9,3.2-2.9-1.4-2.9-3.2ZM82.5,72.3c0-1.3-.7-2.4-2-2.4s-2,1.1-2,2.4.7,2.4,2,2.4,2-1.1,2-2.4Z"/>
    <path class="st2" d="M83.7,69.3h1l1.1,3.8c0,.5.3,1.3.3,1.3h0s.2-.8.3-1.3l1-3.8h1l1,3.8c0,.5.3,1.3.3,1.3h0s.2-.8.3-1.3l1.1-3.8h1l-2,6.1h-1l-1-3.7c0-.5-.3-1.3-.3-1.3h0s-.2.8-.3,1.3l-1,3.7h-1l-1.9-6.1h0Z"/>
    <path class="st2" d="M92.5,72.3c0-1.8,1.2-3.2,2.9-3.2s2.8,1.4,2.8,3.4h-4.7c0,1.2.7,2.2,2,2.2s1.5-.4,1.7-1.2h.9c-.3,1.3-1.2,2.1-2.6,2.1s-2.9-1.4-2.9-3.2h-.1ZM93.5,71.8h3.7c0-1.2-.7-2-1.8-2s-1.7.8-1.9,2Z"/>
    <path class="st2" d="M100.1,70.3h0c.4-.6,1-1.1,1.8-1.1s.3,0,.4,0v.9h-.4c-.9,0-1.8.7-1.8,1.9v3.4h-1v-6.1h1s0,1,0,1Z"/>
    <path class="st2" d="M102.6,72.3c0-1.8,1.2-3.2,2.9-3.2s2.8,1.4,2.8,3.4h-4.7c0,1.2.7,2.2,2,2.2s1.5-.4,1.7-1.2h.9c-.3,1.3-1.2,2.1-2.6,2.1s-2.9-1.4-2.9-3.2h-.1ZM103.6,71.8h3.7c0-1.2-.7-2-1.8-2s-1.7.8-1.9,2Z"/>
    <path class="st2" d="M108.9,72.3c0-2,1.2-3.2,2.7-3.2s1.5.4,1.9,1h0v-3.2h1v8.4h-1v-.7h0c-.5.6-1,.9-1.9.9-1.7,0-2.7-1.2-2.7-3.2ZM113.6,72.3c0-1.4-.7-2.4-1.9-2.4s-1.7,1-1.7,2.4.6,2.4,1.8,2.4,1.9-1,1.9-2.4h-.1Z"/>
    <path class="st2" d="M118.6,74.5h0v.8h-1v-8.4h1v3.2h0c.5-.6,1.1-1,2-1,1.5,0,2.6,1.2,2.6,3.2s-1,3.2-2.6,3.2-1.4-.3-1.9-1h0ZM122.2,72.3c0-1.4-.6-2.4-1.7-2.4s-1.9,1.1-1.9,2.4.6,2.4,1.9,2.4,1.7-1,1.7-2.4Z"/>
    <path class="st2" d="M123.9,77.2v-.8h0c0,0,.3,0,.6,0s.7-.2.9-.7l.2-.6-2.4-5.9h1l1.4,3.8c.2.5.4,1.2.4,1.2h0s.2-.7.4-1.2l1.4-3.8h1l-2.6,6.6c-.5,1.3-1,1.5-1.7,1.5s-.6,0-.9,0h.3Z"/>
    <path class="st2" d="M131.3,69.3h.9v-1.9h1v1.9h1.2v.8h-1.2v4c0,.4.2.6.6.6h.5v.8h-.8c-.8,0-1.3-.3-1.3-1.2v-4.2h-.9s0-.8,0-.8Z"/>
    <path class="st2" d="M136.2,70.1h0c.4-.6,1-.9,1.9-.9,1.3,0,2.1.7,2.1,2v4.3h-1v-4.2c0-.8-.5-1.2-1.4-1.2s-1.7.7-1.7,1.7v3.8h-1v-8.4h1v3.1-.2Z"/>
    <path class="st2" d="M141.2,72.3c0-1.8,1.2-3.2,2.9-3.2s2.8,1.4,2.8,3.4h-4.7c0,1.2.7,2.2,2,2.2s1.5-.4,1.7-1.2h.9c-.3,1.3-1.2,2.1-2.6,2.1s-2.9-1.4-2.9-3.2h0ZM142.2,71.8h3.7c0-1.2-.7-2-1.8-2s-1.7.8-1.9,2Z"/>
    <path class="st2" d="M149.8,66.9h1.7v8.4h-1.7s0-8.4,0-8.4Z"/>
    <path class="st2" d="M152.4,71.2c0-2.5,1.6-4.4,4-4.4s3.3,1.2,3.5,2.8h-1.7c-.2-.8-.8-1.4-1.8-1.4-1.6,0-2.3,1.3-2.3,3s.9,3,2.3,3,1.7-.6,1.8-1.5h1.7c0,.7-.4,1.5-.9,2-.6.5-1.4.9-2.6.9-2.4,0-4.1-1.8-4.1-4.4h.1Z"/>
    <path class="st2" d="M160.5,71.2c0-2.5,1.6-4.4,4.1-4.4s4.1,1.9,4.1,4.4-1.6,4.4-4.1,4.4-4.1-1.9-4.1-4.4ZM166.9,71.2c0-1.7-.8-3-2.3-3s-2.3,1.3-2.3,3,.8,3,2.3,3,2.3-1.3,2.3-3Z"/>
    <path class="st2" d="M169.5,66.9h1.7l2.8,4.7c.3.5.6,1.2.6,1.2h0v-5.9h1.7v8.4h-1.7l-2.9-4.7c-.3-.4-.6-1.2-.6-1.2h0v5.9h-1.7v-8.4h0Z"/>
    <path class="st2" d="M179.6,66.9h2.4l1.2,4.2c.3,1.1.5,2.3.5,2.3h0s.2-1.2.5-2.3l1.2-4.2h2.4v8.4h-1.6v-6.5h0s-.2,1-.4,1.6l-1.5,5h-1.6l-1.4-5c-.2-.6-.4-1.6-.4-1.6h0v6.5h-1.6v-8.4h.3Z"/>
    <path class="st2" d="M188.8,72.3c0-1.8,1.2-3.2,3-3.2s3,1.5,3,3.6h-4.4c.1.9.6,1.5,1.5,1.5s1-.3,1.2-.7h1.6c-.2,1.1-1.2,2-2.7,2s-3.1-1.4-3.1-3.2h-.1ZM190.4,71.7h2.7c0-.8-.6-1.3-1.3-1.3s-1.3.5-1.4,1.3Z"/>
    <path class="st2" d="M195,69.3h.8v-1.9h1.6v1.9h1v1.1h-1v3.2c0,.4.2.6.6.6h.5v1.2h-1c-.6,0-1.6-.3-1.6-1.5v-3.5h-.8v-1.1h-.1Z"/>
    <path class="st2" d="M200.9,70.1h0c.4-.6.9-1,1.8-1s2.1.9,2.1,2.3v4h-1.6v-3.7c0-.6-.4-1.1-1-1.1s-1.2.6-1.2,1.4v3.4h-1.6v-8.4h1.6v3.2h-.1Z"/>
    <path class="st2" d="M205.5,72.3c0-1.8,1.3-3.2,3.2-3.2s3.2,1.4,3.2,3.2-1.3,3.2-3.2,3.2-3.2-1.4-3.2-3.2ZM210.2,72.3c0-1.2-.6-2-1.5-2s-1.5.8-1.5,2,.5,2,1.5,2,1.5-.8,1.5-2Z"/>
    <path class="st2" d="M212.2,72.3c0-1.9,1.1-3.2,2.6-3.2s1.4.4,1.7.9h0v-3.1h1.6v8.4h-1.5v-.8h0c-.4.6-1,1-1.8,1-1.5,0-2.6-1.2-2.6-3.2ZM216.6,72.4c0-1.2-.4-1.9-1.4-1.9s-1.3.8-1.3,1.9.5,1.9,1.3,1.9,1.5-.7,1.5-1.8h-.1Z"/>
  </g>
  <g>
    <path class="st5" d="M78.8,14.7h5.5l6.9,18.6h-5.8l-.9-2.7h-6.3l-.9,2.7h-5.4l6.9-18.6ZM79.4,26.8h3.8l-1.2-3.6c-.3-.9-.7-2.4-.7-2.4h0s-.4,1.5-.7,2.4l-1.2,3.6Z"/>
    <path class="st5" d="M92.2,14.7h9.6c1.8,0,3.2.4,4.2,1.2,1.1.9,1.8,2.1,1.8,3.7s-.8,2.9-2.3,3.6h0c2,.7,3.2,2.4,3.2,4.5s-.8,3.5-2.1,4.4c-1.1.8-2.6,1.2-4.5,1.2h-9.8V14.7ZM100.9,21.9c1,0,1.7-.5,1.7-1.5s-.7-1.5-1.8-1.5h-3.4v3h3.4ZM101.4,29c1.2,0,2-.7,2-1.8s-.9-1.8-2-1.8h-3.8v3.6h3.9Z"/>
    <path class="st5" d="M109.3,27.3h5.6c.2,1.5,1.3,2.2,3.1,2.2s2.4-.4,2.4-1.5-1.2-1.4-3.5-2c-3.1-.8-6.9-1.8-6.9-5.8s3.5-5.9,7.7-5.9,7.4,1.6,7.5,5.7h-5.4c-.2-1-.9-1.7-2.4-1.7s-2,.5-2,1.3c0,1.1,1.6,1.2,4.4,1.9,3.1.8,6.2,2,6.2,5.9s-3.6,6.2-8,6.2-8.5-2.1-8.6-6.4Z"/>
    <path class="st5" d="M126.1,14.7h16v4.6h-5.3v14h-5.4v-14h-5.3v-4.6Z"/>
    <path class="st5" d="M143.7,14.7h9.2c3.8,0,7,1.7,7,5.5s-1.1,3.6-3,4.5h0c1.5.7,2.3,1.7,2.6,3.1.5,2.2,0,4.9.8,5.1v.3h-5.4c-.5-.4-.3-2.7-.7-4.3-.3-1.4-1-2.2-2.5-2.2h-2.5v6.5h-5.4V14.7ZM149.1,22.9h2.9c1.6,0,2.4-.7,2.4-2s-.8-2-2.3-2h-3v4Z"/>
    <path class="st5" d="M167.5,14.7h5.5l6.9,18.6h-5.8l-.9-2.7h-6.3l-.9,2.7h-5.4l6.9-18.6ZM168.2,26.8h3.8l-1.2-3.6c-.3-.9-.7-2.4-.7-2.4h0s-.4,1.5-.7,2.4l-1.2,3.6Z"/>
    <path class="st5" d="M178.9,24c0-5.6,3.8-9.7,9.4-9.7s3.8.5,5.2,1.5c1.9,1.3,3,3.4,3.3,5.8h-5.4c-.1-1.5-1.4-2.8-3.1-2.8-2.6,0-3.8,2.2-3.8,5.2s1.5,5.2,3.9,5.2,3-1.2,3.2-2.9h5.5c-.2,2.1-1.1,3.9-2.4,5.1-1.6,1.5-3.6,2.2-6.3,2.2-5.7,0-9.4-4.1-9.4-9.7Z"/>
    <path class="st5" d="M197.4,14.7h16v4.6h-5.3v14h-5.4v-14h-5.3v-4.6Z"/>
    <path class="st2" d="M72.4,47c0-5.6,3.8-9.7,9.4-9.7s3.8.5,5.2,1.5c1.9,1.3,3,3.4,3.3,5.8h-5.4c-.1-1.5-1.4-2.8-3.1-2.8-2.6,0-3.8,2.2-3.8,5.2s1.5,5.2,3.9,5.2,3-1.2,3.2-2.9h5.5c-.2,2.1-1.1,3.9-2.4,5.1-1.6,1.5-3.6,2.2-6.3,2.2-5.7,0-9.4-4.1-9.4-9.7Z"/>
    <path class="st2" d="M91.8,37.7h9.2c3.8,0,7,1.7,7,5.5s-1.1,3.6-3,4.5h0c1.5.7,2.3,1.7,2.6,3.1.5,2.2,0,4.9.8,5.1v.3h-5.4c-.5-.4-.3-2.7-.7-4.3-.3-1.4-1-2.2-2.5-2.2h-2.5v6.5h-5.4v-18.6ZM97.3,45.9h2.9c1.6,0,2.4-.7,2.4-2s-.8-2-2.3-2h-3v4Z"/>
    <path class="st2" d="M109.8,37.7h14.5v4.4h-9v2.5h7.6v4.1h-7.6v2.9h9.3v4.7h-14.7v-18.6Z"/>
    <path class="st2" d="M132,37.7h5.5l6.9,18.6h-5.8l-.9-2.7h-6.3l-.9,2.7h-5.4l6.9-18.6ZM132.7,49.8h3.8l-1.2-3.6c-.3-.9-.7-2.4-.7-2.4h0s-.4,1.5-.7,2.4l-1.2,3.6Z"/>
    <path class="st2" d="M142.4,37.7h16v4.6h-5.3v14h-5.4v-14h-5.3v-4.6Z"/>
    <path class="st2" d="M159.9,37.7h5.4v18.6h-5.4v-18.6Z"/>
    <path class="st2" d="M166.3,37.7h5.6l2.5,8.7c.5,1.6.9,3.6.9,3.6h0s.5-2,.9-3.6l2.5-8.7h5.5l-6,18.6h-6.1l-6-18.6Z"/>
    <path class="st2" d="M185.3,37.7h14.5v4.4h-9v2.5h7.6v4.1h-7.6v2.9h9.3v4.7h-14.7v-18.6Z"/>
  </g>
  <polygon class="st0" points="33.3 5.8 33.3 5.9 33.5 6.2 33.3 5.8"/>
  <g>
    <polygon class="st0" points="39.3 56.8 35.8 60.9 35.8 60.9 39.3 56.8"/>
    <polygon class="st3" points="35.9 34.9 41.4 23 33.5 6.2 33.3 5.9 19.8 34.9 35.9 34.9"/>
    <path class="st1" d="M25.4,53.9l-6.5-17.2-13.3,28.7c7-4,13.3-7.7,19.8-11.5Z"/>
    <path class="st4" d="M61.1,65.5l-10.3-22.1-11.5,13.4-3.5,4.1-.3,4.6h25.6Z"/>
    <path class="st5" d="M50.8,43.3l-3.9-8.4-15,8.7,4.1-8.9h-16.1l-.3.7-.5,1.2,6.5,17.2c3.6-2.1,7.3-4.3,11.2-6.5l-.8,13.4,3.5-4.1,11.5-13.4Z"/>
    <polygon class="st5" points="50.8 43.3 39.3 56.8 50.8 43.4 50.8 43.3"/>
  </g>
</svg>