<?xml version="1.0" encoding="UTF-8"?>
<svg id="Layer_1" xmlns="http://www.w3.org/2000/svg" version="1.1" viewBox="0 0 225 85">
  <!-- Generator: Adobe Illustrator 29.8.1, SVG Export Plug-In . SVG Version: 2.1.1 Build 2)  -->
  <defs>
    <style>
      .st0 {
        fill: none;
      }

      .st1 {
        fill: #00b4af;
      }

      .st2 {
        fill: #231f20;
      }

      .st3 {
        fill: #f0ad1e;
      }

      .st4 {
        fill: #ee4137;
      }
    </style>
  </defs>
  <g>
    <path class="st2" d="M71.2,66.9h3.5c.9,0,1.6.3,2,.8.4.4.6,1,.6,1.6,0,1.5-.9,2.5-2.7,2.5h-2.3v3.5h-1.1v-8.4ZM72.2,71h2.2c1.2,0,1.8-.6,1.8-1.6s-.6-1.5-1.7-1.5h-2.3v3.1Z"/>
    <path class="st2" d="M77.6,72.3c0-1.8,1.1-3.2,2.9-3.2s2.9,1.4,2.9,3.2-1.1,3.2-2.9,3.2-2.9-1.4-2.9-3.2ZM82.5,72.3c0-1.3-.7-2.4-2-2.4s-2,1.1-2,2.4.7,2.4,2,2.4,2-1.1,2-2.4Z"/>
    <path class="st2" d="M83.7,69.3h1l1.1,3.8c0,.5.3,1.3.3,1.3h0s.2-.8.3-1.3l1-3.8h1l1,3.8c0,.5.3,1.3.3,1.3h0s.2-.8.3-1.3l1.1-3.8h1l-2,6.1h-1l-1-3.7c0-.5-.3-1.3-.3-1.3h0s-.2.8-.3,1.3l-1,3.7h-1l-1.9-6.1h.1Z"/>
    <path class="st2" d="M92.5,72.3c0-1.8,1.2-3.2,2.9-3.2s2.8,1.4,2.8,3.4h-4.7c0,1.2.7,2.2,2,2.2s1.5-.4,1.7-1.2h.9c-.3,1.3-1.2,2.1-2.6,2.1s-2.9-1.4-2.9-3.2h-.1v-.1ZM93.5,71.8h3.7c0-1.2-.7-2-1.8-2s-1.7.8-1.9,2Z"/>
    <path class="st2" d="M100.1,70.3h0c.4-.6,1-1.1,1.8-1.1s.3,0,.4,0v.9h-.4c-.9,0-1.8.7-1.8,1.9v3.4h-1v-6.1h1s0,1,0,1Z"/>
    <path class="st2" d="M102.6,72.3c0-1.8,1.2-3.2,2.9-3.2s2.8,1.4,2.8,3.4h-4.7c0,1.2.7,2.2,2,2.2s1.5-.4,1.7-1.2h.9c-.3,1.3-1.2,2.1-2.6,2.1s-2.9-1.4-2.9-3.2h-.1v-.1ZM103.6,71.8h3.7c0-1.2-.7-2-1.8-2s-1.7.8-1.9,2Z"/>
    <path class="st2" d="M108.9,72.3c0-2,1.2-3.2,2.7-3.2s1.5.4,1.9,1h0v-3.2h1v8.4h-1v-.7h0c-.5.6-1,.9-1.9.9-1.7,0-2.7-1.2-2.7-3.2h0ZM113.6,72.3c0-1.4-.7-2.4-1.9-2.4s-1.7,1-1.7,2.4.6,2.4,1.8,2.4,1.9-1,1.9-2.4h-.1Z"/>
    <path class="st2" d="M118.6,74.5h0v.8h-1v-8.4h1v3.2h0c.5-.6,1.1-1,2-1,1.5,0,2.6,1.2,2.6,3.2s-1,3.2-2.6,3.2-1.4-.3-1.9-1h-.1ZM122.2,72.3c0-1.4-.6-2.4-1.7-2.4s-1.9,1.1-1.9,2.4.6,2.4,1.9,2.4,1.7-1,1.7-2.4Z"/>
    <path class="st2" d="M123.9,77.2v-.8h.6c.3,0,.7-.2.9-.7l.2-.6-2.4-5.9h1l1.4,3.8c.2.5.4,1.2.4,1.2h0s.2-.7.4-1.2l1.4-3.8h1l-2.6,6.6c-.5,1.3-1,1.5-1.7,1.5h-.9.3v-.1Z"/>
    <path class="st2" d="M131.3,69.3h.9v-1.9h1v1.9h1.2v.8h-1.2v4c0,.4.2.6.6.6h.5v.8h-.8c-.8,0-1.3-.3-1.3-1.2v-4.2h-.9v-.8Z"/>
    <path class="st2" d="M136.2,70.1h0c.4-.6,1-.9,1.9-.9,1.3,0,2.1.7,2.1,2v4.3h-1v-4.2c0-.8-.5-1.2-1.4-1.2s-1.7.7-1.7,1.7v3.8h-1v-8.4h1v3.1-.2h.1Z"/>
    <path class="st2" d="M141.2,72.3c0-1.8,1.2-3.2,2.9-3.2s2.8,1.4,2.8,3.4h-4.7c0,1.2.7,2.2,2,2.2s1.5-.4,1.7-1.2h.9c-.3,1.3-1.2,2.1-2.6,2.1s-2.9-1.4-2.9-3.2h0l-.1-.1ZM142.2,71.8h3.7c0-1.2-.7-2-1.8-2s-1.7.8-1.9,2Z"/>
    <path class="st2" d="M149.8,66.9h1.7v8.4h-1.7v-8.4Z"/>
    <path class="st2" d="M152.4,71.2c0-2.5,1.6-4.4,4-4.4s3.3,1.2,3.5,2.8h-1.7c-.2-.8-.8-1.4-1.8-1.4-1.6,0-2.3,1.3-2.3,3s.9,3,2.3,3,1.7-.6,1.8-1.5h1.7c0,.7-.4,1.5-.9,2-.6.5-1.4.9-2.6.9-2.4,0-4.1-1.8-4.1-4.4h.1Z"/>
    <path class="st2" d="M160.5,71.2c0-2.5,1.6-4.4,4.1-4.4s4.1,1.9,4.1,4.4-1.6,4.4-4.1,4.4-4.1-1.9-4.1-4.4ZM166.9,71.2c0-1.7-.8-3-2.3-3s-2.3,1.3-2.3,3,.8,3,2.3,3,2.3-1.3,2.3-3Z"/>
    <path class="st2" d="M169.5,66.9h1.7l2.8,4.7c.3.5.6,1.2.6,1.2h0v-5.9h1.7v8.4h-1.7l-2.9-4.7c-.3-.4-.6-1.2-.6-1.2h0v5.9h-1.7v-8.4h.1Z"/>
    <path class="st2" d="M179.6,66.9h2.4l1.2,4.2c.3,1.1.5,2.3.5,2.3h0s.2-1.2.5-2.3l1.2-4.2h2.4v8.4h-1.6v-6.5h0s-.2,1-.4,1.6l-1.5,5h-1.6l-1.4-5c-.2-.6-.4-1.6-.4-1.6h0v6.5h-1.6v-8.4h.3Z"/>
    <path class="st2" d="M188.8,72.3c0-1.8,1.2-3.2,3-3.2s3,1.5,3,3.6h-4.4c.1.9.6,1.5,1.5,1.5s1-.3,1.2-.7h1.6c-.2,1.1-1.2,2-2.7,2s-3.1-1.4-3.1-3.2c0,0-.1,0-.1,0ZM190.4,71.7h2.7c0-.8-.6-1.3-1.3-1.3s-1.3.5-1.4,1.3Z"/>
    <path class="st2" d="M195,69.3h.8v-1.9h1.6v1.9h1v1.1h-1v3.2c0,.4.2.6.6.6h.5v1.2h-1c-.6,0-1.6-.3-1.6-1.5v-3.5h-.8v-1.1s-.1,0-.1,0Z"/>
    <path class="st2" d="M200.9,70.1h0c.4-.6.9-1,1.8-1s2.1.9,2.1,2.3v4h-1.6v-3.7c0-.6-.4-1.1-1-1.1s-1.2.6-1.2,1.4v3.4h-1.6v-8.4h1.6v3.2h-.1v-.1Z"/>
    <path class="st2" d="M205.5,72.3c0-1.8,1.3-3.2,3.2-3.2s3.2,1.4,3.2,3.2-1.3,3.2-3.2,3.2-3.2-1.4-3.2-3.2ZM210.2,72.3c0-1.2-.6-2-1.5-2s-1.5.8-1.5,2,.5,2,1.5,2,1.5-.8,1.5-2Z"/>
    <path class="st2" d="M212.2,72.3c0-1.9,1.1-3.2,2.6-3.2s1.4.4,1.7.9h0v-3.1h1.6v8.4h-1.5v-.8h0c-.4.6-1,1-1.8,1-1.5,0-2.6-1.2-2.6-3.2ZM216.6,72.4c0-1.2-.4-1.9-1.4-1.9s-1.3.8-1.3,1.9.5,1.9,1.3,1.9,1.5-.7,1.5-1.8h-.1v-.1Z"/>
  </g>
  <polygon class="st0" points="33.3 5.8 33.3 5.9 33.5 6.2 33.3 5.8"/>
  <g>
    <path class="st4" d="M70.73,33.06l6.4-18.4h7.5l6.37,18.4h-5.66l-1.13-3.54h-6.97l-1.18,3.54h-5.33ZM78.72,25.01h4.04l-.33-1.07-1.46-4.81h-.38l-1.51,4.81-.36,1.07Z"/>
    <path class="st4" d="M91.52,33.06V14.66h9.78c4.2,0,6.26,1.4,6.26,4.53,0,2.31-1.24,3.71-3.76,3.93v.36c3.1.11,4.61,2,4.61,4.48,0,3.21-2.06,5.11-6.56,5.11h-10.32ZM96.68,21.66h4.34c1.07,0,1.37-.25,1.37-1.18,0-.99-.41-1.18-1.48-1.18h-4.23v2.36ZM96.68,28.42h4.97c.99,0,1.51-.14,1.51-1.34s-.47-1.4-1.51-1.4h-4.97v2.75Z"/>
    <path class="st4" d="M109.64,27.02v-.36h5.08v.22c0,1.51.55,1.81,3.02,1.81,1.95,0,2.36-.3,2.36-1.1,0-.85-.27-1.13-1.54-1.32l-4.01-.63c-3.73-.58-5.27-2.55-5.27-5.41,0-3.27,2.5-5.85,7.91-5.85s7.58,2.58,7.58,6.01v.47h-5.08v-.33c0-1.07-.52-1.51-2.83-1.51-1.95,0-2.44.33-2.44,1.02,0,.58.36.82,1.43,1.02l4.01.71c3.9.69,5.41,2.72,5.41,5.57,0,3.21-2.2,5.99-7.72,5.99s-7.91-2.47-7.91-6.32Z"/>
    <path class="st4" d="M131.31,33.06v-13.76h-5.66v-4.64h16.48v4.64h-5.66v13.76h-5.16Z"/>
    <path class="st4" d="M143.31,33.06V14.66h9.25c4.64,0,6.84,1.98,6.84,5.66,0,2.91-1.13,4.72-4.23,5.08v.25c1.87.49,2.61,1.68,3.32,3.24l1.92,4.17h-6.01l-1.81-3.82c-.77-1.59-1.13-2.06-2.86-2.06h-1.26v5.88h-5.16ZM148.47,22.9h3.9c1.46,0,1.87-.41,1.87-1.87,0-1.35-.41-1.73-1.87-1.73h-3.9v3.6Z"/>
    <path class="st4" d="M160.25,33.06l6.4-18.4h7.5l6.37,18.4h-5.66l-1.13-3.54h-6.97l-1.18,3.54h-5.33ZM168.24,25.01h4.04l-.33-1.07-1.46-4.81h-.38l-1.51,4.81-.36,1.07Z"/>
    <path class="st4" d="M180.13,23.86c0-5.74,3.21-9.47,9.14-9.47s8.65,3.02,8.65,7.3v.63h-5.52v-.08c0-2.11-.69-2.83-3.24-2.83s-3.49.63-3.49,4.45.85,4.45,3.49,4.45,3.24-.71,3.24-2.83v-.08h5.52v.63c0,4.28-2.83,7.3-8.65,7.3s-9.14-3.74-9.14-9.47Z"/>
    <path class="st4" d="M204.13,33.06v-13.76h-5.66v-4.64h16.48v4.64h-5.66v13.76h-5.16Z"/>
    <path class="st2" d="M71.56,46.41c0-5.74,3.21-9.47,9.14-9.47s8.65,3.02,8.65,7.3v.63h-5.52v-.08c0-2.11-.69-2.83-3.24-2.83s-3.49.63-3.49,4.45.85,4.45,3.49,4.45,3.24-.71,3.24-2.83v-.08h5.52v.63c0,4.28-2.83,7.3-8.65,7.3s-9.14-3.74-9.14-9.47Z"/>
    <path class="st2" d="M90.92,55.61v-18.4h9.25c4.64,0,6.84,1.98,6.84,5.66,0,2.91-1.13,4.72-4.23,5.08v.25c1.87.49,2.61,1.68,3.32,3.24l1.92,4.17h-6.01l-1.81-3.82c-.77-1.59-1.13-2.06-2.86-2.06h-1.26v5.88h-5.16ZM96.08,45.45h3.9c1.46,0,1.87-.41,1.87-1.87,0-1.35-.41-1.73-1.87-1.73h-3.9v3.6Z"/>
    <path class="st2" d="M108.87,55.61v-18.4h14.85v4.64h-9.69v2.22h9.28v4.61h-9.28v2.28h9.69v4.64h-14.85Z"/>
    <path class="st2" d="M124.25,55.61l6.4-18.4h7.5l6.37,18.4h-5.66l-1.13-3.54h-6.97l-1.18,3.54h-5.33ZM132.24,47.57h4.04l-.33-1.07-1.45-4.81h-.38l-1.51,4.81-.36,1.07Z"/>
    <path class="st2" d="M147.7,55.61v-13.76h-5.66v-4.64h16.48v4.64h-5.66v13.76h-5.16Z"/>
    <path class="st2" d="M159.7,55.61v-18.4h5.16v18.4h-5.16Z"/>
    <path class="st2" d="M171.78,55.61l-6.29-18.4h5.82l3.9,12.63h.36l3.82-12.63h5.82l-6.32,18.4h-7.11Z"/>
    <path class="st2" d="M185.84,55.61v-18.4h14.85v4.64h-9.69v2.22h9.28v4.61h-9.28v2.28h9.69v4.64h-14.85Z"/>
  </g>
  <polygon class="st0" points="33.17 6.2 33.11 6.33 33.37 6.63 33.17 6.2"/>
  <g>
    <polygon class="st1" points="5.93 64.75 26.2 52.98 22.29 29.59 5.93 64.75"/>
    <polygon class="st3" points="52.27 47.3 43.51 64.75 60.42 64.75 52.27 47.3"/>
    <polygon class="st4" points="46.46 34.86 31.75 43.43 41.06 23.1 33.18 6.21 22.29 29.59 26.2 52.98 36.38 47.07 35.33 64.75 43.51 64.75 52.27 47.3 46.46 34.86"/>
  </g>
</svg>