<?xml version="1.0" encoding="UTF-8"?>
<svg id="Layer_1" xmlns="http://www.w3.org/2000/svg" version="1.1" viewBox="0 0 350 70">
  <!-- Generator: Adobe Illustrator 29.8.1, SVG Export Plug-In . SVG Version: 2.1.1 Build 2)  -->
  <defs>
    <style>
      .st0 {
        fill: #00b4af;
      }

      .st1 {
        fill: #fff;
      }

      .st2 {
        fill: #f0ad1e;
      }

      .st3 {
        fill: #ee4137;
      }
    </style>
  </defs>
  <g>
    <path class="st1" d="M69.25,55.44v-7.32h2.86c1.53,0,2.66.88,2.66,2.4s-1.13,2.42-2.66,2.42h-2.09v2.5h-.78ZM70.02,48.83v3.4h2.21c1.19,0,1.75-.5,1.75-1.7s-.56-1.69-1.75-1.69h-2.21Z"/>
    <path class="st1" d="M75.17,52.74c0-1.64,1.04-2.81,2.62-2.81s2.58,1.17,2.58,2.81-1.01,2.81-2.58,2.81-2.62-1.17-2.62-2.81ZM79.61,52.74c0-1.34-.51-2.1-1.81-2.1s-1.85.75-1.85,2.1.52,2.11,1.85,2.11,1.81-.76,1.81-2.11Z"/>
    <path class="st1" d="M82.02,55.44l-1.39-5.4h.83l.85,3.52.22,1.17h.07l.36-1.17,1.24-3.52h1.04l1.26,3.52.34,1.17h.07l.22-1.17.85-3.52h.81l-1.39,5.4h-1.03l-1.21-3.41-.4-1.28h-.07l-.4,1.28-1.22,3.41h-1.03Z"/>
    <path class="st1" d="M89.04,52.74c0-1.64.97-2.81,2.51-2.81,1.3,0,2.37.79,2.37,2.38,0,.25-.02.49-.05.64h-4.09c.03,1.19.5,1.89,1.79,1.89,1.09,0,1.53-.49,1.53-1.15v-.07h.78v.08c0,1.04-.94,1.84-2.32,1.84-1.66,0-2.52-1.17-2.52-2.81ZM89.78,52.39h3.4c.04-1.28-.59-1.78-1.65-1.78-1.2,0-1.68.69-1.75,1.78Z"/>
    <path class="st1" d="M94.93,55.44v-5.46h.71v.91h.05c.17-.5.7-.95,1.5-.95,1.11,0,1.54.8,1.54,1.73v.31h-.79v-.19c0-.84-.26-1.17-1.04-1.17-.84,0-1.19.38-1.19,1.26v3.57h-.79Z"/>
    <path class="st1" d="M99.31,52.74c0-1.64.97-2.81,2.51-2.81,1.3,0,2.37.79,2.37,2.38,0,.25-.02.49-.05.64h-4.09c.03,1.19.5,1.89,1.79,1.89,1.09,0,1.53-.49,1.53-1.15v-.07h.78v.08c0,1.04-.94,1.84-2.32,1.84-1.66,0-2.52-1.17-2.52-2.81ZM100.05,52.39h3.4c.04-1.28-.59-1.78-1.65-1.78-1.2,0-1.68.69-1.75,1.78Z"/>
    <path class="st1" d="M105.03,52.74c0-1.71.81-2.81,2.28-2.81,1.04,0,1.7.55,1.93,1.14v-2.95h.79v7.32h-.7v-1.04h-.04c-.24.68-.87,1.15-1.89,1.15-1.52,0-2.37-1.1-2.37-2.81ZM107.54,54.87c1.07,0,1.72-.56,1.72-1.66v-.93c0-1.11-.64-1.67-1.72-1.67s-1.72.48-1.72,2.13.64,2.13,1.72,2.13Z"/>
    <path class="st1" d="M113.28,55.44v-7.32h.79v2.95c.24-.59.91-1.14,1.95-1.14,1.48,0,2.27,1.1,2.27,2.81s-.84,2.81-2.36,2.81c-1.02,0-1.66-.47-1.9-1.15h-.03v1.04h-.71ZM115.8,54.87c1.06,0,1.7-.48,1.7-2.13s-.66-2.13-1.7-2.13-1.73.56-1.73,1.67v.93c0,1.1.66,1.66,1.73,1.66Z"/>
    <path class="st1" d="M119.01,57.22v-.63h.61c.49,0,.66-.1.85-.52l.31-.7-2.32-5.32h.85l1.27,3.01.57,1.32h.07l.54-1.32,1.19-3.01h.85l-2.63,6.26c-.35.82-.86.99-1.45.99-.26,0-.55-.04-.7-.08Z"/>
    <path class="st1" d="M126.99,53.91v-3.19h-.91v-.68h.92l.19-1.38h.59v1.38h1.7v.68h-1.7v3.23c0,.63.3.78.99.78h.71v.63c-.19.03-.52.09-.92.09-.99,0-1.57-.39-1.57-1.54Z"/>
    <path class="st1" d="M130.3,55.44v-7.32h.79v2.93h.04c.21-.51.76-1.11,1.86-1.11,1.41,0,2.01.94,2.01,2.17v3.33h-.78v-3.14c0-1.17-.39-1.68-1.49-1.68s-1.65.5-1.65,1.72v3.1h-.79Z"/>
    <path class="st1" d="M136.02,52.74c0-1.64.97-2.81,2.51-2.81,1.3,0,2.37.79,2.37,2.38,0,.25-.02.49-.05.64h-4.09c.03,1.19.5,1.89,1.79,1.89,1.09,0,1.53-.49,1.53-1.15v-.07h.78v.08c0,1.04-.94,1.84-2.32,1.84-1.66,0-2.52-1.17-2.52-2.81ZM136.77,52.39h3.4c.04-1.28-.59-1.78-1.65-1.78-1.2,0-1.68.69-1.75,1.78Z"/>
    <path class="st1" d="M144.25,55.44v-7.32h1.18v7.32h-1.18Z"/>
    <path class="st1" d="M146.4,51.78c0-2.28,1.29-3.77,3.42-3.77,1.97,0,3.16,1.09,3.16,2.85v.07h-1.26v-.07c0-1.2-.56-1.72-1.93-1.72-1.52,0-2.13.73-2.13,2.63s.61,2.63,2.13,2.63c1.38,0,1.93-.51,1.93-1.72v-.07h1.26v.07c0,1.76-1.19,2.85-3.16,2.85-2.13,0-3.42-1.49-3.42-3.77Z"/>
    <path class="st1" d="M153.77,51.78c0-2.28,1.33-3.77,3.42-3.77s3.41,1.49,3.41,3.77-1.33,3.77-3.41,3.77-3.42-1.49-3.42-3.77ZM159.34,51.78c0-1.9-.63-2.63-2.15-2.63s-2.16.73-2.16,2.63.64,2.63,2.16,2.63,2.15-.73,2.15-2.63Z"/>
    <path class="st1" d="M161.54,55.44v-7.32h1.27l2.78,4.2.78,1.17h.09v-5.37h1.18v7.32h-1.27l-2.76-4.13-.8-1.19h-.08v5.32h-1.18Z"/>
    <path class="st1" d="M170.89,55.44v-7.32h1.67l1.67,4.02.64,1.75h.09l.63-1.75,1.64-4.02h1.67v7.32h-1.17v-4.33l.04-1.22h-.08l-.46,1.22-1.64,3.89h-1.42l-1.65-3.89-.44-1.22h-.1l.07,1.22v4.33h-1.18Z"/>
    <path class="st1" d="M179.78,52.72c0-1.68,1.01-2.82,2.62-2.82,1.46,0,2.49.87,2.49,2.36,0,.28-.03.58-.07.74h-3.94c.04.99.4,1.5,1.54,1.5.91,0,1.26-.31,1.26-.8v-.09h1.17v.1c0,1.11-.97,1.84-2.44,1.84-1.79,0-2.63-1.14-2.63-2.83ZM180.89,52.22h2.87c.04-.93-.46-1.32-1.39-1.32-1.03,0-1.42.48-1.49,1.32Z"/>
    <path class="st1" d="M186.2,53.77v-2.78h-.91v-.98h.93l.25-1.34h.91v1.34h1.64v.98h-1.64v2.72c0,.57.24.67.97.67h.67v.96c-.23.06-.6.1-.97.1-1.21,0-1.85-.45-1.85-1.67Z"/>
    <path class="st1" d="M189.86,55.44v-7.32h1.18v2.8h.04c.25-.49.83-1.02,1.81-1.02,1.42,0,2.02.93,2.02,2.12v3.42h-1.18v-3.15c0-.97-.31-1.38-1.3-1.38s-1.4.37-1.4,1.4v3.12h-1.18Z"/>
    <path class="st1" d="M195.84,52.72c0-1.68,1.04-2.82,2.71-2.82s2.67,1.14,2.67,2.82-1,2.83-2.67,2.83-2.71-1.14-2.71-2.83ZM200.08,52.72c0-1.21-.39-1.77-1.53-1.77s-1.55.56-1.55,1.77.4,1.78,1.55,1.78,1.53-.56,1.53-1.78Z"/>
    <path class="st1" d="M201.94,52.72c0-1.72.83-2.82,2.33-2.82.96,0,1.54.46,1.78.95h.03v-2.73h1.17v7.32h-1.08v-.9h-.04c-.26.62-.86,1-1.79,1-1.55,0-2.39-1.1-2.39-2.83ZM204.59,54.54c.96,0,1.49-.43,1.49-1.33v-.97c0-.91-.52-1.33-1.49-1.33-1.04,0-1.48.48-1.48,1.81s.43,1.82,1.48,1.82Z"/>
    <path class="st1" d="M208.15,55.44v-1.38h.58v1.38h-.58Z"/>
  </g>
  <g>
    <path class="st3" d="M68.32,43.44l6.34-18.23h7.43l6.31,18.23h-5.6l-1.12-3.51h-6.91l-1.17,3.51h-5.28ZM76.24,35.47h4l-.33-1.06-1.44-4.76h-.38l-1.5,4.76-.35,1.06Z"/>
    <path class="st3" d="M88.92,43.44v-18.23h9.69c4.16,0,6.2,1.39,6.2,4.49,0,2.28-1.22,3.67-3.73,3.89v.35c3.07.11,4.57,1.99,4.57,4.44,0,3.18-2.04,5.06-6.5,5.06h-10.23ZM94.03,32.15h4.3c1.06,0,1.36-.24,1.36-1.17,0-.98-.41-1.17-1.47-1.17h-4.19v2.34ZM94.03,38.84h4.92c.98,0,1.5-.13,1.5-1.33s-.46-1.39-1.5-1.39h-4.92v2.72Z"/>
    <path class="st3" d="M106.87,37.45v-.35h5.03v.22c0,1.5.54,1.8,2.99,1.8,1.93,0,2.34-.3,2.34-1.09,0-.84-.27-1.11-1.52-1.31l-3.97-.62c-3.7-.57-5.22-2.53-5.22-5.36,0-3.24,2.48-5.79,7.84-5.79s7.51,2.56,7.51,5.96v.46h-5.03v-.33c0-1.06-.52-1.5-2.8-1.5-1.93,0-2.42.33-2.42,1.01,0,.57.35.82,1.41,1.01l3.97.71c3.86.68,5.36,2.69,5.36,5.52,0,3.18-2.18,5.93-7.64,5.93s-7.84-2.45-7.84-6.26Z"/>
    <path class="st3" d="M128.34,43.44v-13.63h-5.6v-4.6h16.32v4.6h-5.61v13.63h-5.11Z"/>
    <path class="st3" d="M140.23,43.44v-18.23h9.17c4.6,0,6.77,1.96,6.77,5.6,0,2.88-1.11,4.68-4.19,5.03v.24c1.85.49,2.58,1.66,3.29,3.21l1.9,4.14h-5.96l-1.8-3.78c-.76-1.58-1.12-2.04-2.83-2.04h-1.25v5.82h-5.11ZM145.34,33.37h3.86c1.44,0,1.85-.41,1.85-1.85,0-1.33-.41-1.71-1.85-1.71h-3.86v3.56Z"/>
    <path class="st3" d="M157.02,43.44l6.34-18.23h7.43l6.31,18.23h-5.6l-1.12-3.51h-6.91l-1.17,3.51h-5.28ZM164.93,35.47h4l-.33-1.06-1.44-4.76h-.38l-1.5,4.76-.35,1.06Z"/>
    <path class="st3" d="M176.71,34.33c0-5.69,3.18-9.39,9.06-9.39s8.57,2.99,8.57,7.24v.63h-5.47v-.08c0-2.1-.68-2.8-3.21-2.8s-3.46.63-3.46,4.41.84,4.41,3.46,4.41,3.21-.71,3.21-2.8v-.08h5.47v.62c0,4.25-2.8,7.24-8.57,7.24s-9.06-3.7-9.06-9.39Z"/>
    <path class="st3" d="M200.49,43.44v-13.63h-5.6v-4.6h16.32v4.6h-5.61v13.63h-5.11Z"/>
    <path class="st1" d="M216.65,34.33c0-5.69,3.18-9.39,9.06-9.39s8.57,2.99,8.57,7.24v.63h-5.47v-.08c0-2.1-.68-2.8-3.21-2.8s-3.46.63-3.46,4.41.84,4.41,3.46,4.41,3.21-.71,3.21-2.8v-.08h5.47v.62c0,4.25-2.8,7.24-8.57,7.24s-9.06-3.7-9.06-9.39Z"/>
    <path class="st1" d="M235.84,43.44v-18.23h9.17c4.6,0,6.77,1.96,6.77,5.6,0,2.88-1.11,4.68-4.19,5.03v.24c1.85.49,2.58,1.66,3.29,3.21l1.9,4.14h-5.96l-1.8-3.78c-.76-1.58-1.12-2.04-2.83-2.04h-1.25v5.82h-5.11ZM240.95,33.37h3.86c1.44,0,1.85-.41,1.85-1.85,0-1.33-.41-1.71-1.85-1.71h-3.86v3.56Z"/>
    <path class="st1" d="M253.63,43.44v-18.23h14.72v4.6h-9.6v2.2h9.2v4.57h-9.2v2.26h9.6v4.6h-14.72Z"/>
    <path class="st1" d="M268.86,43.44l6.34-18.23h7.43l6.31,18.23h-5.6l-1.12-3.51h-6.91l-1.17,3.51h-5.28ZM276.78,35.47h4l-.33-1.06-1.44-4.76h-.38l-1.5,4.76-.35,1.06Z"/>
    <path class="st1" d="M292.1,43.44v-13.63h-5.6v-4.6h16.32v4.6h-5.61v13.63h-5.11Z"/>
    <path class="st1" d="M303.99,43.44v-18.23h5.11v18.23h-5.11Z"/>
    <path class="st1" d="M315.96,43.44l-6.23-18.23h5.77l3.86,12.52h.35l3.78-12.52h5.77l-6.26,18.23h-7.05Z"/>
    <path class="st1" d="M329.89,43.44v-18.23h14.72v4.6h-9.6v2.2h9.2v4.57h-9.2v2.26h9.6v4.6h-14.72Z"/>
  </g>
  <g>
    <polygon class="st0" points="5.32 64.01 25.4 52.34 21.53 29.17 5.32 64.01"/>
    <polygon class="st2" points="51.23 46.72 42.55 64.01 59.3 64.01 51.23 46.72"/>
    <polygon class="st3" points="45.47 34.38 30.9 42.88 40.12 22.74 32.31 5.99 21.53 29.17 25.4 52.34 35.48 46.49 34.44 64.01 42.55 64.01 51.23 46.72 45.47 34.38"/>
  </g>
</svg>