<?xml version="1.0" encoding="UTF-8"?>
<svg id="Layer_1" xmlns="http://www.w3.org/2000/svg" version="1.1" viewBox="0 0 350 70">
  <!-- Generator: Adobe Illustrator 29.6.1, SVG Export Plug-In . SVG Version: 2.1.1 Build 9)  -->
  <defs>
    <style>
      .st0 {
        fill: none;
      }

      .st1 {
        fill: #00b4af;
      }

      .st2 {
        fill: #d03733;
      }

      .st3 {
        fill: #fff;
      }

      .st4 {
        fill: #f0ad1e;
      }

      .st5 {
        fill: #ee4137;
      }
    </style>
  </defs>
  <g>
    <path class="st3" d="M70.4,42.8h3.5c.9,0,1.6.3,2,.8.4.4.6,1,.6,1.6,0,1.5-.9,2.5-2.7,2.5h-2.3v3.5h-1.1v-8.4ZM71.4,46.9h2.2c1.2,0,1.8-.6,1.8-1.6s-.6-1.5-1.7-1.5h-2.3v3.1Z"/>
    <path class="st3" d="M76.8,48.2c0-1.8,1.1-3.2,2.9-3.2s2.9,1.4,2.9,3.2-1.1,3.2-2.9,3.2-2.9-1.4-2.9-3.2ZM81.7,48.2c0-1.3-.7-2.4-2-2.4s-2,1.1-2,2.4.7,2.4,2,2.4,2-1.1,2-2.4Z"/>
    <path class="st3" d="M82.9,45.2h1l1.1,3.8c.1.5.3,1.3.3,1.3h0s.2-.8.3-1.3l1-3.8h1l1,3.8c.1.5.3,1.3.3,1.3h0s.2-.8.3-1.3l1.1-3.8h1l-2,6.1h-1l-1-3.7c-.1-.5-.3-1.3-.3-1.3h0s-.2.8-.3,1.3l-1,3.7h-1l-1.9-6.1Z"/>
    <path class="st3" d="M91.7,48.2c0-1.8,1.2-3.2,2.9-3.2s2.8,1.4,2.8,3.4h-4.7c0,1.2.7,2.2,2,2.2s1.5-.4,1.7-1.2h.9c-.3,1.3-1.2,2.1-2.6,2.1s-2.9-1.4-2.9-3.2ZM92.7,47.7h3.7c0-1.2-.7-2-1.8-2s-1.7.8-1.9,2Z"/>
    <path class="st3" d="M99.3,46.2h0c.4-.6,1-1.1,1.8-1.1s.3,0,.4,0v.9h0c-.1,0-.2,0-.4,0-.9,0-1.8.7-1.8,1.9v3.4h-1v-6.1h1v1Z"/>
    <path class="st3" d="M101.8,48.2c0-1.8,1.2-3.2,2.9-3.2s2.8,1.4,2.8,3.4h-4.7c0,1.2.7,2.2,2,2.2s1.5-.4,1.7-1.2h.9c-.3,1.3-1.2,2.1-2.6,2.1s-2.9-1.4-2.9-3.2ZM102.8,47.7h3.7c0-1.2-.7-2-1.8-2s-1.7.8-1.9,2Z"/>
    <path class="st3" d="M108.1,48.2c0-2,1.2-3.2,2.7-3.2s1.5.4,1.9,1h0v-3.2h1v8.4h-1v-.7h0c-.5.6-1,.9-1.9.9-1.7,0-2.7-1.2-2.7-3.2ZM112.8,48.2c0-1.4-.7-2.4-1.9-2.4s-1.7,1-1.7,2.4.6,2.4,1.8,2.4,1.9-1,1.9-2.4Z"/>
    <path class="st3" d="M117.8,50.4h0v.8h-1v-8.4h1v3.2h0c.5-.6,1.1-1,2-1,1.5,0,2.6,1.2,2.6,3.2s-1,3.2-2.6,3.2-1.4-.3-1.9-1ZM121.4,48.2c0-1.4-.6-2.4-1.7-2.4s-1.9,1.1-1.9,2.4.6,2.4,1.9,2.4,1.7-1,1.7-2.4Z"/>
    <path class="st3" d="M123.1,53.1v-.8h0c.1,0,.3.1.6.1s.7-.2.9-.7l.2-.6-2.4-5.9h1l1.4,3.8c.2.5.4,1.2.4,1.2h0s.2-.7.4-1.2l1.4-3.8h1l-2.6,6.6c-.5,1.3-1,1.5-1.7,1.5s-.6,0-.9-.1Z"/>
    <path class="st3" d="M130.5,45.2h.9v-1.9h1v1.9h1.2v.8h-1.2v4c0,.4.2.6.6.6s.4,0,.5,0h0v.8c-.2,0-.5,0-.8,0-.8,0-1.3-.3-1.3-1.2v-4.2h-.9v-.8Z"/>
    <path class="st3" d="M135.4,46h0c.4-.6,1-.9,1.9-.9,1.3,0,2.1.7,2.1,2v4.3h-1v-4.2c0-.8-.5-1.2-1.4-1.2s-1.7.7-1.7,1.7v3.8h-1v-8.4h1v3.1Z"/>
    <path class="st3" d="M140.4,48.2c0-1.8,1.2-3.2,2.9-3.2s2.8,1.4,2.8,3.4h-4.7c0,1.2.7,2.2,2,2.2s1.5-.4,1.7-1.2h.9c-.3,1.3-1.2,2.1-2.6,2.1s-2.9-1.4-2.9-3.2ZM141.4,47.7h3.7c0-1.2-.7-2-1.8-2s-1.7.8-1.9,2Z"/>
    <path class="st3" d="M149,42.8h1.7v8.4h-1.7v-8.4Z"/>
    <path class="st3" d="M151.6,47.1c0-2.5,1.6-4.4,4-4.4s3.3,1.2,3.5,2.8h-1.7c-.2-.8-.8-1.4-1.8-1.4-1.6,0-2.3,1.3-2.3,3s.9,3,2.3,3,1.7-.6,1.8-1.5h1.7c0,.7-.4,1.5-.9,2-.6.5-1.4.9-2.6.9-2.4,0-4.1-1.8-4.1-4.4Z"/>
    <path class="st3" d="M159.7,47.1c0-2.5,1.6-4.4,4.1-4.4s4.1,1.9,4.1,4.4-1.6,4.4-4.1,4.4-4.1-1.9-4.1-4.4ZM166.1,47.1c0-1.7-.8-3-2.3-3s-2.3,1.3-2.3,3,.8,3,2.3,3,2.3-1.3,2.3-3Z"/>
    <path class="st3" d="M168.7,42.8h1.7l2.8,4.7c.3.5.6,1.2.6,1.2h0s0-.9,0-1.5v-4.4h1.7v8.4h-1.7l-2.9-4.7c-.3-.4-.6-1.2-.6-1.2h0s0,.9,0,1.5v4.4h-1.7v-8.4Z"/>
    <path class="st3" d="M178.8,42.8h2.4l1.2,4.2c.3,1.1.5,2.3.5,2.3h0s.2-1.2.5-2.3l1.2-4.2h2.4v8.4h-1.6v-4.8c0-.7,0-1.7,0-1.7h0s-.2,1-.4,1.6l-1.5,5h-1.6l-1.4-5c-.2-.6-.4-1.6-.4-1.6h0s0,1.1,0,1.7v4.8h-1.6v-8.4Z"/>
    <path class="st3" d="M188,48.2c0-1.8,1.2-3.2,3-3.2s3,1.5,3,3.6h-4.4c.1.9.6,1.5,1.5,1.5s1-.3,1.2-.7h1.6c-.2,1.1-1.2,2-2.7,2s-3.1-1.4-3.1-3.2ZM189.6,47.6h2.7c0-.8-.6-1.3-1.3-1.3s-1.3.5-1.4,1.3Z"/>
    <path class="st3" d="M194.2,45.2h.8v-1.9h1.6v1.9h1v1.1h-1v3.2c0,.4.2.6.6.6s.5,0,.5,0v1.2s-.4,0-1,0-1.6-.3-1.6-1.5v-3.5h-.8v-1.1Z"/>
    <path class="st3" d="M200.1,46h0c.4-.6.9-1,1.8-1,1.2,0,2.1.9,2.1,2.3v4h-1.6v-3.7c0-.6-.4-1.1-1-1.1s-1.2.6-1.2,1.4v3.4h-1.6v-8.4h1.6v3.2Z"/>
    <path class="st3" d="M204.7,48.2c0-1.8,1.3-3.2,3.2-3.2s3.2,1.4,3.2,3.2-1.3,3.2-3.2,3.2-3.2-1.4-3.2-3.2ZM209.4,48.2c0-1.2-.6-2-1.5-2s-1.5.8-1.5,2,.5,2,1.5,2,1.5-.8,1.5-2Z"/>
    <path class="st3" d="M211.4,48.2c0-1.9,1.1-3.2,2.6-3.2s1.4.4,1.7.9h0v-3.1h1.6v8.4h-1.5v-.8h0c-.4.6-1,1-1.8,1-1.5,0-2.6-1.2-2.6-3.2ZM215.8,48.3c0-1.2-.4-1.9-1.4-1.9s-1.3.8-1.3,1.9.5,1.9,1.3,1.9,1.5-.7,1.5-1.8Z"/>
  </g>
  <g>
    <path class="st5" d="M77.3,18.8h5.5l6.9,18.6h-5.8l-.9-2.7h-6.3l-.9,2.7h-5.4l6.9-18.6ZM78,30.9h3.8l-1.2-3.6c-.3-.9-.7-2.4-.7-2.4h0s-.4,1.5-.7,2.4l-1.2,3.6Z"/>
    <path class="st5" d="M90.8,18.8h9.6c1.8,0,3.2.4,4.2,1.2,1.1.9,1.8,2.1,1.8,3.7s-.8,2.9-2.3,3.6h0c2,.7,3.2,2.4,3.2,4.5s-.8,3.5-2.1,4.4c-1.1.8-2.6,1.2-4.5,1.2h-9.8v-18.6ZM99.5,26c1,0,1.7-.5,1.7-1.5s-.7-1.5-1.8-1.5h-3.4v3h3.4ZM100,33.1c1.2,0,2-.7,2-1.8s-.9-1.8-2-1.8h-3.8v3.6h3.9Z"/>
    <path class="st5" d="M107.9,31.4h5.6c.2,1.5,1.3,2.2,3.1,2.2s2.4-.4,2.4-1.5-1.2-1.4-3.5-2c-3.1-.8-6.9-1.8-6.9-5.8s3.5-5.9,7.7-5.9,7.4,1.6,7.5,5.7h-5.4c-.2-1-.9-1.7-2.4-1.7s-2,.5-2,1.3c0,1.1,1.6,1.2,4.4,1.9,3.1.8,6.2,2,6.2,5.9s-3.6,6.2-8,6.2-8.5-2.1-8.6-6.4Z"/>
    <path class="st5" d="M124.7,18.8h16v4.6h-5.3v14h-5.4v-14h-5.3v-4.6Z"/>
    <path class="st5" d="M142.2,18.8h9.2c3.8,0,7,1.7,7,5.5s-1.1,3.6-3,4.5h0c1.5.7,2.3,1.7,2.6,3.1.5,2.2,0,4.9.8,5.1v.3h-5.4c-.5-.4-.3-2.7-.7-4.3-.3-1.4-1-2.2-2.5-2.2h-2.5v6.5h-5.4v-18.6ZM147.6,27h2.9c1.6,0,2.4-.7,2.4-2s-.8-2-2.3-2h-3v4Z"/>
    <path class="st5" d="M166.1,18.8h5.5l6.9,18.6h-5.8l-.9-2.7h-6.3l-.9,2.7h-5.4l6.9-18.6ZM166.8,30.9h3.8l-1.2-3.6c-.3-.9-.7-2.4-.7-2.4h0s-.4,1.5-.7,2.4l-1.2,3.6Z"/>
    <path class="st5" d="M177.5,28.1c0-5.6,3.8-9.7,9.4-9.7s3.8.5,5.2,1.5c1.9,1.3,3,3.4,3.3,5.8h-5.4c-.1-1.5-1.4-2.8-3.1-2.8-2.6,0-3.8,2.2-3.8,5.2s1.5,5.2,3.9,5.2,3-1.2,3.2-2.9h5.5c-.2,2.1-1.1,3.9-2.4,5.1-1.6,1.5-3.6,2.2-6.3,2.2-5.7,0-9.4-4.1-9.4-9.7Z"/>
    <path class="st5" d="M195.9,18.8h16v4.6h-5.3v14h-5.4v-14h-5.3v-4.6Z"/>
    <path class="st3" d="M216.6,28.1c0-5.6,3.8-9.7,9.4-9.7s3.8.5,5.2,1.5c1.9,1.3,3,3.4,3.3,5.8h-5.4c-.1-1.5-1.4-2.8-3.1-2.8-2.6,0-3.8,2.2-3.8,5.2s1.5,5.2,3.9,5.2,3-1.2,3.2-2.9h5.5c-.2,2.1-1.1,3.9-2.4,5.1-1.6,1.5-3.6,2.2-6.3,2.2-5.7,0-9.4-4.1-9.4-9.7Z"/>
    <path class="st3" d="M236,18.8h9.2c3.8,0,7,1.7,7,5.5s-1.1,3.6-3,4.5h0c1.5.7,2.3,1.7,2.6,3.1.5,2.2,0,4.9.8,5.1v.3h-5.4c-.5-.4-.3-2.7-.7-4.3-.3-1.4-1-2.2-2.5-2.2h-2.5v6.5h-5.4v-18.6ZM241.4,27h2.9c1.6,0,2.4-.7,2.4-2s-.8-2-2.3-2h-3v4Z"/>
    <path class="st3" d="M254,18.8h14.5v4.4h-9v2.5h7.6v4.1h-7.6v2.9h9.3v4.7h-14.7v-18.6Z"/>
    <path class="st3" d="M276.2,18.8h5.5l6.9,18.6h-5.8l-.9-2.7h-6.3l-.9,2.7h-5.4l6.9-18.6ZM276.9,30.9h3.8l-1.2-3.6c-.3-.9-.7-2.4-.7-2.4h0s-.4,1.5-.7,2.4l-1.2,3.6Z"/>
    <path class="st3" d="M286.6,18.8h16v4.6h-5.3v14h-5.4v-14h-5.3v-4.6Z"/>
    <path class="st3" d="M304.1,18.8h5.4v18.6h-5.4v-18.6Z"/>
    <path class="st3" d="M310.5,18.8h5.6l2.5,8.7c.5,1.6.9,3.6.9,3.6h0s.5-2,.9-3.6l2.5-8.7h5.5l-6,18.6h-6.1l-6-18.6Z"/>
    <path class="st3" d="M329.5,18.8h14.5v4.4h-9v2.5h7.6v4.1h-7.6v2.9h9.3v4.7h-14.7v-18.6Z"/>
  </g>
  <g>
    <polygon class="st0" points="39.5 56.6 36 60.8 36 60.8 39.5 56.6"/>
    <polygon class="st2" points="36.1 34.2 41.6 22 33.7 4.9 33.5 4.5 20 34.2 36.1 34.2"/>
    <path class="st1" d="M25.6,53.7l-6.5-17.5-13.3,29.3c7-4.1,13.3-7.9,19.8-11.8Z"/>
    <path class="st4" d="M61.3,65.5l-10.3-22.6-11.5,13.7-3.5,4.2-.3,4.7h25.6Z"/>
    <path class="st5" d="M51,42.8l-3.9-8.6-15,8.9,4.1-9.1h-16.1l-.3.8-.5,1.2,6.5,17.5c3.6-2.2,7.3-4.4,11.2-6.7l-.8,13.8,3.5-4.2,11.5-13.7Z"/>
    <polygon class="st5" points="51 42.8 39.5 56.6 51 42.9 51 42.8"/>
  </g>
</svg>