<?xml version="1.0" encoding="UTF-8"?>
<svg id="Layer_1" xmlns="http://www.w3.org/2000/svg" version="1.1" viewBox="0 0 180 55.21">
  <!-- Generator: Adobe Illustrator 30.0.0, SVG Export Plug-In . SVG Version: 2.1.1 Build 123)  -->
  <defs>
    <style>
      .st0, .st1, .st2 {
        fill: none;
      }

      .st3 {
        fill: #eeedee;
      }

      .st4 {
        fill: #231f20;
      }

      .st1 {
        stroke: #fff;
        stroke-width: .5px;
      }

      .st1, .st2 {
        stroke-miterlimit: 10;
      }

      .st5 {
        fill: #ee3c24;
      }

      .st2 {
        stroke: #ee3c24;
        stroke-width: 2px;
      }
    </style>
  </defs>
  <g>
    <path class="st4" d="M66.54,172.38h3.2c.82,0,1.46.27,1.83.73.37.37.55.91.55,1.46,0,1.37-.82,2.28-2.47,2.28h-2.1v3.2h-1v-7.67h-.01ZM67.46,176.12h2.01c1.1,0,1.64-.55,1.64-1.46s-.55-1.37-1.55-1.37h-2.1v2.83Z"/>
    <path class="st4" d="M72.39,177.31c0-1.64,1-2.92,2.65-2.92s2.65,1.28,2.65,2.92-1,2.92-2.65,2.92-2.65-1.28-2.65-2.92ZM76.86,177.31c0-1.19-.64-2.19-1.83-2.19s-1.83,1-1.83,2.19.64,2.19,1.83,2.19,1.83-1,1.83-2.19Z"/>
    <path class="st4" d="M77.96,174.57h.91l1,3.47c0,.46.27,1.19.27,1.19h0s.18-.73.27-1.19l.91-3.47h.91l.91,3.47c0,.46.27,1.19.27,1.19h0s.18-.73.27-1.19l1-3.47h.91l-1.83,5.57h-.91l-.91-3.38c0-.46-.27-1.19-.27-1.19h0s-.18.73-.27,1.19l-.91,3.38h-.91l-1.74-5.57h.12Z"/>
    <path class="st4" d="M85.99,177.31c0-1.64,1.1-2.92,2.65-2.92s2.56,1.28,2.56,3.1h-4.29c0,1.1.64,2.01,1.83,2.01s1.37-.37,1.55-1.1h.82c-.27,1.19-1.1,1.92-2.37,1.92s-2.65-1.28-2.65-2.92h-.09v-.09s-.01,0-.01,0ZM86.91,176.85h3.38c0-1.1-.64-1.83-1.64-1.83s-1.55.73-1.74,1.83Z"/>
    <path class="st4" d="M92.93,175.48h0c.37-.55.91-1,1.64-1s.27,0,.37,0v.82h-.37c-.82,0-1.64.64-1.64,1.74v3.1h-.91v-5.57h.91v.91Z"/>
    <path class="st4" d="M95.22,177.31c0-1.64,1.1-2.92,2.65-2.92s2.56,1.28,2.56,3.1h-4.29c0,1.1.64,2.01,1.83,2.01s1.37-.37,1.55-1.1h.82c-.27,1.19-1.1,1.92-2.37,1.92s-2.65-1.28-2.65-2.92h-.09v-.09s-.01,0-.01,0ZM96.13,176.85h3.38c0-1.1-.64-1.83-1.64-1.83s-1.55.73-1.74,1.83Z"/>
    <path class="st4" d="M100.97,177.31c0-1.83,1.1-2.92,2.47-2.92s1.37.37,1.74.91h0v-2.92h.91v7.67h-.91v-.64h0c-.46.55-.91.82-1.74.82-1.55,0-2.47-1.1-2.47-2.92h0ZM105.26,177.31c0-1.28-.64-2.19-1.74-2.19s-1.55.91-1.55,2.19.55,2.19,1.64,2.19,1.74-.91,1.74-2.19h-.09Z"/>
    <path class="st4" d="M109.83,179.32h0v.73h-.91v-7.67h.91v2.92h0c.46-.55,1-.91,1.83-.91,1.37,0,2.37,1.1,2.37,2.92s-.91,2.92-2.37,2.92-1.28-.27-1.74-.91c0,0-.09,0-.09,0ZM113.12,177.31c0-1.28-.55-2.19-1.55-2.19s-1.74,1-1.74,2.19.55,2.19,1.74,2.19,1.55-.91,1.55-2.19Z"/>
    <path class="st4" d="M114.67,181.79v-.73h.55c.27,0,.64-.18.82-.64l.18-.55-2.19-5.39h.91l1.28,3.47c.18.46.37,1.1.37,1.1h0s.18-.64.37-1.1l1.28-3.47h.91l-2.37,6.03c-.46,1.19-.91,1.37-1.55,1.37h-.82.27v-.09h-.01Z"/>
    <path class="st4" d="M121.43,174.57h.82v-1.74h.91v1.74h1.1v.73h-1.1v3.65c0,.37.18.55.55.55h.46v.73h-.73c-.73,0-1.19-.27-1.19-1.1v-3.84h-.82v-.73h0Z"/>
    <path class="st4" d="M125.9,175.3h0c.37-.55.91-.82,1.74-.82,1.19,0,1.92.64,1.92,1.83v3.93h-.91v-3.84c0-.73-.46-1.1-1.28-1.1s-1.55.64-1.55,1.55v3.47h-.91v-7.67h.91v2.83-.18h.09,0Z"/>
    <path class="st4" d="M130.47,177.31c0-1.64,1.1-2.92,2.65-2.92s2.56,1.28,2.56,3.1h-4.29c0,1.1.64,2.01,1.83,2.01s1.37-.37,1.55-1.1h.82c-.27,1.19-1.1,1.92-2.37,1.92s-2.65-1.28-2.65-2.92h0l-.09-.09h-.01ZM131.38,176.85h3.38c0-1.1-.64-1.83-1.64-1.83s-1.55.73-1.74,1.83Z"/>
    <path class="st4" d="M138.32,172.38h1.55v7.67h-1.55v-7.67Z"/>
    <path class="st4" d="M140.69,176.31c0-2.28,1.46-4.02,3.65-4.02s3.01,1.1,3.2,2.56h-1.55c-.18-.73-.73-1.28-1.64-1.28-1.46,0-2.1,1.19-2.1,2.74s.82,2.74,2.1,2.74,1.55-.55,1.64-1.37h1.55c0,.64-.37,1.37-.82,1.83-.55.46-1.28.82-2.37.82-2.19,0-3.74-1.64-3.74-4.02h.09,0Z"/>
    <path class="st4" d="M148.09,176.31c0-2.28,1.46-4.02,3.74-4.02s3.74,1.74,3.74,4.02-1.46,4.02-3.74,4.02-3.74-1.74-3.74-4.02ZM153.93,176.31c0-1.55-.73-2.74-2.1-2.74s-2.1,1.19-2.1,2.74.73,2.74,2.1,2.74,2.1-1.19,2.1-2.74Z"/>
    <path class="st4" d="M156.31,172.38h1.55l2.56,4.29c.27.46.55,1.1.55,1.1h0v-5.39h1.55v7.67h-1.55l-2.65-4.29c-.27-.37-.55-1.1-.55-1.1h0v5.39h-1.55v-7.67h.09Z"/>
    <path class="st4" d="M165.53,172.38h2.19l1.1,3.84c.27,1,.46,2.1.46,2.1h0s.18-1.1.46-2.1l1.1-3.84h2.19v7.67h-1.46v-5.94h0s-.18.91-.37,1.46l-1.37,4.57h-1.46l-1.28-4.57c-.18-.55-.37-1.46-.37-1.46h0v5.94h-1.46v-7.67h.27,0Z"/>
    <path class="st4" d="M173.93,177.31c0-1.64,1.1-2.92,2.74-2.92s2.74,1.37,2.74,3.29h-4.02c.09.82.55,1.37,1.37,1.37s.91-.27,1.1-.64h1.46c-.18,1-1.1,1.83-2.47,1.83s-2.83-1.28-2.83-2.92h-.09ZM175.39,176.76h2.47c0-.73-.55-1.19-1.19-1.19s-1.19.46-1.28,1.19Z"/>
    <path class="st4" d="M179.6,174.57h.73v-1.74h1.46v1.74h.91v1h-.91v2.92c0,.37.18.55.55.55h.46v1.1h-.91c-.55,0-1.46-.27-1.46-1.37v-3.2h-.73v-1h-.1Z"/>
    <path class="st4" d="M184.98,175.3h0c.37-.55.82-.91,1.64-.91s1.92.82,1.92,2.1v3.65h-1.46v-3.38c0-.55-.37-1-.91-1s-1.1.55-1.1,1.28v3.1h-1.46v-7.67h1.46v2.92h-.09v-.09h0Z"/>
    <path class="st4" d="M189.18,177.31c0-1.64,1.19-2.92,2.92-2.92s2.92,1.28,2.92,2.92-1.19,2.92-2.92,2.92-2.92-1.28-2.92-2.92ZM193.48,177.31c0-1.1-.55-1.83-1.37-1.83s-1.37.73-1.37,1.83.46,1.83,1.37,1.83,1.37-.73,1.37-1.83Z"/>
    <path class="st4" d="M195.3,177.31c0-1.74,1-2.92,2.37-2.92s1.28.37,1.55.82h0v-2.83h1.46v7.67h-1.37v-.73h0c-.37.55-.91.91-1.64.91-1.37,0-2.37-1.1-2.37-2.92h0ZM199.32,177.4c0-1.1-.37-1.74-1.28-1.74s-1.19.73-1.19,1.74.46,1.74,1.19,1.74,1.37-.64,1.37-1.64h-.09v-.09h0Z"/>
  </g>
  <polygon class="st0" points="33.3 106.96 33.3 107.06 33.5 107.36 33.3 106.96"/>
  <path class="st5" d="M64.93,139.1l6.4-18.4h7.5l6.37,18.4h-5.66l-1.13-3.54h-6.97l-1.18,3.54h-5.33ZM72.92,131.05h4.04l-.33-1.07-1.46-4.81h-.38l-1.51,4.81-.36,1.07Z"/>
  <path class="st5" d="M85.72,139.1v-18.4h9.78c4.2,0,6.26,1.4,6.26,4.53,0,2.31-1.24,3.71-3.76,3.93v.36c3.1.11,4.61,2,4.61,4.48,0,3.21-2.06,5.11-6.56,5.11h-10.33ZM90.88,127.7h4.34c1.07,0,1.37-.25,1.37-1.18,0-.99-.41-1.18-1.48-1.18h-4.23v2.36ZM90.88,134.46h4.97c.99,0,1.51-.14,1.51-1.34s-.47-1.4-1.51-1.4h-4.97v2.75h0Z"/>
  <path class="st5" d="M103.84,133.06v-.36h5.08v.22c0,1.51.55,1.81,3.02,1.81,1.95,0,2.36-.3,2.36-1.1,0-.85-.27-1.13-1.54-1.32l-4.01-.63c-3.73-.58-5.27-2.55-5.27-5.41,0-3.27,2.5-5.85,7.91-5.85s7.58,2.58,7.58,6.01v.47h-5.08v-.33c0-1.07-.52-1.51-2.83-1.51-1.95,0-2.44.33-2.44,1.02,0,.58.36.82,1.43,1.02l4.01.71c3.9.69,5.41,2.72,5.41,5.57,0,3.21-2.2,5.99-7.72,5.99s-7.91-2.47-7.91-6.32h0Z"/>
  <path class="st5" d="M125.51,139.1v-13.76h-5.66v-4.64h16.48v4.64h-5.66v13.76h-5.16,0Z"/>
  <path class="st5" d="M137.51,139.1v-18.4h9.25c4.64,0,6.84,1.98,6.84,5.66,0,2.91-1.13,4.72-4.23,5.08v.25c1.87.49,2.61,1.68,3.32,3.24l1.92,4.17h-6.01l-1.81-3.82c-.77-1.59-1.13-2.06-2.86-2.06h-1.26v5.88h-5.16ZM142.67,128.94h3.9c1.46,0,1.87-.41,1.87-1.87,0-1.35-.41-1.73-1.87-1.73h-3.9v3.6Z"/>
  <path class="st5" d="M154.45,139.1l6.4-18.4h7.5l6.37,18.4h-5.66l-1.13-3.54h-6.97l-1.18,3.54h-5.33,0ZM162.44,131.05h4.04l-.33-1.07-1.46-4.81h-.38l-1.51,4.81-.36,1.07h0Z"/>
  <path class="st5" d="M174.33,129.9c0-5.74,3.21-9.47,9.14-9.47s8.65,3.02,8.65,7.3v.63h-5.52v-.08c0-2.11-.69-2.83-3.24-2.83s-3.49.63-3.49,4.45.85,4.45,3.49,4.45,3.24-.71,3.24-2.83v-.08h5.52v.63c0,4.28-2.83,7.3-8.65,7.3s-9.14-3.74-9.14-9.47Z"/>
  <path class="st5" d="M198.33,139.1v-13.76h-5.66v-4.64h16.48v4.64h-5.66v13.76h-5.16,0Z"/>
  <path class="st4" d="M65.76,152.45c0-5.74,3.21-9.47,9.14-9.47s8.65,3.02,8.65,7.3v.63h-5.52v-.08c0-2.11-.69-2.83-3.24-2.83s-3.49.63-3.49,4.45.85,4.45,3.49,4.45,3.24-.71,3.24-2.83v-.08h5.52v.63c0,4.28-2.83,7.3-8.65,7.3s-9.14-3.74-9.14-9.47Z"/>
  <path class="st4" d="M85.12,161.65v-18.4h9.25c4.64,0,6.84,1.98,6.84,5.66,0,2.91-1.13,4.72-4.23,5.08v.25c1.87.49,2.61,1.68,3.32,3.24l1.92,4.17h-6.01l-1.81-3.82c-.77-1.59-1.13-2.06-2.86-2.06h-1.26v5.88h-5.16,0ZM90.28,151.49h3.9c1.46,0,1.87-.41,1.87-1.87,0-1.35-.41-1.73-1.87-1.73h-3.9v3.6Z"/>
  <path class="st4" d="M103.07,161.65v-18.4h14.85v4.64h-9.69v2.22h9.28v4.61h-9.28v2.28h9.69v4.64h-14.85Z"/>
  <path class="st4" d="M118.45,161.65l6.4-18.4h7.5l6.37,18.4h-5.66l-1.13-3.54h-6.97l-1.18,3.54h-5.33,0ZM126.44,153.61h4.04l-.33-1.07-1.45-4.81h-.38l-1.51,4.81-.36,1.07h0Z"/>
  <path class="st4" d="M141.9,161.65v-13.76h-5.66v-4.64h16.48v4.64h-5.66v13.76h-5.16,0Z"/>
  <path class="st4" d="M153.9,161.65v-18.4h5.16v18.4s-5.16,0-5.16,0Z"/>
  <path class="st4" d="M165.98,161.65l-6.29-18.4h5.82l3.9,12.63h.36l3.82-12.63h5.82l-6.32,18.4h-7.11Z"/>
  <path class="st4" d="M180.04,161.65v-18.4h14.85v4.64h-9.69v2.22h9.28v4.61h-9.28v2.28h9.69v4.64h-14.85Z"/>
  <polygon class="st0" points="33.17 107.36 33.11 107.49 33.37 107.79 33.17 107.36"/>
  <polygon class="st2" points="50.85 144.94 45.53 133.56 32.09 141.4 40.6 122.81 33.39 107.36 23.44 128.74 8.48 160.89 27.01 150.13 36.32 144.73 35.36 160.89 42.84 160.89 58.3 160.89 50.85 144.94"/>
  <path class="st3" d="M55.05,29.76l4.82-13.85h5.65l4.79,13.85h-4.26l-.85-2.66h-5.25l-.89,2.66h-4.01ZM61.07,23.7h3.04l-.25-.81-1.1-3.62h-.29l-1.14,3.62-.27.81Z"/>
  <path class="st3" d="M70.7,29.76v-13.85h7.36c3.16,0,4.71,1.05,4.71,3.41,0,1.74-.93,2.79-2.83,2.96v.27c2.33.08,3.47,1.51,3.47,3.37,0,2.42-1.55,3.85-4.94,3.85h-7.78ZM74.58,21.18h3.27c.81,0,1.03-.19,1.03-.89,0-.75-.31-.89-1.11-.89h-3.18v1.78ZM74.58,26.27h3.74c.75,0,1.14-.11,1.14-1.01s-.35-1.05-1.14-1.05h-3.74v2.07h0Z"/>
  <path class="st3" d="M84.34,25.21v-.27h3.82v.17c0,1.14.41,1.36,2.27,1.36,1.47,0,1.78-.23,1.78-.83,0-.64-.2-.85-1.16-.99l-3.02-.47c-2.81-.44-3.97-1.92-3.97-4.07,0-2.46,1.88-4.4,5.95-4.4s5.71,1.94,5.71,4.52v.35h-3.82v-.25c0-.81-.39-1.14-2.13-1.14-1.47,0-1.84.25-1.84.77,0,.44.27.62,1.08.77l3.02.53c2.94.52,4.07,2.05,4.07,4.19,0,2.42-1.66,4.51-5.81,4.51s-5.95-1.86-5.95-4.76h0Z"/>
  <path class="st3" d="M100.65,29.76v-10.36h-4.26v-3.49h12.41v3.49h-4.26v10.36h-3.88,0Z"/>
  <path class="st3" d="M109.69,29.76v-13.85h6.96c3.49,0,5.15,1.49,5.15,4.26,0,2.19-.85,3.55-3.18,3.82v.19c1.41.37,1.96,1.26,2.5,2.44l1.45,3.14h-4.52l-1.36-2.88c-.58-1.2-.85-1.55-2.15-1.55h-.95v4.43h-3.88ZM113.57,22.11h2.94c1.1,0,1.41-.31,1.41-1.41,0-1.02-.31-1.3-1.41-1.3h-2.94v2.71Z"/>
  <path class="st3" d="M122.44,29.76l4.82-13.85h5.65l4.79,13.85h-4.26l-.85-2.66h-5.25l-.89,2.66h-4.01,0ZM128.45,23.7h3.04l-.25-.81-1.1-3.62h-.29l-1.14,3.62-.27.81h0Z"/>
  <path class="st3" d="M137.4,22.83c0-4.32,2.42-7.13,6.88-7.13s6.51,2.27,6.51,5.5v.47h-4.16v-.06c0-1.59-.52-2.13-2.44-2.13s-2.63.47-2.63,3.35.64,3.35,2.63,3.35,2.44-.53,2.44-2.13v-.06h4.16v.47c0,3.22-2.13,5.5-6.51,5.5s-6.88-2.82-6.88-7.13Z"/>
  <path class="st3" d="M155.47,29.76v-10.36h-4.26v-3.49h12.41v3.49h-4.26v10.36h-3.88,0Z"/>
  <path class="st1" d="M55.68,39.81c0-4.23,2.36-6.98,6.73-6.98s6.37,2.22,6.37,5.38v.46h-4.07v-.06c0-1.55-.51-2.08-2.39-2.08s-2.57.46-2.57,3.28.63,3.28,2.57,3.28,2.39-.52,2.39-2.08v-.06h4.07v.46c0,3.15-2.08,5.38-6.37,5.38s-6.73-2.75-6.73-6.98Z"/>
  <path class="st1" d="M69.94,46.59v-13.55h6.81c3.42,0,5.04,1.46,5.04,4.17,0,2.14-.83,3.48-3.12,3.74v.18c1.38.36,1.92,1.24,2.45,2.39l1.41,3.07h-4.43l-1.33-2.81c-.57-1.17-.83-1.52-2.11-1.52h-.93v4.33h-3.8,0ZM73.74,39.1h2.87c1.08,0,1.38-.3,1.38-1.38,0-.99-.3-1.27-1.38-1.27h-2.87v2.65Z"/>
  <path class="st1" d="M83.16,46.59v-13.55h10.94v3.42h-7.14v1.64h6.84v3.4h-6.84v1.68h7.14v3.42h-10.94Z"/>
  <path class="st1" d="M94.49,46.59l4.71-13.55h5.52l4.69,13.55h-4.17l-.83-2.61h-5.13l-.87,2.61h-3.93,0ZM100.37,40.66h2.98l-.24-.79-1.07-3.54h-.28l-1.11,3.54-.27.79h0Z"/>
  <path class="st1" d="M111.76,46.59v-10.14h-4.17v-3.42h12.14v3.42h-4.17v10.14h-3.8,0Z"/>
  <path class="st1" d="M120.6,46.59v-13.55h3.8v13.55s-3.8,0-3.8,0Z"/>
  <path class="st1" d="M129.5,46.59l-4.63-13.55h4.29l2.87,9.3h.27l2.81-9.3h4.29l-4.66,13.55h-5.24Z"/>
  <path class="st1" d="M139.85,46.59v-13.55h10.94v3.42h-7.14v1.64h6.84v3.4h-6.84v1.68h7.14v3.42h-10.94Z"/>
  <polygon class="st2" points="44.45 34.42 40.45 25.85 30.33 31.75 36.74 17.76 31.31 6.13 23.82 22.22 12.56 46.42 26.51 38.32 33.51 34.26 32.79 46.42 38.42 46.42 50.06 46.42 44.45 34.42"/>
</svg>