<?xml version="1.0" encoding="iso-8859-1"?>
<!-- Generator: Adobe Illustrator 29.7.1, SVG Export Plug-In . SVG Version: 9.03 Build 0)  -->
<svg version="1.1" id="Layer_1" xmlns="http://www.w3.org/2000/svg" xmlns:xlink="http://www.w3.org/1999/xlink" x="0px" y="0px"
	 viewBox="0 0 240 240" style="enable-background:new 0 0 240 240;" xml:space="preserve">
<path style="opacity:0.1;fill:#FFFFFF;enable-background:new    ;" d="M115.5,186c34.518,0,62.5-27.982,62.5-62.5
	S150.018,61,115.5,61S53,88.982,53,123.5S80.982,186,115.5,186z"/>
<path style="opacity:0.1;fill:#FFFFFF;enable-background:new    ;" d="M164.508,226.605c-14.905,7.181-31.604,11.324-49.269,11.324
	c-62.519,0-113.307-50.817-113.307-113.372c0-39.77,20.564-74.845,51.616-95.006l-0.828-1.933C20.978,48.193,0,83.959,0,124.557
	C0,188.216,51.754,240,115.377,240c17.941,0,35.054-4.143,50.235-11.461L164.508,226.605z"/>
<path style="fill:#FFFFFF;" d="M89,151v-12.194h31.824V151H89z"/>
<path style="fill:#FFFFFF;" d="M128.589,97h12.355v43.2h-12.355V97z"/>
<path style="fill:#FFFFFF;" d="M89.055,107.136l8.472-8.394l43.418,41.458l-8.472,8.71L89.055,107.136z"/>
<path style="fill:#FFFFFF;" d="M104.129,8.807c-0.357-0.454-0.831-0.822-1.425-1.104c-0.593-0.281-1.301-0.531-2.125-0.749
	c-0.716-0.193-1.304-0.377-1.764-0.551c-0.461-0.175-0.812-0.389-1.052-0.643c-0.241-0.253-0.389-0.586-0.445-0.999
	c-0.049-0.368-0.002-0.698,0.139-0.989c0.141-0.291,0.373-0.534,0.695-0.729c0.322-0.195,0.728-0.325,1.219-0.39
	c0.567-0.076,1.134-0.08,1.697-0.012c0.565,0.07,1.154,0.184,1.766,0.345l0.485-1.967c-0.671-0.199-1.344-0.332-2.02-0.399
	c-0.676-0.066-1.385-0.051-2.127,0.05c-0.936,0.125-1.733,0.387-2.393,0.784c-0.659,0.397-1.142,0.905-1.45,1.525
	c-0.308,0.619-0.407,1.329-0.3,2.129c0.08,0.599,0.245,1.108,0.495,1.524c0.25,0.417,0.561,0.764,0.934,1.042
	c0.372,0.279,0.785,0.508,1.24,0.691c0.455,0.182,0.927,0.335,1.417,0.46c0.72,0.186,1.325,0.368,1.812,0.55
	c0.487,0.181,0.863,0.401,1.129,0.661c0.264,0.26,0.424,0.6,0.481,1.019c0.053,0.393,0.002,0.751-0.152,1.07
	c-0.153,0.319-0.419,0.585-0.794,0.796c-0.376,0.211-0.863,0.357-1.464,0.438c-0.735,0.098-1.472,0.093-2.209-0.014
	c-0.738-0.109-1.41-0.249-2.018-0.424l0.296,2.188c0.363,0.115,0.761,0.203,1.192,0.259c0.431,0.056,0.886,0.083,1.365,0.077
	c0.478-0.005,0.976-0.042,1.492-0.111c1.059-0.143,1.948-0.426,2.67-0.852c0.72-0.425,1.246-0.969,1.574-1.63
	c0.328-0.662,0.435-1.412,0.323-2.251C104.712,9.858,104.483,9.261,104.129,8.807z M85.553,16.153l-1.146-4.333l5.202-1.375
	l-0.502-1.898l-5.202,1.376l-0.991-3.749l5.552-1.467L87.962,2.8l-7.817,2.066l3.648,13.803l7.817-2.066l-0.506-1.917L85.553,16.153
	z M74.142,6.725L71.8,7.681l-0.676,7.311l-5.58-4.757l-2.36,0.963l7.736,6.367l2.062,5.055l2.161-0.882l-2.097-5.136L74.142,6.725z
	 M223.619,104.884l0.375,2.303l5.475-0.893l9.381,3.279l-0.408-2.496l-6.974-2.296l5.886-4.373l-0.41-2.516l-7.938,6.113
	L223.619,104.884z M193.903,44.281c-0.103,0.846,0,1.695,0.312,2.548c0.312,0.851,0.855,1.696,1.629,2.531
	c0.761,0.821,1.554,1.418,2.379,1.789c0.825,0.372,1.662,0.541,2.514,0.506c0.851-0.034,1.701-0.257,2.551-0.667
	c0.848-0.41,1.676-0.989,2.483-1.738c1.094-1.014,1.875-2.073,2.345-3.18c0.47-1.106,0.592-2.225,0.367-3.358
	c-0.225-1.133-0.841-2.243-1.85-3.331c-1.032-1.113-2.109-1.827-3.23-2.14c-1.121-0.315-2.249-0.277-3.383,0.114
	c-1.134,0.391-2.24,1.086-3.32,2.087c-0.807,0.748-1.449,1.531-1.926,2.346C194.297,42.603,194.007,43.434,193.903,44.281z
	 M196.572,43.531c0.386-0.766,0.982-1.523,1.789-2.271c0.817-0.757,1.618-1.297,2.406-1.622c0.789-0.322,1.555-0.399,2.297-0.231
	c0.742,0.169,1.445,0.611,2.109,1.327c0.991,1.07,1.367,2.171,1.126,3.304c-0.241,1.134-0.974,2.269-2.201,3.407
	c-0.808,0.748-1.605,1.288-2.394,1.62c-0.789,0.332-1.552,0.418-2.29,0.259c-0.738-0.159-1.441-0.598-2.11-1.319
	c-0.664-0.716-1.049-1.449-1.153-2.199C196.046,45.055,196.185,44.298,196.572,43.531z M222.085,97.132l1.909-0.568l-1.729-5.812
	l11.775-3.503l-0.669-2.246l-13.685,4.07L222.085,97.132z M214.703,76.816c0.67,1.462,1.488,2.597,2.457,3.406
	c0.969,0.809,2.069,1.262,3.297,1.358c1.228,0.096,2.574-0.191,4.037-0.861c1.391-0.637,2.434-1.437,3.135-2.402
	c0.701-0.965,1.068-2.047,1.103-3.244c0.035-1.199-0.255-2.469-0.871-3.812l-1.83-3.996l-12.98,5.947L214.703,76.816z
	 M225.239,70.204l0.834,1.82c0.434,0.947,0.633,1.821,0.596,2.622c-0.038,0.802-0.324,1.527-0.857,2.176
	c-0.533,0.648-1.332,1.218-2.398,1.705c-1.58,0.725-2.948,0.882-4.103,0.473c-1.155-0.409-2.09-1.399-2.809-2.967l-0.691-1.51
	L225.239,70.204z M205.65,58.935c-0.272,1.326,0.098,2.751,1.112,4.274c0.709,1.068,1.49,1.827,2.34,2.278
	c0.851,0.45,1.72,0.633,2.609,0.547c0.889-0.087,1.748-0.405,2.577-0.957l7.694-5.114l-1.292-1.944l-7.482,4.974
	c-0.617,0.41-1.208,0.665-1.773,0.763c-0.565,0.098-1.094,0.019-1.586-0.235c-0.494-0.254-0.953-0.701-1.379-1.341
	c-0.617-0.928-0.844-1.782-0.682-2.561c0.162-0.78,0.738-1.5,1.73-2.159l7.49-4.979l-1.297-1.951l-7.661,5.092
	C206.721,56.505,205.922,57.61,205.65,58.935z M182.007,36.499l3.56-4.48l1.797,1.427l-0.86,6.625l2.072,1.646l0.757-7.468
	c0.499,0.146,1.015,0.223,1.549,0.232c0.534,0.008,1.056-0.1,1.568-0.326c0.512-0.226,0.986-0.613,1.423-1.164
	c0.588-0.739,0.918-1.47,0.99-2.194c0.072-0.724-0.114-1.454-0.557-2.188s-1.146-1.484-2.111-2.25l-3.143-2.498l-8.88,11.18
	L182.007,36.499z M189.673,26.85l1.186,0.941c0.856,0.681,1.382,1.319,1.578,1.916c0.195,0.596,0.036,1.218-0.479,1.865
	c-0.49,0.617-1.052,0.93-1.688,0.941c-0.635,0.01-1.379-0.323-2.231-0.999l-1.27-1.009L189.673,26.85z M222.973,181.678
	l-10.757-5.936l-1.138,2.061l10.758,5.936l-2.015,3.65l1.744,0.963l5.172-9.371l-1.744-0.962L222.973,181.678z M205.104,187.285
	l5.143,3.886l-3.968,5.251l-5.143-3.885l-1.406,1.862l11.391,8.606l1.408-1.862l-4.66-3.521l3.968-5.252l4.659,3.521l1.413-1.87
	l-11.392-8.605L205.104,187.285z M221.119,153.76c-0.459,1.541-0.59,2.935-0.395,4.183c0.196,1.246,0.725,2.31,1.588,3.192
	c0.862,0.882,2.063,1.552,3.604,2.011c1.467,0.437,2.781,0.522,3.944,0.256c1.162-0.266,2.152-0.837,2.967-1.716
	c0.814-0.878,1.433-2.025,1.854-3.441l1.254-4.212l-13.685-4.073L221.119,153.76z M222.99,154.359l0.473-1.591l9.94,2.959
	l-0.571,1.918c-0.297,0.998-0.723,1.787-1.279,2.365c-0.557,0.578-1.248,0.935-2.078,1.073c-0.828,0.137-1.805,0.038-2.928-0.296
	c-1.666-0.496-2.798-1.278-3.397-2.345C222.551,157.374,222.498,156.012,222.99,154.359z M223.448,143.727l14.07,2.422l0.398-2.311
	l-14.07-2.422L223.448,143.727z M112.327,9.77l0.123-9.932l-2.665,0.093l0.814,9.899L112.327,9.77z M195.11,199.473l1.771,3.812
	l-3.906,3.813l-3.77-1.862l-1.781,1.74l13.808,6.555l1.858-1.814l-6.211-13.97L195.11,199.473z M199.567,208.932
	c0.077,0.143,0.183,0.348,0.321,0.614c0.136,0.268,0.286,0.551,0.448,0.852c0.162,0.302,0.313,0.571,0.453,0.807
	c-0.201-0.112-0.449-0.25-0.744-0.412c-0.296-0.162-0.586-0.321-0.872-0.474c-0.285-0.153-0.506-0.272-0.662-0.356l-3.699-1.848
	l3.005-2.934L199.567,208.932z M225.374,124.226l-0.209,3.96c-0.084,1.605,0.116,2.991,0.6,4.157
	c0.482,1.167,1.246,2.077,2.291,2.732c1.045,0.654,2.37,1.023,3.976,1.107c1.529,0.08,2.825-0.145,3.894-0.675
	c1.067-0.53,1.894-1.318,2.48-2.363c0.586-1.045,0.918-2.304,0.996-3.781l0.23-4.388L225.374,124.226z M237.464,129.211
	c-0.054,1.04-0.284,1.907-0.688,2.6c-0.406,0.692-0.995,1.203-1.768,1.53c-0.773,0.327-1.746,0.461-2.916,0.399
	c-1.737-0.091-3.02-0.586-3.854-1.482c-0.832-0.899-1.204-2.209-1.113-3.932l0.087-1.658l10.356,0.544L237.464,129.211z
	 M140.073,10.689c-0.152,0.337-0.307,0.707-0.468,1.108c-0.162,0.401-0.312,0.797-0.453,1.19c-0.14,0.392-0.259,0.741-0.359,1.048
	c0.008-0.237,0.012-0.503,0.01-0.801c-0.002-0.298-0.008-0.607-0.02-0.925c-0.012-0.319-0.025-0.631-0.041-0.938
	c-0.017-0.307-0.04-0.585-0.07-0.835l-0.903-8.737l-2.252-0.388l-3.72,7.912c-0.112,0.219-0.225,0.467-0.342,0.743
	c-0.118,0.277-0.233,0.566-0.348,0.867c-0.114,0.301-0.222,0.596-0.326,0.886c-0.102,0.289-0.191,0.553-0.265,0.791
	c0.009-0.242,0.013-0.514,0.012-0.815c-0.001-0.301-0.006-0.611-0.014-0.929c-0.008-0.318-0.018-0.636-0.034-0.952
	c-0.015-0.317-0.031-0.612-0.051-0.886l-0.611-8.598L127.5,0.031l1.244,14.701l2.512,0.433l3.76-8.023
	c0.095-0.209,0.203-0.45,0.322-0.723s0.236-0.551,0.347-0.832c0.11-0.281,0.21-0.539,0.297-0.776s0.149-0.421,0.185-0.553
	c-0.004,0.138-0.004,0.334,0.002,0.59c0.006,0.255,0.017,0.536,0.033,0.843c0.018,0.306,0.037,0.607,0.059,0.901
	c0.021,0.295,0.044,0.55,0.066,0.765l0.896,8.835l2.521,0.435l6.1-13.438l-2.331-0.4L140.073,10.689z M112.533,11.779
	c-0.288-0.208-0.63-0.305-1.027-0.291c-0.403,0.013-0.739,0.134-1.008,0.362c-0.269,0.228-0.394,0.609-0.375,1.142
	c0.018,0.521,0.169,0.892,0.453,1.113c0.285,0.221,0.629,0.325,1.032,0.311c0.397-0.014,0.732-0.142,1.003-0.382
	c0.272-0.241,0.399-0.621,0.38-1.142C112.973,12.359,112.82,11.988,112.533,11.779z M189.168,221.121l-7.328-9.86l-1.889,1.403
	l7.328,9.862l-3.348,2.486l1.189,1.6l8.59-6.385l-1.188-1.599L189.168,221.121z M181.366,19.991
	c-0.345-1.081-1.309-2.09-2.895-3.028l-3.572-2.114l-7.271,12.288l2.017,1.193l2.726-4.605l1.312,0.775
	c0.896,0.53,1.714,0.871,2.453,1.021c0.74,0.15,1.406,0.153,1.998,0.008c0.592-0.145,1.113-0.408,1.562-0.789
	c0.45-0.382,0.831-0.839,1.146-1.371C181.534,22.198,181.71,21.072,181.366,19.991z M178.746,22.231
	c-0.315,0.532-0.683,0.894-1.105,1.082c-0.423,0.189-0.899,0.226-1.43,0.113c-0.53-0.113-1.112-0.357-1.745-0.731l-1.101-0.652
	l2.561-4.328l1.42,0.841c0.908,0.537,1.473,1.106,1.697,1.706C179.266,20.864,179.166,21.52,178.746,22.231z M147.67,18.81
	l7.647,2.627l0.643-1.876l-5.43-1.865l1.456-4.239l5.089,1.748l0.639-1.856l-5.09-1.748l1.26-3.667l5.431,1.866l0.642-1.865
	l-7.647-2.628L147.67,18.81z"/>
</svg>
