<?xml version="1.0" encoding="UTF-8"?>
<svg id="Layer_1" data-name="Layer 1" xmlns="http://www.w3.org/2000/svg" viewBox="0 0 100 100">
  <defs>
    <style>
      .cls-1 {
        stroke-dasharray: 0 4.37;
      }

      .cls-1, .cls-2, .cls-3, .cls-4 {
        fill: none;
        stroke-linecap: round;
        stroke-linejoin: round;
        stroke-width: 3px;
      }

      .cls-1, .cls-2, .cls-4 {
        stroke: #fff;
      }

      .cls-2 {
        stroke-dasharray: 0 4;
      }

      .cls-3 {
        stroke: #2e5a63;
      }
    </style>
  </defs>
  <rect class="cls-3" x="44.24" y="38.51" width="11.52" height="14.41" rx="4" ry="4"/>
  <path class="cls-3" d="M60.78,63.56c-2.95,2.36-6.7,3.76-10.78,3.76s-7.82-1.4-10.78-3.76l.43-2.18c.99-4.93,5.32-8.47,10.34-8.47,2.51,0,4.85.89,6.68,2.39,1.83,1.5,3.17,3.62,3.66,6.08l.43,2.18Z"/>
  <path class="cls-3" d="M67.29,50.03c0,5.47-2.55,10.36-6.51,13.53-2.95,2.36-6.7,3.76-10.78,3.76s-7.82-1.4-10.78-3.76c-3.96-3.17-6.51-8.05-6.51-13.53,0-9.55,7.74-17.29,17.29-17.29s17.29,7.74,17.29,17.29Z"/>
  <path class="cls-3" d="M74.49,50.03c0,7.75-3.61,14.67-9.22,19.16-4.18,3.35-9.49,5.33-15.26,5.33s-11.08-1.98-15.26-5.33c-5.61-4.49-9.22-11.41-9.22-19.16,0-13.53,10.96-24.49,24.49-24.49s24.49,10.96,24.49,24.49Z"/>
  <circle class="cls-3" cx="77.37" cy="22.66" r="7.2"/>
  <circle class="cls-3" cx="77.37" cy="77.4" r="7.2"/>
  <circle class="cls-3" cx="22.63" cy="77.4" r="7.2"/>
  <circle class="cls-3" cx="22.63" cy="22.66" r="7.2"/>
  <circle class="cls-3" cx="22.63" cy="22.66" r="7.2"/>
  <path class="cls-3" d="M50,88.92c8.15,0,15.7-2.51,21.94-6.8"/>
  <path class="cls-2" d="M33.09,85.05c5.1,2.49,10.85,3.87,16.91,3.87"/>
  <path class="cls-3" d="M28.06,17.94c6.24-4.29,13.79-6.8,21.94-6.8"/>
  <g>
    <line class="cls-4" x1="50" y1="11.14" x2="50" y2="11.14"/>
    <path class="cls-1" d="M54.37,11.38c3.7.41,7.25,1.35,10.55,2.73"/>
    <line class="cls-4" x1="66.91" y1="15.01" x2="66.91" y2="15.01"/>
  </g>
  <path class="cls-3" d="M82.09,28.09c4.29,6.24,6.8,13.79,6.8,21.94"/>
  <path class="cls-2" d="M88.89,50.03c0,6.06-1.38,11.81-3.87,16.91"/>
  <path class="cls-3" d="M11.11,50.03c0,8.15,2.51,15.7,6.8,21.94"/>
  <path class="cls-2" d="M14.98,33.12c-2.49,5.1-3.87,10.85-3.87,16.91"/>
  <line class="cls-3" x1="50" y1="22.66" x2="50" y2="32.74"/>
  <line class="cls-3" x1="50" y1="22.66" x2="50" y2="32.74"/>
  <line class="cls-3" x1="50" y1="67.32" x2="50" y2="77.4"/>
  <line class="cls-3" x1="22.63" y1="50.03" x2="32.71" y2="50.03"/>
  <line class="cls-3" x1="22.63" y1="50.03" x2="32.71" y2="50.03"/>
  <line class="cls-3" x1="67.29" y1="50.03" x2="77.37" y2="50.03"/>
</svg>