<?xml version="1.0" encoding="UTF-8"?>
<svg id="Layer_1" data-name="Layer 1" xmlns="http://www.w3.org/2000/svg" viewBox="0 0 100 100">
  <defs>
    <style>
      .cls-1 {
        stroke: #2e5a63;
      }

      .cls-1, .cls-2 {
        fill: none;
        stroke-linecap: round;
        stroke-linejoin: round;
        stroke-width: 3px;
      }

      .cls-2 {
        stroke: #fff;
      }
    </style>
  </defs>
  <path class="cls-1" d="M65.71,19.24h10.77c4.89,0,8.86,3.97,8.86,8.86v38.66c0,3.9-1.98,7.12-6,7.12H20.45c-4.89,0-6-4.54-6-6.35V28.1c0-4.89,3.97-8.86,8.86-8.86h10.77"/>
  <path class="cls-1" d="M14.45,62.06h70.88v5.81c0,3.31-2.69,6-6,6H20.45c-3.31,0-6-2.69-6-6v-5.81h0Z"/>
  <line class="cls-2" x1="48.41" y1="67.97" x2="51.37" y2="67.97"/>
  <polygon class="cls-1" points="60.23 88.64 39.55 88.64 42.51 73.87 57.27 73.87 60.23 88.64"/>
  <line class="cls-1" x1="63.18" y1="88.64" x2="36.6" y2="88.64"/>
  <path class="cls-1" d="M64.51,17.91l-7.31,7.31c-1.88-1.88-4.44-3.03-7.31-3.03-5.71,0-10.34,4.62-10.34,10.34s4.62,10.34,10.34,10.34v10.34c-11.41,0-20.67-9.26-20.67-20.67s9.26-20.67,20.67-20.67c5.7,0,10.87,2.32,14.62,6.05Z"/>
  <path class="cls-1" d="M70.56,32.53h-10.34c0-2.86-1.15-5.43-3.03-7.31l7.31-7.31c3.74,3.75,6.05,8.92,6.05,14.62Z"/>
  <path class="cls-2" d="M73.52,32.53c0,13.05-10.57,23.63-23.63,23.63v-10.34c7.34,0,13.29-5.95,13.29-13.29h10.34Z"/>
  <line class="cls-1" x1="21.83" y1="54.68" x2="27.74" y2="54.68"/>
  <line class="cls-1" x1="21.83" y1="48.77" x2="27.74" y2="48.77"/>
</svg>