<?xml version="1.0" encoding="UTF-8"?>
<svg id="Layer_1" data-name="Layer 1" xmlns="http://www.w3.org/2000/svg" viewBox="0 0 100 100">
  <defs>
    <style>
      .cls-1 {
        stroke: #2e5a63;
      }

      .cls-1, .cls-2 {
        fill: none;
        stroke-linecap: round;
        stroke-linejoin: round;
        stroke-width: 3px;
      }

      .cls-2 {
        stroke: #fff;
      }
    </style>
  </defs>
  <path class="cls-1" d="M86.54,27.73v37.31c0,4.94-4.02,8.96-8.96,8.96H23.85c-4.94,0-8.96-4.02-8.96-8.96V27.73c0-4.94,4.02-8.96,8.96-8.96v43.28h53.73V23.25l-4.48-4.48h4.48c4.94,0,8.96,4.02,8.96,8.96Z"/>
  <path class="cls-1" d="M14.9,62.06h71.64v5.94c0,3.31-2.69,6-6,6H20.9c-3.31,0-6-2.69-6-6v-5.94h0Z"/>
  <line class="cls-2" x1="49.22" y1="68.03" x2="52.21" y2="68.03"/>
  <polygon class="cls-1" points="61.17 88.92 40.27 88.92 43.25 74 58.18 74 61.17 88.92"/>
  <line class="cls-1" x1="64.15" y1="88.92" x2="37.28" y2="88.92"/>
  <path class="cls-1" d="M77.58,23.25v38.81H23.85V14.3c0-1.64,1.34-2.99,2.99-2.99h38.81l11.94,11.94Z"/>
  <path class="cls-1" d="M77.58,23.25h-8.96c-1.64,0-2.99-1.34-2.99-2.99v-8.96l11.94,11.94Z"/>
  <line class="cls-2" x1="64.15" y1="38.18" x2="65.64" y2="38.18"/>
  <line class="cls-2" x1="62.4" y1="33.96" x2="63.46" y2="32.9"/>
  <line class="cls-2" x1="62.4" y1="42.4" x2="63.46" y2="43.45"/>
  <line class="cls-2" x1="31.31" y1="18.77" x2="38.78" y2="18.77"/>
  <line class="cls-2" x1="31.31" y1="24.74" x2="38.78" y2="24.74"/>
  <path class="cls-2" d="M54.75,29.22c-.1,0-.19,0-.28.03-.55.07-1.04.37-1.34.84-1.49,2.25-4.03,3.61-6.75,3.61h-1.63v8.96h1.63c2.72,0,5.25,1.36,6.75,3.61.3.46.79.76,1.34.84.09.03.18.03.28.03,1.07,0,1.94-.87,1.94-1.94v-14.03c0-1.07-.87-1.94-1.94-1.94Z"/>
  <path class="cls-1" d="M40.28,33.7h4.46v8.96h-4.46c-1.66,0-3-1.34-3-3v-2.96c0-1.66,1.34-3,3-3Z"/>
  <line class="cls-1" x1="44.75" y1="50.12" x2="41.76" y2="42.65"/>
</svg>