<?xml version="1.0" encoding="UTF-8"?>
<svg id="Layer_1" data-name="Layer 1" xmlns="http://www.w3.org/2000/svg" viewBox="0 0 100 100">
  <defs>
    <style>
      .cls-1 {
        stroke: #2e5a63;
      }

      .cls-1, .cls-2 {
        fill: none;
        stroke-linecap: round;
        stroke-linejoin: round;
        stroke-width: 3px;
      }

      .cls-2 {
        stroke: #fff;
      }
    </style>
  </defs>
  <path class="cls-1" d="M86.75,50.4h0c0,2.47-.89,4.88-2.56,6.86-7.67,9.06-19.92,14.92-33.74,14.92s-26.07-5.86-33.74-14.92c-1.67-1.98-2.56-4.39-2.56-6.86h0c0-2.47.89-4.88,2.56-6.86,7.67-9.06,19.92-14.92,33.74-14.92s26.07,5.86,33.74,14.92c1.67,1.98,2.56,4.39,2.56,6.86Z"/>
  <path class="cls-1" d="M86.75,50.4h0c0,2.47-.89,4.88-2.56,6.86-7.67,9.06-19.92,14.92-33.74,14.92s-26.07-5.86-33.74-14.92c-1.67-1.98-2.56-4.39-2.56-6.86h0c0-2.47.89-4.88,2.56-6.86,7.67-9.06,19.92-14.92,33.74-14.92s26.07,5.86,33.74,14.92c1.67,1.98,2.56,4.39,2.56,6.86Z"/>
  <circle class="cls-2" cx="50.45" cy="50.4" r="17.42"/>
  <path class="cls-2" d="M57.28,40.24c-.1,0-.19,0-.28.03-.54.07-1.02.36-1.31.81-1.45,2.19-3.92,3.51-6.56,3.51h-1.58v8.71h1.58c2.64,0,5.11,1.32,6.56,3.51.29.45.77.74,1.31.81.09.03.17.03.28.03,1.05,0,1.89-.84,1.89-1.89v-13.65c0-1.05-.84-1.89-1.89-1.89Z"/>
  <path class="cls-1" d="M43.29,44.6h4.26v8.71h-4.26c-1.66,0-3-1.34-3-3v-2.71c0-1.66,1.34-3,3-3Z"/>
  <line class="cls-1" x1="47.55" y1="60.57" x2="44.65" y2="53.31"/>
  <line class="cls-1" x1="50.45" y1="80.9" x2="50.45" y2="72.18"/>
  <line class="cls-1" x1="50.45" y1="19.91" x2="50.45" y2="28.62"/>
  <line class="cls-1" x1="32.29" y1="32.24" x2="25.95" y2="25.89"/>
  <line class="cls-1" x1="74.96" y1="74.91" x2="68.62" y2="68.57"/>
  <line class="cls-1" x1="32.29" y1="68.57" x2="25.95" y2="74.91"/>
  <line class="cls-1" x1="74.96" y1="25.89" x2="68.62" y2="32.24"/>
  <circle class="cls-2" cx="22.87" cy="77.99" r="4.36"/>
  <circle class="cls-2" cx="78.04" cy="77.99" r="4.36"/>
  <circle class="cls-2" cx="22.87" cy="22.82" r="4.36"/>
  <circle class="cls-2" cx="78.04" cy="22.82" r="4.36"/>
  <circle class="cls-2" cx="50.45" cy="85.25" r="4.36"/>
  <circle class="cls-2" cx="50.45" cy="15.56" r="4.36"/>
</svg>