<?xml version="1.0" encoding="UTF-8"?>
<svg id="Layer_1" data-name="Layer 1" xmlns="http://www.w3.org/2000/svg" viewBox="0 0 200 200">
  <defs>
    <style>
      .cls-1 {
        stroke: #19bbb7;
      }

      .cls-1, .cls-2 {
        fill: none;
        stroke-linecap: round;
        stroke-linejoin: round;
        stroke-width: 6px;
      }

      .cls-2 {
        stroke: #195a64;
      }
    </style>
  </defs>
  <line class="cls-2" x1="73.41" y1="63.33" x2="119.82" y2="63.3"/>
  <path class="cls-2" d="M140.64,136.26v27.8c0,4.22-3.42,7.64-7.64,7.64l-100.29.06c-4.22,0-7.64-3.42-7.64-7.64l-.07-128.18c0-4.22,3.42-7.64,7.64-7.64l99.46-.06c4.22,0,7.64,3.42,7.64,7.64v38.61"/>
  <polyline class="cls-1" points="43.18 62.16 50.09 70.24 60.99 55.67"/>
  <line class="cls-2" x1="73.43" y1="99.89" x2="110.2" y2="99.87"/>
  <polyline class="cls-1" points="43.2 98.72 50.11 106.8 61.01 92.23"/>
  <line class="cls-2" x1="73.45" y1="136.45" x2="89.48" y2="136.44"/>
  <polyline class="cls-1" points="43.22 135.28 50.14 143.36 61.03 128.79"/>
  <path class="cls-1" d="M108.91,125.07l42.95-46.91c1.04-1.14,2.81-1.21,3.94-.17l12.06,11.07-44.84,48.96-7.58-6.96"/>
  <path class="cls-1" d="M167.15,88.39l3.56,3.26c2.53,2.32,2.7,6.25.38,8.78l-16.04,17.5"/>
  <path class="cls-1" d="M108.91,125.07l-6.5,17.78c-.78,2.14,1.42,4.16,3.48,3.19l17.13-8.01"/>
  <path class="cls-1" d="M161.32,72.53l3.5-3.82c1.02-1.11,2.75-1.19,3.87-.17l5.43,4.98c1.11,1.02,1.19,2.75.17,3.87l-3.5,3.82"/>
</svg>