<?xml version="1.0" encoding="UTF-8"?>
<svg id="Layer_1" data-name="Layer 1" xmlns="http://www.w3.org/2000/svg" viewBox="0 0 100 100">
  <defs>
    <style>
      .cls-1 {
        stroke: #2e5a63;
      }

      .cls-1, .cls-2 {
        fill: none;
        stroke-linecap: round;
        stroke-linejoin: round;
        stroke-width: 3px;
      }

      .cls-3 {
        fill: #fff;
      }

      .cls-2 {
        stroke: #fff;
      }
    </style>
  </defs>
  <circle class="cls-3" cx="19.31" cy="17.61" r="1.51"/>
  <circle class="cls-3" cx="26.88" cy="17.61" r="1.51"/>
  <circle class="cls-3" cx="34.44" cy="17.61" r="1.51"/>
  <line class="cls-1" x1="11.75" y1="23.66" x2="87.38" y2="23.66"/>
  <path class="cls-1" d="M87.38,16.1v51.43c0,2.51-2.03,4.54-4.54,4.54h-3.03v-15.13c0-.83-.68-1.51-1.51-1.51h-3.03c-.83,0-1.51.68-1.51,1.51v15.13h-7.56v-3.03c0-.83-.68-1.51-1.51-1.51h-3.03c-.83,0-1.51.68-1.51,1.51v3.03h-7.56v-9.08c0-.83-.68-1.51-1.51-1.51h-3.03c-.83,0-1.51.68-1.51,1.51v9.08h-30.25c-2.51,0-4.54-2.03-4.54-4.54V16.1c0-2.51,2.03-4.54,4.54-4.54h66.55c2.51,0,4.54,2.03,4.54,4.54Z"/>
  <polyline class="cls-1" points="79.81 37.28 58.64 58.45 49.56 49.38 11.75 87.19"/>
  <polyline class="cls-1" points="72.25 37.28 79.81 37.28 79.81 44.84"/>
  <path class="cls-2" d="M37.01,31.23c-.11,0-.2,0-.29.03-.56.08-1.06.38-1.36.85-1.51,2.28-4.08,3.66-6.84,3.66h-1.65v9.08h1.65c2.75,0,5.32,1.38,6.84,3.66.3.47.8.77,1.36.85.09.03.18.03.29.03,1.09,0,1.97-.88,1.97-1.97v-14.22c0-1.09-.88-1.97-1.97-1.97Z"/>
  <path class="cls-1" d="M22.31,35.76h4.56v9.08h-4.56c-1.66,0-3-1.34-3-3v-3.08c0-1.66,1.34-3,3-3Z"/>
  <line class="cls-1" x1="26.88" y1="52.4" x2="23.85" y2="44.84"/>
  <path class="cls-1" d="M52.59,62.99v24.2h-6.05v-24.2c0-.83.68-1.51,1.51-1.51h3.03c.83,0,1.51.68,1.51,1.51Z"/>
  <path class="cls-1" d="M33.93,76.6h4.05c.55,0,1,.45,1,1v9.59h-6.05v-9.59c0-.55.45-1,1-1Z"/>
  <path class="cls-1" d="M66.2,69.04v18.15h-6.05v-18.15c0-.83.68-1.51,1.51-1.51h3.03c.83,0,1.51.68,1.51,1.51Z"/>
  <path class="cls-1" d="M79.81,56.94v30.25h-6.05v-30.25c0-.83.68-1.51,1.51-1.51h3.03c.83,0,1.51.68,1.51,1.51Z"/>
  <line class="cls-1" x1="26.88" y1="87.19" x2="87.38" y2="87.19"/>
</svg>