<?xml version="1.0" encoding="UTF-8"?>
<svg id="Layer_1" data-name="Layer 1" xmlns="http://www.w3.org/2000/svg" viewBox="0 0 100 100">
  <defs>
    <style>
      .cls-1 {
        stroke: #1a1a1a;
      }

      .cls-1, .cls-2 {
        fill: none;
        stroke-linecap: round;
        stroke-linejoin: round;
        stroke-width: 4.03px;
      }

      .cls-2 {
        stroke: #ee4137;
      }
    </style>
  </defs>
  <line class="cls-2" x1="26.9" y1="54.46" x2="53.55" y2="54.46"/>
  <line class="cls-1" x1="35.11" y1="46.91" x2="35.11" y2="41.25"/>
  <line class="cls-1" x1="44.6" y1="46.91" x2="44.6" y2="37.49"/>
  <line class="cls-1" x1="54.08" y1="46.91" x2="54.08" y2="33.74"/>
  <line class="cls-2" x1="29.81" y1="35.48" x2="61.27" y2="23"/>
  <polyline class="cls-2" points="56.38 19.7 61.32 22.98 60.42 29.24"/>
  <line class="cls-2" x1="26.9" y1="63.12" x2="49.21" y2="63.12"/>
  <line class="cls-2" x1="26.9" y1="71.77" x2="45.98" y2="71.77"/>
  <path class="cls-1" d="M73.63,70.21v7.82c0,1.48-1.2,2.68-2.68,2.68H18.67c-1.48,0-2.68-1.2-2.68-2.68V15.85c0-1.48,1.2-2.68,2.68-2.68h51.87c1.48,0,2.68,1.2,2.68,2.68v20.6"/>
  <path class="cls-1" d="M10.74,21.42h-.75c-1.48,0-2.68,1.2-2.68,2.68v62.6c0,1.48,1.2,2.68,2.68,2.68h52.7c1.48,0,2.68-1.2,2.68-2.68v-.75"/>
  <g>
    <g>
      <path class="cls-1" d="M58.55,58.58l-5.21,12.83c-.47,1.15.68,2.29,1.83,1.83l12.83-5.21,21.81-21.83c1.85-1.85,1.85-4.84,0-6.69l-2.75-2.75c-1.85-1.85-4.84-1.85-6.69,0l-21.81,21.83Z"/>
      <line class="cls-1" x1="87.04" y1="48.98" x2="77.6" y2="39.54"/>
      <polyline class="cls-1" points="58.55 58.58 64.43 64.46 68 68.03"/>
    </g>
    <line class="cls-1" x1="67.26" y1="59.32" x2="78.46" y2="48.12"/>
  </g>
</svg>