<?xml version="1.0" encoding="UTF-8"?>
<svg id="Layer_1" data-name="Layer 1" xmlns="http://www.w3.org/2000/svg" viewBox="0 0 100 100">
  <defs>
    <style>
      .cls-1 {
        stroke: #1a1a1a;
      }

      .cls-1, .cls-2 {
        fill: none;
        stroke-linecap: round;
        stroke-linejoin: round;
        stroke-width: 4.03px;
      }

      .cls-2 {
        stroke: #ee4137;
      }
    </style>
  </defs>
  <path class="cls-1" d="M7.87,72.25l-3.59,2.04c-.72.41-1.08,1.27-.84,2.07.43,1.45.98,2.86,1.62,4.21.36.75,1.2,1.15,2.01.97l4.03-.9c1.76-.39,3.59.17,4.83,1.47l.52.55c1.24,1.3,1.71,3.17,1.23,4.9l-1.1,3.98c-.22.8.13,1.66.87,2.05,1.32.71,2.69,1.33,4.13,1.83.79.28,1.66-.03,2.11-.74l2.22-3.49c.97-1.52,2.66-2.42,4.46-2.38l.76.02c1.8.04,3.45,1.03,4.34,2.6l2.04,3.59c.41.72,1.27,1.08,2.07.84,1.45-.43,2.86-.98,4.21-1.62.75-.36,1.15-1.2.97-2.01l-.9-4.03c-.39-1.76.17-3.59,1.47-4.83l.55-.52c1.3-1.24,3.17-1.71,4.9-1.23l3.98,1.1c.8.22,1.66-.13,2.05-.87.71-1.32,1.33-2.69,1.83-4.13.28-.79-.03-1.66-.74-2.11l-3.49-2.22c-1.52-.97-2.42-2.66-2.38-4.46l.02-.76c.04-1.8,1.03-3.45,2.6-4.34l3.59-2.04c.72-.41,1.08-1.27.84-2.07-.43-1.45-.98-2.86-1.62-4.21-.36-.75-1.2-1.15-2.01-.97l-4.03.9c-1.76.39-3.59-.17-4.83-1.47l-.52-.55c-1.24-1.3-1.71-3.17-1.23-4.9l1.1-3.98c.22-.8-.13-1.66-.87-2.05-1.32-.71-2.69-1.33-4.13-1.83-.79-.28-1.66.03-2.11.74l-2.22,3.49c-.97,1.52-2.66,2.42-4.46,2.38l-.76-.02c-1.8-.04-3.45-1.03-4.34-2.6l-2.04-3.59c-.41-.72-1.27-1.08-2.07-.84-1.45.43-2.86.98-4.21,1.62-.75.36-1.15,1.2-.97,2.01h0l.9,4.03c.39,1.76-.17,3.59-1.47,4.83l-.55.52c-1.31,1.24-3.17,1.71-4.9,1.23l-3.98-1.1c-.8-.22-1.66.13-2.05.87-.71,1.32-1.33,2.69-1.83,4.13-.28.79.03,1.66.74,2.11l3.49,2.22c1.52.97,2.42,2.66,2.38,4.46l-.02.76c-.04,1.8-1.03,3.45-2.6,4.34Z"/>
  <path class="cls-1" d="M19.4,68.99c-.56-7.33,5.52-13.38,12.85-12.78,5.76.47,10.42,5.15,10.86,10.91.56,7.33-5.52,13.38-12.85,12.78-5.76-.47-10.42-5.15-10.86-10.91Z"/>
  <path class="cls-2" d="M90.5,24.04s0-.03,0-.04c-.55-2.36-.1-4.85,1.33-6.81l1.06-1.45c.53-.72.47-1.72-.14-2.37l-3.26-3.49c-.61-.65-1.6-.78-2.36-.31l-1.52.96c-2.06,1.3-4.57,1.57-6.9.85-.03,0-.06-.02-.09-.03-2.32-.7-4.24-2.34-5.22-4.55l-.73-1.64c-.36-.82-1.25-1.26-2.13-1.06l-4.65,1.08c-.87.2-1.48.99-1.44,1.89l.07,1.79c.09,2.42-.91,4.74-2.69,6.38-.02.02-.04.04-.06.06-1.78,1.66-4.16,2.52-6.58,2.26l-1.78-.19c-.89-.1-1.72.45-1.98,1.31l-1.4,4.57c-.26.86.12,1.78.91,2.19l1.59.84c2.15,1.13,3.64,3.17,4.18,5.53,0,.02,0,.04.01.05,0,.01,0,.02,0,.04.55,2.37.1,4.85-1.33,6.81l-1.06,1.45c-.53.72-.47,1.72.14,2.37l3.26,3.49c.61.65,1.6.78,2.36.31l1.52-.96c2.06-1.3,4.57-1.57,6.9-.85.03,0,.06.02.09.03,2.32.7,4.24,2.34,5.22,4.56l.72,1.64c.36.82,1.25,1.27,2.12,1.06l4.65-1.07c.87-.2,1.48-.99,1.44-1.89l-.07-1.79c-.09-2.42.92-4.73,2.69-6.38.02-.02.05-.04.07-.07,1.77-1.66,4.16-2.52,6.57-2.26l1.78.19c.89.1,1.72-.45,1.98-1.31l1.4-4.57c.26-.86-.12-1.78-.91-2.19l-1.59-.84c-2.15-1.13-3.64-3.17-4.18-5.54,0-.02,0-.03-.01-.05Z"/>
  <path class="cls-2" d="M82,26.11c1.02,4.63-1.91,9.21-6.54,10.22-4.63,1.02-9.21-1.91-10.22-6.54-1.02-4.63,1.91-9.21,6.54-10.22,4.63-1.02,9.21,1.91,10.22,6.54Z"/>
</svg>