<?xml version="1.0" encoding="UTF-8"?>
<svg id="Layer_1" data-name="Layer 1" xmlns="http://www.w3.org/2000/svg" viewBox="0 0 200 200">
  <defs>
    <style>
      .cls-1 {
        stroke: #19bbb7;
      }

      .cls-1, .cls-2 {
        fill: none;
        stroke-linecap: round;
        stroke-linejoin: round;
        stroke-width: 6px;
      }

      .cls-2 {
        stroke: #195a64;
      }
    </style>
  </defs>
  <path class="cls-2" d="M83.74,146.71c1.86,1.86,4.45,2.8,7.06,2.55,8.98-.87,31.05-6.36,61.34-36.66,40.08-40.09,37.1-81.66,34.43-99.18-17.52-2.67-59.09-5.63-99.17,34.46-30.29,30.3-35.77,52.37-36.64,61.35-.25,2.62.69,5.2,2.55,7.06l30.43,30.42Z"/>
  <circle class="cls-1" cx="125.35" cy="74.65" r="18.97" transform="translate(-3.9 142.34) rotate(-58.42)"/>
  <path class="cls-2" d="M58.67,63.87c-12.37,1.98-30.3,7.86-45.49,24.63-2.36,2.6-.85,6.78,2.63,7.26,13.04,1.78,26.02,4.55,35.53,9.51"/>
  <path class="cls-2" d="M136.14,141.35c-1.98,12.37-7.86,30.3-24.62,45.48-2.6,2.36-6.78.85-7.26-2.63-1.78-13.04-4.56-26.02-9.51-35.53"/>
  <line class="cls-1" x1="43.54" y1="156.49" x2="27.99" y2="172.05"/>
  <line class="cls-1" x1="58.05" y1="170.99" x2="49.07" y2="179.97"/>
  <line class="cls-1" x1="29.03" y1="141.98" x2="20.06" y2="150.96"/>
  <line class="cls-2" x1="181.91" y1="66.67" x2="142.35" y2="27.11"/>
  <polyline class="cls-2" points="78.78 155.97 72.08 168.18 31.84 127.96 44.05 121.25"/>
</svg>