<?xml version="1.0" encoding="UTF-8"?>
<svg id="Layer_1" data-name="Layer 1" xmlns="http://www.w3.org/2000/svg" viewBox="0 0 100 100">
  <defs>
    <style>
      .cls-1 {
        fill: none;
        stroke: #2e5a63;
        stroke-linecap: round;
        stroke-linejoin: round;
        stroke-width: 3px;
      }

      .cls-2 {
        fill: #fff;
      }
    </style>
  </defs>
  <g>
    <path class="cls-1" d="M29.69,72.26c-2.09,1.86-4.85,2.98-7.87,2.98s-5.77-1.12-7.87-2.98c-2.65,1.53-4.61,4.05-4.61,7.97v4.75c0,.88.71,1.58,1.58,1.58h21.82c.87,0,1.58-.7,1.58-1.58v-4.75c0-3.93-1.96-6.45-4.62-7.97Z"/>
    <path class="cls-1" d="M21.83,71.52c4.52,0,8.18-3.66,8.18-8.18s-3.66-8.18-8.18-8.18-8.18,3.66-8.18,8.18,3.66,8.18,8.18,8.18Z"/>
    <path class="cls-1" d="M86.05,72.26c-2.1,1.86-4.86,2.98-7.87,2.98s-5.77-1.12-7.87-2.98c-2.66,1.52-4.62,4.04-4.62,7.97v4.75c0,.88.71,1.58,1.58,1.58h21.82c.87,0,1.58-.7,1.58-1.58v-4.75c0-3.92-1.96-6.44-4.61-7.97Z"/>
    <path class="cls-1" d="M69.99,63.34c0,4.52,3.66,8.18,8.18,8.18s8.18-3.66,8.18-8.18-3.66-8.18-8.18-8.18-8.18,3.66-8.18,8.18Z"/>
    <path class="cls-1" d="M39.09,38.49h21.82c.87,0,1.58-.7,1.58-1.58v-4.75c0-3.92-1.96-6.44-4.61-7.97-2.1,1.86-4.85,3-7.88,3s-5.77-1.13-7.88-2.98c-2.65,1.52-4.6,4.04-4.6,7.96v4.75c0,.88.71,1.58,1.58,1.58Z"/>
    <path class="cls-1" d="M50,23.45c4.52,0,8.18-3.66,8.18-8.18s-3.66-8.18-8.18-8.18-8.18,3.66-8.18,8.18,3.66,8.18,8.18,8.18Z"/>
  </g>
  <path class="cls-2" d="M46.67,76.36c.1.69.69,1.2,1.39,1.2h3.88c.7,0,1.29-.51,1.39-1.2l.52-3.57c.75-.31.95-.39,1.7-.71l2.89,2.16c.56.42,1.34.36,1.83-.13l2.74-2.74c.49-.49.55-1.27.13-1.83l-2.16-2.9c.31-.75.39-.95.7-1.7l3.58-.52c.69-.1,1.2-.69,1.2-1.39v-3.88c0-.7-.51-1.29-1.2-1.39l-3.57-.52c-.31-.75-.39-.95-.71-1.71l2.16-2.89c.42-.56.36-1.34-.13-1.83l-2.74-2.74c-.49-.49-1.27-.55-1.83-.13l-2.89,2.16c-.75-.31-.95-.39-1.71-.71l-.52-3.57c-.1-.69-.69-1.2-1.39-1.2h-3.88c-.7,0-1.29.51-1.39,1.2l-.52,3.57c-.75.31-.95.39-1.71.71l-2.89-2.16c-.56-.42-1.34-.36-1.83.13l-2.74,2.74c-.49.49-.55,1.27-.13,1.83l2.16,2.89c-.31.75-.39.95-.71,1.71l-3.57.52c-.69.1-1.2.69-1.2,1.39v3.88c0,.7.51,1.29,1.2,1.39l3.57.52c.31.75.39.95.71,1.71l-2.16,2.89c-.42.56-.36,1.34.13,1.83l2.74,2.74c.49.49,1.28.55,1.83.13l2.89-2.16c.75.31.95.4,1.71.71l.52,3.57ZM43.82,63.89c-2.38-5.84,3.14-11.37,8.98-8.98,1.51.62,2.75,1.86,3.37,3.37,2.38,5.84-3.14,11.37-8.98,8.98-1.51-.62-2.75-1.86-3.37-3.37Z"/>
  <path class="cls-2" d="M24.27,51.31c1.9-5.25,5.38-9.72,9.85-12.93-.22-.56-.34-1.18-.34-1.83v-3.26c-6.73,3.98-11.87,10.37-14.21,17.98.73-.14,1.48-.21,2.25-.21.85,0,1.67.09,2.45.25Z"/>
  <path class="cls-2" d="M75.73,51.31c.8-.16,1.62-.25,2.45-.25.77,0,1.52.07,2.25.21-2.35-7.61-7.48-14-14.21-17.99v3.27c0,.65-.11,1.27-.34,1.83,4.46,3.21,7.93,7.68,9.85,12.93Z"/>
  <path class="cls-2" d="M62,85.3c-3.63,1.79-7.7,2.77-12.01,2.77s-8.38-.98-12-2.79c-.2,1.6-1.11,2.97-2.41,3.8,4.33,2.21,9.22,3.46,14.41,3.46s10.09-1.24,14.43-3.46c-1.31-.81-2.23-2.19-2.42-3.79Z"/>
</svg>