<?xml version="1.0" encoding="UTF-8"?>
<svg id="Layer_1" data-name="Layer 1" xmlns="http://www.w3.org/2000/svg" viewBox="0 0 100 100">
  <defs>
    <style>
      .cls-1 {
        fill: none;
        stroke: #2e5a63;
        stroke-linecap: round;
        stroke-linejoin: round;
        stroke-width: 3px;
      }

      .cls-2 {
        fill: #fff;
      }
    </style>
  </defs>
  <path class="cls-1" d="M25.29,33.63c6.26,0,11.33-5.07,11.33-11.33s-5.07-11.33-11.33-11.33-11.33,5.07-11.33,11.33,5.08,11.33,11.33,11.33Z"/>
  <path class="cls-1" d="M44.06,54.45v-5.27c0-6.58-4.88-11.98-11.21-12.89-2.25,1.22-4.82,1.91-7.56,1.91s-5.31-.69-7.56-1.91c-6.33.91-11.21,6.3-11.21,12.89v5.27c0,.66.53,1.19,1.19,1.19h35.17c.66,0,1.19-.53,1.19-1.19Z"/>
  <path class="cls-1" d="M63.37,55.69c0,6.26,5.08,11.33,11.33,11.33s11.33-5.07,11.33-11.33-5.07-11.34-11.33-11.34-11.33,5.08-11.33,11.34Z"/>
  <path class="cls-1" d="M82.26,69.69c-2.25,1.22-4.82,1.91-7.56,1.91s-5.31-.69-7.56-1.91c-6.33.91-11.21,6.3-11.21,12.89v5.27c0,.66.53,1.19,1.19,1.19h35.17c.66,0,1.19-.53,1.19-1.19v-5.27c0-6.58-4.88-11.98-11.21-12.89Z"/>
  <path class="cls-2" d="M56.69,27.34l-3.89-3.89h19.36v12.65c0,1.41,1.14,2.54,2.54,2.54s2.54-1.14,2.54-2.54v-15.19c0-1.41-1.14-2.54-2.54-2.54h-21.91l3.89-3.89c.99-.99.99-2.6,0-3.59-.99-.99-2.6-.99-3.59,0l-8.23,8.23c-.48.48-.74,1.12-.74,1.8s.27,1.32.74,1.8l8.23,8.23c.5.5,1.15.74,1.8.74s1.3-.25,1.8-.74c.99-.99.99-2.6,0-3.59Z"/>
  <path class="cls-2" d="M39.62,69.07c-.99-.99-2.6-.99-3.59,0-.99.99-.99,2.6,0,3.59l3.89,3.89h-19.36v-12.65c0-1.41-1.14-2.54-2.54-2.54s-2.54,1.14-2.54,2.54v15.2c0,1.41,1.14,2.54,2.54,2.54h21.9l-3.89,3.89c-.99.99-.99,2.6,0,3.59.5.5,1.15.74,1.8.74s1.3-.25,1.8-.74l8.23-8.23c.48-.48.74-1.12.74-1.8s-.27-1.32-.74-1.8l-8.23-8.23Z"/>
</svg>