<?xml version="1.0" encoding="UTF-8"?>
<svg id="Layer_1" data-name="Layer 1" xmlns="http://www.w3.org/2000/svg" viewBox="0 0 100 100">
  <defs>
    <style>
      .cls-1 {
        fill: none;
        stroke: #2e5a63;
        stroke-linecap: round;
        stroke-linejoin: round;
        stroke-width: 3px;
      }

      .cls-2 {
        fill: #fff;
      }
    </style>
  </defs>
  <g>
    <path class="cls-1" d="M52.59,56.34c.18,1.55-1.02,2.9-2.61,2.9h-7.7l-4.03-5.55c-1.17-1.59-3-2.54-4.98-2.54s-3.78.95-4.95,2.54l-4.03,5.55h-7.31c-1.55,0-2.79-1.34-2.61-2.9l.88-8.83c.64-5.19,4.17-9.4,8.83-11.09l.14-.07c2.58,1.94,5.79,3.07,9.25,3.07s6.68-1.13,9.26-3.04l.14.03c4.7,1.7,8.23,5.9,8.87,11.13l.85,8.8Z"/>
    <path class="cls-1" d="M22.07,23.79c0,6.31,5.11,11.42,11.41,11.42s11.42-5.11,11.42-11.42-5.11-11.41-11.42-11.41-11.41,5.11-11.41,11.41Z"/>
  </g>
  <g>
    <path class="cls-1" d="M79.11,70.57l-.13-.03c-2.58,1.91-5.78,3.04-9.25,3.04s-6.67-1.13-9.25-3.05l-.15.05c-4.68,1.7-8.22,5.91-8.83,11.11l-.9,8.83c-.15,1.55,1.07,2.89,2.61,2.89h33.02c1.57,0,2.78-1.34,2.62-2.89l-.87-8.8c-.61-5.23-4.15-9.45-8.86-11.14Z"/>
    <path class="cls-1" d="M58.31,57.96c0,6.31,5.11,11.42,11.41,11.42s11.42-5.11,11.42-11.42-5.11-11.41-11.42-11.41-11.41,5.11-11.41,11.41Z"/>
  </g>
  <path class="cls-1" d="M42.34,71.64h-3.73c.26,5.86,2.38,11.23,5.83,15.5.46.56-.02,1.41-.73,1.32-8.55-1.05-15.22-8.11-15.74-16.81h-3.75c-1.54,0-2.42-1.74-1.52-2.98l9.06-12.49c.75-1.03,2.29-1.03,3.04,0l9.06,12.49c.9,1.24.02,2.98-1.52,2.98Z"/>
  <path class="cls-2" d="M69.72,6.6c-9.49,0-17.19,7.7-17.19,17.19s7.7,17.19,17.19,17.19,17.19-7.7,17.19-17.19-7.7-17.19-17.19-17.19ZM77.86,21.35l-9.02,9.02c-.42.42-.96.63-1.51.63s-1.09-.21-1.51-.63l-4.48-4.48c-.84-.84-.84-2.19,0-3.03.84-.84,2.19-.83,3.02,0l2.97,2.97,7.51-7.51c.84-.84,2.19-.84,3.02,0,.84.83.84,2.19,0,3.02Z"/>
</svg>