<?xml version="1.0" encoding="UTF-8"?>
<svg id="Layer_1" data-name="Layer 1" xmlns="http://www.w3.org/2000/svg" viewBox="0 0 200 200">
  <defs>
    <style>
      .cls-1 {
        stroke: #19bbb7;
      }

      .cls-1, .cls-2 {
        fill: none;
        stroke-linecap: round;
        stroke-linejoin: round;
        stroke-width: 6px;
      }

      .cls-2 {
        stroke: #195a64;
      }
    </style>
  </defs>
  <path class="cls-2" d="M165.2,141.04c-11.23,18.88-30.99,34.55-57.15,45.33-2.59,1.07-5.32,1.6-8.05,1.6s-5.45-.53-8.05-1.6c-24.99-10.29-43.55-24.48-55.18-42.17-10.92-16.62-11.77-30.38-11.77-34.2v-59.74c0-5.82,4.55-10.73,10.36-11.2,22.32-1.77,44.25-10.95,57.23-23.95,1.98-1.98,4.61-3.08,7.41-3.08s5.43,1.09,7.41,3.08c12.98,13,34.91,22.17,57.23,23.95,5.81.46,10.36,5.38,10.36,11.2v59.74c0,3.42-.71,15.76-9.8,31.05"/>
  <path class="cls-2" d="M155.87,70.6v-11.23c0-1.16-.86-2.14-2.01-2.32-19.99-3.08-38.61-10.85-52.55-21.8-.77-.61-1.84-.6-2.61,0-8.43,6.62-18.57,12.08-29.69,16.04-7.27,2.59-14.96,4.54-22.86,5.76-1.15.18-2,1.15-2,2.32v35.5"/>
  <path class="cls-2" d="M44.13,94.87v15.12c0,4.2,2.01,14.2,9.56,25.08,9.17,13.22,23.55,24.11,42.81,32.45,2.23.96,4.77.96,7,0,19.26-8.34,33.63-19.23,42.81-32.45,7.55-10.88,9.56-20.88,9.56-25.08v-19.21"/>
  <polyline class="cls-1" points="92.45 134.61 64.68 106.85 76.76 94.77 92.38 110.39 124.43 78.34 136.57 90.49 100.63 126.43"/>
</svg>