<?xml version="1.0" encoding="UTF-8"?>
<svg id="Layer_1" data-name="Layer 1" xmlns="http://www.w3.org/2000/svg" viewBox="0 0 100 100">
  <defs>
    <style>
      .cls-1 {
        fill: #2e5a63;
      }

      .cls-2 {
        fill: #fff;
      }
    </style>
  </defs>
  <path class="cls-1" d="M73.28,42.18v-9.85c0-12.67-10.31-22.98-22.98-22.98s-22.98,10.31-22.98,22.98v9.85c-3.63,0-6.57,2.94-6.57,6.57v36.12c0,3.63,2.94,6.57,6.57,6.57h45.97c3.63,0,6.57-2.94,6.57-6.57v-36.12c0-3.63-2.94-6.57-6.57-6.57ZM30.6,32.33c0-10.87,8.83-19.7,19.7-19.7s19.7,8.83,19.7,19.7v3.28h-3.28v-3.28c0-9.05-7.37-16.42-16.42-16.42s-16.42,7.37-16.42,16.42v3.28h-3.28v-3.28ZM70,38.9v3.28h-3.28v-3.28h3.28ZM63.43,32.33v9.85h-26.27v-9.85c0-7.24,5.89-13.13,13.13-13.13s13.13,5.89,13.13,13.13ZM30.6,38.9h3.28v3.28h-3.28v-3.28ZM76.57,84.87c0,1.81-1.48,3.28-3.28,3.28H27.32c-1.81,0-3.28-1.48-3.28-3.28v-36.12c0-1.81,1.48-3.28,3.28-3.28h45.97c1.81,0,3.28,1.48,3.28,3.28v36.12Z"/>
  <path class="cls-1" d="M71.64,48.75H28.96c-.9,0-1.64.74-1.64,1.64v32.83c0,.9.74,1.64,1.64,1.64h42.68c.9,0,1.64-.74,1.64-1.64v-32.83c0-.9-.74-1.64-1.64-1.64ZM70,81.58H30.6v-29.55h39.4v29.55Z"/>
  <path class="cls-2" d="M58.51,63.53c0-4.53-3.68-8.21-8.21-8.21s-8.21,3.68-8.21,8.21c0,2.38,1.02,4.61,2.77,6.16l-1.12,6.71c-.07.48.07.95.38,1.33.31.36.77.57,1.25.57h9.85c.48,0,.94-.21,1.25-.57.31-.38.44-.85.38-1.33l-1.12-6.71c1.76-1.54,2.77-3.78,2.77-6.16ZM53.03,67.61c-.53.36-.8,1-.71,1.64l.97,5.76h-5.98l.97-5.76c.1-.64-.18-1.28-.71-1.64-1.38-.92-2.2-2.45-2.2-4.09,0-2.71,2.22-4.93,4.93-4.93s4.93,2.22,4.93,4.93c0,1.64-.82,3.17-2.2,4.09Z"/>
  <circle class="cls-2" cx="35.53" cy="56.96" r="1.64"/>
  <circle class="cls-2" cx="65.08" cy="56.96" r="1.64"/>
  <circle class="cls-2" cx="35.53" cy="76.66" r="1.64"/>
  <circle class="cls-2" cx="65.08" cy="76.66" r="1.64"/>
</svg>