<?xml version="1.0" encoding="UTF-8"?>
<svg id="Layer_1" data-name="Layer 1" xmlns="http://www.w3.org/2000/svg" viewBox="0 0 200 200">
  <defs>
    <style>
      .cls-1 {
        stroke: #19bbb7;
      }

      .cls-1, .cls-2 {
        fill: none;
        stroke-linecap: round;
        stroke-linejoin: round;
        stroke-width: 6px;
      }

      .cls-2 {
        stroke: #195a64;
      }
    </style>
  </defs>
  <line class="cls-1" x1="152.98" y1="47.02" x2="166.02" y2="33.98"/>
  <line class="cls-1" x1="93.78" y1="106.22" x2="142.47" y2="57.53"/>
  <path class="cls-1" d="M142.47,57.53l-2.65-16.77,20.51-27.92c1.07-1.46,3.38-.84,3.57.97l2.12,20.17"/>
  <path class="cls-1" d="M142.47,57.53l16.77,2.65,27.92-20.51c1.46-1.07.84-3.38-.97-3.57l-20.17-2.12"/>
  <path class="cls-1" d="M110.75,104.79c.04.47.06.95.06,1.44,0,9.41-7.63,17.04-17.04,17.04s-17.04-7.63-17.04-17.04,7.63-17.04,17.04-17.04c.45,0,.89.02,1.33.05"/>
  <path class="cls-2" d="M127.96,87.7c2.99,5.51,4.69,11.81,4.69,18.52,0,21.47-17.4,38.87-38.87,38.87s-38.87-17.4-38.87-38.87,17.4-38.87,38.87-38.87c6.71,0,13.01,1.7,18.52,4.69"/>
  <path class="cls-2" d="M144.15,71.51c6.81,9.86,10.8,21.82,10.8,34.71,0,33.78-27.39,61.17-61.17,61.17s-61.17-27.39-61.17-61.17,27.39-61.17,61.17-61.17c12.89,0,24.85,3.99,34.71,10.8"/>
  <path class="cls-2" d="M166.07,68.03c6.04,11.4,9.45,24.4,9.45,38.2,0,45.15-36.6,81.75-81.75,81.75S12.03,151.37,12.03,106.22,48.63,24.48,93.78,24.48c12.93,0,25.15,3,36.02,8.34.84.41,1.68.84,2.51,1.29"/>
</svg>