<?xml version="1.0" encoding="UTF-8"?>
<svg id="Layer_1" data-name="Layer 1" xmlns="http://www.w3.org/2000/svg" viewBox="0 0 100 100">
  <defs>
    <style>
      .cls-1 {
        stroke: #2e5a63;
      }

      .cls-1, .cls-2 {
        fill: none;
        stroke-linecap: round;
        stroke-linejoin: round;
        stroke-width: 3px;
      }

      .cls-3 {
        fill: #fff;
      }

      .cls-2 {
        stroke: #fff;
      }
    </style>
  </defs>
  <path class="cls-1" d="M81,14.34v26.85c0,1.64-1.34,2.98-2.98,2.98h-37.29v-7.46c0-2.21-1.19-4.13-2.98-5.16V14.34c0-1.64,1.34-2.98,2.98-2.98h37.29c1.64,0,2.98,1.34,2.98,2.98Z"/>
  <path class="cls-1" d="M40.72,36.72v11.93c0,3.3-2.67,5.97-5.97,5.97h-17.9c-3.3,0-5.97-2.67-5.97-5.97v-11.93c0-3.3,2.67-5.97,5.97-5.97h17.9c1.09,0,2.1.3,2.98.81,1.79,1.03,2.98,2.95,2.98,5.16Z"/>
  <path class="cls-3" d="M45.19,15.83c0,.82-.67,1.49-1.49,1.49s-1.49-.67-1.49-1.49.67-1.49,1.49-1.49,1.49.67,1.49,1.49Z"/>
  <circle class="cls-3" cx="49.67" cy="15.83" r="1.49"/>
  <path class="cls-3" d="M57.13,15.83c0,.82-.67,1.49-1.49,1.49s-1.49-.67-1.49-1.49.67-1.49,1.49-1.49,1.49.67,1.49,1.49Z"/>
  <rect class="cls-2" x="45.19" y="26.27" width="11.93" height="11.93"/>
  <line class="cls-2" x1="63.1" y1="26.27" x2="73.54" y2="26.27"/>
  <line class="cls-2" x1="63.1" y1="32.24" x2="73.54" y2="32.24"/>
  <line class="cls-2" x1="63.1" y1="38.21" x2="69.06" y2="38.21"/>
  <polygon class="cls-2" points="21.33 48.65 21.33 36.72 33.26 42.81 21.33 48.65"/>
  <path class="cls-1" d="M36.77,60.58h9.92v14.92h-9.92c-2.76,0-5-2.24-5-5v-4.92c0-2.76,2.24-5,5-5Z"/>
  <path class="cls-2" d="M65.68,50.14c-.1,0-.21.01-.31.03-.55.09-1.03.42-1.31.92-1.67,2.92-4.09,5.31-6.91,6.94-2.82,1.64-6.07,2.55-9.46,2.55h-1v14.92h1c3.39,0,6.64.91,9.46,2.55,2.82,1.63,5.24,4.01,6.91,6.94.28.51.76.84,1.31.92.1.01.21.03.31.03,1.04,0,1.89-.85,1.89-1.89v-32.01c0-1.04-.85-1.89-1.89-1.89Z"/>
  <path class="cls-2" d="M67.57,63.57h2.97c1.66,0,3,1.34,3,3v2.95c0,1.66-1.34,3-3,3h-2.97v-8.95h0Z"/>
  <line class="cls-1" x1="81" y1="68.04" x2="85.47" y2="68.04"/>
  <line class="cls-1" x1="77.5" y1="76.48" x2="80.66" y2="79.64"/>
  <line class="cls-1" x1="77.5" y1="59.6" x2="80.66" y2="56.44"/>
  <path class="cls-1" d="M46.97,88.92h0c-1.08,0-2.05-.63-2.49-1.62l-5.25-11.81h5.97l4.26,9.59c.8,1.8-.52,3.83-2.49,3.83Z"/>
  <line class="cls-1" x1="37.74" y1="20.31" x2="81" y2="20.31"/>
</svg>