<?xml version="1.0" encoding="UTF-8"?>
<svg id="Layer_1" data-name="Layer 1" xmlns="http://www.w3.org/2000/svg" viewBox="0 0 200 200">
  <defs>
    <style>
      .cls-1 {
        stroke: #19bbb7;
      }

      .cls-1, .cls-2 {
        fill: none;
        stroke-linecap: round;
        stroke-linejoin: round;
        stroke-width: 6px;
      }

      .cls-2 {
        stroke: #195a64;
      }
    </style>
  </defs>
  <g>
    <path class="cls-1" d="M40.38,151.82l-18.35,18.35c-3.86,3.86-10.12,3.86-13.99,0h0c-3.86-3.86-3.86-10.12,0-13.99l18.35-18.35"/>
    <path class="cls-1" d="M26.94,137.2c-10.46-17.64-5.79-40.65,11.24-52.72,17.93-12.71,42.77-8.48,55.48,9.44,10.23,14.43,9.49,33.34-.54,46.8-2.43,3.26-5.41,6.2-8.91,8.68-15.13,10.73-35.18,9.39-48.71-2.06"/>
    <path class="cls-1" d="M80.8,110.6c.65,2,1,4.13,1,6.34,0,3.76-1.01,7.29-2.78,10.32-3.56,6.11-10.18,10.21-17.76,10.21-11.34,0-20.53-9.19-20.53-20.53s9.19-20.53,20.53-20.53"/>
  </g>
  <g>
    <path class="cls-2" d="M23.51,81.09V18.77c0-3.72,3.02-6.74,6.74-6.74h157.87c3.72,0,6.74,3.02,6.74,6.74v128.46c0,3.72-3.02,6.74-6.74,6.74h-89.58"/>
    <line class="cls-2" x1="112.49" y1="129.63" x2="194.85" y2="129.63"/>
    <line class="cls-2" x1="94.28" y1="180.38" x2="94.28" y2="164.19"/>
    <line class="cls-2" x1="124.08" y1="180.38" x2="124.08" y2="164.19"/>
  </g>
  <line class="cls-1" x1="120.98" y1="109.13" x2="120.98" y2="83.75"/>
  <line class="cls-1" x1="142.9" y1="109.13" x2="142.9" y2="75.06"/>
  <line class="cls-1" x1="164.83" y1="109.13" x2="164.83" y2="66.36"/>
  <g>
    <line class="cls-1" x1="110.05" y1="74.39" x2="172.59" y2="37.65"/>
    <polyline class="cls-1" points="157.65 31.69 172.59 37.65 171.39 52.79"/>
  </g>
  <path class="cls-2" d="M145.76,187.97h0c0-4.03-3.27-7.3-7.3-7.3h-58.56c-4.03,0-7.3,3.27-7.3,7.3h0"/>
</svg>