<?xml version="1.0" encoding="UTF-8"?>
<svg id="Layer_1" data-name="Layer 1" xmlns="http://www.w3.org/2000/svg" viewBox="0 0 100 100">
  <defs>
    <style>
      .cls-1 {
        stroke: #1a1a1a;
      }

      .cls-1, .cls-2 {
        fill: none;
        stroke-linecap: round;
        stroke-linejoin: round;
        stroke-width: 4.03px;
      }

      .cls-2 {
        stroke: #ee4137;
      }
    </style>
  </defs>
  <circle class="cls-1" cx="77.36" cy="14.19" r="7.42" transform="translate(28.82 76.07) rotate(-62.29)"/>
  <path class="cls-1" d="M74.69,29.57c.45-.01,2.15-.01,2.63-.01,4.61.01,8.25.57,10.78,1.3,3.93,1.14,6.49,4.54,6.32,8.23l-.4,13.92c-.07,1.71-.63,3.36-1.59,4.85"/>
  <path class="cls-1" d="M86.32,41.13l-.49,44.43c-.02,2-1.74,3.67-3.97,3.86h0c-2.57.21-4.79-1.6-4.78-3.91l.1-20.79-.1,20.8c0,2.3-2.24,4.1-4.81,3.88h0c-2.24-.2-3.94-1.87-3.95-3.88l-.05-18.25"/>
  <circle class="cls-1" cx="22.64" cy="14.19" r="7.42" transform="translate(-4 12.16) rotate(-27.71)"/>
  <path class="cls-1" d="M25.31,29.57c-.45-.01-2.15-.01-2.63-.01-4.61.01-8.25.57-10.78,1.3-3.93,1.14-6.49,4.54-6.32,8.23l.4,13.92c.07,1.71.63,3.36,1.59,4.85"/>
  <path class="cls-1" d="M13.68,41.13l.49,44.43c.02,2,1.74,3.67,3.97,3.86h0c2.57.21,4.79-1.6,4.78-3.91l-.1-20.79.1,20.8c0,2.3,2.24,4.1,4.81,3.88h0c2.24-.2,3.94-1.87,3.95-3.88l.05-18.25"/>
  <circle class="cls-2" cx="50.25" cy="11.64" r="8.87" transform="translate(6.48 38.94) rotate(-45)"/>
  <path class="cls-2" d="M40.15,62.18h0c-3.38.02-6.46-2.05-7.6-5.23-.36-1.01-.57-2.06-.61-3.13l-.54-15.43c-.14-4.08,2.71-7.82,7.07-9.07,2.81-.8,6.63-1.4,11.73-1.38,5.1.01,8.91.63,11.71,1.44,4.36,1.26,7.18,5.03,7.01,9.11l-.67,15.42c-.05,1.22-.33,2.42-.8,3.55-1.22,2.93-4.11,4.81-7.28,4.81h0"/>
  <path class="cls-2" d="M60.17,40.77l-.54,49.2c-.02,2.22-1.92,4.06-4.4,4.27h0c-2.85.24-5.31-1.77-5.3-4.33l.11-23.02-.11,23.03c-.01,2.55-2.48,4.54-5.32,4.29h0c-2.48-.22-4.37-2.08-4.37-4.3l-.14-49.21"/>
</svg>