<?xml version="1.0" encoding="UTF-8"?>
<svg id="Layer_1" data-name="Layer 1" xmlns="http://www.w3.org/2000/svg" viewBox="0 0 100 100">
  <defs>
    <style>
      .cls-1 {
        stroke: #2e5a63;
      }

      .cls-1, .cls-2 {
        fill: none;
        stroke-linecap: round;
        stroke-linejoin: round;
        stroke-width: 3px;
      }

      .cls-2 {
        stroke: #fff;
      }
    </style>
  </defs>
  <g>
    <path class="cls-1" d="M75.97,76.05c-2.3,2.3-3.09,6.66-5.93,8.3s-6.96.14-10.15.99c-3.09.82-5.94,4.21-9.29,4.21s-6.2-3.39-9.29-4.21-7.36.63-10.15-.99c-2.84-1.64-3.62-6-5.93-8.31s-6.66-3.09-8.3-5.93-.14-6.96-.99-10.15-4.21-5.94-4.21-9.29,3.39-6.2,4.21-9.29c.85-3.19-.63-7.36.99-10.15s6-3.62,8.31-5.93c2.3-2.3,3.09-6.66,5.93-8.3s6.96-.14,10.15-.99,5.94-4.21,9.29-4.21,6.2,3.39,9.29,4.21,7.36-.63,10.15.99"/>
    <path class="cls-1" d="M70.83,70.91c-1.84,1.84-2.46,5.31-4.73,6.62s-5.55.11-8.1.79c-2.46.66-4.74,3.36-7.41,3.36s-4.95-2.7-7.41-3.36-5.87.5-8.1-.79c-2.26-1.31-2.89-4.79-4.73-6.62s-5.31-2.46-6.62-4.73-.11-5.55-.79-8.1c-.66-2.46-3.36-4.74-3.36-7.41s2.7-4.95,3.36-7.41-.5-5.87.79-8.1c1.31-2.26,4.79-2.89,6.62-4.73s2.46-5.31,4.73-6.62,5.55-.11,8.1-.79c2.46-.66,4.74-3.36,7.41-3.36s4.95,2.7,7.41,3.36c2.55.68,5.87-.5,8.1.79"/>
  </g>
  <rect class="cls-2" x="40.68" y="36.51" width="12.98" height="30.08" rx="2.95" ry="2.95"/>
  <path class="cls-2" d="M53.63,39.21h8.43l8.94-11.42c.49-.62,1.37-.81,2.04-.39,2.15,1.31,5.73,4.87-.66,12.08h11.03c2.71,0,4.67,2.59,3.93,5.19l-3.68,12.96c-1.1,3.86-4.62,6.52-8.63,6.52h-21.44"/>
</svg>