<?xml version="1.0" encoding="UTF-8"?>
<svg id="Layer_1" data-name="Layer 1" xmlns="http://www.w3.org/2000/svg" viewBox="0 0 100 100">
  <defs>
    <style>
      .cls-1 {
        stroke: #1a1a1a;
      }

      .cls-1, .cls-2 {
        fill: none;
        stroke-linecap: round;
        stroke-linejoin: round;
        stroke-width: 4.03px;
      }

      .cls-2 {
        stroke: #ee4137;
      }
    </style>
  </defs>
  <path class="cls-1" d="M41.41,74.69c.98.98,2.35,1.48,3.73,1.35,4.74-.46,16.41-3.36,32.43-19.38,21.19-21.19,19.62-43.17,18.2-52.43-9.26-1.41-31.24-2.98-52.43,18.22-16.01,16.02-18.91,27.69-19.37,32.43-.13,1.38.36,2.75,1.35,3.73l16.09,16.08Z"/>
  <circle class="cls-2" cx="63.4" cy="36.6" r="10.03" transform="translate(-.98 71.44) rotate(-58.42)"/>
  <path class="cls-1" d="M28.15,30.9c-6.54,1.05-16.02,4.15-24.05,13.02-1.25,1.38-.45,3.58,1.39,3.84,6.89.94,13.76,2.41,18.78,5.03"/>
  <path class="cls-1" d="M69.11,71.86c-1.05,6.54-4.15,16.02-13.02,24.04-1.38,1.25-3.58.45-3.84-1.39-.94-6.89-2.41-13.76-5.03-18.78"/>
  <line class="cls-1" x1="20.15" y1="79.86" x2="11.93" y2="88.09"/>
  <line class="cls-1" x1="27.82" y1="87.53" x2="23.08" y2="92.28"/>
  <line class="cls-1" x1="12.48" y1="72.19" x2="7.74" y2="76.94"/>
  <line class="cls-1" x1="93.3" y1="32.38" x2="72.39" y2="11.47"/>
  <polyline class="cls-2" points="38.78 79.59 35.24 86.04 13.97 64.78 20.42 61.24"/>
</svg>