<?xml version="1.0" encoding="UTF-8"?>
<svg id="Layer_1" data-name="Layer 1" xmlns="http://www.w3.org/2000/svg" viewBox="0 0 100 100">
  <defs>
    <style>
      .cls-1 {
        fill: #2e5a63;
      }

      .cls-2 {
        fill: #fff;
      }
    </style>
  </defs>
  <path class="cls-1" d="M56.88,38.59c-10.26,0-18.61,8.35-18.61,18.61s8.35,18.61,18.61,18.61,18.61-8.35,18.61-18.61-8.35-18.61-18.61-18.61ZM56.88,73.25c-8.85,0-16.04-7.2-16.04-16.04s7.2-16.04,16.04-16.04,16.04,7.2,16.04,16.04-7.2,16.04-16.04,16.04Z"/>
  <path class="cls-2" d="M56.88,43.73c-7.43,0-13.48,6.05-13.48,13.48,0,.71.57,1.28,1.28,1.28s1.28-.57,1.28-1.28c0-6.02,4.89-10.91,10.91-10.91.71,0,1.28-.57,1.28-1.28s-.57-1.28-1.28-1.28Z"/>
  <path class="cls-1" d="M89.67,77.92l-11.1-11.1c1.31-2.94,2.05-6.19,2.05-9.61,0-6.28-2.47-11.99-6.47-16.24-.77-17.2-14.75-30.61-32.04-30.61S10.03,24.76,10.03,42.44s13.41,31.27,30.61,32.04c4.25,4,9.96,6.47,16.24,6.47,3.42,0,6.67-.74,9.61-2.05l11.1,11.1c1.61,1.61,3.76,2.5,6.04,2.5s4.43-.89,6.04-2.5c1.61-1.61,2.5-3.76,2.5-6.04s-.89-4.43-2.5-6.04ZM33.28,70.62c-1.54-2.46-2.85-5.46-3.88-8.85,1.33-.3,2.69-.54,4.07-.74.65,3.97,2.27,7.6,4.63,10.65-1.66-.22-3.27-.58-4.82-1.06ZM12.62,43.73h11.54c.09,5.71.82,11.25,2.06,16.19-2.19.6-4.27,1.33-6.22,2.17-4.36-4.91-7.08-11.3-7.38-18.36ZM20.08,22.83c1.95.84,4,1.55,6.15,2.14-1.25,4.94-1.97,10.48-2.06,16.19h-11.54c.3-7.02,3.07-13.41,7.45-18.33ZM40.83,12.95v11.49c-3.98-.08-7.82-.53-11.44-1.33,1.03-3.38,2.33-6.38,3.87-8.83,2.4-.76,4.94-1.21,7.56-1.32ZM50.94,14.25c1.55,2.46,2.87,5.45,3.91,8.86-3.62.8-7.46,1.25-11.45,1.34v-11.49c2.62.11,5.14.55,7.54,1.29ZM54.66,15.67c2.82,1.31,5.39,3.06,7.63,5.15-1.58.64-3.24,1.19-4.96,1.67-.75-2.49-1.65-4.76-2.67-6.82ZM39.42,41.16h-12.69c.09-5.52.79-10.84,1.98-15.57,3.83.86,7.91,1.34,12.12,1.42v12.74c-.49.45-.96.92-1.41,1.41ZM26.91,22.5c-1.7-.47-3.33-1.01-4.9-1.64,2.22-2.06,4.75-3.79,7.51-5.1-1,2.03-1.87,4.3-2.61,6.75ZM26.91,62.39c.74,2.47,1.63,4.75,2.64,6.8-2.82-1.31-5.38-3.05-7.62-5.13,1.58-.63,3.25-1.19,4.99-1.67ZM33.13,57.21c0,.43.04.85.06,1.28-1.52.22-3.02.49-4.48.82-1.2-4.73-1.89-10.05-1.98-15.57h10.62c-2.65,3.83-4.22,8.47-4.22,13.48ZM43.4,27.01c4.22-.08,8.29-.56,12.13-1.43.62,2.47,1.1,5.12,1.43,7.88-.03,0-.06,0-.08,0-5,0-9.64,1.56-13.48,4.22v-10.67ZM59.56,33.62c-.35-3.03-.86-5.94-1.55-8.66,2.16-.6,4.24-1.32,6.2-2.17,3.78,4.26,6.34,9.64,7.14,15.63-3.34-2.58-7.38-4.31-11.79-4.81ZM35.7,57.21c0-11.68,9.5-21.18,21.18-21.18s21.18,9.5,21.18,21.18-9.5,21.18-21.18,21.18-21.18-9.5-21.18-21.18ZM77.33,69.21l9.18,9.18-8.45,8.45-9.18-9.18c3.49-2.05,6.4-4.97,8.45-8.45ZM87.86,88.19c-1.13,1.13-2.63,1.75-4.23,1.75-1.37,0-2.66-.48-3.71-1.33l8.36-8.36c.85,1.06,1.33,2.34,1.33,3.71,0,1.6-.62,3.1-1.75,4.23Z"/>
</svg>