<?xml version="1.0" encoding="UTF-8"?>
<svg id="Layer_1" data-name="Layer 1" xmlns="http://www.w3.org/2000/svg" viewBox="0 0 100 100">
  <defs>
    <style>
      .cls-1 {
        stroke: #1a1a1a;
      }

      .cls-1, .cls-2 {
        fill: none;
        stroke-linecap: round;
        stroke-linejoin: round;
        stroke-width: 4.03px;
      }

      .cls-2 {
        stroke: #ee4137;
      }
    </style>
  </defs>
  <path class="cls-1" d="M83.25,70.93c-5.73,9.63-15.81,17.62-29.15,23.11-1.32.54-2.71.82-4.1.82s-2.78-.27-4.1-.82c-12.74-5.25-22.21-12.48-28.14-21.51-5.57-8.48-6-15.49-6-17.44v-30.46c0-2.97,2.32-5.47,5.28-5.71,11.38-.9,22.57-5.58,29.18-12.21,1.01-1.01,2.35-1.57,3.78-1.57s2.77.56,3.78,1.57c6.62,6.63,17.8,11.31,29.18,12.21,2.96.24,5.28,2.74,5.28,5.71v30.46c0,1.74-.36,8.04-5,15.83"/>
  <path class="cls-1" d="M78.49,35.01v-5.73c0-.59-.44-1.09-1.02-1.18-10.19-1.57-19.69-5.53-26.8-11.12-.39-.31-.94-.31-1.33,0-4.3,3.38-9.47,6.16-15.14,8.18-3.71,1.32-7.63,2.32-11.66,2.94-.59.09-1.02.59-1.02,1.18v18.11"/>
  <path class="cls-1" d="M21.51,47.38v7.71c0,2.14,1.03,7.24,4.88,12.79,4.68,6.74,12.01,12.3,21.83,16.55,1.14.49,2.43.49,3.57,0,9.82-4.25,17.15-9.81,21.83-16.55,3.85-5.55,4.88-10.65,4.88-12.79v-9.8"/>
  <polyline class="cls-2" points="46.15 67.65 31.99 53.49 38.15 47.33 46.11 55.3 62.46 38.95 68.65 45.15 50.32 63.48"/>
</svg>