<?xml version="1.0" encoding="UTF-8"?>
<svg id="Layer_1" data-name="Layer 1" xmlns="http://www.w3.org/2000/svg" viewBox="0 0 200 200">
  <defs>
    <style>
      .cls-1 {
        stroke: #19bbb7;
      }

      .cls-1, .cls-2 {
        fill: none;
        stroke-linecap: round;
        stroke-linejoin: round;
        stroke-width: 6px;
      }

      .cls-2 {
        stroke: #195a64;
      }
    </style>
  </defs>
  <path class="cls-2" d="M39.67,127.98v30.36c0,2.35,2.84,3.55,4.54,1.92l28.64-26.83h54.16c7.27,0,13.16-5.87,13.16-13.11V25.14c0-7.24-5.89-13.11-13.16-13.11H22.88c-7.27,0-13.16,5.87-13.16,13.11v92.05c0,7.24,5.89,13.11,13.16,13.11h1.36"/>
  <line class="cls-1" x1="55.01" y1="35.88" x2="113.87" y2="35.88"/>
  <line class="cls-1" x1="91.28" y1="59.46" x2="113.87" y2="59.46"/>
  <line class="cls-1" x1="35.86" y1="59.46" x2="74.76" y2="59.46"/>
  <line class="cls-1" x1="35.86" y1="84.56" x2="113.87" y2="84.56"/>
  <line class="cls-1" x1="35.86" y1="108.14" x2="96.14" y2="108.14"/>
  <path class="cls-2" d="M141.68,41.19h35.44c7.27,0,13.16,5.87,13.16,13.11v95.91c0,7.24-5.89,12.35-13.16,12.35h-11.61l-.18,25.41-24.61-24.58h-43.09c-11.55,0-17.79-6.64-17.79-16.08"/>
</svg>