<?xml version="1.0" encoding="UTF-8"?>
<svg id="Layer_1" data-name="Layer 1" xmlns="http://www.w3.org/2000/svg" viewBox="0 0 100 100">
  <defs>
    <style>
      .cls-1 {
        fill: #2e5a63;
      }

      .cls-2 {
        fill: #fff;
      }
    </style>
  </defs>
  <path class="cls-1" d="M86.99,12.81c0-.65-.53-1.18-1.18-1.18-11.49,0-22.48,3.35-31.83,9.46h-17.81c-.31,0-.61.12-.84.35l-17.73,17.73c-.34.34-.44.85-.26,1.29s.61.73,1.09.73h15.61l-7.08,8.71c-.38.47-.35,1.15.08,1.58l1.53,1.53-6.26,6.26c-.46.46-.46,1.21,0,1.67l15.36,15.36c.46.46,1.21.46,1.67,0l6.26-6.26,1.53,1.53c.43.43,1.11.46,1.58.08l8.71-7.08v15.61c0,.48.29.91.73,1.09.15.06.3.09.45.09.31,0,.61-.12.84-.35l17.73-17.73c.22-.22.35-.52.35-.84v-17.81c6.11-9.35,9.46-20.34,9.46-31.83ZM55.24,63.3l-19.93-19.93,7.09-8.72c6.61-8.14,15.21-14.12,24.81-17.49l14.24,14.24c-3.38,9.61-9.35,18.2-17.49,24.81l-8.72,7.09ZM82.28,28.89l-12.55-12.55c4.78-1.43,9.77-2.22,14.88-2.33-.11,5.11-.9,10.11-2.33,14.88ZM21.29,38.81l15.36-15.36h13.97c-3.68,2.8-7.07,6.04-10.06,9.71l-4.59,5.65h-14.68ZM38.53,73.78l-13.69-13.69,5.42-5.42,13.69,13.69-5.42,5.42ZM48.07,69.13c-6.19-6.19-12.36-12.36-18.58-18.58l4.33-5.33,19.58,19.58-5.33,4.33ZM75.17,61.96l-15.36,15.36v-14.68l5.65-4.59c3.68-2.99,6.92-6.38,9.71-10.06v13.97Z"/>
  <path class="cls-1" d="M30.63,73.15c-.62-.21-1.29.13-1.5.75-2,6.01-7.38,10.24-13.7,10.77l-1.62.13.14-1.62c.53-6.32,4.75-11.69,10.76-13.7.62-.21.95-.87.75-1.49-.21-.62-.87-.96-1.5-.75-6.91,2.3-11.77,8.48-12.37,15.74l-.25,3.01c-.03.35.1.69.34.93.22.22.52.35.84.35.03,0,.07,0,.1,0l3.01-.25c7.26-.6,13.44-5.46,15.74-12.37.21-.62-.13-1.29-.75-1.49Z"/>
  <path class="cls-2" d="M68.08,37.63c0-3.91-3.18-7.09-7.09-7.09s-7.09,3.18-7.09,7.09,3.18,7.09,7.09,7.09,7.09-3.18,7.09-7.09ZM60.98,42.36c-2.61,0-4.73-2.12-4.73-4.73s2.12-4.73,4.73-4.73,4.73,2.12,4.73,4.73-2.12,4.73-4.73,4.73Z"/>
</svg>