<?xml version="1.0" encoding="UTF-8"?>
<svg id="Layer_1" data-name="Layer 1" xmlns="http://www.w3.org/2000/svg" viewBox="0 0 100 100">
  <defs>
    <style>
      .cls-1 {
        stroke: #1a1a1a;
      }

      .cls-1, .cls-2 {
        fill: none;
        stroke-linecap: round;
        stroke-linejoin: round;
        stroke-width: 4.03px;
      }

      .cls-2 {
        stroke: #ee4137;
      }
    </style>
  </defs>
  <path class="cls-1" d="M45.62,78.84c-.71-3.68-2.54-6.15-5.4-8.78-4.04-3.72-5.28-7.71-6.49-15.09"/>
  <path class="cls-1" d="M41.13,46.7v3.86c0,15.93,16.07,13.98,16.07,34.7"/>
  <path class="cls-1" d="M47,19.96l18.29,18.29c2.52,2.52,2.52,6.62,0,9.14l-2.74,2.74c-1.66,1.66-4.34,1.66-5.99,0l-1.58-1.58c-1.27-1.27-2.99-1.98-4.79-1.98h-13.39c-5.01,0-9.08-4.06-9.08-9.08h0"/>
  <line class="cls-1" x1="41.96" y1="28.72" x2="39.23" y2="28.72"/>
  <path class="cls-2" d="M41.39,6.09h-6.73c-17.18,0-31.16,13.98-31.16,31.16v26.61c0,3.25,2.64,5.89,5.89,5.89h0"/>
  <path class="cls-2" d="M48.95,6.49l-6.84,10.38h-7.44c-11.24,0-20.38,9.15-20.38,20.38v40.95"/>
  <line class="cls-1" x1="57.21" y1="85.67" x2="10.55" y2="85.67"/>
  <line class="cls-1" x1="92.84" y1="93.91" x2="7.18" y2="93.91"/>
  <line class="cls-1" x1="66.67" y1="86.09" x2="66.67" y2="69.79"/>
  <line class="cls-1" x1="77.43" y1="86.09" x2="77.43" y2="65.51"/>
  <line class="cls-1" x1="88.2" y1="86.09" x2="88.2" y2="61.24"/>
  <line class="cls-2" x1="57.52" y1="63.31" x2="96.44" y2="47.87"/>
  <polyline class="cls-2" points="88.52 44.42 96.5 47.85 93.12 55.72"/>
</svg>