<?xml version="1.0" encoding="UTF-8"?>
<svg id="Layer_1" data-name="Layer 1" xmlns="http://www.w3.org/2000/svg" viewBox="0 0 100 100">
  <defs>
    <style>
      .cls-1 {
        stroke: #2e5a63;
      }

      .cls-1, .cls-2 {
        fill: none;
        stroke-linecap: round;
        stroke-linejoin: round;
        stroke-width: 3px;
      }

      .cls-2 {
        stroke: #fff;
      }
    </style>
  </defs>
  <path class="cls-1" d="M81.79,60.84c-.65,2.23-1.54,4.37-2.63,6.38l4.15,5.41-12.1,12.1-5.41-4.15c-2.01,1.09-4.15,1.98-6.38,2.63l-.88,6.77h-17.1l-.88-6.77c-2.23-.66-4.36-1.54-6.37-2.65l-5.4,4.16-12.1-12.1,4.15-5.41c-1.09-2.01-1.98-4.15-2.63-6.38l-6.77-.88v-17.1l6.77-.88c.65-2.23,1.54-4.36,2.63-6.36l-4.15-5.41,12.1-12.1,5.41,4.15c1.99-1.09,4.12-1.98,6.36-2.63l.88-6.77h17.1l.9,6.77c2.23.65,4.36,1.54,6.36,2.63l5.41-4.15,12.1,12.1-4.16,5.4c1.1,2.01,1.98,4.14,2.65,6.37l6.77.88v17.1l-6.77.88Z"/>
  <path class="cls-1" d="M76.08,51.43c0,14.41-11.68,26.08-26.08,26.08s-26.08-11.68-26.08-26.08,11.68-26.08,26.08-26.08,26.08,11.68,26.08,26.08Z"/>
  <path class="cls-2" d="M38.99,53.08l6.29,5.89,17.37-17.34c1.88-1.57,5.33,1.07,2.99,3.75l-17.44,18.7c-1.6,1.35-3.97,1.25-5.45-.23l-7.16-6.94c-2.71-3.1,1.24-5.92,3.4-3.82Z"/>
</svg>