<?xml version="1.0" encoding="UTF-8"?>
<svg id="Layer_1" data-name="Layer 1" xmlns="http://www.w3.org/2000/svg" viewBox="0 0 200 200">
  <defs>
    <style>
      .cls-1 {
        stroke: #19bbb7;
      }

      .cls-1, .cls-2 {
        fill: none;
        stroke-linecap: round;
        stroke-linejoin: round;
        stroke-width: 6px;
      }

      .cls-2 {
        stroke: #195a64;
      }
    </style>
  </defs>
  <circle class="cls-2" cx="146.18" cy="42.05" r="12.52" transform="translate(40.97 151.9) rotate(-62.29)"/>
  <path class="cls-2" d="M141.67,68.01c.77-.02,3.63-.02,4.44-.02,7.78.02,13.92.96,18.2,2.2,6.64,1.93,10.95,7.66,10.68,13.89l-.68,23.5c-.13,2.89-1.06,5.68-2.68,8.18"/>
  <path class="cls-2" d="M161.3,87.53l-.83,74.99c-.04,3.38-2.93,6.19-6.7,6.51h0c-4.34.36-8.09-2.7-8.07-6.59l.17-35.09-.17,35.11c-.02,3.89-3.78,6.92-8.11,6.54h0c-3.78-.33-6.66-3.16-6.66-6.55l-.09-30.81"/>
  <circle class="cls-2" cx="53.82" cy="42.05" r="12.52" transform="translate(-13.38 29.85) rotate(-27.71)"/>
  <path class="cls-2" d="M58.33,68.01c-.77-.02-3.63-.02-4.44-.02-7.78.02-13.92.96-18.2,2.2-6.64,1.93-10.95,7.66-10.68,13.89l.68,23.5c.13,2.89,1.06,5.68,2.68,8.18"/>
  <path class="cls-2" d="M38.7,87.53l.83,74.99c.04,3.38,2.93,6.19,6.7,6.51h0c4.34.36,8.09-2.7,8.07-6.59l-.17-35.09.17,35.11c.02,3.89,3.78,6.92,8.11,6.54h0c3.78-.33,6.66-3.16,6.66-6.55l.09-30.81"/>
  <circle class="cls-1" cx="100.42" cy="37.75" r="14.97" transform="translate(2.72 82.07) rotate(-45)"/>
  <path class="cls-1" d="M83.37,123.07h0c-5.7.04-10.9-3.46-12.83-8.83-.61-1.7-.96-3.48-1.02-5.28l-.92-26.04c-.24-6.89,4.57-13.21,11.94-15.3,4.75-1.35,11.18-2.36,19.81-2.33,8.61.02,15.03,1.06,19.77,2.44,7.35,2.14,12.13,8.49,11.83,15.39l-1.13,26.02c-.09,2.06-.55,4.08-1.35,5.99-2.06,4.94-6.94,8.12-12.29,8.12h0"/>
  <path class="cls-1" d="M117.17,86.92l-.92,83.06c-.04,3.75-3.25,6.86-7.43,7.21h0c-4.81.4-8.96-2.99-8.94-7.3l.19-38.87-.19,38.88c-.02,4.31-4.18,7.67-8.99,7.24h0c-4.18-.37-7.37-3.5-7.38-7.25l-.24-83.07"/>
</svg>