<?xml version="1.0" encoding="UTF-8"?>
<svg id="Layer_1" data-name="Layer 1" xmlns="http://www.w3.org/2000/svg" viewBox="0 0 100 100">
  <defs>
    <style>
      .cls-1 {
        fill: none;
        stroke: #2e5a63;
        stroke-linecap: round;
        stroke-linejoin: round;
        stroke-width: 3px;
      }

      .cls-2 {
        fill: #fff;
      }
    </style>
  </defs>
  <path class="cls-1" d="M73.04,15.21v18.43h-23.04c-1.69,0-3.07,1.38-3.07,3.07v24.57H14.68c-1.69,0-3.07-1.38-3.07-3.07V15.21c0-1.69,1.38-3.07,3.07-3.07h55.28c1.69,0,3.07,1.38,3.07,3.07Z"/>
  <path class="cls-1" d="M82.25,36.71v15.36h-15.36c-1.69,0-3.07,1.38-3.07,3.07v27.64h-13.82c-1.69,0-3.07-1.38-3.07-3.07v-43c0-1.69,1.38-3.07,3.07-3.07h29.18c1.69,0,3.07,1.38,3.07,3.07Z"/>
  <rect class="cls-1" x="63.82" y="52.07" width="24.57" height="36.86" rx="3.07" ry="3.07"/>
  <circle class="cls-2" cx="19.29" cy="18.28" r="1.54"/>
  <circle class="cls-2" cx="26.96" cy="18.28" r="1.54"/>
  <circle class="cls-2" cx="34.64" cy="18.28" r="1.54"/>
  <circle class="cls-2" cx="53.07" cy="38.25" r="1.54"/>
  <circle class="cls-2" cx="59.21" cy="38.25" r="1.54"/>
  <circle class="cls-2" cx="65.36" cy="38.25" r="1.54"/>
  <line class="cls-1" x1="13.14" y1="24.43" x2="73.04" y2="24.43"/>
  <line class="cls-1" x1="46.93" y1="42.85" x2="82.25" y2="42.85"/>
</svg>