<?xml version="1.0" encoding="UTF-8"?>
<svg id="Layer_1" data-name="Layer 1" xmlns="http://www.w3.org/2000/svg" viewBox="0 0 100 100">
  <defs>
    <style>
      .cls-1, .cls-2, .cls-3 {
        fill: none;
      }

      .cls-2 {
        stroke: #2e5a63;
      }

      .cls-2, .cls-3 {
        stroke-linecap: round;
        stroke-linejoin: round;
        stroke-width: 3px;
      }

      .cls-4 {
        fill: #fff;
      }

      .cls-3 {
        stroke: #fff;
      }
    </style>
  </defs>
  <path class="cls-2" d="M76.47,27.71v18.68h-9.34c-3.44,0-6.23,2.79-6.23,6.23v10.9H23.53V30.82h7.78l4.67,4.67v-7.78h40.48Z"/>
  <path class="cls-2" d="M60.9,69.75v10.9H17.3c-3.44,0-6.23-2.79-6.23-6.23v-1.56c0-1.71,1.4-3.11,3.11-3.11h28.02l1.56,1.56h12.46l1.56-1.56h3.11Z"/>
  <path class="cls-2" d="M78.02,21.48h-42.04v6.23h40.48v18.68h6.23v-20.24c0-2.58-2.09-4.67-4.67-4.67ZM23.53,30.82h-6.23v34.25c0,.23.02.45.06.67-.02.05,0,.09.02.12.02.19.06.36.12.53-.02.02,0,.05.02.06.03.12.08.23.12.34.02.06.03.12.08.17.03.11.08.2.12.3.16.3.34.58.58.83.08.09.16.19.25.28.16.17.33.31.5.44.19.14.37.25.58.37h.02c.2.11.42.2.65.28.48.19,1.01.28,1.56.28h20.24l1.56,1.56h12.46l1.56-1.56h3.11v-6.23H23.53V30.82Z"/>
  <rect class="cls-2" x="60.9" y="46.39" width="28.02" height="43.59" rx="6.23" ry="6.23"/>
  <circle class="cls-4" cx="74.91" cy="83.76" r="1.56"/>
  <polygon class="cls-2" points="78.02 47.95 71.8 47.95 70.24 46.39 79.58 46.39 78.02 47.95"/>
  <polyline class="cls-3" points="81.14 71.3 78.02 74.42 78.02 61.96"/>
  <polyline class="cls-3" points="68.68 61.96 71.8 58.85 71.8 71.3"/>
  <path class="cls-1" d="M51.09,35.5c-.11,0-.2,0-.3.03-.58.08-1.09.39-1.4.87-1.56,2.35-4.2,3.77-7.04,3.77h-1.7v9.34h1.7c2.83,0,5.48,1.42,7.04,3.77.31.48.83.79,1.4.87.09.03.19.03.3.03,1.12,0,2.02-.9,2.02-2.02v-14.64c0-1.12-.9-2.02-2.02-2.02Z"/>
  <path class="cls-1" d="M35.87,40.17h4.78v9.34h-4.78c-1.66,0-3-1.34-3-3v-3.34c0-1.66,1.34-3,3-3Z"/>
  <line class="cls-1" x1="40.66" y1="57.29" x2="37.54" y2="49.51"/>
  <path class="cls-2" d="M35.99,16.81v18.68l-4.67-4.67h-15.57c-2.58,0-4.67-2.09-4.67-4.67v-9.34c0-2.58,2.09-4.67,4.67-4.67h15.57c2.58,0,4.67,2.09,4.67,4.67Z"/>
  <circle class="cls-4" cx="17.3" cy="21.48" r="1.56"/>
  <circle class="cls-4" cx="23.53" cy="21.48" r="1.56"/>
  <circle class="cls-4" cx="29.76" cy="21.48" r="1.56"/>
</svg>