<?xml version="1.0" encoding="UTF-8"?>
<svg id="Layer_1" data-name="Layer 1" xmlns="http://www.w3.org/2000/svg" viewBox="0 0 100 100">
  <defs>
    <style>
      .cls-1 {
        stroke: #1a1a1a;
      }

      .cls-1, .cls-2 {
        fill: none;
        stroke-linecap: round;
        stroke-linejoin: round;
        stroke-width: 4.03px;
      }

      .cls-2 {
        stroke: #ee4137;
      }
    </style>
  </defs>
  <g>
    <path class="cls-1" d="M77.29,12.51h10.85c1.8,0,3.26,1.46,3.26,3.26v55.44c0,1.8-1.46,3.26-3.26,3.26H11.76c-1.8,0-3.26-1.46-3.26-3.26V15.77c0-1.8,1.46-3.26,3.26-3.26h10.84"/>
    <line class="cls-1" x1="84.15" y1="65.03" x2="8.51" y2="65.03"/>
    <path class="cls-1" d="M60.37,86.96h-20.84c-4.02,0-7.28,3.26-7.28,7.28h0c0,.42.34.77.77.77h33.86c.42,0,.77-.34.77-.77h0c0-4.02-3.26-7.28-7.28-7.28Z"/>
    <line class="cls-1" x1="57.16" y1="86.96" x2="57.16" y2="79.42"/>
    <line class="cls-1" x1="42.74" y1="86.96" x2="42.74" y2="79.42"/>
  </g>
  <g>
    <circle class="cls-2" cx="49.96" cy="31.83" r="26.83" transform="translate(10.54 76.04) rotate(-80.78)"/>
    <ellipse class="cls-2" cx="50" cy="31.83" rx="9.76" ry="26.83"/>
    <path class="cls-2" d="M68.55,21.53c-4.82,1.68-11.35,2.71-18.55,2.71-6.71,0-12.84-.9-17.55-2.38"/>
    <path class="cls-2" d="M69.94,39.36c-5.1,2.06-12.15,3.34-19.94,3.34-7.19,0-13.75-1.09-18.73-2.88"/>
  </g>
</svg>