<?xml version="1.0" encoding="UTF-8"?>
<svg id="Layer_1" data-name="Layer 1" xmlns="http://www.w3.org/2000/svg" viewBox="0 0 100 100">
  <defs>
    <style>
      .cls-1 {
        stroke: #2e5a63;
      }

      .cls-1, .cls-2 {
        fill: none;
        stroke-linecap: round;
        stroke-linejoin: round;
        stroke-width: 3px;
      }

      .cls-3 {
        fill: #fff;
      }

      .cls-2 {
        stroke: #fff;
      }
    </style>
  </defs>
  <path class="cls-1" d="M81.2,57.61v9.13c0,5.04-4.09,9.13-9.13,9.13H26.41c-5.04,0-9.13-4.09-9.13-9.13v-30.44h18.26c3.36,0,6.09-2.72,6.09-6.09v-3.04h30.44c3.97,0,7.37,2.54,8.6,6.09h-16.21c-3.36,0-6.09,2.72-6.09,6.09v12.17c0,3.36,2.72,6.09,6.09,6.09h16.74Z"/>
  <polygon class="cls-1" points="41.63 75.87 56.85 75.87 58.37 88.04 40.11 88.04 41.63 75.87"/>
  <line class="cls-1" x1="62.94" y1="88.04" x2="35.54" y2="88.04"/>
  <line class="cls-1" x1="17.28" y1="63.7" x2="81.2" y2="63.7"/>
  <circle class="cls-3" cx="49.24" cy="69.78" r="1.52"/>
  <path class="cls-1" d="M88.81,39.35v12.17c0,3.36-2.72,6.09-6.09,6.09h-18.26c-3.36,0-6.09-2.72-6.09-6.09v-12.17c0-3.36,2.72-6.09,6.09-6.09h18.26c1.11,0,2.15.3,3.04.82,1.83,1.05,3.04,3.01,3.04,5.27Z"/>
  <polygon class="cls-2" points="69.02 51.52 69.02 39.35 81.2 45.56 69.02 51.52"/>
  <rect class="cls-1" x="11.19" y="11.96" width="30.44" height="24.35" rx="6.09" ry="6.09"/>
  <path class="cls-1" d="M12.29,33.69l8.48-8.48c.59-.59,1.56-.59,2.15,0l5.46,5.46c.59.59,1.56.59,2.15,0l2.41-2.41c.59-.59,1.56-.59,2.15,0l5.44,5.44"/>
  <circle class="cls-1" cx="31.74" cy="20.33" r="2.28"/>
  <line class="cls-2" x1="26.41" y1="43.91" x2="49.24" y2="43.91"/>
  <line class="cls-2" x1="26.41" y1="50" x2="49.24" y2="50"/>
  <line class="cls-2" x1="26.41" y1="56.09" x2="43.15" y2="56.09"/>
</svg>