<?xml version="1.0" encoding="UTF-8"?>
<svg id="Layer_1" data-name="Layer 1" xmlns="http://www.w3.org/2000/svg" viewBox="0 0 100 100">
  <defs>
    <style>
      .cls-1 {
        stroke: #2e5a63;
      }

      .cls-1, .cls-2 {
        fill: none;
        stroke-linecap: round;
        stroke-linejoin: round;
        stroke-width: 3px;
      }

      .cls-3 {
        fill: #fff;
      }

      .cls-2 {
        stroke: #fff;
      }
    </style>
  </defs>
  <circle class="cls-3" cx="18.21" cy="17.95" r="1.54"/>
  <circle class="cls-3" cx="25.92" cy="17.95" r="1.54"/>
  <circle class="cls-3" cx="33.64" cy="17.95" r="1.54"/>
  <line class="cls-1" x1="10.49" y1="24.12" x2="81.47" y2="24.12"/>
  <line class="cls-1" x1="56.78" y1="67.32" x2="56.78" y2="61.15"/>
  <path class="cls-1" d="M47.52,67.32H15.12c-2.56,0-4.63-2.07-4.63-4.63V16.41c0-2.56,2.07-4.63,4.63-4.63h61.72c2.56,0,4.63,2.07,4.63,4.63v43.97"/>
  <path class="cls-2" d="M64.42,44.18h5.18c1.14,0,2.19-.43,2.93-1.13.76-.69,1.22-1.67,1.22-2.73,0-2.13-1.87-3.86-4.15-3.86h-13.3c-1.14,0-2.19.43-2.93,1.13-.76.69-1.22,1.67-1.22,2.73,0,2.13,1.87,3.86,4.15,3.86h.6"/>
  <rect class="cls-2" x="18.21" y="31.84" width="26.23" height="15.43"/>
  <line class="cls-2" x1="19.75" y1="53.44" x2="42.9" y2="53.44"/>
  <line class="cls-2" x1="19.75" y1="59.61" x2="33.64" y2="59.61"/>
  <path class="cls-1" d="M78.38,88.92h0c5.78-3.86,9.26-10.35,9.26-17.3v-7.94c0-2.02-1.45-3.86-3.46-4.06-2.31-.23-4.26,1.58-4.26,3.84v-2.86c0-2.02-1.45-3.86-3.46-4.06-2.31-.23-4.26,1.58-4.26,3.84v-1.32c0-2.02-1.45-3.86-3.46-4.06-2.31-.23-4.26,1.58-4.26,3.84v-13.89c0-2.26-1.95-4.07-4.26-3.84-2.01.2-3.46,2.04-3.46,4.06v15.98c0-3.48-2.87-6.28-6.37-6.17-1.62.05-2.88,1.46-2.88,3.08v13.56c0,6.95,3.47,13.44,9.26,17.3h0"/>
</svg>