<?xml version="1.0" encoding="UTF-8"?>
<svg id="Layer_1" xmlns="http://www.w3.org/2000/svg" version="1.1" viewBox="0 0 200 50">
  <!-- Generator: Adobe Illustrator 29.6.1, SVG Export Plug-In . SVG Version: 2.1.1 Build 9)  -->
  <defs>
    <style>
      .st0 {
        fill: #b8ad1f;
      }

      .st1 {
        fill: #934843;
      }
    </style>
  </defs>
  <path class="st1" d="M14.4,16.4c0-1.7-.5-1.9-1.5-1.9v-.2h13.7v2.5h-.2s0-.1,0-.2c-.4-1.4-1-1.6-2.4-1.6h-7v9.5h6.5c.8,0,1.4,0,1.5-.7h.2v2.1h-.2c0-.3-.1-.7-1-.7h-7v8.6c0,1.5.3,1.9,1.7,1.9v.2h-5.7v-.2c1.2,0,1.5-.3,1.5-1.4,0,0,0-17.7,0-17.7Z"/>
  <path class="st1" d="M46.5,35.8v-.2c1.5,0,1.6-.6,1.6-1.7v-17.7c0-1.6-.4-1.8-1.6-1.8v-.2h5.8v.2c-1.6,0-1.6.7-1.6,1.9v15.1c0,2.7,1.2,3.5,4.1,3.5h2.6c3,0,3.6-1.6,3.8-4.5h.2v5.2h-14.9,0Z"/>
  <path class="st1" d="M148,16.6c0-1.6,0-2.2-1.5-2.2v-.2h13.6v3h-.2c-.4-1.5-1.2-2.2-2.2-2.2h-7.1v9.7h6.6c.8,0,1.4,0,1.5-.7h.2v2h-.2c-.1-.7-.7-.7-1.4-.7h-6.8v6.7c0,3.1.8,3.2,3,3.2h3.8c2.6,0,3.4,0,3.7-2.2h.2v3h-14.8v-.2c.8,0,1.5,0,1.5-1.5v-17.4h0Z"/>
  <path class="st1" d="M163.4,14.2h6.2v.2c-1.7,0-1.8.5-1.8,2.1v8.3l12.8-9.6c.1,0,.4-.3.4-.5,0-.3-.7-.3-.9-.3v-.2h4.6v.2c-1.1,0-2.2.4-3.4,1.3l-11.2,8.3,11.1,8.5c0,0,.1,0,.1,0,.5.4,1.2.8,1.4,1,1.9,1.2,2.8,1.9,4.2,1.9v.2h-7.3v-.2c.4,0,1,0,1-.2s-.4-.5-.8-.8l-12.2-9.3v8c0,1.6,0,2.4,1.8,2.3v.2h-6.2v-.2c1.8,0,1.9-.6,1.9-2.2v-16.7c0-1.9-.2-2.3-1.9-2.2v-.2h0Z"/>
  <path class="st1" d="M42.8,33.5v-.3c-.2,0-.2-.2-.2-.2l-7.7-19.1h-.4l-7.8,19.7c-.4,1-.7,1.9-2,2v.2h3.2v-.2c-.2,0-.7,0-.7-.5s0-.4.2-.7c0,0,0-.2.1-.4l6.4-16.1,6.3,15.6s0,.2.1.3c.1.4.3.9.3,1.2s0,.5-.7.5v.2h5v-.2c-1.3,0-1.9-1.2-2.2-2h0Z"/>
  <path class="st1" d="M144.1,32.8c-.3,2.2-1.1,2.2-3.7,2.2h-3.8c-2.2,0-3-.1-3-3.2v-6.7h6.8c.7,0,1.2,0,1.3.7h.2v-2h-.2c0,.7-.7.7-1.5.7h-6.6v-9.7h7.1c1.1,0,1.8.7,2.2,2.2h.2v-3h-13.6v.2c1.5,0,1.5.6,1.5,2.2v17.4c0,.3,0,.6-.1.8-1.5-.2-3.2-1.1-3.6-1.6-1.7-1.9-4-5.5-4.3-6l-1.6-2.5c1.9-1,3.7-3.1,3.7-5.6s-1.3-3.8-3.1-4.4c-1.2-.4-2.2-.4-4.6-.4h-6.1v.2c1,0,1.6.1,1.6,1.9v17.1c0,1.6-.2,2-1.6,2v.2h5.6v-.2c-1,0-1.5-.1-1.5-1.9v-8.2h1.7c.1,0,.9,0,1.1,0h.8s2.2,3.3,2.2,3.3c0,0,0,0,0,.1,0,0,1.8,2.9,3.4,4.9,1.5,1.8,3.6,2,4.8,2h14.8v-3h-.2,0ZM120.9,24.3c-.7.4-2.3.6-3.1.6h-2.2v-10h1.8c2.1,0,3.2.4,4.1,1.3,1.2,1.2,1.6,2.9,1.6,4.2,0,2.1-1.1,3.4-2.2,4Z"/>
  <path class="st1" d="M108.8,35.1c-3.7.8-4.8,1.1-7.7,1.1-4.6,0-7-1-8.7-2.2-2.3-1.7-3.9-4.9-3.9-8.4,0-5.6,4.2-11.6,12.3-11.6s4.5.6,6.1,1.3c0,0,.2,0,.2,0l.8,2.3h-.2c-.9-.9-3.5-3.1-7.4-3.1-6.6,0-9.8,4.7-9.8,9s2.7,12.1,11.3,12.1,6.8-1.1,8.2-2.9h.2c0,0-1.5,2.4-1.5,2.4h0Z"/>
  <path class="st1" d="M63.5,35.8v-.2c1.5,0,1.6-.6,1.6-1.7v-17.7c0-1.6-.4-1.8-1.6-1.8v-.2h5.8v.2c-1.6,0-1.6.7-1.6,1.9v15.1c0,2.7,1.2,3.5,4.1,3.5h2.6c3,0,3.6-1.6,3.8-4.5h.2v5.2h-14.9,0Z"/>
  <path class="st0" d="M40.5,25.9c.2-.2.4-.5.7-.6,0,0-3.5-1.9-5.3-1.9-2.9,0-5,3-7.1,5.3-.8.8-1.6,1.6-2.4,2,.4,0,.7-.1,1.1,0,.4-.6.8-1.1,1.3-1.6,2.8-2.9,5.8-2,6.7-2.7l-.7.7c1.2.1,1.6.7,3.2.7-.2,0-.6.6-1.8.2-4.4-1.5-6.4.8-6.4.8.6-.3,1-.3,1.5-.1,1.5.4,3.5,2.4,5,1.7-.2,0-.2-.3-.3-.5,1.6-.8,3,0,4.8.4l-.3-.9c1.5.7,2.6,1.1,3.5,1.3,1.3.3,1.9,0,1.9,0-.7-.3-1.4-.7-1.9-1.3-1.3-1.3-2.2-2.8-3.4-3.6h0Z"/>
</svg>