<?xml version="1.0" encoding="UTF-8"?>
<svg id="Layer_1" xmlns="http://www.w3.org/2000/svg" version="1.1" viewBox="0 0 200 50">
  <!-- Generator: Adobe Illustrator 29.6.1, SVG Export Plug-In . SVG Version: 2.1.1 Build 9)  -->
  <defs>
    <style>
      .st0 {
        stroke-width: .9px;
      }

      .st0, .st1, .st2 {
        stroke: #fff;
      }

      .st1 {
        stroke-width: .4px;
      }

      .st2 {
        stroke-width: .3px;
      }

      .st2, .st3 {
        fill: #fff;
      }

      .st4 {
        fill: #933f22;
      }

      .st5 {
        fill: #939598;
      }
    </style>
  </defs>
  <path class="st5" d="M57.2,44.6c-1-.9-1.3-2.1-1.3-3.1s.2-2,1.2-2.9c.8-.7,1.8-1.1,3.3-1.1s1,0,1.5.1c.4,0,.7.1,1.1.2.1,0,.2,0,.2.1s0,.2,0,.6c0,.3,0,.9,0,1.2,0,.2,0,.2-.1.2s-.1,0-.1-.2c0-.3-.1-.7-.4-1-.3-.4-1.2-.7-2.2-.7s-1.5.2-2,.7c-.8.7-1,1.7-1,2.8,0,2.5,1.9,3.8,3.3,3.8s1.5-.1,1.9-.6c.2-.2.3-.5.4-.7,0-.2,0-.2.1-.2s0,0,0,.2c0,.1-.1,1-.2,1.4s0,.2-.3.3c-.4.2-1.2.2-1.9.2-1.5,0-2.7-.3-3.6-1.2h0Z"/>
  <path class="st5" d="M68.8,45.3c-2,0-3.3-1.7-3.3-4s1.4-3.3,2.6-3.3c1.7,0,3.1,1.5,3.1,3.8s-1.7,3.4-2.5,3.4ZM68.4,45.8c2.7,0,4.4-1.9,4.4-4.4s-1.6-4-4.3-4-4.4,2.3-4.4,4.2,1.2,4.2,4.3,4.2h0Z"/>
  <path class="st5" d="M75.4,44.2c0,.8.2,1.1.4,1.2.2,0,.4,0,.6,0s.2,0,.2,0c0,0,0,.1-.2.1-.7,0-1.1,0-1.3,0s-.6,0-1.2,0-.2,0-.2-.1,0,0,.2,0,.3,0,.5,0c.3,0,.3-.4.3-1.3v-6.3c0-.2.1-.4.2-.4s.2.1.4.3c.1.1,1.7,1.9,3.3,3.4.7.7,2.2,2.2,2.3,2.4h0v-4.8c-.1-.6-.2-.8-.5-1-.2,0-.4,0-.6,0s-.2,0-.2,0,.1,0,.3,0c.6,0,1.1,0,1.3,0s.5,0,1,0,.2,0,.2,0,0,0-.2,0-.2,0-.3,0c-.3,0-.4.3-.4.9v6.7c-.1.2-.2.3-.3.3s-.2-.1-.4-.2c-.7-.6-2-2-3.1-3.1-1.2-1.2-2.3-2.5-2.5-2.7h0v4.5c.1,0,.1,0,.1,0Z"/>
  <path class="st5" d="M84,45.5c-.2,0-.2-.1-.2-.4,0-.6,0-1.2,0-1.4,0-.2,0-.3.1-.3s.1,0,.1.2c0,.1,0,.4,0,.5.2.8.9,1.1,1.5,1.1,1,0,1.4-.6,1.4-1.2s-.2-1-1-1.7l-.5-.4c-1.2-.9-1.6-1.7-1.6-2.5s1-2,2.4-2,1.1.1,1.4.2c0,0,.1,0,.1.1,0,.1,0,.4,0,1.3s0,.3-.1.3-.1,0-.1-.2,0-.4-.3-.7c-.2-.2-.5-.5-1.2-.5s-1.3.5-1.3,1.1.2.9,1.1,1.5l.3.2c1.3,1,1.7,1.7,1.7,2.7s-.2,1.3-1,1.9c-.5.3-1.1.4-1.7.4s-1.1,0-1.5-.3h0Z"/>
  <path class="st5" d="M91.9,38.2h-1.6c-.6,0-.9.1-1,.3-.1.2-.2.3-.2.4,0,0,0,.1-.1.1s0,0,0-.2c0-.2.2-1.1.2-1.2,0-.1,0-.2.1-.2s.2.1.4.1c.3,0,.7,0,1.1,0h4.2c.7,0,.9-.1,1-.1s0,0,0,.2c0,.2,0,1,0,1.2s0,.2,0,.2-.1,0-.1-.2h0c0-.4-.3-.7-1.3-.7h-1.3s0,4.3,0,4.3c0,1,0,1.8,0,2.3,0,.3,0,.5.4.6.1,0,.4,0,.5,0s.2,0,.2,0c0,0,0,.1-.2.1-.7,0-1.4,0-1.7,0s-.9,0-1.3,0-.2,0-.2-.1,0,0,.2,0,.3,0,.4,0c.2,0,.3-.3.3-.6,0-.4,0-1.3,0-2.3v-4.4h0Z"/>
  <path class="st5" d="M99,38.3c0,0,0-.1,0-.1.1,0,.3,0,.6,0,.6,0,1.6.4,1.6,1.9s-.3,1.4-.6,1.6c-.2.1-.3.2-.8.2s-.6,0-.8-.1c0,0,0,0,0-.2v-3.2h0ZM97.7,42.6c0,1,0,1.8,0,2.3,0,.3,0,.5-.3.6,0,0-.2,0-.4,0s-.2,0-.2,0c0,0,0,.1.2.1.4,0,1.1,0,1.3,0s.9,0,1.6,0,.2,0,.2-.1,0,0-.1,0c-.1,0-.4,0-.5,0-.3,0-.4-.3-.4-.6,0-.4,0-1.3,0-2.3h0c0-.1,0-.2,0-.2h.9c0,0,.1,0,.2.1.1.2.6.9,1,1.5.6.8,1,1.3,1.5,1.6.3.1.5.2,1.1.2h1c.1,0,.2,0,.2-.1s0,0-.1,0-.2,0-.3,0c-.2,0-.6-.1-1.2-.7-.6-.7-1.4-1.6-2.3-2.8,1.1-.9,1.4-1.6,1.4-2.4s-.4-1.3-.7-1.5c-.6-.4-1.3-.4-1.9-.4s-1.1,0-1.5,0-.9,0-1.5,0-.2,0-.2,0,0,0,.2,0,.3,0,.4,0c.3,0,.4.2.4.6,0,.3,0,.6,0,2.2v1.9h0Z"/>
  <path class="st5" d="M105,40.7c0-1.6,0-1.9,0-2.2,0-.4-.1-.5-.4-.6,0,0-.3,0-.4,0s-.2,0-.2,0,0,0,.2,0c.6,0,1.2,0,1.5,0s.9,0,1.3,0,.2,0,.2,0,0,0-.2,0-.2,0-.3,0c-.3,0-.4.2-.4.6,0,.3,0,.6,0,2.2v1.5c0,1.5.3,2.2.8,2.6.5.4,1,.4,1.3.4s1-.1,1.5-.6c.6-.6.6-1.5.6-2.6v-1.3c0-1.6,0-1.9,0-2.2,0-.4-.1-.5-.5-.6,0,0-.3,0-.4,0s-.2,0-.2,0,0,0,.2,0c.5,0,1.2,0,1.2,0,.1,0,.8,0,1.2,0s.2,0,.2,0,0,0-.2,0-.2,0-.3,0c-.3,0-.4.2-.4.6,0,.3,0,.6,0,2.2v1.1c0,1.2-.1,2.4-1,3.2-.8.6-1.5.8-2.2.8s-1.6,0-2.4-.7c-.5-.5-.9-1.3-.9-2.8v-1.5h0Z"/>
  <path class="st5" d="M114.4,44.6c-1-.9-1.3-2.1-1.3-3.1s.2-2,1.2-2.9c.8-.7,1.8-1.1,3.3-1.1s1,0,1.5.1c.4,0,.7.1,1.1.2.1,0,.2,0,.2.1s0,.2,0,.6c0,.3,0,.9,0,1.2,0,.2,0,.2-.1.2s-.1,0-.1-.2c0-.3-.1-.7-.4-1-.3-.4-1.2-.7-2.2-.7s-1.5.2-2,.7c-.8.7-1,1.7-1,2.8,0,2.5,1.9,3.8,3.3,3.8s1.5-.1,1.9-.6c.2-.2.3-.5.4-.7,0-.2,0-.2.1-.2s0,0,0,.2c0,.1-.1,1-.2,1.4s0,.2-.3.3c-.4.2-1.2.2-1.9.2-1.5,0-2.7-.3-3.6-1.2h0Z"/>
  <path class="st5" d="M123.8,38.2h-1.6c-.6,0-.9.1-1,.3-.1.2-.2.3-.2.4,0,0,0,.1-.1.1s0,0,0-.2c0-.2.2-1.1.2-1.2,0-.1,0-.2.1-.2s.2.1.4.1c.3,0,.7,0,1.1,0h4.2c.7,0,.9-.1,1-.1s0,0,0,.2c0,.2,0,1,0,1.2s0,.2,0,.2-.1,0-.1-.2h0c0-.4-.3-.7-1.3-.7h-1.3s0,4.3,0,4.3c0,1,0,1.8,0,2.3,0,.3,0,.5.4.6.1,0,.4,0,.5,0s.2,0,.2,0c0,0,0,.1-.2.1-.7,0-1.4,0-1.7,0s-.9,0-1.3,0-.2,0-.2-.1,0,0,.2,0,.3,0,.4,0c.2,0,.3-.3.3-.6,0-.4,0-1.3,0-2.3v-4.4h0Z"/>
  <path class="st5" d="M129.6,40.7c0-1.6,0-1.9,0-2.2,0-.4-.1-.5-.4-.6-.1,0-.3,0-.4,0s-.2,0-.2-.1,0,0,.3,0c.4,0,1.1,0,1.4,0s.9,0,1.3,0,.2,0,.2,0c0,0,0,.1-.2.1s-.2,0-.3,0c-.3,0-.4.2-.4.6,0,.3,0,.6,0,2.2v1.9c0,1,0,1.9,0,2.3,0,.3.1.5.4.5.1,0,.4,0,.5,0s.2,0,.2,0c0,0,0,.1-.2.1-.7,0-1.4,0-1.7,0s-.9,0-1.3,0-.2,0-.2-.1,0,0,.2,0,.3,0,.4,0c.2,0,.3-.2.3-.5,0-.4,0-1.3,0-2.3v-1.9h0Z"/>
  <path class="st5" d="M137.6,45.3c-2,0-3.3-1.7-3.3-4s1.4-3.3,2.6-3.3c1.7,0,3.1,1.5,3.1,3.8s-1.7,3.4-2.5,3.4ZM137.2,45.8c2.7,0,4.4-1.9,4.4-4.4s-1.6-4-4.3-4-4.4,2.3-4.4,4.2,1.2,4.2,4.3,4.2h0Z"/>
  <path class="st5" d="M144.1,44.2c0,.8.2,1.1.4,1.2.2,0,.4,0,.6,0s.2,0,.2,0c0,0,0,.1-.2.1-.7,0-1.1,0-1.3,0s-.6,0-1.2,0-.2,0-.2-.1,0,0,.2,0,.3,0,.5,0c.3,0,.3-.4.3-1.3v-6.3c0-.2.1-.4.2-.4s.2.1.4.3c.1.1,1.7,1.9,3.3,3.4.7.7,2.2,2.2,2.3,2.4h0v-4.8c-.1-.6-.2-.8-.5-1-.2,0-.4,0-.6,0s-.2,0-.2,0,.1,0,.3,0c.6,0,1.1,0,1.3,0s.5,0,1,0,.2,0,.2,0,0,0-.2,0-.2,0-.3,0c-.3,0-.4.3-.4.9v6.7c-.1.2-.2.3-.3.3s-.2-.1-.4-.2c-.7-.6-2-2-3.1-3.1-1.2-1.2-2.3-2.5-2.5-2.7h0v4.5c.1,0,0,0,0,0Z"/>
  <path class="st4" d="M57.2,32.9l-1.2-2.1c2.5,0,4.6-2.1,4.6-4.6V4.2h4.6v20.5c0,4.5-3.6,8.1-8.1,8.1h0Z"/>
  <path class="st4" d="M87.1,24.1v-12.2l-7.7,15.6h-2.3l-7.9-15.3v15.3h-2.3V4.2h3.5l9.1,17.7,8.7-17.7h3.5v19.9h-4.6Z"/>
  <path class="st4" d="M106,27.4l-6.7-11.6h1.2c2.6,0,4.6-2.1,4.6-4.6s-2.1-4.6-4.6-4.6h-2.3v17.5h-4.6V4.2h9.3c3.9,0,6.9,3.1,6.9,6.9s-1.7,5.3-4.1,6.4l5.7,9.9h-5.4,0Z"/>
  <path class="st5" d="M92,32.5c0,.2,0,.2-.3.3-.2,0,0,.2-.1.3,0,0-.2.2-.2.3,0,.2.5.2.5.3,0,.1-.1.1-.2.1h-.1c-.1,0-.2,0-.4,0s-.4-.2-.4-.3.2-.4.2-.5,0-.1-.1-.1c-.1,0-.3,0-.4.1-.2,0-.3,0-.4.2-.2.2-1,.5-1.3.5s-.3,0-.3-.2,0-.3,0-.5.1-.2.1-.4,0-.2-.1-.2-.1,0-.2,0c-.2.2-.2,0-.4.2-.2.2-.4.4-.7.5-.3.1-.6.2-.9.4-.1,0-.3.3-.5.3-.3,0-.5-.2-.5-.5s0-.2,0-.3-.1-.1-.2-.1c-.1,0-.1,0-.2.2,0,.1-.4.3-.6.3-.2,0-.4.4-.9.4,0,0,0,0-.1,0-.2,0-.5,0-.5-.3s.3-.7.5-.8c.2-.2.3-.5.5-.6.2-.2.4-.4.6-.5.3-.1.5-.4.8-.5.2,0,.5-.3.8-.3.4,0,.7.4.7.8,0,.6-.8,1.2-.8,1.6s0,.1,0,.2c0,0,0,.1.1.1s0,0,.1,0c.2,0,.4-.1.5-.2.2-.1.4-.4.7-.4.2,0,.3-.3.6-.4s.4-.3.6-.3c.1,0,.3-.1.4-.1.2,0,.3.3.3.5,0,.3-.2.4-.2.7s0,.2.2.2c.3,0,.8-.5,1.1-.6.2,0,.3-.1.5-.2.4-.1.6-.5,1-.5s.2.1.2.2,0,0,0,.1h0ZM86,31.3c0,0-.3,0-.4.1-.4.1-.7.4-1,.6-.2.2-.4.4-.6.6-.1.1-.2.3-.3.4,0,0-.1.1-.1.3s0,.1.2.1c.2,0,.5-.1.6-.3.1-.1.2-.2.3-.3.2-.1.3-.3.5-.4.2,0,.2-.2.3-.3.2,0,.7-.5.7-.7s-.2-.2-.3-.2Z"/>
  <path class="st5" d="M99.2,33.3c0,0-.2.1-.3.2-.1,0-.4.2-.7.3-.1,0-.2,0-.3.1-.1,0-.3.1-.4.1-.1,0-.2,0-.3,0-.1,0-.2,0-.3,0-.2,0-.6-.1-.8-.3,0,0-.2-.2-.3-.4-.1-.2-.2-.3-.3-.3s-.2.1-.4.2c-.2.1-.5.2-.6.3-.1,0-.4,0-.7.1s-.6,0-.7,0c-.2,0-.9,0-.9-.3s.2-.3.4-.4c.2-.1.4-.3.5-.3.3-.1.5-.4.8-.6.2,0,.4-.2.6-.2s.4,0,.6,0,.1,0,.1,0c0,.1-.4.2-.8.4-.3.1-.6.3-.8.4-.1.1-.2.3-.2.5s0,.1.1.1c.2,0,.3,0,.5-.1.3,0,.4,0,.7-.2,0,0,.2,0,.3-.1.2,0,.3-.3.5-.4.3-.1.3-.1.5-.4l.3-.4c.4-.5.6-.8,1.2-1.2.2,0,.3-.2.6-.3.3-.1.3-.2.6-.2s.3,0,.3.2-.7.9-.9,1c-.2.1-.3.4-.6.4-.3.1-.2.3-.4.3-.3.1-.4.5-.4.8s0,.5.3.6c.2,0,.3,0,.5,0s.2,0,.2,0c.1,0,.2,0,.4,0,.1,0,.2,0,.3-.1l.4-.2c.2,0,.7-.3.7-.3,0,0,.1,0,.1,0,0,.2-.3.3-.4.3h0Z"/>
  <path class="st5" d="M117.2,26.4c-.2.3-.4.3-.7.4-.2,0-1.1,0-1.2,0-.2.1-.3.3-.4.5-.3.3-.5.6-.8.9-.1.2-1.2,1.3-1.2,1.4s.1,0,.2.1c.3,0,1.2.1,1.5.1h.3c.1,0,.3,0,.4,0,.2,0,.5-.2.6-.3.1-.2.2-.4.3-.4s.4.1.4.3,0,.2,0,.3c0,.2-.8.3-.9.5-.2.2-.4.4-.6.6-.3.3-.6.5-.9.8-.2.2-.3.4-.5.6,0,0-.4.3-.5.4,0,0-.2.1-.3.1s-.2,0-.2-.2,0-.1.1-.2c.3-.2.6-.7.8-.8.3-.1.4-.4.6-.5.2-.1.4-.6.6-.6,0,0,.1,0,.1-.1s0,0,0,0,0,0,0,0c-.6,0-1.1-.1-1.6-.1s-.3,0-.5,0-.1,0-.2,0c-.3.2-.6.6-.8.8-.2.2-.5.4-.7.6-.1.2-.4.5-.6.6-.2.1-.4.3-.5.4,0,.1-.4.3-.6.4-.3.3-.8.6-1.2.7-.3.1-.6.3-.9.4-.3.1-.9.4-1.3.4s-.5-.2-.5-.4v-.3c0-.1,0-.2,0-.3.2-.2,0-.5.4-.7,0,0,.5-.3.5-.3s0,0,0,0c.2.2.3.2.3.5s-.2.6-.5.6-.1,0-.2,0c-.2,0-.2.1-.2.3h0s.1.2.3.2c.3,0,.4-.1.8-.2.4-.1.7-.3,1.1-.4.3-.1.6-.4.9-.6.1,0,1.2-1.1,1.4-1.3.3-.3.5-.5.8-.8.1-.1.2-.3.4-.5,0,0,.2-.1.2-.2s-.3,0-.6,0h-.2c-.4,0-.8.1-1.2.1s-.1,0-.2,0c-.3,0-.5,0-.8,0s-.2,0-.3,0c-.5,0-.7.2-1.2.2s-1.2.3-1.6.3-.7.2-.9.3c-.3.1-.7.2-1,.5,0,0-.2.2-.4.2s-.1,0-.1-.2c0-.2.1-.4.3-.4.2-.1.6-.3.8-.4.4,0,.7-.3,1-.3.2,0,.3-.1.5-.1.3,0,.6-.2.9-.3.4,0,.8-.1,1.2-.1s.2-.1.4-.1c.3,0,.4,0,.4-.4,0-.2,0-.5.2-.6.1-.1,0-.4.2-.6.2-.1.3-.5.5-.7.6-.8.9-1.2,2-1.2h.2c1,0,1.8,0,3,.1,0,0,.3,0,.4-.1h.1c.3-.4.8-.6,1.2-.6s.8.1.8.5,0,.1,0,.2h0ZM114.1,26.6c-.5,0-1.1-.1-1.6-.1s-.8,0-1.3.2c-.4.1-.7.3-1,.6-.3.4-.5.7-.8,1-.1.1-.2.3-.3.4-.1.1-.1.3-.2.5,0,.1-.1.2-.1.3s0,.1.3.1.3,0,.4,0c.2,0,.3,0,.5,0h.3c.5,0,1,0,1.5,0s.2,0,.3,0c0-.2.2-.3.4-.5.1-.1.2,0,.4-.3.2-.3.8-.7.9-1,.1-.2.9-.9.9-1s-.4-.1-.5-.1h0ZM116.5,26.1h0c-.1,0-.4,0-.4.2s0,0,.1,0c0,0,.1,0,.2,0h.2c.1,0,.3,0,.3-.2s-.2-.1-.3-.1Z"/>
  <path class="st5" d="M120,33.2c0,0-.2.1-.3.2-.3.1-.3.2-.5.2,0,0-.1,0-.2,0,0,0-.2,0-.3,0s0,0-.1,0c0,0-.2,0-.3,0s-.1,0-.2,0,0,0-.1,0c-.2,0-.5-.1-.6-.3,0-.1,0-.4-.2-.4s-.1,0-.2,0c-.3,0-.3.3-.6.3-.1,0-.4.2-.4.2,0,0-.2,0-.3,0s0,0,0,0c0,0-.1,0-.2,0s0,0-.1,0c-.1,0-.2,0-.3,0s-.3,0-.4,0-.2-.1-.3-.1-.1-.2-.1-.3c0-.3.5-.6.6-.8,0,0,.2-.1.3-.2.1-.1.3-.2.4-.3,0,0,.4-.2.5-.2,0,0,.2,0,.2-.1,0-.1.3-.2.4-.2s0,0,.1,0c0,0,.1,0,.2,0,.2,0,.4.1.4.3s-.4.3-.6.3c0,0-.3,0-.3,0s0,0-.2,0c0,0,0,0,0,0,0,0,0,0-.1,0s-.1,0-.2,0c-.1.1-.3.2-.4.3,0,0-.1.1-.3.2,0,0-.3.3-.3.4,0,.3.4.4.5.4.2,0,.4-.2.7-.2s.2-.1.4-.2c0,0,.1,0,.1,0,.1,0,.4-.3.6-.3.1,0,.1-.2.2-.2.1,0,0-.1.2-.2.2,0,.4-.2.6-.2s.1,0,.1.1,0,.2-.1.2,0,0,0,0,0,0,0,.1c0,.2-.2.4-.2.6s.3.3.5.3c0,0,.1,0,.2,0s.1,0,.2,0,0,0,0,0c0,0,.1,0,.3,0s.3-.1.5-.2c.1,0,.3-.2.4-.2s.2,0,.2,0-.2.2-.3.2h0Z"/>
  <path class="st5" d="M130,33.1c0,0-.3.2-.4.2s-.4.1-.5.2c0,0-.3,0-.4.1-.2,0-.6.2-.7.2-.2,0-.4,0-.6-.1-.1,0-.3-.2-.3-.3h0c0-.2,0-.4,0-.5,0,0,0,0,0,0,0,0,0-.2,0-.3s0,0,0,0c0,0-.3,0-.5.3-.2.2-.3.2-.4.3-.2,0-.4.4-.6.4,0,0-.2.1-.3.1s-.2,0-.3,0c-.2,0-.3,0-.3-.2,0,0,0,0,0-.2s0,0,0-.2c0-.1,0-.3,0-.4,0,0,0-.2,0-.3s0-.1-.1-.1c0,0-.1,0-.2,0s-.2,0-.4.2l-.3.2c-.1,0-.2.2-.3.2,0,0-.2.1-.3.1s-.3.2-.4.3c-.2,0-.3.3-.4.4,0,0-.1.2-.3.2s-.2,0-.2-.1c0-.2.2-.3.3-.6,0-.1.1-.3.1-.6s0-.3-.2-.3-.4.1-.5.3c-.1.1-.4.1-.5.3,0,0-.2.1-.3.2-.2,0-.2.1-.4.2,0,0-.1,0-.2,0s0,0,0,0,0,0,0,0,0,0,0,0c0,0,.2,0,.3-.2.1,0,.2-.1.4-.2.1-.1.3-.2.4-.3.3-.2.5-.3.7-.5.2-.1.4-.3.6-.3.4,0,.4.2.4.5h0c0,.1,0,.2,0,.3,0,0,0,0,0,0,0,0,0,0,0,0,0,0,.2-.2.3-.2.2,0,.3-.1.4-.3,0,0,.3-.2.6-.3.2,0,.5-.1.6-.1.2,0,.3.1.3.3,0,0,0,.1,0,.2s0,.2,0,.3,0,.2,0,.3c0,0,0,.1,0,.3,0,0,0,0,0,0,0,.1,0,.1.1.1.1,0,.5-.2.6-.3.3-.1.4-.2.6-.4.1,0,.3-.2.4-.3.2-.3.6-.5,1-.5s.2.1.2.3,0,.2,0,.4-.1.3-.1.4,0,.2,0,.2c0,0,0,0,0,.1,0,0,0,.2.2.3,0,0,0,0,.2,0s.2,0,.3,0c.2,0,.5,0,.7,0h.4c0-.1.2-.2.2-.2.1,0,.4-.2.5-.2,0,0,0,0,0,0,0,0,0,.1-.1.2h0Z"/>
  <path class="st5" d="M133.2,33.1c-.1,0-.3.1-.4.2s-.1,0-.3,0c-.1,0-.5.2-.6.2,0,0-.1,0-.2,0s-.3,0-.3,0,0,0-.2,0c-.2,0-.3,0-.5,0-.1,0-.4,0-.6,0-.3,0-.5-.2-.5-.5s.3-.6.5-.7c.5-.3.8-.8,1.3-1,.1,0,.3-.3.4-.3s0,.2,0,.2c0,.2-.1.3-.3.3,0,0,0,0-.1,0-.2.1-.4.3-.6.5-.1.2-.6.5-.6.7h0c0,0,0,.1.1.1h.2c.1,0,.2,0,.3,0s.4,0,.6-.1.4-.1.5-.1.3-.1.5-.2c.1,0,.2-.1.3-.1,0,0,.1,0,.3,0s0,0,0,0c0,0,0,.1-.1.2h0ZM133.4,29.5h-.1c-.2,0,0-.2-.3-.3,0,0-.1,0-.1-.1,0-.2.3-.3.5-.3s0,0,.1,0c0,.1.1.2.1.3s0,.3-.2.3Z"/>
  <path class="st5" d="M138.8,33.3c-.1,0-.4,0-.5.2-.1.1-.5.1-.6.2-.1.1-.6.1-.7.1-.3,0-.7.2-1,.2-.1,0-.3,0-.4,0s-.1,0-.2,0c0,0,0,0-.1,0s0,0-.1,0c-.3,0-.4-.2-.4-.5s0-.5.2-.7c.3-.2.3-.3.4-.6,0-.1.3-.4.4-.5.2,0,.2-.1.3-.3,0,0,0,0,0,0s0,0,0,0c-.1,0-.7.4-.9.4s0,0,0,0c0,0-.3.2-.3.3-.1.1-.3.2-.5.3-.2.1-.4.3-.5.4,0,0-.2.1-.4.2-.1,0-.2.1-.3.1-.2,0-.3.2-.5.2s-.1,0-.1,0,0-.2.2-.2c.3-.1.2-.1.5-.3.3-.1.4-.3.6-.3.2,0,.2-.1.3-.3s.2-.1.3-.2c.2,0,.2-.2.4-.3.3-.1.3-.2.7-.4.3,0,.3-.3.6-.4.2,0,.4-.2.6-.3.1,0,.2-.2.4-.2.2-.1.2-.3.6-.4.2-.1.8-.5,1-.5s.2.2.2.3,0,.1-.1.2c-.2.2-.7.7-.9.8-.2,0-.5.5-.8.7-.4.2-.2.1-.4.4-.1.2-.3.3-.4.4-.2.1-.5.7-.5.9s0,.3.2.3h.2c0,0,.2,0,.3,0,.3,0,.5,0,.8,0,0,0,.1,0,.2,0s.2,0,.3,0c.3-.1.3,0,.6-.2.2-.1.3,0,.5-.2,0,0,.2-.1.3-.1s.1,0,.1.1c0,.1-.3.3-.4.3h0Z"/>
  <path class="st5" d="M145.7,34.4c-.1,0-.2.2-.4.3s-.4.2-.6.3c0,0-.5.2-.5.2-.1.1-.4.2-.5.3-.3,0-.4.3-.7.4-.3,0-.6.2-.8.4-.1.1-.2,0-.4.1-.3,0-.6.3-1,.3s-.4,0-.4-.3c0-.1.2-.2.3-.2.2-.1,1.8-1.5,1.9-1.6.1-.2,0-.2.3-.3.2-.1,1.2-1,1.2-1.2s0,0-.2,0c-.2,0-.6,0-.8.1-.2,0-.4,0-.6.1-.3.1-.7.3-1,.3s-.7-.1-.7-.4,0-.2.1-.3c0,0,0-.1,0-.2s0,0,.2-.2c0,0,.2-.1.2-.2s-.2-.3-.3-.3-.3.2-.4.3c-.2.1-.4.4-.6.4-.1,0-.3.1-.4.2s-.3.2-.5.3c-.2.1-.3.2-.5.2s0,0,0,0c0-.3.6-.4.8-.5.2-.1.2-.2.4-.3.1,0,.3-.2.4-.3.3-.2.3-.3.6-.5.2-.1.5-.2.7-.2s.2,0,.4.1c.2,0,.3.2.3.3s-.1.3-.3.5c-.1.2-.3.4-.3.5s.1.2.2.2.1,0,.2,0,.1,0,.2,0c.3,0,.5-.1.7-.1s.3-.2.6-.2.6,0,.9-.2c.2,0,.4-.2.6-.2s.2.1.2.3,0,.2-.2.3c-.2.3-.2.4-.5.6-.4.2-1,1.1-1.2,1.2-.2,0-.2.3-.4.4,0,0-.3.2-.3.3s.1,0,.1,0c.6,0,.6-.2.8-.3.3,0,.5-.3.8-.3.3,0,.4-.3.6-.3.2,0,.3-.1.5-.3.1-.1.2,0,.4-.2,0,0,.2-.1.3-.1s0,0,0,0c0,.1-.2.3-.3.3h0Z"/>
  <path class="st3" d="M50.3,35.6s0,0-.1,0c.1,0,.2,0,.1,0Z"/>
  <path class="st3" d="M48.8,35.6c.4,0,1,0,1.4,0-.3,0-1.2-.3-1.4,0Z"/>
  <path class="st3" d="M50.4,35.1h-.5c.3.2.2,0,.5,0Z"/>
  <polygon class="st3" points="50.2 35.4 50.2 35.5 50.4 35.4 50.2 35.4"/>
  <path class="st3" d="M74.4,31.7s0,.1,0,.2v-.2h0Z"/>
  <path class="st3" d="M75.2,30.8c0,0,.1,0,.2-.1,0,0-.1,0-.2.1Z"/>
  <path class="st3" d="M73.4,32h.2c0,0-.1,0-.2,0Z"/>
  <path class="st3" d="M61.4,35.2c-.2.1-.3.2-.4.3.4,0,.4-.2.4-.3Z"/>
  <path class="st3" d="M79.4,27.5h0c0,0,0,0,0,0Z"/>
  <path class="st3" d="M74.9,29.3s0,0,0,0c0,0,0,0,0,0h-.1c0,0,0,0,0,0Z"/>
  <path class="st3" d="M72.6,32.2h-.1c0,0,.1,0,.1,0Z"/>
  <path class="st3" d="M80.9,26.9c0,0,.1-.1.1-.2-.1,0-.2.2-.1.2Z"/>
  <path class="st3" d="M75.4,30.7h0,0Z"/>
  <path class="st3" d="M73.4,30.1c0,0,.1,0,.2-.1-.1,0-.2,0-.2.1Z"/>
  <path class="st3" d="M61.4,35.2s0,0,.1,0c0,0-.1,0-.1,0Z"/>
  <path class="st3" d="M51.5,35.8c.2,0,.2,0,.2-.1,0,0-.2,0-.2.1Z"/>
  <path class="st3" d="M105.7,29.8h0s0,0,0,0Z"/>
  <path class="st3" d="M100.2,28.2s0,0,0,0c0,0,0,0,0,0Z"/>
  <path class="st3" d="M95,25.3c.4.2.8,0,1.2,0h-.1c0,0,.4,0,.4,0v.2c.6,0,1.3.2,1.5,0v.2c-.1,0,.5-.1.5-.1h-.4c.7.3,1.8.3,1.9.3h0c.1.1.2.1.3.1h-.1c1,.3,1.2.7,2.4.8.3.1-.2,0-.2,0,.1.2.6.2.7.1-.1.2-.6,0-.3.3.3,0-.2.1.2.2l.3-.2c.2.1,0,.2.4.3.5,0-.4-.5.3-.3.4.1.5.9,1.3,1,.5.4-.5.3.3.5h-.6c0,0,0,.2.3.3.1,0,.4,0,.6,0-.8-.1.5.6-.3.5h.2c0,.1,0,.1,0,.1l.3.2c-.2,0-.7-.2-.6,0,.1,0,.3.2.4.3-.2,0,0,.2-.2.3-.4,0-.9-.2-1.4-.3,0,0,.3,0,.3-.2-.3-.2-.4,0-.6-.2h.2c0,0-.1,0,0,0,0,.1.2,0,.2,0,0-.2-.4-.2-.6-.2-.4-.2,0-.3,0-.4-.3.2-.8-.3-1.1-.2h.2c-.3-.4-.7-.4-.9-.3h.1c-.5-.2-.6-.8-1.2-.4h0c-.2-.2-.5-.3-.7-.2,0,0,0-.1,0-.2-.2.2-.3,0-.6-.1.2,0,.2-.3.4-.3-.4-.4-.5.2-.9,0-.2-.2.2,0,.3-.2-.6,0-1.2-.8-1.7-.4l.3.2c-.3,0-.4,0-.4,0,0,0,.1,0,.1,0-.7-.4-1.2.2-2,0,0,0,.2-.1.2-.2-.3-.1-.4.4-.9.2h.1c-.2-.2-.3,0-.3,0,0-.4-1.2,0-1.6-.6-.3.2-1.1.4-1.3.3-.4-.2.3-.3.2-.5-.3,0-.4.3-.8.2,0,.2.8.4,0,.6h-.1c0-.1.2,0,.3,0,.2-.1-.1-.2-.2-.2h-.8c0,.4.4.3.5.3-.7,0-1.5-.4-2.1-.1h0c-.8.2-.5-.5-1.1,0-.3,0,0-.3-.4-.2-.1,0,0,.1,0,.1-.6.2-.3-.2-.8,0v-.3c-.6.3-1.2.9-1.8.9,0-.2.4-.3.5-.4-.7.5-1.9.4-2.5.8.3.1-.2.5.3.5,0-.3.3-.2.5-.3-.3.7-1.7.2-1.7.7l-.2-.2c-.1,0-.3.3-.1.3h-.8c.2-.1.7-.6.9-.5.2-.3-.4,0-.2-.3-.4.5-.4,0-.9.2.3.2-.4.5-.3.7-.2,0-.5.3-.6.4-.3.1-1.1.1-1.5.4.2-.2.4-.4.3-.5-.2.2-.5.3-.6,0,.7-.7.4.4,1.1-.1.1-.3.3-.4.7-.6-.2,0-.2-.2-.3-.3-.3.7-1.3.5-1.8,1-.2.2.1.5-.5.7h.6c-.6,0,0,.2-.5.4v-.2c-.2,0-.3.1-.4.3v-.3s-.3.1-.3.3c0,0,0,0-.1-.1,0,0,0,.1-.3.2,0,0,.2,0,.1-.2-.6.4-.3-.2-.7,0,0,0-.1-.1-.3,0,.2.4-.6.8-.8,1.1h0l-.5.4c0,0,0-.1-.3-.1h0c-.2,0,0-.5-.5-.2l-.3.2s0,0,0,0l-.3.2c-.6-.2-.8.5-1.4.6.2,0,.4-.1.3-.2-.1,0-.3,0-.3.2h0c0,0-1,.6-1,.6,0-.2.6-.4.3-.4-.2-.1-.4.2-.6.3,0,0,.4,0,.1.3,0,0-.4,0-.3-.2-.3.2-.8.5-1.1.8-.1,0,0-.1,0-.1h0c.2-.1,0-.3.4-.3,0-.4-.6.1-1,.2l.5-.4c-1.2-.2-2.4.7-3.4,1,.3,0,.5-.1.6.1-.6.3-.5.2-1.2.4h0c-.4,0-.7.3-1,0,.1-.2.5,0,.4-.3l-.8.2c.2-.2.8-.2,1.1-.3.2,0-.4.1-.3.3.7-.2.9-.4,1.2-.8.2-.3-.4-.1-.5-.1-.4.4-1,.8-1.8.8h-.4c-.3.1,0,.5-.8.6l.2-.2c-.2,0-.3,0-.3,0,.3-.2.5-.4.8-.6-.4-.3-1,.4-1.6.6,0,0,.2-.1.3-.2-.8,0-1.6.6-2.3.8-.3-.1.5-.2.4-.4-.3.1-.7,0-.8.2.1-.3-.8,0-.2-.3-1.2,0-2.6.4-3.8.6,0,0,0-.2,0-.2.4,0,1-.1,1.3-.4-.3-.1-.6.3-.7.2.1,0,.4,0,.4-.3-.4-.2-.6,0-.8.1h.1c-.8.3-.4.6-1.3.6-.3-.2,0-.2,0-.4-.2,0-.8-.2-1,0h.5c-.4,0-.7,0-.9.2,0,0,0-.1.1-.1-.3,0-.6,0-.8.2v-.3c0,.1.6.1.7,0,0-.2-.6,0-.8-.1,1,0,1-.4,1.8-.3h-.1c.5.3,1,0,1.5,0-.1,0-.2-.1-.1-.2,1,.2,2,0,3.1,0l.3-.3v.2c.6,0,.1-.3.5-.3-.1,0-.1,0-.1,0,.6-.3.4.1.7,0-.1.2-.7.2-.5.4.6-.3,1.6-.3,1.6-.8,1.2,0,2.6-.6,3.6-.8.1,0,0,0,0,.1.3-.4,1.3-.1,1.3-.4.2,0,.3.2.4.2.2-.2.5-.3.8-.4h-.2c0,.1,0,.1,0,.1l.3-.2h0c.8-.3,1.7-.5,2.3-1-.4.3.2.2,0,.4.2-.5,1.1-.7,1.8-1,0,0,0,.1,0,.2l.3-.3h0c.7,0,1.3-.8,1.8-.8-.3.2-.2.2-.2.4.3-.1.5-.2.7-.3.3-.1.5-.3.8-.4,0,0,0,0,0,0,.2,0,.3-.2.5-.3v.2c.4-.2.8-.3,1.1-.6.2.1.8-.6,1.2-.6.1-.1-.3.3.2.2,0-.4.6-.2.5-.6h.5v-.2c.5.3.5-.4,1-.4,0,0,0,0,0,.1.1-.1.5-.3.2-.3.3,0,1.2-.5.8-.1,0-.1-.4.1-.5.2,0,.2.5,0,.6.1,0,0,0,0,0-.1h0c.5-.3,1-.3,1.3-.6,0,0,.1,0,.3,0v-.2c0,0,.5-.1.5-.1l-.2.4c.6,0,1-.6,1.5-.8.2.4,1-.3,1.5,0l-.4.2c.8-.2,1,0,1.8-.3-.7,0-.7,0-1.7,0,1,0,1.7-.6,2.6-.4,0,.1-.3.2,0,.3.2-.2.9,0,.7-.3.3,0,.4.3.6.3l.9-.4h0c1.7.5,3.1-.5,4.7-.2h0c0,.1.4,0,.4,0-.3.1.1.2.2.3.4,0,.7-.2,1.1-.2,0,.1,0,.4-.3.3h0ZM81.3,26.9h-.2c0,0-.1,0-.1.1h.1c.1,0,.3,0,.2-.1ZM60.2,34.3h.4c0,0-.3,0-.3,0,0,0-.2,0-.1.1h0ZM81.7,28.4h.2c0,.1.1,0,.1,0h-.3c0,0,0,0,0,0ZM85,27.7l-.3.2h0s.3-.1.3-.1h0s0,0,0,0ZM88.6,25.8s0,0,0,0c0,0,0,0,0,0,.3-.1.4.1.6-.2-.3-.2-.4,0-.6.2ZM82.6,26.9c-.1,0-.2,0-.2,0,0-.1.2-.3,0-.3,0,.1-.5.3-.4.4.3-.3.6.1.6-.2ZM74.6,29.8l.3-.2h0l-.2.2ZM73.2,30.3c-.3.1-.6.4-.4.6.3-.2.7-.3.8-.6-.1.2,0-.3-.4,0h0ZM85.3,26.6v.2c0,0,0,0,0,0l-.3.2c.5.1.7-.3.9-.4-.2,0-.7.5-.6.1h0ZM70.5,31.7c-.1,0-.5.3-.4.6,0-.1.4-.4.6-.7,0,0-.1.1-.2.1ZM70.9,32c.4-.3.4-.4.6-.8-.4,0-.4.4-.3.5-.3.2-.3,0-.4,0,0,0,.2.2.2.2ZM71.1,31.2h.2c.2,0,.4.3.6-.1h-.6c0,0-.1,0-.2.1ZM67.5,32.4h.1c-.2,0-.2,0-.1,0h-.1c.4,0,.2,0,.1,0ZM70.7,31.4l-.5.2c.2,0,.5,0,.5-.2ZM67.7,32.6c.2,0,.8-.2.7-.2,0-.1-.6,0-.7.2ZM56.3,35.2h.3s-.2-.2-.2-.2l-.2.2h0ZM60.2,34.9h0c0,0-.2,0-.2,0h.3s0,0,0,0ZM63.8,34.2s0,0,0-.1c0,0,0,0,.1-.1,0,0,0,0-.1.1-.1,0-.3.1-.5,0,0-.1.3-.1.3-.2-.4-.1-1,.7-.9,0-.1.1-.6.4-.4.4.4-.1,1.1-.2,1.4-.1,0,0,0,0,.1,0,0,0,0,0-.1,0h0ZM68.6,33c.1,0,.2,0,.2-.1,0,0,.2-.2.1-.3-.3.2,0,.2-.1.3,0,0-.1,0-.2.1ZM69.4,32.8l-.4.3.2-.2-.6.5c.4,0,.8-.3.8-.5ZM69.6,32.8v-.2s0,.2,0,.2h0s.7-.3.7-.3l-.7.3h0ZM75.9,29.9h.3c0-.1-.3.2-.6.3.5.3.1-.1.8-.2-.7.3-.3.4-.2.6,0-.3,1-.5.5-.9-.2.2-.7-.1-.8.3ZM80.5,28.5l.4-.2h-.5c0,.1,0,.2,0,.2ZM92,26.8c0,.1.6.4.7.1-.3,0-.6,0-.7-.1ZM97.1,27c-.2,0-.4,0-.5,0,0,.3.5,0,.7.1.1-.1-.1,0-.2-.2ZM100.4,27.8l.2-.2h-.2v.2h0ZM99.8,28c0,0,.4,0,.4,0h-.4ZM103.1,28.7l-.3.2h.2c0,0,0-.2,0-.2h0ZM103,28.5c0,0-.1,0-.2.1-.1,0-.3,0-.5-.1,0-.1.2,0,.3,0,0,0-.2-.2-.4-.2.1.3,0,.2,0,.4.4.3.5,0,.6-.1,0,0,.1,0,.2-.1h0ZM101.1,27.9s-.1,0-.1-.1h0c0,.1.1.1.2.1,0,0,.1,0,.2.1,0,.2-.3.2-.5.3.2,0,.3-.1.5,0,0,0,0,0-.2,0h.3c.4,0,0-.2-.2-.3,0,0,0,0,0-.1,0,0-.1,0-.2,0h0ZM103.6,28.2h-.2c-.1,0,0,.1-.1.1.2,0,.5,0,.3-.1h0ZM93.6,26.5c.1,0-.2.2-.4.2v.2c.1-.2.6-.1.7-.1,0-.2-.1-.1-.3-.3h0ZM82,27.8c0,.3-.7.3-.8.4.3,0,1.1-.2.8-.4ZM80.9,28c-.2,0-.2,0-.2.2,0,0-.2,0-.3.1.4,0,.3-.2.4-.3,0,0,0,0,.2,0,0,0-.1,0-.2,0h0ZM88.2,26.3h-.4s-.2.3-.2.3l.6-.3ZM91.7,25.9h-.3c0,0,.1,0,.1,0,0,0,0,.1,0,.2,0,0-.1,0-.1,0,0,0,.1,0,.1,0,.2,0,.5,0,.5-.2,0,0-.5,0-.5,0h.2ZM98.6,26.2c.2.2.3.1.4.1,0,0-.3-.1-.4-.1ZM89.4,25.9c.4,0-.2.3.1.3h-.2c.4.1.3-.2.5-.2h-.2c-.1-.2.3-.1.3-.3-.2,0-.7,0-.5.1ZM99,26.2c.4.2.4-.1.6,0-.3-.2-.3,0-.6,0ZM92.5,25.2h0s-.4,0-.4,0h0s.4,0,.4,0Z"/>
  <path class="st3" d="M99.2,27.9c0,0,.2,0,.2,0,0,0-.1,0-.2,0Z"/>
  <path class="st3" d="M80.2,29.4s0,0-.1,0c0,0,0,0,.1,0Z"/>
  <polygon class="st3" points="79.5 29.7 79.5 29.7 79.4 29.8 79.5 29.7"/>
  <path class="st3" d="M51.8,36c-.2.2.2,0,.3,0-.1,0-.2-.1-.3,0Z"/>
  <path class="st3" d="M52.9,35.7c0,0-.2,0-.3.1,0,0,.2,0,.3-.1Z"/>
  <path class="st3" d="M52,35.8c.2,0,.4,0,.6,0-.1,0-.3,0-.6,0Z"/>
  <path class="st3" d="M55.9,35.6c-.2.1-.5.1-.5.1.7,0-.1.3-.2.3.4,0,.4-.2.7-.4Z"/>
  <path class="st3" d="M56.8,35.5h-.2c0,0,.1,0,.2,0Z"/>
  <path class="st3" d="M57.1,35.6c.3,0,.3-.2.4-.3-.3,0-.5.2-.7.2.2,0,.4,0,.3,0Z"/>
  <path class="st3" d="M65,34.8s-.2,0-.2.1h.4c.2-.2-.2-.1-.2-.1Z"/>
  <path class="st3" d="M66.4,34.1c.3-.1.2.1.4,0v-.3c0,0-.4.2-.4.2Z"/>
  <polygon class="st3" points="65.9 32.8 65.8 32.9 65.9 32.8 65.9 32.8"/>
  <path class="st3" d="M68,33.9v.4c.1-.2,0-.4,0-.4Z"/>
  <polygon class="st3" points="69.3 33.7 69.2 33.8 69.8 33.5 69.3 33.7"/>
  <polygon class="st3" points="70.8 33 70.9 33.1 71.2 32.9 70.8 33"/>
  <path class="st3" d="M86.6,27.6c0-.3-.6,0-.8,0,.2.3.5-.2.8,0Z"/>
  <path class="st3" d="M98.7,27.7h-.6c.5.1.1,0,.6,0Z"/>
  <path class="st1" d="M105.8,28.6s12.2-3.7,15.8-6.2c0,0,1.1-2.6,1.1-4.1l-1.6.8s.9,0,.5.6c0,0-.8,3.4-7.8,5.6l-2.8.8s-1.1.2,0-.6l7.5-5.2s-12.7,8.3-12.7,8.3Z"/>
  <path class="st1" d="M121.4,17.3l-1.7-.5s-.8-.4-1.7.4c0,0-8.6,6.7-11.9,10.7,0,0,10.2-9.6,13.1-10.5,0,0,1.7-.2,2.1,0v-.2c0,0,0,0,0,0Z"/>
  <path class="st1" d="M120.6,18.7s.3-.7,1-1c0,0,.4,0-.2-1,0,0-1-1.5-.8-2,0,0,.7,1.8,1.2,2.2,0,0,.6.6,0,1,0,0-.6.1-1.2.8h0Z"/>
  <path class="st1" d="M121,18.9s1.2-.7,1.4-.8c0,0,.5-.1.2-.8,0,0,0,0,0,0-.4-.8-.9-1.7-.9-1.7,0,0-.4,0-.5-.1,0,0,1.2,2,1.1,2.3,0,0-.5.7-1.3,1.2Z"/>
  <path class="st1" d="M120.7,13.5s-.5.7.2,1.2c0,0,.7.8,1.4.2l1.8-1.6s-.7,0-1-.4l-1.4,1.4s-.6.5-.8-.3v-.4c0,0,0,0,0,0Z"/>
  <path class="st1" d="M122.6,11.4s0,1.5,1.8,1.7c0,0,6.2-4.7,6.5-6.5,0,0,0-1.7-1.9-1.4,0,0-3.7,2.8-6.1,6,0,0,0,.2.3,0,0,0,4.4-4.7,5.6-5.3,0,0,.4-.6.9-.2,0,0,.4.5,0,1,0,0-3.4,3.8-5.3,5.2,0,0-.8,1.2-1.7-.3h0Z"/>
  <path d="M105.8,28.6s12.2-3.7,15.8-6.2c0,0,1.1-2.6,1.1-4.1l-1.6.8s.9,0,.5.6c0,0-.8,3.4-7.8,5.6l-2.8.8s-1.1.2,0-.6l7.5-5.2s-12.7,8.3-12.7,8.3Z"/>
  <path d="M121.4,17.3l-1.7-.5s-.8-.4-1.7.4c0,0-8.6,6.7-11.9,10.7,0,0,10.2-9.6,13.1-10.5,0,0,1.7-.2,2.1,0v-.2c0,0,0,0,0,0Z"/>
  <path d="M120.6,18.7s.3-.7,1-1c0,0,.4,0-.2-1,0,0-1-1.5-.8-2,0,0,.7,1.8,1.2,2.2,0,0,.6.6,0,1,0,0-.6.1-1.2.8h0Z"/>
  <path d="M121,18.9s1.2-.7,1.4-.8c0,0,.5-.1.2-.8,0,0,0,0,0,0-.4-.8-.9-1.7-.9-1.7,0,0-.4,0-.5-.1,0,0,1.2,2,1.1,2.3,0,0-.5.7-1.3,1.2Z"/>
  <path d="M120.7,13.5s-.5.7.2,1.2c0,0,.7.8,1.4.2l1.8-1.6s-.7,0-1-.4l-1.4,1.4s-.6.5-.8-.3v-.4c0,0,0,0,0,0Z"/>
  <path d="M122.6,11.4s0,1.5,1.8,1.7c0,0,6.2-4.7,6.5-6.5,0,0,0-1.7-1.9-1.4,0,0-3.7,2.8-6.1,6,0,0,0,.2.3,0,0,0,4.4-4.7,5.6-5.3,0,0,.4-.6.9-.2,0,0,.4.5,0,1,0,0-3.4,3.8-5.3,5.2,0,0-.8,1.2-1.7-.3h0Z"/>
  <path class="st0" d="M105.8,28.6s12.2-3.7,15.8-6.2c0,0,1.1-2.6,1.1-4.1l-1.6.8s.9,0,.5.6c0,0-.8,3.4-7.8,5.6l-2.8.8s-1.1.2,0-.6l7.5-5.2s-12.7,8.3-12.7,8.3Z"/>
  <path class="st2" d="M121.4,17.3l-1.7-.5s-.8-.4-1.7.4c0,0-8.6,6.7-11.9,10.7,0,0-.3.7-.3.7.7-.3,2.5-2,4.2-2.1.8,0,3.3-.7,5.6-1.8,2.4-1.1,4.7-2.6,5.7-3.6,0,0,.6-1,.5-1.8,0-.3.8-.8.7-1.1-.3-.7-1.3-1-1.3-1h0Z"/>
  <path class="st0" d="M120.6,18.7s.3-.7,1-1c0,0,.4,0-.2-1,0,0-1-1.5-.8-2,0,0,.7,1.8,1.2,2.2,0,0,.6.6,0,1,0,0-.6.1-1.2.8h0Z"/>
  <path class="st0" d="M121,18.9s1.2-.7,1.4-.8c0,0,.5-.1.2-.8,0,0,0,0,0,0-.4-.8-.9-1.7-.9-1.7,0,0-.4,0-.5-.1,0,0,1.2,2,1.1,2.3,0,0-.5.7-1.3,1.2Z"/>
  <path class="st0" d="M120.7,13.5s-.5.7.2,1.2c0,0,.7.8,1.4.2l1.8-1.6s-.7,0-1-.4l-1.4,1.4s-.6.5-.8-.3v-.4c0,0,0,0,0,0Z"/>
  <path class="st0" d="M122.6,11.4s0,1.5,1.8,1.7c0,0,6.2-4.7,6.5-6.5,0,0,0-1.7-1.9-1.4,0,0-3.7,2.8-6.1,6,0,0,0,.2.3,0,0,0,4.4-4.7,5.6-5.3,0,0,.4-.6.9-.2,0,0,.4.5,0,1,0,0-3.4,3.8-5.3,5.2,0,0-.8,1.2-1.7-.3h0Z"/>
  <path d="M105.8,28.6s12.2-3.7,15.8-6.2c0,0,1.1-2.6,1.1-4.1l-1.6.8s.9,0,.5.6c0,0-.8,3.4-7.8,5.6l-2.8.8s-1.1.2,0-.6l7.5-5.2s-12.7,8.3-12.7,8.3Z"/>
  <path d="M121.4,17.3l-1.7-.5s-.8-.4-1.7.4c0,0-8.6,6.7-11.9,10.7,0,0,10.2-9.6,13.1-10.5,0,0,1.7-.2,2.1,0v-.2c0,0,0,0,0,0Z"/>
  <path d="M120.6,18.7s.3-.7,1-1c0,0,.4,0-.2-1,0,0-1-1.5-.8-2,0,0,.7,1.8,1.2,2.2,0,0,.6.6,0,1,0,0-.6.1-1.2.8h0Z"/>
  <path d="M121,18.9s1.2-.7,1.4-.8c0,0,.5-.1.2-.8,0,0,0,0,0,0-.4-.8-.9-1.7-.9-1.7,0,0-.4,0-.5-.1,0,0,1.2,2,1.1,2.3,0,0-.5.7-1.3,1.2Z"/>
  <path d="M120.7,13.5s-.5.7.2,1.2c0,0,.7.8,1.4.2l1.8-1.6s-.7,0-1-.4l-1.4,1.4s-.6.5-.8-.3v-.4c0,0,0,0,0,0Z"/>
  <path d="M122.6,11.4s0,1.5,1.8,1.7c0,0,6.2-4.7,6.5-6.5,0,0,0-1.7-1.9-1.4,0,0-3.7,2.8-6.1,6,0,0,0,.2.3,0,0,0,4.4-4.7,5.6-5.3,0,0,.4-.6.9-.2,0,0,.4.5,0,1,0,0-3.4,3.8-5.3,5.2,0,0-.8,1.2-1.7-.3h0Z"/>
  <path d="M50.3,35.6h-.1c.1,0,.2,0,.1,0Z"/>
  <path d="M48.8,35.6c.4,0,1,0,1.4,0-.3,0-1.2-.2-1.4,0Z"/>
  <path d="M50.4,35.3h-.5c.3.1.2,0,.5,0Z"/>
  <polygon points="50.2 35.4 50.2 35.5 50.4 35.5 50.2 35.4"/>
  <path d="M74.3,31.4s0,0,0,.1h0Z"/>
  <path d="M75.1,30.7c0,0,.2,0,.2-.1,0,0-.1,0-.2.1Z"/>
  <path d="M73.3,31.8h.2c0,0-.1,0-.2,0Z"/>
  <path d="M61.3,35c-.2,0-.3.2-.5.2.4,0,.4-.1.5-.2Z"/>
  <path d="M79.6,27.8h0s0,0,0,0Z"/>
  <path d="M75,29.7s0,0,0,0c0,0,0,0,0,0,0,0-.1,0-.1,0Z"/>
  <path d="M72.5,32h-.1c0,0,.1,0,.1,0h0Z"/>
  <path d="M81.1,27.3s.1-.1.2-.2c-.1,0-.2.1-.2.2Z"/>
  <path d="M75.4,30.6h0,0Z"/>
  <path d="M73.5,30.4c0,0,.1,0,.2-.1-.1,0-.2,0-.2.1Z"/>
  <path d="M61.3,35s0,0,.1,0c0,0-.1,0-.1,0Z"/>
  <path d="M51.5,35.8c.2,0,.2,0,.2,0,0,0-.2,0-.2,0Z"/>
  <path d="M105.8,29.7h0s0,0,0,0Z"/>
  <path d="M100.2,28s0,0,0,0c0,0,0,0,0,0Z"/>
  <path d="M95,25.8c.4.1.8,0,1.2,0h-.1c0,0,.4,0,.4,0h0c.6.1,1.3.3,1.5.2v.2c0,0,.5,0,.5,0h-.4c.7.2,1.7.3,1.9.3h0c.1.1.2,0,.3,0h-.1c1,.3,1.2.5,2.4.8.3.1-.2,0-.2,0,.1.1.6.1.6.1-.1.1-.6,0-.3.1.3,0-.2,0,.2.2h.2c.2,0,0,0,.4.1.5,0-.5-.4.3-.2.4.1.6.7,1.3.8.5.3-.4.1.4.4h-.5c.1,0,0,0,.3.2.1,0,.4,0,.6,0-.8-.2.5.5-.2.3h.2c0,.1,0,.1,0,.1l.3.2c-.2,0-.7-.3-.5,0l.4.3c-.2,0,0,.1,0,.2-.4-.1-.9-.3-1.4-.4,0,0,.3,0,.2,0-.3-.2-.3,0-.7-.2h.2s0,0,0,0c.1,0,.2,0,.2,0,0-.1-.5-.2-.6-.2-.4-.2,0-.2-.1-.3-.3,0-.8-.3-1.1-.3h.2c-.3-.3-.7-.3-.9-.3h.1c-.5-.2-.7-.6-1.2-.3h0c-.2-.1-.5-.3-.7-.2,0,0,0,0-.1-.1-.1.1-.3,0-.6-.1.2,0,.2-.2.4-.2-.4-.3-.5,0-.9,0-.2-.1.2,0,.3,0-.6,0-1.2-.6-1.7-.3h.3c-.3.2-.4.1-.4.1,0,0,.1,0,.1,0-.7-.3-1.2.1-2,0,0,0,.2,0,.2-.1-.4,0-.4.3-.9.1h.1c-.2-.1-.3,0-.3,0,0-.3-1.2,0-1.6-.4-.3.1-1.1.2-1.3.2-.4-.2.3-.2.2-.4-.3,0-.4.2-.8.1,0,.2.8.3,0,.4h-.1c0,0,.2,0,.3,0,.2-.1-.1-.1-.2-.1h-.8c0,.3.4.2.5.2-.7,0-1.5-.2-2.1,0h0c-.8.2-.5-.3-1.1,0-.3,0,0-.2-.4-.1-.1,0,0,0,0,0-.6.1-.3-.1-.8,0v-.2c-.6.2-1.2.7-1.8.7,0-.1.4-.2.5-.3-.7.4-1.9.4-2.5.7.2,0-.3.4.2.3,0-.2.3-.1.5-.2-.3.5-1.7.3-1.7.6h-.1c-.1,0-.3.1-.1.1h-.8c.2,0,.8-.4,1-.3.2-.2-.3,0-.2-.2-.5.4-.3,0-.9.2.3.1-.5.4-.4.5-.2,0-.5.3-.7.4-.3.1-1,.2-1.5.5.2-.1.4-.3.4-.4-.2.2-.5.2-.6.1.8-.6.4.2,1.1-.2.1-.2.3-.3.7-.5-.2,0-.1,0-.3-.2-.4.5-1.3.5-1.9.9-.2.2,0,.3-.5.6h.6c-.6,0,0,0-.6.3v-.2c-.1,0-.3.1-.4.3l.2-.3c-.2,0-.4.1-.4.3,0,0,0,0,0,0,0,0,0,0-.3.2,0,0,.2,0,.2-.1-.7.3-.2-.1-.6,0,0,0,0,0-.3,0,.1.3-.7.6-.9.9h0l-.5.3c.1,0,0,0-.2,0h0c-.2,0,0-.4-.4,0l-.3.2s0,0,0,0l-.3.2c-.6,0-.8.5-1.4.6.2,0,.4-.1.3-.2-.1,0-.3,0-.3.2h0s-1,.5-1,.5c0-.1.6-.3.3-.3-.2,0-.4.2-.6.2,0,0,.4,0,0,.2,0,0-.4,0-.3,0-.3.2-.8.4-1.1.6-.1,0,0,0,0-.1h0c.2,0,0-.2.4-.3,0-.2-.6.1-1,.2l.6-.3c-1.1,0-2.4.7-3.4,1,.3,0,.5-.1.6,0-.6.3-.5.2-1.2.4h0c-.3,0-.8.3-1,.1.1-.1.5,0,.4-.2l-.8.2c.2-.2.8-.2,1.1-.3.2,0-.4.1-.3.2.7-.2.9-.4,1.2-.6.2-.2-.4,0-.5,0-.4.3-1.1.6-1.9.7h-.4c-.3.2-.1.4-.8.5l.2-.2h-.3c.3-.1.6-.3.8-.4-.4-.1-1.1.3-1.6.5,0,0,.2,0,.3-.1-.8,0-1.7.5-2.3.6-.3,0,.5-.1.4-.3-.3.1-.7,0-.8.2.1-.2-.8,0-.2-.2-1.2,0-2.6.4-3.8.5,0,0,0-.1,0-.2.4,0,1,0,1.3-.3-.3,0-.6.2-.7.1.1,0,.4,0,.4-.2-.4-.1-.6,0-.8.1h.1c-.8.2-.4.4-1.3.4-.3-.1,0-.1,0-.3-.2,0-.8-.1-1,0h.5c-.4,0-.7,0-.9.1,0,0,0,0,.1,0-.3,0-.6,0-.8.1v-.2c0,0,.6,0,.7,0,0-.1-.6,0-.8,0,1,0,1-.3,1.8-.2h-.1c.5.2,1,0,1.5,0-.1,0-.2,0-.1-.1,1,.1,2,0,3.1-.1l.3-.2h0c.6,0,0,0,.4-.1-.1,0-.1,0-.1,0,.6-.2.4,0,.7,0-.2.2-.7.1-.5.3.6-.2,1.6-.3,1.7-.6,1.2,0,2.6-.6,3.6-.8.1,0,0,0,0,0,.3-.3,1.3-.2,1.3-.4.2,0,.3,0,.4.1.2-.1.5-.3.8-.4h-.2c0,.1,0,.1,0,.1h.3c0-.1,0-.1,0-.1.8-.3,1.7-.5,2.3-.9-.4.2.2.1,0,.3.3-.4,1.1-.6,1.8-.8,0,0,0,0,0,.1l.4-.2h0c.7-.1,1.4-.7,1.9-.8-.3.1-.3.2-.3.3.5-.2.9-.4,1.5-.7,0,0,0,0,0,0,.2,0,.3-.2.5-.3h0c.3,0,.7-.2,1-.4.2,0,.8-.5,1.3-.6.1,0-.3.3.2,0,0-.3.6-.2.5-.5h.4s0-.2,0-.2c.4.1.5-.3,1-.4,0,0,0,0,0,0,.2,0,.5-.2.2-.2.3,0,1.2-.5.8-.2,0,0-.4.1-.5.2,0,.1.4,0,.6,0,0,0,0,0,0,0h0c.5-.2,1-.3,1.4-.5,0,0,.1,0,.3,0v-.2s.5-.1.5-.1l-.2.3c.6-.1,1-.5,1.5-.6.2.2,1-.3,1.5-.1h-.4c.8,0,1,0,1.8-.2-.7,0-.7,0-1.7,0,1,0,1.7-.5,2.6-.4,0,0-.3.1,0,.2.2-.2.9,0,.7-.2.3,0,.4.2.5.2l.9-.3h0c1.6.3,3-.4,4.7-.2h0c0,0,.4,0,.4,0-.3,0,.1.1.2.2.4,0,.7,0,1.1-.1,0,0,0,.2-.3.2h0ZM81.4,27.3h-.2c0,0-.1,0-.1.1h.1c.1,0,.2,0,.2-.1ZM60.2,34.5h.4c0,0-.4,0-.3,0,0,0-.2,0-.1,0h0ZM81.7,28.3h.2c0,0,.1,0,.1,0h-.3ZM85,27.5h-.3c0,.1,0,.1,0,.1h.3c0-.1,0-.1,0-.1h0ZM88.7,26.2s0,0,0,0c0,0,0,0,0,0,.3-.1.4,0,.6-.1-.3-.1-.4,0-.6.1ZM82.6,27.2c-.1,0-.2,0-.3,0,0,0,.3-.2,0-.2,0,.1-.5.2-.4.3.3-.2.6,0,.6-.2h0ZM74.7,30l.3-.2h0s-.2.2-.2.2h0ZM73.3,30.6c-.3.1-.6.4-.4.5.3-.1.7-.3.8-.5-.1.1,0-.2-.3,0ZM85.3,26.8h0c0,.1,0,.1,0,.1h-.3c.5.2.7-.1,1-.2-.2,0-.7.4-.6.1h0ZM70.5,31.9c-.1,0-.5.3-.4.4,0,0,.4-.4.7-.5,0,0-.1,0-.2.1h0ZM70.9,32.1c.4-.2.4-.3.7-.6-.4,0-.5.3-.4.4-.3.2-.3,0-.4,0,0,0,.1,0,.1,0ZM71.2,31.5h.2c.2,0,.3.1.6-.2h-.6c0,.1-.1.1-.2.2ZM67.6,32.7h.2c-.2,0-.2,0-.2,0h-.1c.4,0,.2,0,.1,0ZM70.8,31.6l-.5.2c.2,0,.5-.1.5-.2ZM67.7,32.8c.2,0,.8-.2.7-.2,0,0-.6.1-.7.2ZM56.3,35.3h.3s-.2-.1-.2-.1h-.2c0,.1,0,.1,0,.1ZM60.2,34.9h0c0,0-.2,0-.2,0h.3ZM63.8,34.2s0,0,0,0c0,0,0,0,.1,0,0,0,0,0-.1,0-.1,0-.4.1-.4,0,0,0,.3-.1.3-.2-.4,0-1,.5-.9,0-.1,0-.6.3-.4.3.4-.1,1.1-.2,1.4-.2,0,0,0,0,.1,0,0,0,0,0-.1,0h0ZM68.6,33c.1,0,.2,0,.2-.1.1,0,.2-.1.1-.2-.3.1,0,.1-.1.2,0,0-.1,0-.2.1ZM69.4,32.7l-.4.2.2-.2-.6.4c.4,0,.8-.3.8-.4h0ZM69.6,32.8h0c0-.1-.1,0-.1,0h0l.7-.3-.7.3h0ZM75.9,29.9h.3c0-.1-.4.1-.6.2.5.1.1-.1.7-.3-.7.3-.3.3-.3.4,0-.2,1-.5.6-.7-.2.1-.7,0-.8.3h0ZM80.5,28.5h.4c0-.1-.5,0-.5,0h0ZM92,26.7c0,0,.6.2.7,0-.3,0-.6,0-.7,0ZM97.1,27c-.2,0-.4,0-.5,0,0,.2.5,0,.7.1,0,0-.1,0-.2-.1h0ZM100.5,27.7h.2c0-.1-.2-.1-.2-.1,0,0,0,.1,0,.1ZM99.9,27.8c0,0,.4,0,.4,0h-.4ZM103.2,28.6h-.2c0,0,.2.2.2.2v-.2s0,0,0,0ZM103,28.4c0,0-.1,0-.1,0-.1,0-.3,0-.5-.1,0,0,.2,0,.3,0,0,0-.2-.1-.4-.1.1.2,0,.2,0,.3.5.2.5,0,.6,0,0,0,.1,0,.1,0h0ZM101.1,27.8s-.1,0-.1,0h0c0,0,.1.1.2,0h.2c0,.2-.3.2-.4.2.2,0,.3,0,.5,0,0,0,0,0-.1,0h.3c.4,0,0,0-.2-.2,0,0,0,0,0,0,0,0-.1,0-.2,0ZM103.6,28.3h-.2c0,0,0,0,0,0,.2,0,.5,0,.3,0ZM93.6,26.5c.1,0-.1.2-.4.1v.2c.1-.1.6,0,.7,0,0-.1-.1,0-.3-.2h0ZM82,27.9c0,.2-.7.3-.8.4.3,0,1.1-.2.8-.4ZM80.9,28.1c-.2,0-.2,0-.2.1,0,0-.2,0-.3.1.4,0,.3-.2.5-.2,0,0,0,0,.2,0,0,0-.1,0-.2,0ZM88.2,26.5h-.4s-.2.2-.2.2l.6-.2ZM91.7,26.1h-.3s.1,0,.1,0c0,0,0,0,0,.1,0,0,0,0-.1,0,0,0,.1,0,.1,0,.2,0,.5,0,.5-.1,0,0-.5,0-.5,0h.2s0,0,0,0ZM98.5,26.5c.2.1.3,0,.4,0,0,0-.3,0-.4,0ZM89.4,26.1c.4,0-.2.2,0,.2h-.2c.4,0,.3-.1.5-.1h-.2c-.1-.1.3,0,.3-.2-.2,0-.7,0-.5,0h0ZM98.9,26.5c.4.2.4,0,.6,0-.3-.2-.3,0-.6,0ZM92.5,25.7h0s-.3,0-.3,0h0s.3,0,.3,0Z"/>
  <path d="M99.3,27.7c0,0,.2,0,.2,0,0,0-.1,0-.2,0Z"/>
  <path d="M80.1,29.1s0,0-.1,0c0,0,0,0,.1,0Z"/>
  <polygon points="79.4 29.4 79.4 29.4 79.3 29.5 79.4 29.4"/>
  <path d="M51.8,35.9c-.2.1.2,0,.3,0-.1,0-.2,0-.3,0Z"/>
  <path d="M52.9,35.7c0,0-.2,0-.3,0,0,0,.2,0,.3,0Z"/>
  <path d="M52,35.7c.2,0,.4,0,.6,0-.1,0-.3,0-.6,0Z"/>
  <path d="M55.9,35.6c-.2,0-.5,0-.5,0,.7,0-.1.2-.2.2.4,0,.4-.2.7-.3Z"/>
  <path d="M56.8,35.5h-.2c0,0,.1,0,.2,0Z"/>
  <path d="M57.1,35.5c.3,0,.3-.1.4-.2-.3,0-.5.1-.7.2.2,0,.4,0,.3,0Z"/>
  <path d="M64.9,34.6s-.2,0-.2.1h.4c.2-.2-.1-.1-.2,0h0Z"/>
  <path d="M66.3,33.9c.3,0,.2,0,.3,0v-.2c0,0-.3.2-.3.2h0Z"/>
  <polygon points="65.9 33.1 65.8 33.1 65.9 33.1 65.9 33.1"/>
  <path d="M68,33.6l-.2.3c.3-.1.2-.3.2-.3Z"/>
  <polygon points="69.3 33.4 69.1 33.5 69.7 33.2 69.3 33.4"/>
  <polygon points="70.7 32.8 70.8 32.8 71.2 32.6 70.7 32.8"/>
  <path d="M86.6,27.4c0-.2-.6,0-.8,0,.2.2.5-.2.8,0Z"/>
  <path d="M98.7,27.5h-.6c.5,0,.1,0,.6,0Z"/>
</svg>