<?xml version="1.0" encoding="UTF-8"?>
<svg id="Layer_1" xmlns="http://www.w3.org/2000/svg" version="1.1" viewBox="0 0 200 50">
  <!-- Generator: Adobe Illustrator 29.6.1, SVG Export Plug-In . SVG Version: 2.1.1 Build 9)  -->
  <defs>
    <style>
      .st0 {
        fill: #231f20;
      }

      .st1 {
        fill: #00aeef;
      }
    </style>
  </defs>
  <polygon class="st0" points="82.2 23.8 82.2 11.7 77.5 22 74.8 22 70 11.7 70 23.8 66.4 23.8 66.4 5.9 70.9 5.9 76.1 16.9 81.4 5.9 85.9 5.9 85.9 23.8 82.2 23.8"/>
  <path class="st0" d="M104.7,16.3c0,4.7-3.1,7.7-8.1,7.7s-8.2-2.9-8.2-7.7V5.9h4.1v10.4c0,2.6,1.7,4.2,4.1,4.2s4-1.6,4-4.2V5.9h4.1v10.4Z"/>
  <path class="st0" d="M120.7,7.6l-1.6,3.4c-1.9-1.1-4.2-1.9-5.6-1.9s-2.3.5-2.3,1.5c0,3.3,9.6,1.5,9.5,7.9,0,3.5-3.1,5.4-7,5.4s-5.9-1.1-7.9-2.9l1.6-3.3c1.9,1.6,4.5,2.7,6.4,2.7s2.7-.6,2.7-1.7c0-3.4-9.6-1.4-9.6-7.8s2.8-5.3,7-5.3,5,.8,6.8,2"/>
  <path class="st0" d="M138,8.7l-2.4,2.9c-1.2-1.4-3-2.3-4.7-2.3-3.1,0-5.5,2.4-5.5,5.5s2.4,5.5,5.5,5.5,3.4-.8,4.7-2.1l2.4,2.6c-1.9,2-4.7,3.2-7.3,3.2-5.4,0-9.4-4-9.4-9.2s4.1-9.1,9.6-9.1,5.3,1.2,7.1,3"/>
  <polygon class="st0" points="151.2 20.3 151.2 23.8 139.4 23.8 139.4 5.9 143.5 5.9 143.5 20.3 151.2 20.3"/>
  <polygon class="st0" points="152.6 5.9 152.6 23.8 166.5 23.8 166.5 20.5 156.6 20.5 156.6 16.5 165.3 16.5 165.3 13.1 156.6 13.1 156.6 9.2 166.3 9.2 166.3 5.9 152.6 5.9"/>
  <path class="st0" d="M74.2,35.8c2.2,0,3.5-1,3.5-3.1s-1.3-3-3.5-3h-3.7v6.1h3.7ZM74.5,39.2h-4.1v5.1h-4.1v-18h7.8c4.7,0,7.4,2.3,7.4,6.2s-1.2,4.8-3.4,5.8l3.8,5.9h-4.6l-2.9-5.1h0Z"/>
  <polygon class="st0" points="83.9 26.3 83.9 44.3 97.9 44.3 97.9 40.9 88 40.9 88 37 96.7 37 96.7 33.6 88 33.6 88 29.7 97.6 29.7 97.6 26.3 83.9 26.3"/>
  <polygon class="st0" points="112.2 26.3 112.2 33.8 104.1 33.8 104.1 26.3 100 26.3 100 44.3 104.1 44.3 104.1 37.2 112.2 37.2 112.2 44.3 116.3 44.3 116.3 26.3 112.2 26.3"/>
  <path class="st0" d="M127,30.6l2.8,7h-5.7l2.9-7h0ZM125,26.3l-7.8,18h4.2l1.4-3.5h8.3l1.4,3.5h4.3l-7.7-18s-4.2,0-4.2,0Z"/>
  <path class="st0" d="M141.8,41h4c1.9,0,3.1-.8,3.1-2.2s-1.2-2.1-3.1-2.1h-4v4.3ZM141.8,33.6h4c1.5,0,2.5-.7,2.5-2s-1-1.9-2.5-1.9h-4v3.9ZM146,26.3c4,0,6.4,1.7,6.4,4.5s-1.2,3.5-3.1,4c2.3.4,3.7,2.2,3.7,4.5s-2.6,5-6.8,5h-8.6v-18h8.3Z"/>
  <path class="st1" d="M59.3,23v3.5c0,6.1-4.9,11.1-11.1,11.1s-11.1-4.9-11.1-11.1v-6.5c0-.6.5-1,1-1s1,.5,1,1v8.6c0,.6.4,1,1,1s1-.4,1-1h0v-.4h0c0-.7.4-1.1,1-1.1s1,.5,1,1v2.8c0,.6.4,1,1,1s1-.4,1-1v-4c0-.6.4-1,1-1s1,.5,1,1v5.6h0c0,.6.4,1.1,1,1.1s1-.4,1-1h0v-12.9h0c0-.7.4-1.1,1-1.1s1,.4,1,1h0v11h0c0,.6.4,1.1,1,1.1s1-.4,1-1h0v-8.8c0-.6.4-1,1-1s1,.4,1,1h0v5.2h0c0,.6.4,1.1,1,1.1s1-.4,1-1h0v-4h0c0-.6.5-1.1,1-1.1s1,.5,1,1M59.3,14.2v4.8c0,.6-.5,1-1,1s-1-.5-1-1h0v-5h0c0-.6.5-1.1,1-1.1s1,.5,1,1v.2ZM55.2,17.3v.3c0,.6-.4,1-1,1s-1-.5-1-1h0v-.7h0c0-.6.4-1.1,1-1.1s1,.5,1,1v.4h0ZM55.2,12.6h0c0,.7-.4,1.1-1,1.1s-1-.5-1-1h0v-.2h0c0-.6.4-1.1,1-1.1s1,.5,1,1v.2h0ZM51.2,14v1.6c0,.6-.4,1-1,1s-1-.5-1-1h0v-2h0c0-.6.4-1.1,1-1.1s1,.5,1,1v.4h0ZM47.2,15.5v7.2c0,.6-.4,1-1,1s-1-.4-1-1h0v-7.3h0c0-.6.4-1.1,1-1.1s1,.4,1,1v.2h0ZM43.2,21v2.9c0,.6-.4,1-1,1s-1-.4-1-1h0v-3.1h0c0-.6.4-1.1,1-1.1s1,.4,1,1v.2h0ZM43.2,13.7v2.9c0,.6-.4,1-1,1s-1-.4-1-1h0v-3.1h0c0-.6.4-1.1,1-1.1s1,.4,1,1v.2h0ZM39.2,14.2v1.7c0,.6-.4,1-1,1s-1-.4-1-1h0v-1.8h0c0-.6.4-1.1,1-1.1s1,.4,1,1v.2h0ZM62.6,41.4V5.8h-29.1v38.3c1.5,0,3.2-.2,5.1-.9,5.4-2.1,10.2,0,10.2,0,0,0,5.1,2.4,9.6,0,2.1-1.1,3.4-1.6,4.2-1.9"/>
  <path class="st0" d="M155.4,27.9v-.7h.4c.3,0,.4.1.4.4s-.2.4-.4.4h-.4ZM156.6,27.5c0-.4-.3-.6-.7-.6h-.7v1.8h.3v-.5h.5l.3.5h.3l-.4-.6c.2,0,.4-.3.4-.6M155.8,29.3c-.8,0-1.5-.7-1.5-1.5s.6-1.5,1.5-1.5,1.5.7,1.5,1.5-.6,1.5-1.5,1.5M155.8,26c-1,0-1.8.8-1.8,1.8s.8,1.8,1.8,1.8,1.8-.8,1.8-1.8-.8-1.8-1.8-1.8"/>
</svg>