<?xml version="1.0" encoding="UTF-8"?>
<svg id="Layer_1" xmlns="http://www.w3.org/2000/svg" version="1.1" viewBox="0 0 200 50">
  <!-- Generator: Adobe Illustrator 29.6.1, SVG Export Plug-In . SVG Version: 2.1.1 Build 9)  -->
  <defs>
    <style>
      .st0, .st1 {
        fill: #897955;
      }

      .st2, .st1 {
        fill-rule: evenodd;
      }

      .st2, .st3 {
        fill: #1a1a1a;
      }

      .st4 {
        fill: none;
        stroke: #897955;
        stroke-miterlimit: 10;
        stroke-width: .8px;
      }
    </style>
  </defs>
  <path class="st2" d="M126,16.1l-4.8-7.6-1,1.2,4,6.3v5.1h8l-3.8-3.2h5.3l4.6-6.2-8.4.3v-1.6h-1.3v3.3l-.5-.5v-1.1h-3.4c0,.1,2.4,4.1,2.4,4.1h-1.1Z"/>
  <path class="st1" d="M135.8,17.5h1.7v1.6h-1.8v-1.6h.1Z"/>
  <path class="st1" d="M137.5,19.2v1.6h-1.8v-1.7h1.8Z"/>
  <path class="st1" d="M137.7,17.5h1.6v1.5h-1.6v-1.6h0Z"/>
  <path class="st1" d="M139.3,19.2v1.5h-1.6v-1.6h1.6Z"/>
  <path class="st1" d="M116.9,15.8h2.5v2.4h-2.5v-2.4h0Z"/>
  <path class="st1" d="M119.4,18.6v2.4h-2.5v-2.5h2.5Z"/>
  <path class="st1" d="M119.8,15.8h2.4v2.3h-2.4v-2.3h0Z"/>
  <path class="st1" d="M122.2,18.4v2.3h-2.4v-2.4h2.4Z"/>
  <polygon class="st1" points="76.5 12.8 80.5 12.8 80.5 16.6 76.5 16.6 76.5 12.8 76.5 12.8"/>
  <polygon class="st1" points="80.5 17.2 80.5 21.1 76.5 21.1 76.5 17.2 80.5 17.2 80.5 17.2"/>
  <polygon class="st1" points="81 12.8 84.8 12.8 84.8 16.6 81 16.6 81 12.8 81 12.8"/>
  <polygon class="st1" points="84.8 17.2 84.8 21.1 81 21.1 81 17.2 84.8 17.2 84.8 17.2"/>
  <polygon class="st2" points="101.5 6.1 103.3 6.1 103.3 8.7 121 6.6 114.6 16.1 106.6 16.3 112.3 21.1 100.1 21.1 79.3 4.6 100.5 9 100.5 10.5 101.5 11.3 101.5 6.1 101.5 6.1"/>
  <polygon class="st2" points="57.5 21.1 79.1 6 80.5 7.1 60.2 21.1 57.5 21.1 57.5 21.1"/>
  <polygon class="st2" points="142.2 17.5 138.8 12.2 138 13.2 140.9 17.5 142.2 17.5 142.2 17.5"/>
  <path class="st3" d="M57.5,36.6v-9.9h3v7.2h3.8v2.6h-6.8Z"/>
  <path class="st3" d="M74.4,36.6l-.3-1.3h-3.8l-.3,1.3h-3.2l3.7-9.9h3.8l3.7,9.9h-3.4ZM72.1,29.4l-1.1,3.4h2.3l-1.1-3.4Z"/>
  <path class="st3" d="M86.1,36.6l-2.2-3.4-.6.7v2.8h-3v-9.9h3v3.7l2.6-3.7h3.7l-3.7,4.6,3.9,5.3h-3.8Z"/>
  <path class="st3" d="M92.5,36.6v-9.9h7.5v2.5h-4.5v1.1h4.4v2.5h-4.4v1.3h4.5v2.5h-7.5Z"/>
  <path class="st3" d="M104.4,32.9c.7.7,1.8,1.3,3.2,1.3s1.2-.2,1.2-.6-.5-.6-1.4-.8c-1.6-.3-4.1-.7-4.1-3.1s1.4-3.2,4.1-3.2,3.1.5,4.1,1.4l-1.6,2.1c-.8-.7-2-1-2.8-1s-.9.2-.9.5c0,.3.3.5,1.5.7,1.6.2,4,.8,4,3s-1.6,3.5-4.3,3.5-3.6-.6-4.6-1.6l1.6-2.2h0v.2Z"/>
  <path class="st3" d="M114.8,36.6v-9.9h3v9.9h-3Z"/>
  <path class="st3" d="M121.6,36.6v-9.9h4.4c3.1,0,5.4,1.7,5.4,4.9s-2.3,4.9-5.4,4.9h-4.5.1ZM124.6,34h1.4c1.5,0,2.4-1.1,2.4-2.3s-.8-2.3-2.4-2.3h-1.5v4.7h.1Z"/>
  <path class="st3" d="M134.8,36.6v-9.9h7.5v2.5h-4.5v1.1h4.4v2.5h-4.4v1.3h4.5v2.5h-7.5Z"/>
  <path class="st0" d="M70.8,45.2v-1.7h-2.2v1.7h-.5v-3.7h.5v1.6h2.2v-1.6h.5v3.7h-.5Z"/>
  <path class="st0" d="M73.9,41.6c1,0,1.8.8,1.8,1.8s-.7,2-1.8,2-1.8-.8-1.8-2,.7-1.8,1.8-1.8ZM73.9,42c-.8,0-1.4.7-1.4,1.5s.6,1.5,1.4,1.5,1.4-.7,1.4-1.5-.6-1.5-1.4-1.5Z"/>
  <path class="st0" d="M79.6,45.2v-3.1l-1.3,3.1h-.2l-1.3-3.1v3.1h-.5v-3.7h.7l1.1,2.8,1.1-2.8h.7v3.7h-.5Z"/>
  <path class="st0" d="M81,45.2v-3.7h2.4v.5h-2v1.1h2v.5h-2v1.3h2v.5h-2.4Z"/>
  <path class="st0" d="M85.9,45.2v-3.7h.5v3.7h-.5Z"/>
  <path class="st0" d="M89.9,45.2l-2.2-3v3h-.5v-3.7h.5l2.1,2.9v-2.9h.5v3.7h-.5.1Z"/>
  <path class="st0" d="M91.3,44.4c.2.2.7.5,1.1.5s.8-.3.8-.7-.5-.6-.9-.7c-.6-.1-1.3-.3-1.3-1s.6-1,1.3-1,1,.2,1.3.5l-.2.3c-.2-.3-.7-.5-1-.5s-.8.2-.8.6.5.5.9.6c.6.1,1.3.3,1.3,1.1s-.3,1-1.4,1-1.2-.2-1.4-.6l.2-.3v.2Z"/>
  <path class="st0" d="M94.6,45.2v-3.7h1.5c.7,0,1.2.5,1.2,1.2s-.5,1.1-1.2,1.1h-1v1.5h-.5ZM96,42h-.9v1.4h.9c.5,0,.7-.3.7-.7s-.3-.7-.7-.7Z"/>
  <path class="st0" d="M97.9,45.2v-3.7h2.4v.5h-2v1.1h2v.5h-2v1.3h2v.5h-2.4Z"/>
  <path class="st0" d="M101,43.5c0-1.1.8-1.8,1.8-1.8s1.1.3,1.4.7l-.3.2c-.2-.3-.6-.6-1-.6-.8,0-1.4.6-1.4,1.5s.6,1.5,1.4,1.5.8-.2,1-.6l.3.2c-.3.5-.8.7-1.4.7-1,0-1.8-.8-1.8-2h0Z"/>
  <path class="st0" d="M105.9,45.2v-3.2h-1.1v-.5h2.8v.5h-1.2v3.2h-.5Z"/>
  <path class="st0" d="M108.3,45.2v-3.7h.5v3.7h-.5Z"/>
  <path class="st0" d="M111.4,41.6c1,0,1.8.8,1.8,1.8s-.7,2-1.8,2-1.8-.8-1.8-2,.7-1.8,1.8-1.8ZM111.4,42c-.8,0-1.4.7-1.4,1.5s.6,1.5,1.4,1.5,1.4-.7,1.4-1.5-.6-1.5-1.4-1.5Z"/>
  <path class="st0" d="M116.6,45.2l-2.2-3v3h-.5v-3.7h.5l2.1,2.9v-2.9h.5v3.7h-.5.1Z"/>
  <path class="st0" d="M118.1,44.4c.2.2.7.5,1.1.5s.8-.3.8-.7-.5-.6-.9-.7c-.6-.1-1.3-.3-1.3-1s.6-1,1.3-1,1,.2,1.3.5l-.2.3c-.2-.3-.7-.5-1-.5s-.8.2-.8.6.5.5.9.6c.6.1,1.3.3,1.3,1.1s-.3,1-1.4,1-1.1-.2-1.4-.6l.2-.3v.2Z"/>
  <path class="st0" d="M122.9,45.2v-3.7h.5v3.2h1.7v.5h-2.2Z"/>
  <path class="st0" d="M125.8,45.2v-3.7h.5v3.2h1.7v.5h-2.2Z"/>
  <path class="st0" d="M128.3,43.5c0-1.1.8-1.8,1.8-1.8s1.2.3,1.4.7l-.3.2c-.2-.3-.6-.6-1-.6-.8,0-1.4.6-1.4,1.5s.6,1.5,1.4,1.5.8-.2,1-.6l.3.2c-.3.5-.8.7-1.4.7-1,0-1.8-.8-1.8-2h0Z"/>
  <line class="st4" x1="57.6" y1="43.4" x2="64.4" y2="43.4"/>
  <line class="st4" x1="135.8" y1="43.4" x2="142.6" y2="43.4"/>
</svg>