<?xml version="1.0" encoding="UTF-8"?>
<svg id="Layer_1" xmlns="http://www.w3.org/2000/svg" version="1.1" viewBox="0 0 200 50">
  <!-- Generator: Adobe Illustrator 29.6.1, SVG Export Plug-In . SVG Version: 2.1.1 Build 9)  -->
  <defs>
    <style>
      .st0 {
        fill: #231f20;
      }

      .st1 {
        fill: #d51f3a;
      }

      .st2 {
        fill: #a3a29f;
      }
    </style>
  </defs>
  <path class="st0" d="M83.5,22.4h-4.1l-4.4-6.3-2.1,2.5v3.8h-3.4V7h3.4v7.1l6.2-7.1h4l-5.7,6.3,6.1,9h0Z"/>
  <path class="st0" d="M85.3,7h3.4v15.3h-3.4V7Z"/>
  <path class="st0" d="M102.4,7h3.2v15.3h-3l-7.3-9.9v9.9h-3.2V7h3l7.3,9.9V7Z"/>
  <path class="st0" d="M116.4,10.1c-.9-.3-1.6-.4-2.2-.4s-1.1,0-1.5.4c-.4.3-.5.5-.5.9s.3.9.8,1.2,1.2.5,2.2.9,1.9.7,2.5.9c.7.3,1.2.8,1.7,1.3.5.7.7,1.5.7,2.5s-.3,1.9-.8,2.5-1.2,1.2-2.1,1.6-1.9.5-3,.5-2.4-.3-3.6-.7-2.2-1.1-3-1.9l1.3-2.9c.8.7,1.6,1.3,2.6,1.7s1.9.7,2.6.7,1.2-.1,1.6-.4.5-.7.5-1.2-.1-.7-.4-.9c-.3-.3-.5-.5-1.1-.7-.4-.1-.9-.4-1.7-.5-1.1-.3-1.9-.5-2.5-.9-.7-.3-1.2-.8-1.7-1.3-.5-.7-.7-1.5-.7-2.4s.3-1.7.8-2.4,1.2-1.2,2-1.6c.9-.4,1.9-.5,3-.5s2,.1,3,.4,1.9.7,2.6,1.2l-1.3,2.9c-.8-.5-1.6-.9-2.5-1.2h.5Z"/>
  <path class="st0" d="M122.6,7h3.8l4.6,9.5,4.6-9.5h3.7v15.3h-3v-10.4l-4.2,8.9h-2.2l-4.2-8.9v10.4h-3V7h0Z"/>
  <path class="st0" d="M142.7,7h11.4v2.9h-8.1v3.3h7.3v2.9h-7.3v3.4h8.3v2.9h-11.6V7.1h0Z"/>
  <path class="st0" d="M167.3,7h3.2v15.3h-3l-7.3-9.9v9.9h-3.2V7h3l7.3,9.9V7h0Z"/>
  <path class="st2" d="M82.3,41.3c-.9.5-1.7.8-2.6,1.1-.9.1-1.9.3-2.9.3s-2.1-.1-3.2-.5-1.7-.9-2.4-1.6-1.2-1.5-1.6-2.5c-.4-.9-.5-2-.5-3.2s.1-2.1.5-3.2c.4-.9.9-1.7,1.6-2.5.7-.7,1.5-1.2,2.4-1.6.9-.4,2-.5,3.2-.5,2.2,0,4,.7,5.3,2.1l-1.1,1.1c-.3-.3-.5-.5-.8-.8s-.7-.4-1.1-.5-.8-.3-1.2-.4c-.4,0-.8-.1-1.2-.1-.9,0-1.9.1-2.6.5s-1.5.8-2,1.3-.9,1.3-1.3,2.1c-.3.8-.4,1.7-.4,2.6s.1,1.7.4,2.6c.3.8.7,1.5,1.3,2.1s1.2,1.1,2,1.3,1.6.5,2.6.5,1.6,0,2.2-.1c.7,0,1.3-.4,1.9-.7v-5h-3.6v-1.3h4.9v7h.1Z"/>
  <path class="st2" d="M97,42.6l-3.3-5h-5.2v5h-1.5v-15.3h5.7c1.9,0,3.3.4,4.4,1.3s1.6,2.1,1.6,3.8-.3,2.4-.9,3.2-1.5,1.5-2.6,1.7l3.6,5.3h-1.7ZM92.6,36.2c1.5,0,2.5-.4,3.3-1.1s1.2-1.6,1.2-2.9-.4-2.1-1.2-2.8-1.9-.9-3.3-.9h-4.1v7.7h4.1Z"/>
  <path class="st2" d="M113,28.2c1.2.7,2.1,1.6,2.9,2.8.7,1.2,1.1,2.5,1.1,4s-.4,2.8-1.1,4-1.7,2.1-2.9,2.9c-1.2.7-2.5,1.1-4,1.1s-2.8-.4-4-1.1-2.1-1.7-2.9-2.9-1.1-2.5-1.1-4,.4-2.8,1.1-4,1.7-2.1,2.9-2.8c1.2-.7,2.5-1.1,4-1.1s2.8.4,4,1.1ZM105.8,29.2c-.9.5-1.7,1.3-2.4,2.4-.5.9-.9,2.1-.9,3.2s.3,2.2.9,3.3,1.3,1.7,2.4,2.4,2.1.9,3.2.9,2.2-.3,3.2-.9,1.7-1.3,2.4-2.4c.5-1.1.9-2.1.9-3.3s-.3-2.2-.9-3.2c-.5-.9-1.3-1.7-2.4-2.4s-2-.8-3.2-.8-2.2.3-3.2.8Z"/>
  <path class="st2" d="M122.6,39.9c.8.9,2,1.3,3.6,1.3s2.6-.4,3.6-1.3c.8-.9,1.3-2.1,1.3-3.7v-9.1h1.5v9.1c0,2-.5,3.6-1.7,4.6-1.1,1.2-2.6,1.7-4.6,1.7s-3.4-.5-4.6-1.7c-1.1-1.2-1.7-2.6-1.7-4.6v-9.1h1.5v9.1c0,1.6.4,2.8,1.3,3.7h0Z"/>
  <path class="st2" d="M146.8,28.6c1.1.9,1.6,2.1,1.6,3.8s-.5,3-1.6,4c-1.1.9-2.5,1.3-4.4,1.3h-4.1v5h-1.5v-15.3h5.6c1.9,0,3.3.4,4.4,1.3h0ZM145.6,35.2c.8-.7,1.2-1.6,1.2-2.9s-.4-2.1-1.2-2.8c-.8-.7-1.9-.9-3.3-.9h-4v7.7h4c1.5,0,2.5-.4,3.3-1.1h0Z"/>
  <path class="st1" d="M64,6.7H31.1c-.9,0-1.6.8-1.6,1.6v32.9c0,.9.8,1.6,1.6,1.6h32.9c.9,0,1.6-.8,1.6-1.6V8.3c0-.9-.8-1.6-1.6-1.6h0ZM58.3,34.7c-.3.4-.7.7-.9,1.1h-.5l-1.6-1.6h-.4c-1.7,1.5-4,2.4-6.3,2.6,0,0-.3,0-.3.3v2.5h-1.9v-2.5s0-.3-.3-.3c-2.4-.3-4.6-1.2-6.3-2.6h-.4l-1.6,1.6h-.4c-.4-.3-.7-.7-.9-.9v-.4l1.6-1.7v-.4c-1.1-1.2-1.7-2.6-2.2-4.2-.1-.7-.3-1.2-.4-1.9h0v-2.6h-2.5c-.1,0-.3,0-.3-.3,0-.5,0-.9.1-1.3,0,0,.1-.3.3-.3h8.9c0-.3.3-.4.4-.5.4-.5.8-.9,1.3-1.3.8-.5,1.7-.9,2.6-1.1h1.9c.9.1,1.9.5,2.6,1.1.5.4.9.8,1.3,1.3.1.1.3.4.4.5.3.5.5,1.1.7,1.6,0,.1,0,.3-.3.3h-1.5s-.1,0-.3-.1c0-.4-.3-.7-.4-.9s-.4-.5-.7-.8c-.3-.1-.4-.4-.7-.5-.4-.3-.8-.4-1.3-.5h-1.9c-.4,0-.9.3-1.3.5-.3.1-.4.3-.7.5-.3.3-.5.5-.7.8s-.3.5-.4.9c0,0,0,.1-.3.1h-5.7v2.5h0c0,.7.3,1.3.4,1.9.4,1.2.9,2.1,1.7,3,.4.5.8.9,1.3,1.3,1.5,1.2,3.3,2.1,5.4,2.2h1.9c2.1-.1,4-1.1,5.4-2.2.5-.4.9-.8,1.3-1.3.1-.1.3-.3.4-.5h1.9c.1,0,.3.3.3.4-.3.4-.5.9-.9,1.3v.4l1.7,1.6v.4h.3ZM61.8,27.9s-.1.1-.3.1h-9s0,.1-.1.3c-.4.5-.8.9-1.3,1.3-.8.5-1.7.9-2.6,1.1h-1.9c-.9-.1-1.9-.5-2.6-1.1-.5-.4-.9-.8-1.3-1.3,0,0-.1-.1-.3-.3-.3-.5-.5-1.1-.7-1.6,0-.1,0-.3.3-.3h1.6c0,.3.3.5.4.8.3.4.5.8.9,1.1.1,0,.3.1.4.3.4.3.8.4,1.3.5h1.9c.5,0,.9-.3,1.3-.5.1,0,.3-.1.4-.3.4-.3.7-.7.9-1.1.1-.3.3-.5.4-.8h6v-2.6c0-.7-.3-1.3-.4-1.9-.4-1.2-1.1-2.4-1.9-3.3-.4-.5-.8-.9-1.3-1.3-1.5-1.2-3.3-2-5.4-2.2h-1.9c-2.1.1-4,1.1-5.4,2.2-.5.4-.9.8-1.3,1.3-.1.3-.4.4-.5.7h-1.9c-.1,0-.3-.3-.3-.4.3-.5.7-1.1,1.1-1.6v-.4l-1.7-1.6v-.4c.3-.4.7-.7.9-1.1h.5l1.6,1.5h.4c1.7-1.5,4-2.4,6.3-2.6,0,0,.3,0,.3-.3v-2.5h1.9v2.5s0,.3.3.3c2.4.3,4.6,1.2,6.3,2.6h.4l1.6-1.6h.4c.4.3.7.7,1.1,1.1v.4l-1.6,1.6v.4c1.1,1.3,1.9,2.8,2.2,4.5.1.7.3,1.2.4,1.9v2.5h2.5c.1,0,.3.1.3.3,0,.5-.1.9-.3,1.5h0l-.3.4Z"/>
</svg>