<?xml version="1.0" encoding="UTF-8"?>
<svg id="Layer_1" xmlns="http://www.w3.org/2000/svg" xmlns:xlink="http://www.w3.org/1999/xlink" version="1.1" viewBox="0 0 200 50">
  <!-- Generator: Adobe Illustrator 29.6.1, SVG Export Plug-In . SVG Version: 2.1.1 Build 9)  -->
  <defs>
    <style>
      .st0 {
        fill: url(#linear-gradient2);
      }

      .st1 {
        fill: url(#linear-gradient1);
      }

      .st2 {
        fill: url(#linear-gradient3);
      }

      .st3 {
        fill: url(#linear-gradient6);
      }

      .st4 {
        fill: url(#linear-gradient8);
      }

      .st5 {
        fill: url(#linear-gradient7);
      }

      .st6 {
        fill: url(#linear-gradient5);
      }

      .st7 {
        fill: url(#linear-gradient4);
      }

      .st8 {
        fill: #231f20;
      }

      .st9 {
        fill: url(#linear-gradient);
      }

      .st10 {
        fill: #fff;
      }

      .st11 {
        fill: #282937;
      }

      .st12 {
        fill: #bfc55d;
      }
    </style>
    <linearGradient id="linear-gradient" x1="34.4" y1="26.8" x2="28.6" y2="37.7" gradientUnits="userSpaceOnUse">
      <stop offset="0" stop-color="#1f5a6c"/>
      <stop offset="1" stop-color="#36aacd"/>
    </linearGradient>
    <linearGradient id="linear-gradient1" x1="24" y1=".3" x2="85.7" y2="51.4" gradientUnits="userSpaceOnUse">
      <stop offset=".1" stop-color="#585a6e"/>
      <stop offset=".3" stop-color="#282937"/>
      <stop offset=".5" stop-color="#282937"/>
    </linearGradient>
    <linearGradient id="linear-gradient2" x1="79.9" y1="46" x2="40.3" y2="27" gradientTransform="translate(-5.1 .9) rotate(-1)" gradientUnits="userSpaceOnUse">
      <stop offset=".1" stop-color="#585a6e"/>
      <stop offset=".4" stop-color="#282937"/>
      <stop offset=".6" stop-color="#282937"/>
    </linearGradient>
    <linearGradient id="linear-gradient3" x1="63" y1="15.6" x2="51.8" y2="18.1" gradientUnits="userSpaceOnUse">
      <stop offset=".1" stop-color="#585a6e"/>
      <stop offset=".3" stop-color="#282937"/>
      <stop offset=".5" stop-color="#282937"/>
    </linearGradient>
    <linearGradient id="linear-gradient4" x1="88.5" y1="11.5" x2="13.2" y2="28.3" xlink:href="#linear-gradient3"/>
    <linearGradient id="linear-gradient5" x1="29.6" y1="58.3" x2="37.8" y2="13.2" gradientTransform="translate(1.1 -15.9) rotate(-1.6)" xlink:href="#linear-gradient3"/>
    <linearGradient id="linear-gradient6" x1="56.3" y1="15.9" x2="79.7" y2="3.6" gradientUnits="userSpaceOnUse">
      <stop offset="0" stop-color="#626b1f"/>
      <stop offset="0" stop-color="#6e7724"/>
      <stop offset=".6" stop-color="#a6af3c"/>
      <stop offset=".8" stop-color="#bdc646"/>
    </linearGradient>
    <linearGradient id="linear-gradient7" x1="59.8" y1="30.9" x2="63.3" y2="40.1" gradientUnits="userSpaceOnUse">
      <stop offset="0" stop-color="#5b1803"/>
      <stop offset="1" stop-color="#e55027"/>
    </linearGradient>
    <linearGradient id="linear-gradient8" x1="80.8" y1="39.4" x2="80.8" y2="39.4" gradientUnits="userSpaceOnUse">
      <stop offset=".3" stop-color="#5b1803"/>
      <stop offset="1" stop-color="#e55027"/>
    </linearGradient>
  </defs>
  <g>
    <path class="st9" d="M31.3,46.9c-1.7,1.1-3.6,1-4.8-.9-1.7-2.6.2-4.8,1.9-7.8l1.9-3.3c1.8-3.4,5.7-12.1,1-19.8,7.2,8.6,10.6,22.7,0,31.7h0Z"/>
    <path class="st1" d="M33.1,45.5c3-3.2,4.8-7.2,5.2-11.5.5-6.4-2-13.6-6.8-19.1l-1.4-1.7c-1.6-2-3.1-4.9-1.4-7.1.9-1.2,2.1-1.8,3.5-1.8s3.4.9,4.7,1.7c0,0,6.1,4.1,13.3,6.3,3.4,1,6.6,1.8,9.5,2.5-.4.4-.6.8-.6,1.4,0,.9.8,1.4,1.5,1.4,1.1,0,2-.9,2-1.9s0-.2,0-.2c3.7.7,7,1,9.9,1,6.9,0,10.3-1.9,12-3.6-.4.9-.9,2-1.6,3.3,0,0-.2.4-.2.5l-.3.6c-.1.3-.3.6-.4.9l-.2.5c0,.2-.2.4-.2.6h0c0,.1,0,.2-.1.3,0,0,0,0,0,0-.1.3-.2.6-.3.9v.3c-.1,0-.1,0-.1,0-.1.3-.2.6-.3.9h0c-.1.5-.2.9-.3,1.3h0c0,.3-.1.6-.2.9,0,0,0,0,0,0,0,.4-.1.8-.2,1.2h0c0,.4,0,.7,0,1,0,.1,0,.2,0,.3,0,.4,0,.7,0,1.1h0c0,.5,0,1,0,1.5h0c0,.5,0,.8,0,1.2,0,0,0,.5,0,.5,0,.4,0,.9,0,1.3h0c0,.5,0,1,.1,1.5v.2c0,.1,0,.3,0,.4h0c.1.8.2,1.5.3,2.1,0,.3,0,.6,0,.9v.5c0,0,0,0,0,0h0s0,0,0,0h0c0,.1,0,.4,0,.7,0,.3,0,.5,0,.7-1.2-4.5-5-6.8-11.2-6.8-12.1,0-29.7,8.9-29.8,9l-6.5,4.1Z"/>
    <path class="st11" d="M32.1,4.5c1.6,0,3.3.9,4.6,1.6.3.2,6.3,4.2,13.3,6.3,3.2,1,6.3,1.8,9.2,2.4-.3.4-.4.8-.4,1.2,0,.9.8,1.6,1.8,1.6s2.2-1,2.2-2.1c3.6.6,6.8,1,9.7,1,6,0,9.5-1.4,11.4-2.9-.3.7-.7,1.4-1.2,2.3h0s0,0,0,0v.2c-.1.1-.2.2-.2.3,0,0,0,.1,0,.2h0c0,.1,0,.3,0,.3h0c0,0,0,.2,0,.2-.1.3-.3.6-.4.9h0c0,0,0,.1,0,.1h0c0,.1,0,.3,0,.3h0s0,0,0,0c0,.2-.2.4-.2.6,0,0,0,0,0,0,0,0,0,.2-.1.3,0,0,0,0,0,0-.1.3-.2.6-.3.9,0,0,0,0,0,0,0,0,0,.2,0,.2h0c0,0,0,0,0,0h0s0,0,0,0c-.1.3-.2.6-.3.9,0,0,0,0,0,0-.1.4-.2.8-.3,1.2h0c0,.3-.1.6-.2,1,0,0,0,0,0,0,0,.4-.1.8-.2,1.3h0s0,0,0,0c0,.3,0,.7,0,1h0s0,0,0,0c0,.1,0,.2,0,.3h0s0,0,0,0c0,.4,0,.7,0,1.1,0,0,0,0,0,0,0,.5,0,1,0,1.5,0,0,0,0,0,0,0,.4,0,.8,0,1.2,0,0,0,0,0,0h0s0,.2,0,.2v.2s0,0,0,0h0c0,.4,0,.9,0,1.3h0c0,.5,0,1,.1,1.5h0s0,0,0,0h0c0,.2,0,.3,0,.5h0s0,0,0,0h0s0,0,0,0c.1.7.2,1.4.3,2.1,0,.3,0,.6,0,.9h0s0,0,0,0v.2s0,.2,0,.2c-1.6-3.7-5.2-5.5-10.9-5.5s-14.2,2.5-19.6,4.5c-5.9,2.2-10.3,4.5-10.3,4.5h0s0,0,0,0l-5.2,3.3c2.5-3,3.9-6.6,4.2-10.5.5-6.5-2-13.7-6.8-19.3l-1.4-1.7c-1.5-2-3-4.7-1.4-6.8.9-1.2,2-1.7,3.3-1.7M32.1,4.1c-1.3,0-2.5.5-3.6,1.9-1.6,2-.6,4.7,1.4,7.3l1.4,1.7c7.3,8.6,10.6,22.9,0,31.9l8.3-5.3s17.6-9,29.7-9,10.5,2.1,11.3,8.4c0-.6.1-1.4,0-2.6,0-.3,0-.5,0-.7h0s0,0,0,0h0c0-.2,0-.3,0-.5,0-.3,0-.6,0-.9,0-.7-.2-1.4-.3-2.1,0,0,0,0,0,0,0-.2,0-.3,0-.5,0,0,0,0,0,0,0-.5,0-.9-.1-1.4,0,0,0,0,0,0,0-.4,0-.9,0-1.3,0,0,0,0,0,0,0-.1,0-.3,0-.4,0,0,0,0,0,0,0-.4,0-.8,0-1.2,0,0,0,0,0,0,0-.5,0-1,0-1.5,0,0,0,0,0,0,0-.4,0-.7,0-1,0,0,0,0,0,0,0-.1,0-.2,0-.3,0,0,0,0,0,0,0-.3,0-.7,0-1,0,0,0,0,0,0,0-.4.1-.8.2-1.3,0,0,0,0,0,0,0-.3.1-.6.2-.9,0,0,0,0,0,0,0-.4.2-.8.3-1.2,0,0,0,0,0,0,0-.3.2-.6.3-.9,0,0,0,0,0,0,0,0,0-.2.1-.3,0,0,0,0,0,0,.1-.3.2-.6.3-.9,0,0,0,0,0,0,0,0,0-.2.1-.3,0,0,0,0,0,0,0-.2.2-.4.2-.6,0,0,0,0,0,0,0,0,0-.2.1-.3,0,0,0,0,0-.1.1-.3.3-.6.4-.9,0,0,0-.1,0-.2,0,0,0-.2.1-.3,0,0,0-.1,0-.2,0-.2.1-.3.2-.5,1.1-2.1,1.8-3.5,2.2-4.6,0,0,0,0,0,0,0,0,0-.2.2-.4-.9,1.7-3.8,5-12.9,5s-6.2-.3-10.2-1.1c0,.1.1.3.1.5,0,1-.9,1.7-1.8,1.7s-1.3-.4-1.3-1.2.4-1.2.9-1.5c-3-.6-6.3-1.5-10-2.6-7.2-2.2-13.2-6.3-13.2-6.3-1.3-.8-3-1.7-4.8-1.7h0ZM80.7,37.7s0,0,0,0h0s0,0,0,0c0,0,0,0,0,0,0,0,0,0,0,0,0,0,0,0,0,0,0,0,0,0,0,0h0Z"/>
    <path class="st11" d="M32.1,4.5c1.6,0,3.3.9,4.6,1.6.3.2,6.3,4.2,13.3,6.3,3.2,1,6.3,1.8,9.2,2.4-.3.4-.4.8-.4,1.2,0,.9.8,1.6,1.8,1.6s2.2-1,2.2-2.1c3.6.6,6.8,1,9.7,1,6,0,9.5-1.4,11.4-2.9-.3.7-.7,1.4-1.2,2.3h0s0,0,0,0v.2c-.1.1-.2.2-.2.3,0,0,0,.1,0,.2h0c0,.1,0,.3,0,.3h0c0,0,0,.2,0,.2-.1.3-.3.6-.4.9h0c0,0,0,.1,0,.1h0c0,.1,0,.3,0,.3h0s0,0,0,0c0,.2-.2.4-.2.6,0,0,0,0,0,0,0,0,0,.2-.1.3,0,0,0,0,0,0-.1.3-.2.6-.3.9,0,0,0,0,0,0,0,0,0,.2,0,.2h0c0,0,0,0,0,0h0s0,0,0,0c-.1.3-.2.6-.3.9,0,0,0,0,0,0-.1.4-.2.8-.3,1.2h0c0,.3-.1.6-.2,1,0,0,0,0,0,0,0,.4-.1.8-.2,1.3h0s0,0,0,0c0,.3,0,.7,0,1h0s0,0,0,0c0,.1,0,.2,0,.3h0s0,0,0,0c0,.4,0,.7,0,1.1,0,0,0,0,0,0,0,.5,0,1,0,1.5,0,0,0,0,0,0,0,.4,0,.8,0,1.2,0,0,0,0,0,0h0s0,.2,0,.2v.2s0,0,0,0h0c0,.4,0,.9,0,1.3h0c0,.5,0,1,.1,1.5h0s0,0,0,0h0c0,.2,0,.3,0,.5h0s0,0,0,0h0s0,0,0,0c.1.7.2,1.4.3,2.1,0,.3,0,.6,0,.9h0s0,0,0,0v.2s0,.2,0,.2c-1.6-3.7-5.2-5.5-10.9-5.5s-14.2,2.5-19.6,4.5c-5.9,2.2-10.3,4.5-10.3,4.5h0s0,0,0,0l-5.2,3.3c2.5-3,3.9-6.6,4.2-10.5.5-6.5-2-13.7-6.8-19.3l-1.4-1.7c-1.5-2-3-4.7-1.4-6.8.9-1.2,2-1.7,3.3-1.7M32.1,4.1c-1.3,0-2.5.5-3.6,1.9-1.6,2-.6,4.7,1.4,7.3l1.4,1.7c7.3,8.6,10.6,22.9,0,31.9l8.3-5.3s17.6-9,29.7-9,10.5,2.1,11.3,8.4c0-.6.1-1.4,0-2.6,0-.3,0-.5,0-.7h0s0,0,0,0h0c0-.2,0-.3,0-.5,0-.3,0-.6,0-.9,0-.7-.2-1.4-.3-2.1,0,0,0,0,0,0,0-.2,0-.3,0-.5,0,0,0,0,0,0,0-.5,0-.9-.1-1.4,0,0,0,0,0,0,0-.4,0-.9,0-1.3,0,0,0,0,0,0,0-.1,0-.3,0-.4,0,0,0,0,0,0,0-.4,0-.8,0-1.2,0,0,0,0,0,0,0-.5,0-1,0-1.5,0,0,0,0,0,0,0-.4,0-.7,0-1,0,0,0,0,0,0,0-.1,0-.2,0-.3,0,0,0,0,0,0,0-.3,0-.7,0-1,0,0,0,0,0,0,0-.4.1-.8.2-1.3,0,0,0,0,0,0,0-.3.1-.6.2-.9,0,0,0,0,0,0,0-.4.2-.8.3-1.2,0,0,0,0,0,0,0-.3.2-.6.3-.9,0,0,0,0,0,0,0,0,0-.2.1-.3,0,0,0,0,0,0,.1-.3.2-.6.3-.9,0,0,0,0,0,0,0,0,0-.2.1-.3,0,0,0,0,0,0,0-.2.2-.4.2-.6,0,0,0,0,0,0,0,0,0-.2.1-.3,0,0,0,0,0-.1.1-.3.3-.6.4-.9,0,0,0-.1,0-.2,0,0,0-.2.1-.3,0,0,0-.1,0-.2,0-.2.1-.3.2-.5,1.1-2.1,1.8-3.5,2.2-4.6,0,0,0,0,0,0,0,0,0-.2.2-.4-.9,1.7-3.8,5-12.9,5s-6.2-.3-10.2-1.1c0,.1.1.3.1.5,0,1-.9,1.7-1.8,1.7s-1.3-.4-1.3-1.2,1-1.4.9-1.5c-3-.6-6.3-1.5-10-2.6-7.2-2.2-13.2-6.3-13.2-6.3-1.3-.8-3-1.7-4.8-1.7h0ZM80.7,37.7s0,0,0,0h0s0,0,0,0c0,0,0,0,0,0,0,0,0,0,0,0,0,0,0,0,0,0,0,0,0,0,0,0h0Z"/>
    <path class="st0" d="M80.7,41c0-.8-.6-2.6-.8-3.1-1.7-3.7-5.9-5.3-10.4-5.2-5.7.2-11.4,1.7-16.8,3.6-4.6,1.6-9.5,3.2-13.2,5.4,0,0,0,0,0,0,3.7-2.3,8.4-4.1,13-5.8,5.3-2,11-3.6,16.7-3.9,4.6-.2,8.5.8,10.7,5.2,0,0,.7,1.6.8,3.9Z"/>
    <path class="st2" d="M59.7,17.3c.9.7,2.5.2,2.8-1,0,0,.3-.7-.2-1.3,0,0,0,.3,0,.5,0,1-.9,1.7-1.8,1.7s-1.3-.4-1.3-1.2,1-1.5.9-1.5c0,0-1.9,1-.5,2.7Z"/>
    <path class="st7" d="M62.7,15.1h-.4c0,0,.3.4.3.4,0,0,20,4,22.8-4.4-1.3,2.1-3.1,3.7-8.4,4.6-3.1.5-7.4.6-14.3-.6Z"/>
    <path class="st6" d="M31.3,14.9s0,0,0,0c7.3,8.6,10.6,22.9,0,31.9,0,0,.4-.3,1.7-1.1,9.3-8.6,5.5-22.9-1.7-30.9Z"/>
    <path class="st3" d="M50.2,12.1c3.7,1.1,7,2,10,2.6,0,0,0,0,0,0,0,0-.3.2-.5.4-.3.3-.4.7-.4,1.1,0,.7.6,1.2,1.3,1.2s1.8-.8,1.8-1.7,0-.4-.1-.5c.2,0,.4,0,.5,0,6.8,1.2,11.2,1,14.2.6,5.3-1,7.1-2.6,8.4-4.6h0c1.1-2.7,1.3-5.5,0-6.6-3.4-2.8-6.1.5-11,3.2-12.9,7.2-24.3,4.5-29.7,2.3,1.6.7,3.5,1.4,5.4,2Z"/>
    <g>
      <path class="st5" d="M80.7,40.9s0,0,0-.1c0-.3,0-.5-.1-.7-.2-.8-.5-1.7-.7-2.2,0,0,0,0,0-.1-1.2-2.6-3.7-4.2-6.7-4.9-.7-.1-1.4-.2-2.2-.3-.5,0-1,0-1.5,0-5.7.2-11.4,1.7-16.8,3.6-1.8.6-3.6,1.2-5.4,1.9-.6.3-1.2.5-1.8.8.1,0,.2,0,.3-.1,12.3-3.8,20.7,0,23.4,2,3.5,2.7,5.5,6.8,9.6,3.9.9-.6,1.6-1.8,1.8-3.7h0Z"/>
      <polygon class="st4" points="80.8 39.4 80.8 39.4 80.8 39.4 80.8 39.4"/>
    </g>
    <g>
      <path class="st10" d="M56.2,27.7l-.2,1.1c0,.3-.3.6-.5.7-.3.1-1.1.6-2.3.6s-1.6-.8-1.6-1.6h0c-.9,1-2.2,1.6-3.5,1.6-2.8,0-4-2.1-4-4.4s.8-4.1,2.3-5.5c1.1-1.1,2.7-1.7,4.3-1.7s2.9.3,4.5,1c.3.1.4.3.4.6l-1.2,6.7c0,.2,0,.5,0,.6,0,.3.1.4.4.4.4,0,.9-.2,1.2-.4,0,0,0,0,.1,0,.1,0,.2,0,.2.2h0ZM52.6,21.1c-.4-.2-.9-.4-1.8-.4s-1.8.4-2.3,1c-1,1-1.4,2.6-1.4,3.9s.6,2.3,1.9,2.3,2.2-.9,2.7-1.6l.9-5.2Z"/>
      <path class="st10" d="M61.1,18.8c.5,0,.6.2.5.5l-1.8,10.1c0,.4-.3.6-.7.6h-1.6c-.4,0-.6-.2-.5-.6l1.8-10.1c0-.4.3-.5.7-.5h1.6Z"/>
      <path class="st10" d="M71.5,19.7l-.5,1.2c0,.2-.2.3-.4.3s-.2,0-.2,0c-.8-.3-1.6-.6-2.5-.6s-1.7.4-1.7,1.3,1,1,2,1.4c1.2.5,2.5,1.2,2.5,2.8s-.5,2.1-1.3,2.8c-1,.9-2.4,1.4-3.9,1.4s-2.5-.3-3.3-.8c-.1,0-.2-.1-.2-.3s0-.2,0-.3l.5-1.2c0-.2.2-.3.4-.3s.2,0,.3,0c.9.4,1.8.7,2.8.7s1.9-.4,1.9-1.4-1.1-1.1-2.2-1.6c-1.2-.5-2.5-1.1-2.5-2.8,0-2.5,2.6-3.8,4.8-3.8s2.3.2,3.2.7c.1,0,.2.1.2.3s0,.2,0,.3Z"/>
    </g>
  </g>
  <g>
    <path class="st12" d="M96.8,36.5c.2,0,.2,0,.2.2l-.7,4.2c0,.2-.1.2-.3.2h-.7c-.2,0-.2,0-.2-.2l.7-4.2c0-.2.1-.2.3-.2h.7ZM96.5,35.9c-.3,0-.6-.2-.6-.5s.4-.7.8-.7.5.2.5.5-.4.7-.8.7Z"/>
    <path class="st12" d="M102.2,38.4l-.5,2.6c0,.2,0,.3-.3.3h-.7c-.2,0-.2-.1-.2-.3l.5-2.6c0-.1,0-.3,0-.4,0-.3-.2-.5-.6-.5s-.9.2-1.2.5l-.5,3.1c0,.2-.1.2-.3.2h-.7c-.2,0-.2,0-.2-.2l.7-4.2c0-.2.1-.2.3-.2h.6c.1,0,.2,0,.2.2v.3c.5-.4,1.1-.6,1.6-.6.9,0,1.2.5,1.2,1.3s0,.5,0,.7Z"/>
    <path class="st12" d="M106.6,36.9l-.2.5c0,0,0,.1-.2.1s0,0,0,0c-.3-.1-.7-.2-1-.2s-.7.2-.7.5.4.4.9.6c.5.2,1.1.5,1.1,1.2s-.2.9-.5,1.2c-.4.4-1,.6-1.6.6s-1-.1-1.4-.3c0,0,0,0,0-.1s0,0,0-.1l.2-.5c0,0,0-.1.2-.1s0,0,.1,0c.4.2.7.3,1.2.3s.8-.2.8-.6-.5-.5-.9-.7c-.5-.2-1-.5-1-1.2,0-1.1,1.1-1.6,2-1.6s1,0,1.3.3c0,0,0,0,0,.1s0,0,0,.1Z"/>
    <path class="st12" d="M109.2,41.3c-.4,0-.8-.2-1.1-.5l-.4,2.2c0,.2,0,.2-.2.3h-.8c-.1.1-.1,0-.1,0l1.1-6.4c0-.2,0-.2.2-.2h.7c.2,0,.2,0,.2.2v.3c.3-.3.9-.6,1.4-.6,1.2,0,1.7.8,1.7,1.9s-1,3.1-2.6,3.1ZM109.7,37.3c-.4,0-.8.2-1.1.5l-.4,2.1c.1.3.4.5.8.5s.6-.1.8-.4c.4-.4.6-1,.6-1.8s-.3-.9-.9-.9Z"/>
    <path class="st12" d="M114,36.5c.2,0,.2,0,.2.2l-.7,4.2c0,.2-.1.2-.3.2h-.7c-.2,0-.2,0-.2-.2l.7-4.2c0-.2.1-.2.3-.2h.7ZM113.8,35.9c-.3,0-.6-.2-.6-.5s.4-.7.8-.7.5.2.5.5-.4.7-.8.7Z"/>
    <path class="st12" d="M118.1,36.4c0,0,0,0,0,.2l-.2.7c0,0,0,.1-.1.1s-.2,0-.3,0c-.3,0-.7.2-1,.5l-.5,3.1c0,.2-.1.2-.3.2h-.7c-.1,0-.2,0-.2-.2s0,0,0,0l.7-4.2c0-.2.1-.2.3-.2h.6c.2,0,.2,0,.2.2v.3c.3-.4.7-.6,1.2-.6s.2,0,.3,0Z"/>
    <path class="st12" d="M119.8,36.5c.2,0,.2,0,.2.2l-.7,4.2c0,.2-.1.2-.3.2h-.7c-.2,0-.2,0-.2-.2l.7-4.2c0-.2.1-.2.3-.2h.7ZM119.6,35.9c-.3,0-.6-.2-.6-.5s.4-.7.8-.7.5.2.5.5-.4.7-.8.7Z"/>
    <path class="st12" d="M125.3,38.4l-.5,2.6c0,.2,0,.3-.3.3h-.7c-.2,0-.2-.1-.2-.3l.5-2.6c0-.1,0-.3,0-.4,0-.3-.2-.5-.6-.5s-.9.2-1.2.5l-.5,3.1c0,.2-.1.2-.3.2h-.7c-.2,0-.2,0-.2-.2l.7-4.2c0-.2.1-.2.3-.2h.6c.1,0,.2,0,.2.2v.3c.5-.4,1.1-.6,1.6-.6.9,0,1.3.5,1.3,1.3s0,.5,0,.7Z"/>
    <path class="st12" d="M130.9,37.1l-.7,3.7c-.3,1.6-1.1,2.4-2.7,2.4s-.9,0-1.4-.3c0,0-.1,0-.1-.2s0,0,0-.1l.2-.5c0,0,0-.1.1-.1s0,0,.1,0c.3.1.7.3,1,.3.9,0,1.2-.6,1.4-1.3v-.4c-.3.3-.8.5-1.3.5s-1-.2-1.3-.5c-.2-.3-.3-.8-.3-1.2,0-1.7,1.1-3,2.9-3s1.2.2,1.7.5c.2,0,.2.1.2.3ZM129.6,37.6c-.2-.2-.6-.2-.9-.2-.9,0-1.4,1-1.4,1.9s0,.6.2.8c.1.2.4.3.6.3.4,0,.8-.2,1.1-.5l.4-2.2Z"/>
    <path class="st12" d="M135.3,36.5c.2,0,.2,0,.2.2l-.7,4.2c0,.2-.1.2-.3.2h-.7c-.2,0-.2,0-.2-.2l.7-4.2c0-.2.1-.2.3-.2h.7ZM135.1,35.9c-.3,0-.6-.2-.6-.5s.4-.7.8-.7.5.2.5.5-.4.7-.8.7Z"/>
    <path class="st12" d="M140.7,38.4l-.5,2.6c0,.2,0,.3-.3.3h-.7c-.2,0-.2-.1-.2-.3l.5-2.6c0-.1,0-.3,0-.4,0-.3-.2-.5-.6-.5s-.9.2-1.2.5l-.5,3.1c0,.2-.1.2-.3.2h-.7c-.2,0-.2,0-.2-.2l.7-4.2c0-.2.1-.2.3-.2h.6c.1,0,.2,0,.2.2v.3c.5-.4,1.1-.6,1.6-.6.9,0,1.2.5,1.2,1.3s0,.5,0,.7Z"/>
    <path class="st12" d="M145.1,36.9l-.2.5c0,0,0,.1-.2.1s0,0,0,0c-.3-.1-.7-.2-1-.2s-.7.2-.7.5.4.4.9.6c.5.2,1.1.5,1.1,1.2s-.2.9-.5,1.2c-.4.4-1,.6-1.6.6s-1-.1-1.4-.3c0,0,0,0,0-.1s0,0,0-.1l.2-.5c0,0,0-.1.2-.1s0,0,.1,0c.4.2.7.3,1.2.3s.8-.2.8-.6-.5-.5-.9-.7c-.5-.2-1-.5-1-1.2,0-1.1,1.1-1.6,2-1.6s1,0,1.3.3c0,0,0,0,0,.1s0,0,0,.1Z"/>
    <path class="st12" d="M147.2,36.5c.2,0,.2,0,.2.2l-.7,4.2c0,.2-.1.2-.3.2h-.7c-.2,0-.2,0-.2-.2l.7-4.2c0-.2.1-.2.3-.2h.7ZM147,35.9c-.3,0-.6-.2-.6-.5s.4-.7.8-.7.5.2.5.5-.4.7-.8.7Z"/>
    <path class="st12" d="M152.9,37.1l-.7,3.7c-.3,1.6-1.1,2.4-2.7,2.4s-.9,0-1.4-.3c0,0-.1,0-.1-.2s0,0,0-.1l.2-.5c0,0,0-.1.1-.1s0,0,.1,0c.3.1.7.3,1,.3.9,0,1.2-.6,1.4-1.3v-.4c-.3.3-.8.5-1.3.5s-1-.2-1.3-.5c-.2-.3-.3-.8-.3-1.2,0-1.7,1.1-3,2.9-3s1.2.2,1.7.5c.2,0,.2.1.2.3ZM151.6,37.6c-.2-.2-.6-.2-.9-.2-.9,0-1.4,1-1.4,1.9s0,.6.2.8c.1.2.4.3.6.3.4,0,.8-.2,1.1-.5l.4-2.2Z"/>
    <path class="st12" d="M158,38.3l-.5,2.7c0,.1,0,.2-.2.2h-.8c-.1,0-.1,0-.1-.1s0,0,0,0l.5-2.7c0-.1,0-.2,0-.3,0-.4-.1-.6-.6-.6s-.9.2-1.2.5l-.5,3.1c0,.1,0,.2-.2.2h-.8c0,0-.1,0-.1-.1s0,0,0,0l1.1-6.4c0-.2.1-.2.2-.2h.8c.1-.1.1,0,.1,0l-.4,2.4c.5-.3,1.1-.5,1.6-.5.9,0,1.3.5,1.3,1.2s0,.5,0,.8Z"/>
    <path class="st12" d="M162,37.1c0,.1-.1.2-.2.2h-1.1l-.4,2.1c0,.3,0,.4,0,.6,0,.3.2.4.5.4s.4,0,.6-.1c0,0,0,0,0,0,0,0,.1,0,.1.1v.5s0,0,0,0c0,0,0,.1-.1.2-.4.2-.8.2-1.2.2-.7,0-1.2-.3-1.2-1.1s0-.5,0-.8l.4-2.1h-.5c0,0-.2,0-.2-.2v-.4c.1-.1.2-.2.3-.2h.5l.2-1c0-.2.1-.2.3-.2.2,0,.5,0,.7,0s.2,0,.2.2l-.2,1.2h1.1c0,0,.2,0,.2.2v.5Z"/>
    <path class="st12" d="M166.1,36.9l-.2.5c0,0,0,.1-.2.1s0,0,0,0c-.3-.1-.7-.2-1-.2s-.7.2-.7.5.4.4.9.6c.5.2,1.1.5,1.1,1.2s-.2.9-.5,1.2c-.4.4-1,.6-1.6.6s-1-.1-1.4-.3c0,0,0,0,0-.1s0,0,0-.1l.2-.5c0,0,0-.1.2-.1s0,0,.1,0c.4.2.7.3,1.2.3s.8-.2.8-.6-.5-.5-.9-.7c-.5-.2-1-.5-1-1.2,0-1.1,1.1-1.6,2-1.6s1,0,1.3.3c0,0,0,0,0,.1s0,0,0,.1Z"/>
  </g>
  <g>
    <path class="st8" d="M99.6,16.2c0,0,0,.2-.1.2,0,0-.4.2-.7.2s-.3,0-.4-.2c0-.1-.1-.2-.1-.4s0-.1,0-.2h0c-.3.4-.9.8-1.6.8-1.1,0-1.5-.8-1.5-1.8s.3-1.7.9-2.3c.4-.5,1.1-.8,1.7-.8s1.2.2,1.7.5c0,0,.1.1,0,.2l-.5,2.9c0,0,0,.3,0,.4,0,.1,0,.2.1.2s.3,0,.4-.1c0,0,.1,0,.1,0v.3ZM98.7,12.7c-.2-.1-.5-.3-1-.3s-.8.2-1.1.5c-.5.5-.7,1.3-.7,1.9s.3,1.1.9,1.1,1.2-.5,1.4-.9l.4-2.3Z"/>
    <path class="st8" d="M103.3,11.8c0,0,0,0,0,.1l-.2.5c0,0,0,0-.1,0s-.2,0-.3,0c-.4,0-.8.3-1.1.6l-.6,3.3c0,.1,0,.2-.2.2h-.5c-.2,0-.1-.1-.1-.2l.8-4.3c0-.1.1-.2.2-.2h.4c.1,0,.2,0,.1.1v.4c.3-.4.7-.7,1.2-.7s.1,0,.2,0Z"/>
    <path class="st8" d="M107.2,12.2l-.2.3c0,0,0,0,0,0s0,0-.1,0c-.3-.1-.5-.2-.8-.2-.5,0-.8.2-1.2.5-.5.5-.7,1.2-.7,1.9s.3,1.2,1.2,1.2.7,0,1-.2c0,0,0,0,.1,0,0,0,0,0,0,0v.3c0,0,0,0,0,0,0,0,0,0-.2.2-.4.2-.9.3-1.3.3-1.2,0-1.8-.7-1.8-1.8s.4-1.8,1-2.4c.5-.4,1.1-.7,1.7-.7s.8,0,1.1.3c0,0,0,0,0,0s0,0,0,0Z"/>
    <path class="st8" d="M111.7,13.6l-.5,2.8c0,.1,0,.2-.1.2h-.6c-.1,0-.1,0,0-.2l.5-2.7c0-.1,0-.4,0-.5,0-.4-.2-.7-.7-.7s-1.1.3-1.5.6l-.6,3.3c0,.1,0,.1-.2.1h-.5c-.1,0,0,0,0-.2l1.1-6.4c0-.1,0-.2.2-.2.5,0,.5,0,.5,0,.1,0,.1,0,.1.2l-.4,2.5c.5-.4,1.1-.6,1.6-.6s.7,0,.9.3c.3.2.4.5.4.9s0,.4,0,.6Z"/>
    <path class="st8" d="M114.1,12.1l-.7,4.3c0,.1,0,.2-.2.2h-.5c-.1,0-.1-.1-.1-.2l.7-4.3c0-.1,0-.2.2-.2h.5c.1,0,.1,0,.1.2ZM113.9,11.1c-.2,0-.4-.1-.4-.4s.3-.5.6-.5.4.1.4.4-.3.5-.6.5Z"/>
    <path class="st8" d="M117.8,12v.3c0,0-.1.1-.2.1h-1.1l-.4,2.4c0,.3,0,.5,0,.7,0,.4.2.5.6.5s.4,0,.6-.1c0,0,.1,0,.1,0v.3c0,.1,0,.1-.1.2-.3.1-.6.2-.9.2-.6,0-1.1-.3-1.1-1s0-.5.1-.8l.4-2.4h-.5c-.1,0-.2,0-.1-.1v-.3c0,0,.1-.1.2-.1h.5l.2-1.1c0-.1,0-.2.2-.2h.5c0,0,0,0,0,0,.1,0,0,.1,0,.2l-.2,1.2h1.1c0,0,.1,0,.1.1Z"/>
    <path class="st8" d="M122.2,14.1c0,.2,0,.2-.3.2h-2.9c0,0,0,.3,0,.4,0,.7.4,1.3,1.2,1.3s.8,0,1.2-.2c0,0,.2,0,.2,0v.3c0,.1,0,.2-.1.2-.5.2-.9.3-1.4.3-1.2,0-1.9-.7-1.9-1.9s.3-1.6.8-2.2c.5-.5,1.1-.8,1.8-.8s1.5.6,1.5,1.6,0,.5,0,.8ZM120.6,12.4c-.8,0-1.4.7-1.6,1.4h2.4c0-.2,0-.3,0-.5,0-.5-.2-.9-.8-.9Z"/>
    <path class="st8" d="M126.8,12.2l-.2.3c0,0,0,0,0,0s0,0-.1,0c-.3-.1-.5-.2-.8-.2-.5,0-.8.2-1.2.5-.5.5-.7,1.2-.7,1.9s.3,1.2,1.2,1.2.7,0,1-.2c0,0,0,0,.1,0,0,0,0,0,0,0v.3c0,0,0,0,0,0,0,0,0,0-.2.2-.4.2-.9.3-1.3.3-1.2,0-1.8-.7-1.8-1.8s.4-1.8,1-2.4c.5-.4,1.1-.7,1.7-.7s.8,0,1.1.3c0,0,0,0,0,0s0,0,0,0Z"/>
    <path class="st8" d="M129.9,12v.3c0,0-.1.1-.2.1h-1.1l-.4,2.4c0,.3,0,.5,0,.7,0,.4.2.5.6.5s.4,0,.6-.1c0,0,.1,0,.1,0v.3c0,.1,0,.1-.1.2-.3.1-.6.2-.9.2-.6,0-1.1-.3-1.1-1s0-.5.1-.8l.4-2.4h-.5c-.1,0-.2,0-.1-.1v-.3c0,0,.1-.1.2-.1h.5l.2-1.1c0-.1,0-.2.2-.2h.5c0,0,0,0,0,0,.1,0,0,.1,0,.2l-.2,1.2h1.1c0,0,.1,0,.1.1Z"/>
    <path class="st8" d="M134.7,12l-.8,4.3c0,.1,0,.2-.2.2h-.4c-.1,0-.2,0-.2-.2v-.3c-.4.3-1,.6-1.6.6s-1.2-.4-1.2-1.2,0-.3,0-.5l.5-2.9c0-.1,0-.2.2-.2h.5c.1,0,.2,0,.1.2l-.5,2.7c0,.2,0,.4,0,.5,0,.5.3.7.7.7s1.1-.3,1.4-.6l.6-3.3c0-.1,0-.2.2-.2h.5c.1,0,.2,0,.1.2Z"/>
    <path class="st8" d="M138.4,11.8c0,0,0,0,0,.1l-.2.5c0,0,0,0-.1,0s-.2,0-.3,0c-.4,0-.8.3-1.1.6l-.6,3.3c0,.1,0,.2-.2.2h-.5c-.2,0-.1-.1-.1-.2l.8-4.3c0-.1.1-.2.2-.2h.4c.1,0,.2,0,.1.1v.4c.3-.4.7-.7,1.2-.7s.1,0,.2,0Z"/>
    <path class="st8" d="M142.7,16.2c0,0,0,.2-.1.2,0,0-.4.2-.7.2s-.3,0-.4-.2c0-.1-.1-.2-.1-.4s0-.1,0-.2h0c-.3.4-.9.8-1.6.8-1.1,0-1.5-.8-1.5-1.8s.3-1.7.9-2.3c.4-.5,1.1-.8,1.7-.8s1.2.2,1.7.5c0,0,.1.1,0,.2l-.5,2.9c0,0,0,.3,0,.4,0,.1,0,.2.1.2s.3,0,.4-.1c0,0,.1,0,.1,0v.3ZM141.7,12.7c-.2-.1-.5-.3-1-.3s-.8.2-1.1.5c-.5.5-.7,1.3-.7,1.9s.3,1.1.9,1.1,1.2-.5,1.4-.9l.4-2.3Z"/>
    <path class="st8" d="M145.3,9.8l-1.1,6.5c0,.1,0,.2-.2.2h-.5c-.1,0-.1,0-.1-.2l1.1-6.4c0-.1,0-.2.2-.2.5,0,.5,0,.5,0,.1,0,.1,0,0,.2Z"/>
  </g>
  <g>
    <path class="st8" d="M96.6,22.7l-.8,4.3c0,.1,0,.2-.2.2h-.5c-.1,0-.1-.1-.1-.2l.8-4.3c0-.1,0-.2.2-.2h.5c.1,0,.1,0,.1.2ZM96.4,21.8c-.2,0-.4-.1-.4-.4s.3-.5.6-.5.4.1.4.4-.3.5-.6.5Z"/>
    <path class="st8" d="M101.7,24.3l-.5,2.8c0,.1,0,.2-.2.2h-.5c-.1,0-.1-.1-.1-.2l.5-2.7c0-.2,0-.3,0-.5,0-.5-.2-.7-.8-.7s-1,.2-1.4.6l-.6,3.3c0,.1,0,.2-.2.2h-.5c-.1,0-.1,0-.1-.2l.8-4.3c0-.1,0-.2.2-.2h.4c.1,0,.2,0,.1.2v.3c.4-.4,1-.6,1.6-.6s.8.1,1,.3c.2.2.3.5.3.9s0,.4,0,.6Z"/>
    <path class="st8" d="M106.3,20.6v.3c-.1,0-.2,0-.2,0s0,0,0,0c-.2,0-.4,0-.6,0-.3,0-.5.1-.7.4-.2.2-.3.6-.4.9v.4c0,0,1.1,0,1.1,0,.1,0,.1,0,.1.1v.3c0,0-.1.1-.2.1h-1.2l-1,5.9c0,.1,0,.2-.2.2h-.5c-.2,0-.1-.1-.1-.2l1-5.8h-.5c-.2,0-.2,0-.2-.2v-.2c0,0,.1-.1.2-.1h.6v-.2c.2-.6.4-1.2.7-1.5.3-.3.8-.5,1.3-.5s.6,0,.8.2c0,0,0,.1,0,.2Z"/>
    <path class="st8" d="M107,27.3c-1.2,0-1.7-.8-1.7-1.8,0-1.5,1-3,2.7-3s1.8.8,1.8,1.8c0,1.6-1,3.1-2.7,3.1ZM107.9,23.1c-1.1,0-1.7,1.3-1.7,2.4s.2,1.3,1,1.3c1.2,0,1.8-1.3,1.8-2.4s-.2-1.3-1-1.3Z"/>
    <path class="st8" d="M113.3,22.5c0,0,0,0,0,.1l-.2.5c0,0,0,0-.1,0s-.2,0-.3,0c-.4,0-.8.3-1.1.6l-.6,3.3c0,.1,0,.2-.2.2h-.5c-.2,0-.1-.1-.1-.2l.8-4.3c0-.1.1-.2.2-.2h.4c.1,0,.2,0,.1.1v.4c.3-.4.7-.7,1.2-.7s.1,0,.2,0Z"/>
    <path class="st8" d="M120.4,24.4l-.5,2.7c0,.1,0,.2-.2.2h-.5c-.1,0-.2,0-.1-.2l.5-2.7c0-.2,0-.3,0-.5,0-.5-.2-.7-.8-.7s-.9.2-1.3.5c0,.3,0,.5,0,.9l-.4,2.5c0,.1,0,.2-.2.2h-.4c-.1,0-.2,0-.1-.2l.5-2.7c0-.2,0-.3,0-.5,0-.4-.2-.7-.7-.7s-1,.3-1.4.6l-.6,3.3c0,.1,0,.2-.2.2h-.5c-.1,0-.2,0-.1-.2l.8-4.3c0-.1,0-.2.2-.2h.4c.2,0,.1,0,.1.2v.3c.5-.4,1.1-.6,1.5-.6s.9.2,1.1.6c.5-.4,1.2-.6,1.7-.6s.8.2,1,.4c.2.2.3.5.3.9s0,.4,0,.7Z"/>
    <path class="st8" d="M125.8,26.9c0,0,0,.2-.1.2,0,0-.4.2-.7.2s-.3,0-.4-.2c0-.1-.1-.2-.1-.4s0-.1,0-.2h0c-.3.4-.9.8-1.6.8-1.1,0-1.5-.8-1.5-1.8s.3-1.7.9-2.3c.4-.5,1.1-.8,1.7-.8s1.3.2,1.7.5c0,0,.1.1,0,.2l-.5,2.9c0,0,0,.3,0,.4,0,.1,0,.2.1.2s.3,0,.4-.1c0,0,.1,0,.1,0v.3ZM124.9,23.4c-.2-.1-.5-.3-1-.3s-.8.2-1.1.5c-.5.5-.7,1.3-.7,1.9s.3,1.1.9,1.1,1.2-.5,1.4-.9l.4-2.3Z"/>
    <path class="st8" d="M129.5,22.7v.3c0,0-.1.1-.2.1h-1.1l-.4,2.4c0,.3,0,.5,0,.7,0,.4.2.5.6.5s.4,0,.6-.1c0,0,.1,0,.1,0v.3c0,.1,0,.1-.1.2-.3.1-.6.2-.9.2-.6,0-1.1-.3-1.1-1s0-.5.1-.8l.4-2.4h-.5c-.1,0-.2,0-.1-.1v-.3c0,0,.1-.1.2-.1h.5l.2-1.1c0-.1,0-.2.2-.2h.5c0,0,0,0,0,0,.1,0,0,.1,0,.2l-.2,1.2h1.1c0,0,.1,0,.1.1Z"/>
    <path class="st8" d="M131.4,22.7l-.8,4.3c0,.1,0,.2-.2.2h-.5c-.1,0-.1-.1-.1-.2l.7-4.3c0-.1,0-.2.2-.2h.5c.1,0,.1,0,.1.2ZM131.2,21.8c-.2,0-.4-.1-.4-.4s.3-.5.6-.5.4.1.4.4-.3.5-.6.5Z"/>
    <path class="st8" d="M133.9,27.3c-1.2,0-1.7-.8-1.7-1.8,0-1.5,1-3,2.7-3s1.8.8,1.8,1.8c0,1.6-1,3.1-2.7,3.1ZM134.7,23.1c-1.1,0-1.7,1.3-1.7,2.4s.2,1.3,1,1.3c1.2,0,1.8-1.3,1.8-2.4s-.2-1.3-1-1.3Z"/>
    <path class="st8" d="M141.5,24.3l-.5,2.8c0,.1,0,.2-.2.2h-.5c-.1,0-.1-.1-.1-.2l.5-2.7c0-.2,0-.3,0-.5,0-.5-.2-.7-.8-.7s-1,.2-1.4.6l-.6,3.3c0,.1,0,.2-.2.2h-.5c-.1,0-.1,0-.1-.2l.8-4.3c0-.1,0-.2.2-.2h.4c.1,0,.2,0,.1.2v.3c.4-.4,1-.6,1.6-.6s.8.1,1,.3c.2.2.3.5.3.9s0,.4,0,.6Z"/>
    <path class="st8" d="M147.9,22.9v.3c-.2,0-.2,0-.2,0s0,0-.1,0c-.3-.1-.6-.2-.9-.2-.4,0-.9.2-.9.7,0,.8,1.9.6,1.9,1.9s-.8,1.6-1.9,1.6-1-.1-1.3-.3c0,0,0,0,0,0s0,0,0-.1v-.3c.2,0,.2,0,.2,0s0,0,.1,0c.3.1.7.3,1,.3.5,0,1.1-.3,1.1-.8,0-.9-2-.7-2-1.9s.9-1.5,1.8-1.5.8,0,1.2.3c0,0,0,.1,0,.2Z"/>
    <path class="st8" d="M152.4,24.8c0,.2,0,.2-.3.2h-2.9c0,0,0,.3,0,.4,0,.7.4,1.3,1.2,1.3s.8,0,1.2-.2c0,0,.2,0,.2,0v.3c0,.1,0,.2-.1.2-.5.2-.9.3-1.4.3-1.2,0-1.9-.7-1.9-1.9s.3-1.6.8-2.2c.5-.5,1.1-.8,1.8-.8s1.5.6,1.5,1.6,0,.5,0,.8ZM150.9,23.1c-.8,0-1.4.7-1.6,1.4h2.4c0-.2,0-.3,0-.5,0-.5-.2-.9-.8-.9Z"/>
    <path class="st8" d="M156.1,22.5c0,0,0,0,0,.1l-.2.5c0,0,0,0-.1,0s-.2,0-.3,0c-.4,0-.8.3-1.1.6l-.6,3.3c0,.1,0,.2-.2.2h-.5c-.2,0-.1-.1-.1-.2l.8-4.3c0-.1.1-.2.2-.2h.4c.1,0,.2,0,.1.1v.4c.3-.4.7-.7,1.2-.7s.1,0,.2,0Z"/>
    <path class="st8" d="M160.2,22.8l-2.3,4.3c0,.1-.1.1-.2.1h-.4c-.1,0-.2,0-.2-.1l-.8-4.4c0-.1,0-.2.1-.2h.6c.1,0,.2,0,.2.1l.4,2.6c0,.3.1.7.1,1h0c.1-.3.3-.7.4-.9l1.3-2.6c0-.1.1-.2.2-.2h.5c.2,0,.1.1,0,.2Z"/>
    <path class="st8" d="M162,22.7l-.8,4.3c0,.1,0,.2-.2.2h-.5c-.1,0-.1-.1-.1-.2l.7-4.3c0-.1,0-.2.2-.2h.5c.1,0,.1,0,.1.2ZM161.8,21.8c-.2,0-.4-.1-.4-.4s.3-.5.6-.5.4.1.4.4-.3.5-.6.5Z"/>
    <path class="st8" d="M166.7,22.9l-.2.3c0,0,0,0,0,0s0,0-.1,0c-.3-.1-.5-.2-.8-.2-.5,0-.8.2-1.2.5-.5.5-.8,1.2-.8,1.9s.3,1.2,1.2,1.2.7,0,1-.2c0,0,0,0,.1,0,0,0,0,0,0,0v.3c0,0,0,0,0,0,0,0,0,0-.2.2-.4.2-.9.3-1.3.3-1.2,0-1.8-.7-1.8-1.8s.4-1.8,1-2.4c.5-.4,1.1-.7,1.7-.7s.8,0,1.1.3c0,0,0,0,0,0s0,0,0,0Z"/>
    <path class="st8" d="M170.9,24.8c0,.2,0,.2-.3.2h-2.9c0,0,0,.3,0,.4,0,.7.4,1.3,1.2,1.3s.8,0,1.2-.2c0,0,.2,0,.2,0v.3c0,.1,0,.2-.1.2-.5.2-.9.3-1.4.3-1.2,0-1.9-.7-1.9-1.9s.3-1.6.8-2.2c.5-.5,1.1-.8,1.8-.8s1.5.6,1.5,1.6,0,.5,0,.8ZM169.4,23.1c-.8,0-1.4.7-1.6,1.4h2.4c0-.2,0-.3,0-.5,0-.5-.2-.9-.8-.9Z"/>
    <path class="st8" d="M174.9,22.9v.3c-.2,0-.2,0-.2,0s0,0-.1,0c-.3-.1-.6-.2-.9-.2-.4,0-.9.2-.9.7,0,.8,1.9.6,1.9,1.9s-.8,1.6-1.9,1.6-1-.1-1.3-.3c0,0,0,0,0,0s0,0,0-.1v-.3c.2,0,.2,0,.2,0s0,0,.1,0c.3.1.7.3,1,.3.5,0,1.1-.3,1.1-.8,0-.9-2-.7-2-1.9s.9-1.5,1.8-1.5.8,0,1.2.3c0,0,0,.1,0,.2Z"/>
  </g>
</svg>